#N canvas 231 23 915 591 10;
#X obj 16 216 route 0 1 2 3 4 5 6 7 8 9 10 11 12 13 14 15;
#X floatatom 5 70 6 0 0 2 A_(time) - no2-fmsyn01-amp_a-s;
#X floatatom 57 70 6 0 0 2 D_(time) - no2-fmsyn01-amp_d-s;
#X floatatom 156 70 6 0 0 2 R_(time) - no2-fmsyn01-amp_r-s;
#X floatatom 110 70 6 0 1 2 S_(vol) - no2-fmsyn01-amp_s-s;
#N canvas 401 128 397 445 delay 0;
#X floatatom 149 55 5 0 1000 3 time - -;
#X obj 120 364 *~ 0.5;
#X floatatom 183 55 5 0 100 3 feedback - -;
#X obj 104 196 +~;
#X obj 18 365 outlet~;
#X obj 18 11 inlet~;
#X obj 132 11 inlet;
#X obj 170 11 inlet;
#X obj 210 11 inlet;
#X floatatom 184 193 5 0 0 0 - - -;
#X obj 184 171 / 100;
#X obj 119 101 expr 1-$f1;
#X obj 18 179 *~;
#X obj 61 179 *~;
#X obj 119 149 line~;
#X obj 33 149 line~;
#X obj 32 84 / 100;
#X obj 33 127 pack 0 500;
#X obj 119 127 pack 0 500;
#X obj 132 56 vsl 15 25 100 0 0 0 empty empty empty 0 -7 0 9 -262144
-1 -1 0 1;
#X msg 292 38 500;
#X msg 325 38 50;
#X msg 262 37 100;
#X obj 104 221 delwrite~ no2_fm-synth-delay 1000;
#X obj 104 288 delread~ no2_fm-synth-delay 500;
#X obj 262 11 loadbang;
#X connect 0 0 24 0;
#X connect 1 0 3 1;
#X connect 2 0 10 0;
#X connect 3 0 23 0;
#X connect 5 0 12 0;
#X connect 5 0 13 0;
#X connect 6 0 19 0;
#X connect 7 0 0 0;
#X connect 8 0 2 0;
#X connect 9 0 1 1;
#X connect 10 0 9 0;
#X connect 11 0 18 0;
#X connect 12 0 4 0;
#X connect 13 0 3 0;
#X connect 14 0 13 1;
#X connect 15 0 12 1;
#X connect 16 0 11 0;
#X connect 16 0 17 0;
#X connect 17 0 15 0;
#X connect 18 0 14 0;
#X connect 19 0 16 0;
#X connect 20 0 0 0;
#X connect 21 0 2 0;
#X connect 22 0 19 0;
#X connect 24 0 1 0;
#X connect 24 0 4 0;
#X connect 25 0 20 0;
#X connect 25 0 21 0;
#X connect 25 0 22 0;
#X coords 0 -1 1 1 100 45 1 130 40;
#X restore 125 92 pd delay;
#N canvas 759 251 398 262 adsr-random 0;
#X obj 27 216 outlet;
#X obj 107 216 outlet;
#X obj 187 216 outlet;
#X obj 267 216 outlet;
#X obj 267 129 random 600;
#X obj 187 129 random 100;
#X obj 187 172 / 100;
#X obj 27 15 inlet;
#X obj 27 129 random 100;
#X obj 107 129 random 200;
#X obj 164 40 t b b;
#X obj 191 92 unpack 0 0 0 0;
#X obj 267 172 + 1;
#X obj 164 17 inlet;
#X msg 191 66 1000 2000 100 500;
#X connect 4 0 12 0;
#X connect 5 0 6 0;
#X connect 6 0 2 0;
#X connect 7 0 5 0;
#X connect 7 0 4 0;
#X connect 7 0 8 0;
#X connect 7 0 9 0;
#X connect 8 0 0 0;
#X connect 9 0 1 0;
#X connect 10 0 8 0;
#X connect 10 0 9 0;
#X connect 10 0 5 0;
#X connect 10 0 4 0;
#X connect 10 1 14 0;
#X connect 11 0 8 1;
#X connect 11 1 9 1;
#X connect 11 2 5 1;
#X connect 11 3 4 1;
#X connect 12 0 3 0;
#X connect 13 0 10 0;
#X connect 14 0 11 0;
#X restore 312 53 pd adsr-random;
#X obj 209 71 bng 15 250 50 0 empty empty empty 17 7 0 10 -262144 -1
-1;
#X obj 16 268 ../../core/s_fm-synth-core-001;
#X obj 5 16 hsl 64 15 0 1 0 0 no2-fmsyn01-osc-s empty osc -2 -8 0 12
-262144 -1 -1 0 1;
#X floatatom 76 37 5 0 0 1 Mod_vol - no2-fmsyn01-mod_vol-s;
#X floatatom 76 16 5 0 0 1 Modulator - no2-fmsyn01-modulator-s;
#X floatatom 171 16 5 0 0 1 LFO - no2-fmsyn01-lfo-s;
#N canvas 146 23 731 309 synth-ctl-unit 0;
#X obj 21 35 r no2-fmsyn01-osc-s;
#X obj 113 80 r no2-fmsyn01-mod_vol-s;
#X obj 67 57 r no2-fmsyn01-modulator-s;
#X obj 159 104 r no2-fmsyn01-lfo-s;
#X obj 206 125 r no2-fmsyn01-lpfilter-s;
#X obj 21 234 outlet;
#X obj 67 234 outlet;
#X obj 113 234 outlet;
#X obj 159 234 outlet;
#X obj 385 234 outlet;
#X obj 431 234 outlet;
#X obj 477 234 outlet;
#X obj 523 234 outlet;
#X obj 206 234 outlet;
#X obj 385 35 r no2-fmsyn01-amp_a-s;
#X obj 431 57 r no2-fmsyn01-amp_d-s;
#X obj 477 80 r no2-fmsyn01-amp_s-s;
#X obj 523 104 r no2-fmsyn01-amp_r-s;
#X connect 0 0 5 0;
#X connect 1 0 7 0;
#X connect 2 0 6 0;
#X connect 3 0 8 0;
#X connect 4 0 13 0;
#X connect 14 0 9 0;
#X connect 15 0 10 0;
#X connect 16 0 11 0;
#X connect 17 0 12 0;
#X restore 94 246 pd synth-ctl-unit;
#X floatatom 171 38 6 0 0 1 LPF - no2-fmsyn01-lpfilter-s;
#X text 177 0 FM Synth;
#X obj 31 318 ../../core/s_fm-synth-core-001;
#N canvas 146 23 731 309 synth-ctl-unit 0;
#X obj 21 35 r no2-fmsyn01-osc-s;
#X obj 113 80 r no2-fmsyn01-mod_vol-s;
#X obj 67 57 r no2-fmsyn01-modulator-s;
#X obj 159 104 r no2-fmsyn01-lfo-s;
#X obj 206 125 r no2-fmsyn01-lpfilter-s;
#X obj 21 234 outlet;
#X obj 67 234 outlet;
#X obj 113 234 outlet;
#X obj 159 234 outlet;
#X obj 385 234 outlet;
#X obj 431 234 outlet;
#X obj 477 234 outlet;
#X obj 523 234 outlet;
#X obj 206 234 outlet;
#X obj 385 35 r no2-fmsyn01-amp_a-s;
#X obj 431 57 r no2-fmsyn01-amp_d-s;
#X obj 477 80 r no2-fmsyn01-amp_s-s;
#X obj 523 104 r no2-fmsyn01-amp_r-s;
#X connect 0 0 5 0;
#X connect 1 0 7 0;
#X connect 2 0 6 0;
#X connect 3 0 8 0;
#X connect 4 0 13 0;
#X connect 14 0 9 0;
#X connect 15 0 10 0;
#X connect 16 0 11 0;
#X connect 17 0 12 0;
#X restore 109 296 pd synth-ctl-unit;
#X obj 47 368 ../../core/s_fm-synth-core-001;
#N canvas 146 23 731 309 synth-ctl-unit 0;
#X obj 21 35 r no2-fmsyn01-osc-s;
#X obj 113 80 r no2-fmsyn01-mod_vol-s;
#X obj 67 57 r no2-fmsyn01-modulator-s;
#X obj 159 104 r no2-fmsyn01-lfo-s;
#X obj 206 125 r no2-fmsyn01-lpfilter-s;
#X obj 21 234 outlet;
#X obj 67 234 outlet;
#X obj 113 234 outlet;
#X obj 159 234 outlet;
#X obj 385 234 outlet;
#X obj 431 234 outlet;
#X obj 477 234 outlet;
#X obj 523 234 outlet;
#X obj 206 234 outlet;
#X obj 385 35 r no2-fmsyn01-amp_a-s;
#X obj 431 57 r no2-fmsyn01-amp_d-s;
#X obj 477 80 r no2-fmsyn01-amp_s-s;
#X obj 523 104 r no2-fmsyn01-amp_r-s;
#X connect 0 0 5 0;
#X connect 1 0 7 0;
#X connect 2 0 6 0;
#X connect 3 0 8 0;
#X connect 4 0 13 0;
#X connect 14 0 9 0;
#X connect 15 0 10 0;
#X connect 16 0 11 0;
#X connect 17 0 12 0;
#X restore 125 346 pd synth-ctl-unit;
#X obj 63 418 ../../core/s_fm-synth-core-001;
#N canvas 146 23 731 309 synth-ctl-unit 0;
#X obj 21 35 r no2-fmsyn01-osc-s;
#X obj 113 80 r no2-fmsyn01-mod_vol-s;
#X obj 67 57 r no2-fmsyn01-modulator-s;
#X obj 159 104 r no2-fmsyn01-lfo-s;
#X obj 206 125 r no2-fmsyn01-lpfilter-s;
#X obj 21 234 outlet;
#X obj 67 234 outlet;
#X obj 113 234 outlet;
#X obj 159 234 outlet;
#X obj 385 234 outlet;
#X obj 431 234 outlet;
#X obj 477 234 outlet;
#X obj 523 234 outlet;
#X obj 206 234 outlet;
#X obj 385 35 r no2-fmsyn01-amp_a-s;
#X obj 431 57 r no2-fmsyn01-amp_d-s;
#X obj 477 80 r no2-fmsyn01-amp_s-s;
#X obj 523 104 r no2-fmsyn01-amp_r-s;
#X connect 0 0 5 0;
#X connect 1 0 7 0;
#X connect 2 0 6 0;
#X connect 3 0 8 0;
#X connect 4 0 13 0;
#X connect 14 0 9 0;
#X connect 15 0 10 0;
#X connect 16 0 11 0;
#X connect 17 0 12 0;
#X restore 141 396 pd synth-ctl-unit;
#X obj 226 268 ../../core/s_fm-synth-core-001;
#N canvas 146 23 731 309 synth-ctl-unit 0;
#X obj 21 35 r no2-fmsyn01-osc-s;
#X obj 113 80 r no2-fmsyn01-mod_vol-s;
#X obj 67 57 r no2-fmsyn01-modulator-s;
#X obj 159 104 r no2-fmsyn01-lfo-s;
#X obj 206 125 r no2-fmsyn01-lpfilter-s;
#X obj 21 234 outlet;
#X obj 67 234 outlet;
#X obj 113 234 outlet;
#X obj 159 234 outlet;
#X obj 385 234 outlet;
#X obj 431 234 outlet;
#X obj 477 234 outlet;
#X obj 523 234 outlet;
#X obj 206 234 outlet;
#X obj 385 35 r no2-fmsyn01-amp_a-s;
#X obj 431 57 r no2-fmsyn01-amp_d-s;
#X obj 477 80 r no2-fmsyn01-amp_s-s;
#X obj 523 104 r no2-fmsyn01-amp_r-s;
#X connect 0 0 5 0;
#X connect 1 0 7 0;
#X connect 2 0 6 0;
#X connect 3 0 8 0;
#X connect 4 0 13 0;
#X connect 14 0 9 0;
#X connect 15 0 10 0;
#X connect 16 0 11 0;
#X connect 17 0 12 0;
#X restore 304 246 pd synth-ctl-unit;
#X obj 241 318 ../../core/s_fm-synth-core-001;
#N canvas 146 23 731 309 synth-ctl-unit 0;
#X obj 21 35 r no2-fmsyn01-osc-s;
#X obj 113 80 r no2-fmsyn01-mod_vol-s;
#X obj 67 57 r no2-fmsyn01-modulator-s;
#X obj 159 104 r no2-fmsyn01-lfo-s;
#X obj 206 125 r no2-fmsyn01-lpfilter-s;
#X obj 21 234 outlet;
#X obj 67 234 outlet;
#X obj 113 234 outlet;
#X obj 159 234 outlet;
#X obj 385 234 outlet;
#X obj 431 234 outlet;
#X obj 477 234 outlet;
#X obj 523 234 outlet;
#X obj 206 234 outlet;
#X obj 385 35 r no2-fmsyn01-amp_a-s;
#X obj 431 57 r no2-fmsyn01-amp_d-s;
#X obj 477 80 r no2-fmsyn01-amp_s-s;
#X obj 523 104 r no2-fmsyn01-amp_r-s;
#X connect 0 0 5 0;
#X connect 1 0 7 0;
#X connect 2 0 6 0;
#X connect 3 0 8 0;
#X connect 4 0 13 0;
#X connect 14 0 9 0;
#X connect 15 0 10 0;
#X connect 16 0 11 0;
#X connect 17 0 12 0;
#X restore 319 296 pd synth-ctl-unit;
#X obj 257 368 ../../core/s_fm-synth-core-001;
#N canvas 146 23 731 309 synth-ctl-unit 0;
#X obj 21 35 r no2-fmsyn01-osc-s;
#X obj 113 80 r no2-fmsyn01-mod_vol-s;
#X obj 67 57 r no2-fmsyn01-modulator-s;
#X obj 159 104 r no2-fmsyn01-lfo-s;
#X obj 206 125 r no2-fmsyn01-lpfilter-s;
#X obj 21 234 outlet;
#X obj 67 234 outlet;
#X obj 113 234 outlet;
#X obj 159 234 outlet;
#X obj 385 234 outlet;
#X obj 431 234 outlet;
#X obj 477 234 outlet;
#X obj 523 234 outlet;
#X obj 206 234 outlet;
#X obj 385 35 r no2-fmsyn01-amp_a-s;
#X obj 431 57 r no2-fmsyn01-amp_d-s;
#X obj 477 80 r no2-fmsyn01-amp_s-s;
#X obj 523 104 r no2-fmsyn01-amp_r-s;
#X connect 0 0 5 0;
#X connect 1 0 7 0;
#X connect 2 0 6 0;
#X connect 3 0 8 0;
#X connect 4 0 13 0;
#X connect 14 0 9 0;
#X connect 15 0 10 0;
#X connect 16 0 11 0;
#X connect 17 0 12 0;
#X restore 335 346 pd synth-ctl-unit;
#X obj 273 418 ../../core/s_fm-synth-core-001;
#N canvas 146 23 731 309 synth-ctl-unit 0;
#X obj 21 35 r no2-fmsyn01-osc-s;
#X obj 113 80 r no2-fmsyn01-mod_vol-s;
#X obj 67 57 r no2-fmsyn01-modulator-s;
#X obj 159 104 r no2-fmsyn01-lfo-s;
#X obj 206 125 r no2-fmsyn01-lpfilter-s;
#X obj 21 234 outlet;
#X obj 67 234 outlet;
#X obj 113 234 outlet;
#X obj 159 234 outlet;
#X obj 385 234 outlet;
#X obj 431 234 outlet;
#X obj 477 234 outlet;
#X obj 523 234 outlet;
#X obj 206 234 outlet;
#X obj 385 35 r no2-fmsyn01-amp_a-s;
#X obj 431 57 r no2-fmsyn01-amp_d-s;
#X obj 477 80 r no2-fmsyn01-amp_s-s;
#X obj 523 104 r no2-fmsyn01-amp_r-s;
#X connect 0 0 5 0;
#X connect 1 0 7 0;
#X connect 2 0 6 0;
#X connect 3 0 8 0;
#X connect 4 0 13 0;
#X connect 14 0 9 0;
#X connect 15 0 10 0;
#X connect 16 0 11 0;
#X connect 17 0 12 0;
#X restore 351 396 pd synth-ctl-unit;
#X obj 436 268 ../../core/s_fm-synth-core-001;
#N canvas 146 23 731 309 synth-ctl-unit 0;
#X obj 21 35 r no2-fmsyn01-osc-s;
#X obj 113 80 r no2-fmsyn01-mod_vol-s;
#X obj 67 57 r no2-fmsyn01-modulator-s;
#X obj 159 104 r no2-fmsyn01-lfo-s;
#X obj 206 125 r no2-fmsyn01-lpfilter-s;
#X obj 21 234 outlet;
#X obj 67 234 outlet;
#X obj 113 234 outlet;
#X obj 159 234 outlet;
#X obj 385 234 outlet;
#X obj 431 234 outlet;
#X obj 477 234 outlet;
#X obj 523 234 outlet;
#X obj 206 234 outlet;
#X obj 385 35 r no2-fmsyn01-amp_a-s;
#X obj 431 57 r no2-fmsyn01-amp_d-s;
#X obj 477 80 r no2-fmsyn01-amp_s-s;
#X obj 523 104 r no2-fmsyn01-amp_r-s;
#X connect 0 0 5 0;
#X connect 1 0 7 0;
#X connect 2 0 6 0;
#X connect 3 0 8 0;
#X connect 4 0 13 0;
#X connect 14 0 9 0;
#X connect 15 0 10 0;
#X connect 16 0 11 0;
#X connect 17 0 12 0;
#X restore 514 246 pd synth-ctl-unit;
#X obj 451 318 ../../core/s_fm-synth-core-001;
#N canvas 146 23 731 309 synth-ctl-unit 0;
#X obj 21 35 r no2-fmsyn01-osc-s;
#X obj 113 80 r no2-fmsyn01-mod_vol-s;
#X obj 67 57 r no2-fmsyn01-modulator-s;
#X obj 159 104 r no2-fmsyn01-lfo-s;
#X obj 206 125 r no2-fmsyn01-lpfilter-s;
#X obj 21 234 outlet;
#X obj 67 234 outlet;
#X obj 113 234 outlet;
#X obj 159 234 outlet;
#X obj 385 234 outlet;
#X obj 431 234 outlet;
#X obj 477 234 outlet;
#X obj 523 234 outlet;
#X obj 206 234 outlet;
#X obj 385 35 r no2-fmsyn01-amp_a-s;
#X obj 431 57 r no2-fmsyn01-amp_d-s;
#X obj 477 80 r no2-fmsyn01-amp_s-s;
#X obj 523 104 r no2-fmsyn01-amp_r-s;
#X connect 0 0 5 0;
#X connect 1 0 7 0;
#X connect 2 0 6 0;
#X connect 3 0 8 0;
#X connect 4 0 13 0;
#X connect 14 0 9 0;
#X connect 15 0 10 0;
#X connect 16 0 11 0;
#X connect 17 0 12 0;
#X restore 529 296 pd synth-ctl-unit;
#X obj 467 368 ../../core/s_fm-synth-core-001;
#N canvas 146 23 731 309 synth-ctl-unit 0;
#X obj 21 35 r no2-fmsyn01-osc-s;
#X obj 113 80 r no2-fmsyn01-mod_vol-s;
#X obj 67 57 r no2-fmsyn01-modulator-s;
#X obj 159 104 r no2-fmsyn01-lfo-s;
#X obj 206 125 r no2-fmsyn01-lpfilter-s;
#X obj 21 234 outlet;
#X obj 67 234 outlet;
#X obj 113 234 outlet;
#X obj 159 234 outlet;
#X obj 385 234 outlet;
#X obj 431 234 outlet;
#X obj 477 234 outlet;
#X obj 523 234 outlet;
#X obj 206 234 outlet;
#X obj 385 35 r no2-fmsyn01-amp_a-s;
#X obj 431 57 r no2-fmsyn01-amp_d-s;
#X obj 477 80 r no2-fmsyn01-amp_s-s;
#X obj 523 104 r no2-fmsyn01-amp_r-s;
#X connect 0 0 5 0;
#X connect 1 0 7 0;
#X connect 2 0 6 0;
#X connect 3 0 8 0;
#X connect 4 0 13 0;
#X connect 14 0 9 0;
#X connect 15 0 10 0;
#X connect 16 0 11 0;
#X connect 17 0 12 0;
#X restore 545 346 pd synth-ctl-unit;
#X obj 483 418 ../../core/s_fm-synth-core-001;
#N canvas 146 23 731 309 synth-ctl-unit 0;
#X obj 21 35 r no2-fmsyn01-osc-s;
#X obj 113 80 r no2-fmsyn01-mod_vol-s;
#X obj 67 57 r no2-fmsyn01-modulator-s;
#X obj 159 104 r no2-fmsyn01-lfo-s;
#X obj 206 125 r no2-fmsyn01-lpfilter-s;
#X obj 21 234 outlet;
#X obj 67 234 outlet;
#X obj 113 234 outlet;
#X obj 159 234 outlet;
#X obj 385 234 outlet;
#X obj 431 234 outlet;
#X obj 477 234 outlet;
#X obj 523 234 outlet;
#X obj 206 234 outlet;
#X obj 385 35 r no2-fmsyn01-amp_a-s;
#X obj 431 57 r no2-fmsyn01-amp_d-s;
#X obj 477 80 r no2-fmsyn01-amp_s-s;
#X obj 523 104 r no2-fmsyn01-amp_r-s;
#X connect 0 0 5 0;
#X connect 1 0 7 0;
#X connect 2 0 6 0;
#X connect 3 0 8 0;
#X connect 4 0 13 0;
#X connect 14 0 9 0;
#X connect 15 0 10 0;
#X connect 16 0 11 0;
#X connect 17 0 12 0;
#X restore 561 396 pd synth-ctl-unit;
#X obj 646 268 ../../core/s_fm-synth-core-001;
#N canvas 146 23 731 309 synth-ctl-unit 0;
#X obj 21 35 r no2-fmsyn01-osc-s;
#X obj 113 80 r no2-fmsyn01-mod_vol-s;
#X obj 67 57 r no2-fmsyn01-modulator-s;
#X obj 159 104 r no2-fmsyn01-lfo-s;
#X obj 206 125 r no2-fmsyn01-lpfilter-s;
#X obj 21 234 outlet;
#X obj 67 234 outlet;
#X obj 113 234 outlet;
#X obj 159 234 outlet;
#X obj 385 234 outlet;
#X obj 431 234 outlet;
#X obj 477 234 outlet;
#X obj 523 234 outlet;
#X obj 206 234 outlet;
#X obj 385 35 r no2-fmsyn01-amp_a-s;
#X obj 431 57 r no2-fmsyn01-amp_d-s;
#X obj 477 80 r no2-fmsyn01-amp_s-s;
#X obj 523 104 r no2-fmsyn01-amp_r-s;
#X connect 0 0 5 0;
#X connect 1 0 7 0;
#X connect 2 0 6 0;
#X connect 3 0 8 0;
#X connect 4 0 13 0;
#X connect 14 0 9 0;
#X connect 15 0 10 0;
#X connect 16 0 11 0;
#X connect 17 0 12 0;
#X restore 724 246 pd synth-ctl-unit;
#X obj 661 318 ../../core/s_fm-synth-core-001;
#N canvas 146 23 731 309 synth-ctl-unit 0;
#X obj 21 35 r no2-fmsyn01-osc-s;
#X obj 113 80 r no2-fmsyn01-mod_vol-s;
#X obj 67 57 r no2-fmsyn01-modulator-s;
#X obj 159 104 r no2-fmsyn01-lfo-s;
#X obj 206 125 r no2-fmsyn01-lpfilter-s;
#X obj 21 234 outlet;
#X obj 67 234 outlet;
#X obj 113 234 outlet;
#X obj 159 234 outlet;
#X obj 385 234 outlet;
#X obj 431 234 outlet;
#X obj 477 234 outlet;
#X obj 523 234 outlet;
#X obj 206 234 outlet;
#X obj 385 35 r no2-fmsyn01-amp_a-s;
#X obj 431 57 r no2-fmsyn01-amp_d-s;
#X obj 477 80 r no2-fmsyn01-amp_s-s;
#X obj 523 104 r no2-fmsyn01-amp_r-s;
#X connect 0 0 5 0;
#X connect 1 0 7 0;
#X connect 2 0 6 0;
#X connect 3 0 8 0;
#X connect 4 0 13 0;
#X connect 14 0 9 0;
#X connect 15 0 10 0;
#X connect 16 0 11 0;
#X connect 17 0 12 0;
#X restore 739 296 pd synth-ctl-unit;
#X obj 677 368 ../../core/s_fm-synth-core-001;
#N canvas 146 23 731 309 synth-ctl-unit 0;
#X obj 21 35 r no2-fmsyn01-osc-s;
#X obj 113 80 r no2-fmsyn01-mod_vol-s;
#X obj 67 57 r no2-fmsyn01-modulator-s;
#X obj 159 104 r no2-fmsyn01-lfo-s;
#X obj 206 125 r no2-fmsyn01-lpfilter-s;
#X obj 21 234 outlet;
#X obj 67 234 outlet;
#X obj 113 234 outlet;
#X obj 159 234 outlet;
#X obj 385 234 outlet;
#X obj 431 234 outlet;
#X obj 477 234 outlet;
#X obj 523 234 outlet;
#X obj 206 234 outlet;
#X obj 385 35 r no2-fmsyn01-amp_a-s;
#X obj 431 57 r no2-fmsyn01-amp_d-s;
#X obj 477 80 r no2-fmsyn01-amp_s-s;
#X obj 523 104 r no2-fmsyn01-amp_r-s;
#X connect 0 0 5 0;
#X connect 1 0 7 0;
#X connect 2 0 6 0;
#X connect 3 0 8 0;
#X connect 4 0 13 0;
#X connect 14 0 9 0;
#X connect 15 0 10 0;
#X connect 16 0 11 0;
#X connect 17 0 12 0;
#X restore 755 346 pd synth-ctl-unit;
#X obj 693 418 ../../core/s_fm-synth-core-001;
#N canvas 146 23 731 309 synth-ctl-unit 0;
#X obj 21 35 r no2-fmsyn01-osc-s;
#X obj 113 80 r no2-fmsyn01-mod_vol-s;
#X obj 67 57 r no2-fmsyn01-modulator-s;
#X obj 159 104 r no2-fmsyn01-lfo-s;
#X obj 206 125 r no2-fmsyn01-lpfilter-s;
#X obj 21 234 outlet;
#X obj 67 234 outlet;
#X obj 113 234 outlet;
#X obj 159 234 outlet;
#X obj 385 234 outlet;
#X obj 431 234 outlet;
#X obj 477 234 outlet;
#X obj 523 234 outlet;
#X obj 206 234 outlet;
#X obj 385 35 r no2-fmsyn01-amp_a-s;
#X obj 431 57 r no2-fmsyn01-amp_d-s;
#X obj 477 80 r no2-fmsyn01-amp_s-s;
#X obj 523 104 r no2-fmsyn01-amp_r-s;
#X connect 0 0 5 0;
#X connect 1 0 7 0;
#X connect 2 0 6 0;
#X connect 3 0 8 0;
#X connect 4 0 13 0;
#X connect 14 0 9 0;
#X connect 15 0 10 0;
#X connect 16 0 11 0;
#X connect 17 0 12 0;
#X restore 771 396 pd synth-ctl-unit;
#X obj 16 196 r no2_fm-synth-in;
#X obj 125 146 s~ no2_fm-synth-out;
#X obj 16 502 throw~ no2_fm-synth;
#X obj 5 -28 catch~ no2_fm-synth;
#X obj 481 -27 loadbang;
#X obj 312 75 r tempo_m/s-16;
#N canvas 401 128 397 445 bp-filter 0;
#X obj 18 365 outlet~;
#X obj 18 11 inlet~;
#X obj 132 11 inlet;
#X obj 170 11 inlet;
#X obj 210 11 inlet;
#X obj 33 101 expr 1-$f1;
#X obj 18 179 *~;
#X obj 73 179 *~;
#X obj 119 149 line~;
#X obj 33 149 line~;
#X obj 33 127 pack 0 500;
#X obj 119 127 pack 0 500;
#X obj 104 248 line;
#X msg 104 227 \$1 100;
#X obj 155 269 line;
#X floatatom 151 55 5 200 25000 3 Frq - -;
#X floatatom 187 55 5 1 30 3 Q - -;
#X obj 73 286 bp~ 2000 30;
#X msg 155 248 \$1 800;
#X obj 132 55 tgl 15 0 empty empty empty 17 7 0 10 -262144 -1 -1 0
1;
#X msg 262 37 0;
#X msg 292 38 10000;
#X msg 334 38 10;
#X obj 262 11 loadbang;
#X connect 1 0 6 0;
#X connect 1 0 7 0;
#X connect 2 0 19 0;
#X connect 3 0 15 0;
#X connect 4 0 16 0;
#X connect 5 0 10 0;
#X connect 6 0 0 0;
#X connect 7 0 17 0;
#X connect 8 0 7 1;
#X connect 9 0 6 1;
#X connect 10 0 9 0;
#X connect 11 0 8 0;
#X connect 12 0 17 1;
#X connect 13 0 12 0;
#X connect 14 0 17 2;
#X connect 15 0 13 0;
#X connect 16 0 18 0;
#X connect 17 0 0 0;
#X connect 18 0 14 0;
#X connect 19 0 5 0;
#X connect 19 0 11 0;
#X connect 20 0 19 0;
#X connect 21 0 15 0;
#X connect 22 0 16 0;
#X connect 23 0 21 0;
#X connect 23 0 22 0;
#X connect 23 0 20 0;
#X coords 0 -1 1 1 100 45 1 130 40;
#X restore 5 92 pd bp-filter;
#X msg 373 -1 0;
#X msg 253 -1 0.01;
#X msg 481 28 5;
#X msg 527 28 1;
#X msg 570 28 0.1;
#X msg 608 28 50;
#X msg 287 -1 1200;
#X msg 333 -1 8000;
#X msg 411 -1 12000;
#X connect 0 0 8 0;
#X connect 0 1 16 0;
#X connect 0 2 18 0;
#X connect 0 3 20 0;
#X connect 0 4 22 0;
#X connect 0 5 24 0;
#X connect 0 6 26 0;
#X connect 0 7 28 0;
#X connect 0 8 30 0;
#X connect 0 9 32 0;
#X connect 0 10 34 0;
#X connect 0 11 36 0;
#X connect 0 12 38 0;
#X connect 0 13 40 0;
#X connect 0 14 42 0;
#X connect 0 15 44 0;
#X connect 5 0 47 0;
#X connect 6 0 1 0;
#X connect 6 1 2 0;
#X connect 6 2 4 0;
#X connect 6 3 3 0;
#X connect 7 0 6 0;
#X connect 8 0 48 0;
#X connect 13 0 8 1;
#X connect 13 1 8 2;
#X connect 13 2 8 3;
#X connect 13 3 8 4;
#X connect 13 4 8 5;
#X connect 13 5 8 6;
#X connect 13 6 8 7;
#X connect 13 7 8 8;
#X connect 13 8 8 9;
#X connect 16 0 48 0;
#X connect 17 0 16 1;
#X connect 17 1 16 2;
#X connect 17 2 16 3;
#X connect 17 3 16 4;
#X connect 17 4 16 5;
#X connect 17 5 16 6;
#X connect 17 6 16 7;
#X connect 17 7 16 8;
#X connect 17 8 16 9;
#X connect 18 0 48 0;
#X connect 19 0 18 1;
#X connect 19 1 18 2;
#X connect 19 2 18 3;
#X connect 19 3 18 4;
#X connect 19 4 18 5;
#X connect 19 5 18 6;
#X connect 19 6 18 7;
#X connect 19 7 18 8;
#X connect 19 8 18 9;
#X connect 20 0 48 0;
#X connect 21 0 20 1;
#X connect 21 1 20 2;
#X connect 21 2 20 3;
#X connect 21 3 20 4;
#X connect 21 4 20 5;
#X connect 21 5 20 6;
#X connect 21 6 20 7;
#X connect 21 7 20 8;
#X connect 21 8 20 9;
#X connect 22 0 48 0;
#X connect 23 0 22 1;
#X connect 23 1 22 2;
#X connect 23 2 22 3;
#X connect 23 3 22 4;
#X connect 23 4 22 5;
#X connect 23 5 22 6;
#X connect 23 6 22 7;
#X connect 23 7 22 8;
#X connect 23 8 22 9;
#X connect 24 0 48 0;
#X connect 25 0 24 1;
#X connect 25 1 24 2;
#X connect 25 2 24 3;
#X connect 25 3 24 4;
#X connect 25 4 24 5;
#X connect 25 5 24 6;
#X connect 25 6 24 7;
#X connect 25 7 24 8;
#X connect 25 8 24 9;
#X connect 26 0 48 0;
#X connect 27 0 26 1;
#X connect 27 1 26 2;
#X connect 27 2 26 3;
#X connect 27 3 26 4;
#X connect 27 4 26 5;
#X connect 27 5 26 6;
#X connect 27 6 26 7;
#X connect 27 7 26 8;
#X connect 27 8 26 9;
#X connect 28 0 48 0;
#X connect 29 0 28 1;
#X connect 29 1 28 2;
#X connect 29 2 28 3;
#X connect 29 3 28 4;
#X connect 29 4 28 5;
#X connect 29 5 28 6;
#X connect 29 6 28 7;
#X connect 29 7 28 8;
#X connect 29 8 28 9;
#X connect 30 0 48 0;
#X connect 31 0 30 1;
#X connect 31 1 30 2;
#X connect 31 2 30 3;
#X connect 31 3 30 4;
#X connect 31 4 30 5;
#X connect 31 5 30 6;
#X connect 31 6 30 7;
#X connect 31 7 30 8;
#X connect 31 8 30 9;
#X connect 32 0 48 0;
#X connect 33 0 32 1;
#X connect 33 1 32 2;
#X connect 33 2 32 3;
#X connect 33 3 32 4;
#X connect 33 4 32 5;
#X connect 33 5 32 6;
#X connect 33 6 32 7;
#X connect 33 7 32 8;
#X connect 33 8 32 9;
#X connect 34 0 48 0;
#X connect 35 0 34 1;
#X connect 35 1 34 2;
#X connect 35 2 34 3;
#X connect 35 3 34 4;
#X connect 35 4 34 5;
#X connect 35 5 34 6;
#X connect 35 6 34 7;
#X connect 35 7 34 8;
#X connect 35 8 34 9;
#X connect 36 0 48 0;
#X connect 37 0 36 1;
#X connect 37 1 36 2;
#X connect 37 2 36 3;
#X connect 37 3 36 4;
#X connect 37 4 36 5;
#X connect 37 5 36 6;
#X connect 37 6 36 7;
#X connect 37 7 36 8;
#X connect 37 8 36 9;
#X connect 38 0 48 0;
#X connect 39 0 38 1;
#X connect 39 1 38 2;
#X connect 39 2 38 3;
#X connect 39 3 38 4;
#X connect 39 4 38 5;
#X connect 39 5 38 6;
#X connect 39 6 38 7;
#X connect 39 7 38 8;
#X connect 39 8 38 9;
#X connect 40 0 48 0;
#X connect 41 0 40 1;
#X connect 41 1 40 2;
#X connect 41 2 40 3;
#X connect 41 3 40 4;
#X connect 41 4 40 5;
#X connect 41 5 40 6;
#X connect 41 6 40 7;
#X connect 41 7 40 8;
#X connect 41 8 40 9;
#X connect 42 0 48 0;
#X connect 43 0 42 1;
#X connect 43 1 42 2;
#X connect 43 2 42 3;
#X connect 43 3 42 4;
#X connect 43 4 42 5;
#X connect 43 5 42 6;
#X connect 43 6 42 7;
#X connect 43 7 42 8;
#X connect 43 8 42 9;
#X connect 44 0 48 0;
#X connect 45 0 44 1;
#X connect 45 1 44 2;
#X connect 45 2 44 3;
#X connect 45 3 44 4;
#X connect 45 4 44 5;
#X connect 45 5 44 6;
#X connect 45 6 44 7;
#X connect 45 7 44 8;
#X connect 45 8 44 9;
#X connect 46 0 0 0;
#X connect 49 0 52 0;
#X connect 50 0 61 0;
#X connect 50 0 55 0;
#X connect 50 0 56 0;
#X connect 50 0 57 0;
#X connect 50 0 58 0;
#X connect 50 0 54 0;
#X connect 50 0 59 0;
#X connect 50 0 60 0;
#X connect 50 0 53 0;
#X connect 51 0 5 2;
#X connect 52 0 5 0;
#X connect 53 0 12 0;
#X connect 54 0 9 0;
#X connect 55 0 1 0;
#X connect 56 0 2 0;
#X connect 57 0 4 0;
#X connect 58 0 3 0;
#X connect 59 0 11 0;
#X connect 60 0 10 0;
#X connect 61 0 14 0;
#X coords 0 -1 1 1 230 140 2 0 0;
