#N canvas 465 218 462 312 10;
#N canvas 121 224 1121 600 16-Sequence3 0;
#X obj 1 190 cnv 28 220 100 empty empty empty 20 12 0 14 -162280 -66577
0;
#X msg 26 -21 1 3 5 7 8 10 12;
#X obj 371 -44 r no3_16seq-ctl-scale_rand;
#X obj 461 -24 r no3_16seq-ctl-velo_rand;
#X obj 544 -4 r no3_16seq-ctl-oct_rand;
#X obj 631 -24 r no3_16seq-ctl-468;
#X obj 756 -24 r no3_16seq-ctl-loop;
#X obj 0 335 s no3_16seq-out-root;
#X obj 71 356 s no3_16seq-out-3rd;
#X obj 451 143 ./core/m_track-spriter;
#X text 99 201 1;
#X text 113 201 2;
#X text 139 201 4;
#X text 153 201 8;
#X text 163 201 16;
#X obj 45 218 hradio 13 1 0 4 no3_16seq_r37_pt1 empty empty 0 -8 0
10 -228856 -1 -1 0;
#X text 153 201 8;
#X obj 99 218 hradio 13 1 1 6 no3_16seq_step_pt1 empty empty 0 -8 0
10 -228856 -1 -1 4;
#X obj 179 218 hradio 13 1 1 3 no3_16seq_oct_pt1 empty empty 0 -8 0
10 -228856 -1 -1 2;
#X obj 142 379 s no3_16seq-out-7th;
#X obj 430 183 s no3_16seq-pt1;
#X obj 577 83 r no3_16seq-out-root;
#X obj 598 103 r no3_16seq-out-3rd;
#X obj 624 123 r no3_16seq-out-7th;
#X obj 456 83 r no3_16seq_r37_pt1;
#X obj 471 103 r no3_16seq_step_pt1;
#X obj 503 123 r no3_16seq_oct_pt1;
#X text 72 201 3;
#X text 85 201 7;
#X text 194 201 0;
#X text 181 201 -;
#X text 58 188 Chord;
#X text 109 188 Step-ctl;
#X text 178 188 Octave;
#X text 208 200 +;
#X text 59 201 R;
#X text 48 201 N;
#X floatatom 17 217 4 0 127 2 note - no3_16seq_fix-note_pt1, f 4;
#X obj 2 218 tgl 13 1 no3_16seq_on_pt1 empty empty 17 7 0 10 -262144
-1 -1 0 1;
#X obj 451 64 r no3_16seq_fix-note_pt1;
#X obj 597 146 r no3_16seq_on_pt1;
#X obj 430 163 gate;
#X obj 45 236 hradio 13 1 0 4 no3_16seq_r37_pt2 empty empty 0 -8 0
10 -228856 -1 -1 1;
#X obj 99 236 hradio 13 1 1 6 no3_16seq_step_pt2 empty empty 0 -8 0
10 -228856 -1 -1 1;
#X obj 179 236 hradio 13 1 1 3 no3_16seq_oct_pt2 empty empty 0 -8 0
10 -228856 -1 -1 1;
#X floatatom 17 235 4 0 127 2 - - no3_16seq_fix-note_pt2, f 4;
#X obj 2 236 tgl 13 1 no3_16seq_on_pt2 empty empty 17 7 0 10 -262144
-1 -1 0 1;
#X obj 45 254 hradio 13 1 0 4 no3_16seq_r37_pt3 empty empty 0 -8 0
10 -228856 -1 -1 0;
#X obj 99 254 hradio 13 1 1 6 no3_16seq_step_pt3 empty empty 0 -8 0
10 -228856 -1 -1 2;
#X obj 179 254 hradio 13 1 1 3 no3_16seq_oct_pt3 empty empty 0 -8 0
10 -228856 -1 -1 2;
#X floatatom 17 253 4 0 127 2 - - no3_16seq_fix-note_pt3, f 4;
#X obj 2 254 tgl 13 1 no3_16seq_on_pt3 empty empty 17 7 0 10 -262144
-1 -1 0 1;
#X obj 45 272 hradio 13 1 0 4 no3_16seq_r37_pt4 empty empty 0 -8 0
10 -228856 -1 -1 1;
#X obj 99 272 hradio 13 1 1 6 no3_16seq_step_pt4 empty empty 0 -8 0
10 -228856 -1 -1 0;
#X obj 179 272 hradio 13 1 1 3 no3_16seq_oct_pt4 empty empty 0 -8 0
10 -228856 -1 -1 1;
#X floatatom 17 271 4 0 127 2 - - no3_16seq_fix-note_pt4, f 4;
#X obj 2 272 tgl 13 1 no3_16seq_on_pt4 empty empty 17 7 0 10 -262144
-1 -1 0 1;
#X obj 877 83 r no3_16seq-out-root;
#X obj 898 103 r no3_16seq-out-3rd;
#X obj 924 123 r no3_16seq-out-7th;
#X obj 730 163 gate;
#X obj 580 256 r no3_16seq-out-root;
#X obj 601 276 r no3_16seq-out-3rd;
#X obj 627 296 r no3_16seq-out-7th;
#X obj 433 336 gate;
#X obj 880 256 r no3_16seq-out-root;
#X obj 901 276 r no3_16seq-out-3rd;
#X obj 927 296 r no3_16seq-out-7th;
#X obj 733 336 gate;
#X obj 751 64 r no3_16seq_fix-note_pt2;
#X obj 756 83 r no3_16seq_r37_pt2;
#X obj 771 103 r no3_16seq_step_pt2;
#X obj 803 123 r no3_16seq_oct_pt2;
#X obj 897 146 r no3_16seq_on_pt2;
#X obj 730 183 s no3_16seq-pt2;
#X obj 454 237 r no3_16seq_fix-note_pt3;
#X obj 459 256 r no3_16seq_r37_pt3;
#X obj 474 276 r no3_16seq_step_pt3;
#X obj 506 296 r no3_16seq_oct_pt3;
#X obj 600 319 r no3_16seq_on_pt3;
#X obj 433 356 s no3_16seq-pt3;
#X obj 754 237 r no3_16seq_fix-note_pt4;
#X obj 759 256 r no3_16seq_r37_pt4;
#X obj 774 276 r no3_16seq_step_pt4;
#X obj 806 296 r no3_16seq_oct_pt4;
#X obj 900 319 r no3_16seq_on_pt4;
#X obj 733 356 s no3_16seq-pt4;
#X obj 1 1 cnv 15 220 17 empty empty Sequence3 5 8 0 16 -66577 -262144
0;
#N canvas 0 22 635 258 one-shot-note-maker 0;
#X obj 16 127 + 24;
#X obj 16 100 random 12;
#X obj 16 153 outlet;
#X obj 86 100 random 12;
#X obj 86 153 outlet;
#X obj 156 100 random 12;
#X obj 156 153 outlet;
#X obj 226 100 random 12;
#X obj 226 153 outlet;
#X obj 296 100 random 12;
#X obj 296 153 outlet;
#X obj 366 100 random 12;
#X obj 366 153 outlet;
#X obj 436 100 random 12;
#X obj 436 153 outlet;
#X obj 506 100 random 12;
#X obj 506 153 outlet;
#X obj 86 127 + 36;
#X obj 156 127 + 48;
#X obj 226 127 + 72;
#X obj 296 127 + 84;
#X obj 366 127 + 96;
#X obj 436 127 + 108;
#X obj 506 127 + 120;
#X obj 16 57 inlet;
#X connect 0 0 2 0;
#X connect 1 0 0 0;
#X connect 3 0 17 0;
#X connect 5 0 18 0;
#X connect 7 0 19 0;
#X connect 9 0 20 0;
#X connect 11 0 21 0;
#X connect 13 0 22 0;
#X connect 15 0 23 0;
#X connect 17 0 4 0;
#X connect 18 0 6 0;
#X connect 19 0 8 0;
#X connect 20 0 10 0;
#X connect 21 0 12 0;
#X connect 22 0 14 0;
#X connect 23 0 16 0;
#X connect 24 0 1 0;
#X connect 24 0 3 0;
#X connect 24 0 5 0;
#X connect 24 0 7 0;
#X connect 24 0 9 0;
#X connect 24 0 11 0;
#X connect 24 0 13 0;
#X connect 24 0 15 0;
#X restore 233 170 pd one-shot-note-maker;
#X obj 29 192 bng 12 250 50 0 empty empty empty 17 7 0 10 -262144 -1
-1;
#N canvas 0 22 459 316 set-pt1 0;
#X obj 264 117 r no3_16seq_set_oct_pt1;
#X obj 204 93 r no3_16seq_set_step_pt1;
#X obj 144 68 r no3_16seq_set_r37_pt1;
#X obj 84 43 r no3_16seq_set_fix-note_pt1;
#X obj 24 18 r no3_16seq_set_on_pt1;
#X obj 24 257 outlet;
#X obj 84 257 outlet;
#X obj 144 257 outlet;
#X obj 204 257 outlet;
#X obj 264 257 outlet;
#X obj 293 185 unpack 0 0 0 0 0;
#X msg 293 166 1 32 0 3 1;
#X obj 293 18 inlet;
#X connect 0 0 9 0;
#X connect 1 0 8 0;
#X connect 2 0 7 0;
#X connect 3 0 6 0;
#X connect 4 0 5 0;
#X connect 10 0 5 0;
#X connect 10 1 6 0;
#X connect 10 2 7 0;
#X connect 10 3 8 0;
#X connect 10 4 9 0;
#X connect 11 0 10 0;
#X connect 12 0 11 0;
#X restore 233 201 pd set-pt1;
#N canvas 0 22 459 316 set-pt2 0;
#X obj 24 257 outlet;
#X obj 84 257 outlet;
#X obj 144 257 outlet;
#X obj 204 257 outlet;
#X obj 264 257 outlet;
#X obj 293 185 unpack 0 0 0 0 0;
#X msg 293 166 1 32 0 3 1;
#X obj 293 18 inlet;
#X obj 24 18 r no3_16seq_set_on_pt2;
#X obj 84 43 r no3_16seq_set_fix-note_pt2;
#X obj 144 68 r no3_16seq_set_r37_pt2;
#X obj 204 93 r no3_16seq_set_step_pt2;
#X obj 264 117 r no3_16seq_set_oct_pt2;
#X connect 5 0 0 0;
#X connect 5 1 1 0;
#X connect 5 2 2 0;
#X connect 5 3 3 0;
#X connect 5 4 4 0;
#X connect 6 0 5 0;
#X connect 7 0 6 0;
#X connect 8 0 0 0;
#X connect 9 0 1 0;
#X connect 10 0 2 0;
#X connect 11 0 3 0;
#X connect 12 0 4 0;
#X restore 299 219 pd set-pt2;
#N canvas 0 22 459 316 set-pt4 0;
#X obj 24 257 outlet;
#X obj 84 257 outlet;
#X obj 144 257 outlet;
#X obj 204 257 outlet;
#X obj 264 257 outlet;
#X obj 293 185 unpack 0 0 0 0 0;
#X msg 293 166 1 32 0 3 1;
#X obj 293 18 inlet;
#X obj 24 18 r no3_16seq_set_on_pt4;
#X obj 84 43 r no3_16seq_set_fix-note_pt4;
#X obj 144 68 r no3_16seq_set_r37_pt4;
#X obj 204 93 r no3_16seq_set_step_pt4;
#X obj 264 117 r no3_16seq_set_oct_pt4;
#X connect 5 0 0 0;
#X connect 5 1 1 0;
#X connect 5 2 2 0;
#X connect 5 3 3 0;
#X connect 5 4 4 0;
#X connect 6 0 5 0;
#X connect 7 0 6 0;
#X connect 8 0 0 0;
#X connect 9 0 1 0;
#X connect 10 0 2 0;
#X connect 11 0 3 0;
#X connect 12 0 4 0;
#X restore 299 255 pd set-pt4;
#N canvas 0 22 459 316 set-pt3 0;
#X obj 24 257 outlet;
#X obj 84 257 outlet;
#X obj 144 257 outlet;
#X obj 204 257 outlet;
#X obj 264 257 outlet;
#X obj 293 185 unpack 0 0 0 0 0;
#X msg 293 166 1 32 0 3 1;
#X obj 293 18 inlet;
#X obj 24 18 r no3_16seq_set_on_pt3;
#X obj 84 43 r no3_16seq_set_fix-note_pt3;
#X obj 144 68 r no3_16seq_set_r37_pt3;
#X obj 204 93 r no3_16seq_set_step_pt3;
#X obj 264 117 r no3_16seq_set_oct_pt3;
#X connect 5 0 0 0;
#X connect 5 1 1 0;
#X connect 5 2 2 0;
#X connect 5 3 3 0;
#X connect 5 4 4 0;
#X connect 6 0 5 0;
#X connect 7 0 6 0;
#X connect 8 0 0 0;
#X connect 9 0 1 0;
#X connect 10 0 2 0;
#X connect 11 0 3 0;
#X connect 12 0 4 0;
#X restore 233 237 pd set-pt3;
#X obj 302 136 bng 15 250 50 0 empty empty empty 17 7 0 10 -262144
-1 -1;
#X obj 297 -24 r no3_16seq-set-base_scale;
#X obj 213 402 s no3_16seq-preset-store-seq;
#X obj 887 -24 r no3_16seq-preset-lead-seq;
#X obj 843 -4 r no3_16seq-ctl-base_note;
#X obj 0 19 ./core/c_Scale16StepSequence;
#X obj 751 143 ./core/m_track-spriter;
#X obj 454 316 ./core/m_track-spriter;
#X obj 754 316 ./core/m_track-spriter;
#X obj 170 2 hradio 15 1 0 3 empty empty empty 0 -8 0 10 -262144 -1
-1 2;
#N canvas 0 22 415 199 tempo-select 0;
#X obj 54 86 r tempoBang-4;
#X obj 161 86 r tempoBang-16;
#X obj 282 86 r tempoBang-32;
#X obj 33 114 gate;
#X obj 140 114 gate;
#X obj 261 114 gate;
#X obj 33 34 sel 0 1 2;
#X msg 33 64 1;
#X msg 63 64 0;
#X msg 140 64 1;
#X msg 170 64 0;
#X msg 261 64 1;
#X msg 291 64 0;
#X obj 33 144 outlet;
#X obj 32 14 inlet;
#X connect 0 0 3 1;
#X connect 1 0 4 1;
#X connect 2 0 5 1;
#X connect 3 0 13 0;
#X connect 4 0 13 0;
#X connect 5 0 13 0;
#X connect 6 0 7 0;
#X connect 6 0 10 0;
#X connect 6 0 12 0;
#X connect 6 1 9 0;
#X connect 6 1 8 0;
#X connect 6 1 12 0;
#X connect 6 2 11 0;
#X connect 6 2 8 0;
#X connect 6 2 10 0;
#X connect 7 0 3 0;
#X connect 8 0 3 0;
#X connect 9 0 4 0;
#X connect 10 0 4 0;
#X connect 11 0 5 0;
#X connect 12 0 5 0;
#X connect 14 0 6 0;
#X restore 0 -54 pd tempo-select;
#X msg 170 -23 1;
#X obj 201 -44 r no3_16seq-set-bar-tempo;
#X obj 170 -71 loadbang;
#X obj 715 -4 r no3_16seq-ctl-key;
#X connect 1 0 99 1;
#X connect 2 0 99 2;
#X connect 3 0 99 3;
#X connect 4 0 99 4;
#X connect 5 0 99 5;
#X connect 6 0 99 7;
#X connect 9 0 41 1;
#X connect 21 0 9 4;
#X connect 22 0 9 5;
#X connect 23 0 9 6;
#X connect 24 0 9 1;
#X connect 25 0 9 2;
#X connect 26 0 9 3;
#X connect 39 0 9 0;
#X connect 40 0 41 0;
#X connect 41 0 20 0;
#X connect 57 0 100 4;
#X connect 58 0 100 5;
#X connect 59 0 100 6;
#X connect 60 0 74 0;
#X connect 61 0 101 4;
#X connect 62 0 101 5;
#X connect 63 0 101 6;
#X connect 64 0 80 0;
#X connect 65 0 102 4;
#X connect 66 0 102 5;
#X connect 67 0 102 6;
#X connect 68 0 86 0;
#X connect 69 0 100 0;
#X connect 70 0 100 1;
#X connect 71 0 100 2;
#X connect 72 0 100 3;
#X connect 73 0 60 0;
#X connect 75 0 101 0;
#X connect 76 0 101 1;
#X connect 77 0 101 2;
#X connect 78 0 101 3;
#X connect 79 0 64 0;
#X connect 81 0 102 0;
#X connect 82 0 102 1;
#X connect 83 0 102 2;
#X connect 84 0 102 3;
#X connect 85 0 68 0;
#X connect 88 0 37 0;
#X connect 88 1 45 0;
#X connect 88 2 50 0;
#X connect 88 3 55 0;
#X connect 89 0 88 0;
#X connect 90 0 38 0;
#X connect 90 1 37 0;
#X connect 90 2 15 0;
#X connect 90 3 17 0;
#X connect 90 4 18 0;
#X connect 91 0 46 0;
#X connect 91 1 45 0;
#X connect 91 2 42 0;
#X connect 91 3 43 0;
#X connect 91 4 44 0;
#X connect 92 0 56 0;
#X connect 92 1 55 0;
#X connect 92 2 52 0;
#X connect 92 3 53 0;
#X connect 92 4 54 0;
#X connect 93 0 51 0;
#X connect 93 1 50 0;
#X connect 93 2 47 0;
#X connect 93 3 48 0;
#X connect 93 4 49 0;
#X connect 94 0 90 0;
#X connect 94 0 91 0;
#X connect 94 0 93 0;
#X connect 94 0 92 0;
#X connect 95 0 99 1;
#X connect 97 0 99 9;
#X connect 98 0 99 8;
#X connect 99 0 7 0;
#X connect 99 1 8 0;
#X connect 99 2 19 0;
#X connect 99 3 96 0;
#X connect 100 0 60 1;
#X connect 101 0 64 1;
#X connect 102 0 68 1;
#X connect 103 0 104 0;
#X connect 104 0 99 0;
#X connect 105 0 103 0;
#X connect 106 0 103 0;
#X connect 107 0 105 0;
#X connect 108 0 99 6;
#X coords 0 -1 1 1 222 290 2 0 0;
#X restore 1 4 pd 16-Sequence3;
#N canvas 121 224 1121 600 16-Sequence4 0;
#X obj 1 190 cnv 28 220 100 empty empty empty 20 12 0 14 -162280 -66577
0;
#X msg 26 -21 1 3 5 7 8 10 12;
#X obj 371 -44 r no4_16seq-ctl-scale_rand;
#X obj 461 -24 r no4_16seq-ctl-velo_rand;
#X obj 544 -4 r no4_16seq-ctl-oct_rand;
#X obj 631 -24 r no4_16seq-ctl-468;
#X obj 756 -24 r no4_16seq-ctl-loop;
#X obj 0 335 s no4_16seq-out-root;
#X obj 71 356 s no4_16seq-out-3rd;
#X obj 451 143 ./core/m_track-spriter;
#X text 99 201 1;
#X text 113 201 2;
#X text 139 201 4;
#X text 153 201 8;
#X text 163 201 16;
#X obj 45 218 hradio 13 1 0 4 no4_16seq_r37_pt1 empty empty 0 -8 0
10 -228856 -1 -1 1;
#X text 153 201 8;
#X obj 99 218 hradio 13 1 1 6 no4_16seq_step_pt1 empty empty 0 -8 0
10 -228856 -1 -1 4;
#X obj 179 218 hradio 13 1 1 3 no4_16seq_oct_pt1 empty empty 0 -8 0
10 -228856 -1 -1 0;
#X obj 142 379 s no4_16seq-out-7th;
#X obj 430 183 s no4_16seq-pt1;
#X obj 577 83 r no4_16seq-out-root;
#X obj 598 103 r no4_16seq-out-3rd;
#X obj 624 123 r no4_16seq-out-7th;
#X obj 456 83 r no4_16seq_r37_pt1;
#X obj 471 103 r no4_16seq_step_pt1;
#X obj 503 123 r no4_16seq_oct_pt1;
#X text 72 201 3;
#X text 85 201 7;
#X text 194 201 0;
#X text 181 201 -;
#X text 58 188 Chord;
#X text 109 188 Step-ctl;
#X text 178 188 Octave;
#X text 208 200 +;
#X text 59 201 R;
#X text 48 201 N;
#X floatatom 17 217 4 0 127 2 note - no4_16seq_fix-note_pt1, f 4;
#X obj 2 218 tgl 13 1 no4_16seq_on_pt1 empty empty 17 7 0 10 -262144
-1 -1 0 1;
#X obj 451 64 r no4_16seq_fix-note_pt1;
#X obj 597 146 r no4_16seq_on_pt1;
#X obj 430 163 gate;
#X obj 45 236 hradio 13 1 0 4 no4_16seq_r37_pt2 empty empty 0 -8 0
10 -228856 -1 -1 1;
#X obj 99 236 hradio 13 1 1 6 no4_16seq_step_pt2 empty empty 0 -8 0
10 -228856 -1 -1 0;
#X obj 179 236 hradio 13 1 1 3 no4_16seq_oct_pt2 empty empty 0 -8 0
10 -228856 -1 -1 1;
#X floatatom 17 235 4 0 127 2 - - no4_16seq_fix-note_pt2, f 4;
#X obj 2 236 tgl 13 1 no4_16seq_on_pt2 empty empty 17 7 0 10 -262144
-1 -1 0 1;
#X obj 45 254 hradio 13 1 0 4 no4_16seq_r37_pt3 empty empty 0 -8 0
10 -228856 -1 -1 1;
#X obj 99 254 hradio 13 1 1 6 no4_16seq_step_pt3 empty empty 0 -8 0
10 -228856 -1 -1 4;
#X obj 179 254 hradio 13 1 1 3 no4_16seq_oct_pt3 empty empty 0 -8 0
10 -228856 -1 -1 2;
#X floatatom 17 253 4 0 127 2 - - no4_16seq_fix-note_pt3, f 4;
#X obj 2 254 tgl 13 1 no4_16seq_on_pt3 empty empty 17 7 0 10 -262144
-1 -1 0 1;
#X obj 45 272 hradio 13 1 0 4 no4_16seq_r37_pt4 empty empty 0 -8 0
10 -228856 -1 -1 1;
#X obj 99 272 hradio 13 1 1 6 no4_16seq_step_pt4 empty empty 0 -8 0
10 -228856 -1 -1 0;
#X obj 179 272 hradio 13 1 1 3 no4_16seq_oct_pt4 empty empty 0 -8 0
10 -228856 -1 -1 0;
#X floatatom 17 271 4 0 127 2 - - no4_16seq_fix-note_pt4, f 4;
#X obj 2 272 tgl 13 1 no4_16seq_on_pt4 empty empty 17 7 0 10 -262144
-1 -1 0 1;
#X obj 877 83 r no4_16seq-out-root;
#X obj 898 103 r no4_16seq-out-3rd;
#X obj 924 123 r no4_16seq-out-7th;
#X obj 730 163 gate;
#X obj 580 256 r no4_16seq-out-root;
#X obj 601 276 r no4_16seq-out-3rd;
#X obj 627 296 r no4_16seq-out-7th;
#X obj 433 336 gate;
#X obj 880 256 r no4_16seq-out-root;
#X obj 901 276 r no4_16seq-out-3rd;
#X obj 927 296 r no4_16seq-out-7th;
#X obj 733 336 gate;
#X obj 751 64 r no4_16seq_fix-note_pt2;
#X obj 756 83 r no4_16seq_r37_pt2;
#X obj 771 103 r no4_16seq_step_pt2;
#X obj 803 123 r no4_16seq_oct_pt2;
#X obj 897 146 r no4_16seq_on_pt2;
#X obj 730 183 s no4_16seq-pt2;
#X obj 454 237 r no4_16seq_fix-note_pt3;
#X obj 459 256 r no4_16seq_r37_pt3;
#X obj 474 276 r no4_16seq_step_pt3;
#X obj 506 296 r no4_16seq_oct_pt3;
#X obj 600 319 r no4_16seq_on_pt3;
#X obj 433 356 s no4_16seq-pt3;
#X obj 754 237 r no4_16seq_fix-note_pt4;
#X obj 759 256 r no4_16seq_r37_pt4;
#X obj 774 276 r no4_16seq_step_pt4;
#X obj 806 296 r no4_16seq_oct_pt4;
#X obj 900 319 r no4_16seq_on_pt4;
#X obj 733 356 s no4_16seq-pt4;
#X obj 1 1 cnv 15 220 17 empty empty Sequence4 5 8 0 16 -66577 -262144
0;
#N canvas 0 22 635 258 one-shot-note-maker 0;
#X obj 16 127 + 24;
#X obj 16 100 random 12;
#X obj 16 153 outlet;
#X obj 86 100 random 12;
#X obj 86 153 outlet;
#X obj 156 100 random 12;
#X obj 156 153 outlet;
#X obj 226 100 random 12;
#X obj 226 153 outlet;
#X obj 296 100 random 12;
#X obj 296 153 outlet;
#X obj 366 100 random 12;
#X obj 366 153 outlet;
#X obj 436 100 random 12;
#X obj 436 153 outlet;
#X obj 506 100 random 12;
#X obj 506 153 outlet;
#X obj 86 127 + 36;
#X obj 156 127 + 48;
#X obj 226 127 + 72;
#X obj 296 127 + 84;
#X obj 366 127 + 96;
#X obj 436 127 + 108;
#X obj 506 127 + 120;
#X obj 16 57 inlet;
#X connect 0 0 2 0;
#X connect 1 0 0 0;
#X connect 3 0 17 0;
#X connect 5 0 18 0;
#X connect 7 0 19 0;
#X connect 9 0 20 0;
#X connect 11 0 21 0;
#X connect 13 0 22 0;
#X connect 15 0 23 0;
#X connect 17 0 4 0;
#X connect 18 0 6 0;
#X connect 19 0 8 0;
#X connect 20 0 10 0;
#X connect 21 0 12 0;
#X connect 22 0 14 0;
#X connect 23 0 16 0;
#X connect 24 0 1 0;
#X connect 24 0 3 0;
#X connect 24 0 5 0;
#X connect 24 0 7 0;
#X connect 24 0 9 0;
#X connect 24 0 11 0;
#X connect 24 0 13 0;
#X connect 24 0 15 0;
#X restore 233 170 pd one-shot-note-maker;
#X obj 29 192 bng 12 250 50 0 empty empty empty 17 7 0 10 -262144 -1
-1;
#N canvas 0 22 459 316 set-pt1 0;
#X obj 264 117 r no4_16seq_set_oct_pt1;
#X obj 204 93 r no4_16seq_set_step_pt1;
#X obj 144 68 r no4_16seq_set_r37_pt1;
#X obj 84 43 r no4_16seq_set_fix-note_pt1;
#X obj 24 18 r no4_16seq_set_on_pt1;
#X obj 24 257 outlet;
#X obj 84 257 outlet;
#X obj 144 257 outlet;
#X obj 204 257 outlet;
#X obj 264 257 outlet;
#X obj 293 185 unpack 0 0 0 0 0;
#X msg 293 166 1 32 0 3 1;
#X obj 293 18 inlet;
#X connect 0 0 9 0;
#X connect 1 0 8 0;
#X connect 2 0 7 0;
#X connect 3 0 6 0;
#X connect 4 0 5 0;
#X connect 10 0 5 0;
#X connect 10 1 6 0;
#X connect 10 2 7 0;
#X connect 10 3 8 0;
#X connect 10 4 9 0;
#X connect 11 0 10 0;
#X connect 12 0 11 0;
#X restore 233 201 pd set-pt1;
#N canvas 0 22 459 316 set-pt2 0;
#X obj 24 257 outlet;
#X obj 84 257 outlet;
#X obj 144 257 outlet;
#X obj 204 257 outlet;
#X obj 264 257 outlet;
#X obj 293 185 unpack 0 0 0 0 0;
#X msg 293 166 1 32 0 3 1;
#X obj 293 18 inlet;
#X obj 24 18 r no4_16seq_set_on_pt2;
#X obj 84 43 r no4_16seq_set_fix-note_pt2;
#X obj 144 68 r no4_16seq_set_r37_pt2;
#X obj 204 93 r no4_16seq_set_step_pt2;
#X obj 264 117 r no4_16seq_set_oct_pt2;
#X connect 5 0 0 0;
#X connect 5 1 1 0;
#X connect 5 2 2 0;
#X connect 5 3 3 0;
#X connect 5 4 4 0;
#X connect 6 0 5 0;
#X connect 7 0 6 0;
#X connect 8 0 0 0;
#X connect 9 0 1 0;
#X connect 10 0 2 0;
#X connect 11 0 3 0;
#X connect 12 0 4 0;
#X restore 299 219 pd set-pt2;
#N canvas 0 22 459 316 set-pt4 0;
#X obj 24 257 outlet;
#X obj 84 257 outlet;
#X obj 144 257 outlet;
#X obj 204 257 outlet;
#X obj 264 257 outlet;
#X obj 293 185 unpack 0 0 0 0 0;
#X msg 293 166 1 32 0 3 1;
#X obj 293 18 inlet;
#X obj 24 18 r no4_16seq_set_on_pt4;
#X obj 84 43 r no4_16seq_set_fix-note_pt4;
#X obj 144 68 r no4_16seq_set_r37_pt4;
#X obj 204 93 r no4_16seq_set_step_pt4;
#X obj 264 117 r no4_16seq_set_oct_pt4;
#X connect 5 0 0 0;
#X connect 5 1 1 0;
#X connect 5 2 2 0;
#X connect 5 3 3 0;
#X connect 5 4 4 0;
#X connect 6 0 5 0;
#X connect 7 0 6 0;
#X connect 8 0 0 0;
#X connect 9 0 1 0;
#X connect 10 0 2 0;
#X connect 11 0 3 0;
#X connect 12 0 4 0;
#X restore 299 255 pd set-pt4;
#N canvas 0 22 459 316 set-pt3 0;
#X obj 24 257 outlet;
#X obj 84 257 outlet;
#X obj 144 257 outlet;
#X obj 204 257 outlet;
#X obj 264 257 outlet;
#X obj 293 185 unpack 0 0 0 0 0;
#X msg 293 166 1 32 0 3 1;
#X obj 293 18 inlet;
#X obj 24 18 r no4_16seq_set_on_pt3;
#X obj 84 43 r no4_16seq_set_fix-note_pt3;
#X obj 144 68 r no4_16seq_set_r37_pt3;
#X obj 204 93 r no4_16seq_set_step_pt3;
#X obj 264 117 r no4_16seq_set_oct_pt3;
#X connect 5 0 0 0;
#X connect 5 1 1 0;
#X connect 5 2 2 0;
#X connect 5 3 3 0;
#X connect 5 4 4 0;
#X connect 6 0 5 0;
#X connect 7 0 6 0;
#X connect 8 0 0 0;
#X connect 9 0 1 0;
#X connect 10 0 2 0;
#X connect 11 0 3 0;
#X connect 12 0 4 0;
#X restore 233 237 pd set-pt3;
#X obj 302 136 bng 15 250 50 0 empty empty empty 17 7 0 10 -262144
-1 -1;
#X obj 297 -24 r no4_16seq-set-base_scale;
#X obj 213 402 s no4_16seq-preset-store-seq;
#X obj 887 -24 r no4_16seq-preset-lead-seq;
#X obj 843 -4 r no4_16seq-ctl-base_note;
#X obj 0 19 ./core/c_Scale16StepSequence;
#X obj 751 143 ./core/m_track-spriter;
#X obj 454 316 ./core/m_track-spriter;
#X obj 754 316 ./core/m_track-spriter;
#X obj 170 2 hradio 15 1 0 3 empty empty empty 0 -8 0 10 -262144 -1
-1 1;
#N canvas 0 22 415 199 tempo-select 0;
#X obj 54 86 r tempoBang-4;
#X obj 161 86 r tempoBang-16;
#X obj 282 86 r tempoBang-32;
#X obj 33 114 gate;
#X obj 140 114 gate;
#X obj 261 114 gate;
#X obj 33 34 sel 0 1 2;
#X msg 33 64 1;
#X msg 63 64 0;
#X msg 140 64 1;
#X msg 170 64 0;
#X msg 261 64 1;
#X msg 291 64 0;
#X obj 33 144 outlet;
#X obj 32 14 inlet;
#X connect 0 0 3 1;
#X connect 1 0 4 1;
#X connect 2 0 5 1;
#X connect 3 0 13 0;
#X connect 4 0 13 0;
#X connect 5 0 13 0;
#X connect 6 0 7 0;
#X connect 6 0 10 0;
#X connect 6 0 12 0;
#X connect 6 1 9 0;
#X connect 6 1 8 0;
#X connect 6 1 12 0;
#X connect 6 2 11 0;
#X connect 6 2 8 0;
#X connect 6 2 10 0;
#X connect 7 0 3 0;
#X connect 8 0 3 0;
#X connect 9 0 4 0;
#X connect 10 0 4 0;
#X connect 11 0 5 0;
#X connect 12 0 5 0;
#X connect 14 0 6 0;
#X restore 0 -54 pd tempo-select;
#X msg 170 -23 1;
#X obj 201 -44 r no4_16seq-set-bar-tempo;
#X obj 170 -71 loadbang;
#X obj 715 -4 r no4_16seq-ctl-key;
#X connect 1 0 99 1;
#X connect 2 0 99 2;
#X connect 3 0 99 3;
#X connect 4 0 99 4;
#X connect 5 0 99 5;
#X connect 6 0 99 7;
#X connect 9 0 41 1;
#X connect 21 0 9 4;
#X connect 22 0 9 5;
#X connect 23 0 9 6;
#X connect 24 0 9 1;
#X connect 25 0 9 2;
#X connect 26 0 9 3;
#X connect 39 0 9 0;
#X connect 40 0 41 0;
#X connect 41 0 20 0;
#X connect 57 0 100 4;
#X connect 58 0 100 5;
#X connect 59 0 100 6;
#X connect 60 0 74 0;
#X connect 61 0 101 4;
#X connect 62 0 101 5;
#X connect 63 0 101 6;
#X connect 64 0 80 0;
#X connect 65 0 102 4;
#X connect 66 0 102 5;
#X connect 67 0 102 6;
#X connect 68 0 86 0;
#X connect 69 0 100 0;
#X connect 70 0 100 1;
#X connect 71 0 100 2;
#X connect 72 0 100 3;
#X connect 73 0 60 0;
#X connect 75 0 101 0;
#X connect 76 0 101 1;
#X connect 77 0 101 2;
#X connect 78 0 101 3;
#X connect 79 0 64 0;
#X connect 81 0 102 0;
#X connect 82 0 102 1;
#X connect 83 0 102 2;
#X connect 84 0 102 3;
#X connect 85 0 68 0;
#X connect 88 0 37 0;
#X connect 88 1 45 0;
#X connect 88 2 50 0;
#X connect 88 3 55 0;
#X connect 89 0 88 0;
#X connect 90 0 38 0;
#X connect 90 1 37 0;
#X connect 90 2 15 0;
#X connect 90 3 17 0;
#X connect 90 4 18 0;
#X connect 91 0 46 0;
#X connect 91 1 45 0;
#X connect 91 2 42 0;
#X connect 91 3 43 0;
#X connect 91 4 44 0;
#X connect 92 0 56 0;
#X connect 92 1 55 0;
#X connect 92 2 52 0;
#X connect 92 3 53 0;
#X connect 92 4 54 0;
#X connect 93 0 51 0;
#X connect 93 1 50 0;
#X connect 93 2 47 0;
#X connect 93 3 48 0;
#X connect 93 4 49 0;
#X connect 94 0 90 0;
#X connect 94 0 91 0;
#X connect 94 0 93 0;
#X connect 94 0 92 0;
#X connect 95 0 99 1;
#X connect 97 0 99 9;
#X connect 98 0 99 8;
#X connect 99 0 7 0;
#X connect 99 1 8 0;
#X connect 99 2 19 0;
#X connect 99 3 96 0;
#X connect 100 0 60 1;
#X connect 101 0 64 1;
#X connect 102 0 68 1;
#X connect 103 0 104 0;
#X connect 104 0 99 0;
#X connect 105 0 103 0;
#X connect 106 0 103 0;
#X connect 107 0 105 0;
#X connect 108 0 99 6;
#X coords 0 -1 1 1 222 290 2 0 0;
#X restore 225 4 pd 16-Sequence4;
#X coords 0 312 1 311 300 300 0;
