#N canvas 360 31 427 424 10;
#X obj 28 375 outlet~;
#X obj 28 21 inlet~;
#X obj 142 21 inlet;
#X obj 180 21 inlet;
#X obj 220 21 inlet;
#X obj 43 111 expr 1-$f1;
#X obj 28 189 *~;
#X obj 83 189 *~;
#X obj 129 159 line~;
#X obj 43 159 line~;
#X obj 43 137 pack 0 500;
#X obj 129 137 pack 0 500;
#X obj 114 258 line;
#X msg 114 237 \$1 100;
#X obj 165 279 line;
#X floatatom 161 65 5 200 25000 3 Frq - -;
#X floatatom 197 65 5 1 30 3 Q - -;
#X obj 83 296 bp~ 2000 30;
#X msg 165 258 \$1 800;
#X obj 142 65 tgl 15 0 empty empty empty 17 7 0 10 -262144 -1 -1 0
1;
#X msg 272 47 0;
#X msg 302 48 10000;
#X msg 344 48 10;
#X obj 272 21 loadbang;
#X connect 1 0 6 0;
#X connect 1 0 7 0;
#X connect 2 0 19 0;
#X connect 3 0 15 0;
#X connect 4 0 16 0;
#X connect 5 0 10 0;
#X connect 6 0 0 0;
#X connect 7 0 17 0;
#X connect 8 0 7 1;
#X connect 9 0 6 1;
#X connect 10 0 9 0;
#X connect 11 0 8 0;
#X connect 12 0 17 1;
#X connect 13 0 12 0;
#X connect 14 0 17 2;
#X connect 15 0 13 0;
#X connect 16 0 18 0;
#X connect 17 0 0 0;
#X connect 18 0 14 0;
#X connect 19 0 5 0;
#X connect 19 0 11 0;
#X connect 20 0 19 0;
#X connect 21 0 15 0;
#X connect 22 0 16 0;
#X connect 23 0 21 0;
#X connect 23 0 22 0;
#X connect 23 0 20 0;
