#N canvas 53 22 442 294 10;
#X obj 279 135 *~ 2;
#X obj 279 108 osc~ 5;
#X floatatom 279 85 5 0 0 0 vib_freq - -;
#X floatatom 329 119 5 0 0 2 vib_depth - -;
#X obj 279 159 +~ 10;
#X obj 264 209 +~;
#X obj 80 186 delwrite~ chorus 30;
#X obj 279 182 vd~ chorus;
#X obj 23 6 inlet~;
#X obj 23 55 demux~ 0 1;
#X obj 137 40 tgl 15 0 empty empty empty 17 7 0 10 -262144 -1 -1 0
1;
#X obj 137 6 inlet;
#X obj 23 226 outlet~;
#X obj 279 6 inlet;
#X obj 329 6 inlet;
#X connect 0 0 4 0;
#X connect 1 0 0 0;
#X connect 2 0 1 0;
#X connect 3 0 0 1;
#X connect 4 0 7 0;
#X connect 5 0 12 0;
#X connect 7 0 5 1;
#X connect 8 0 9 0;
#X connect 9 0 12 0;
#X connect 9 1 6 0;
#X connect 9 1 5 0;
#X connect 10 0 9 0;
#X connect 11 0 10 0;
#X connect 13 0 2 0;
#X connect 14 0 3 0;
