#N canvas 0 22 627 633 10;
#X obj 262 262 env~ 1024;
#X obj 74 544 *~;
#X obj 262 527 line~;
#X floatatom 262 285 5 0 0 0 amp - -;
#X obj 262 308 moses;
#X floatatom 200 85 5 0 0 3 factor - -;
#X floatatom 237 85 5 0 0 3 thresh - -;
#X floatatom 423 373 5 0 0 0 - - -;
#X obj 423 397 + 100;
#X obj 423 421 dbtorms;
#X floatatom 423 445 5 0 0 0 - - -;
#X floatatom 275 85 5 0 0 3 release - -;
#X floatatom 319 85 5 0 0 3 attack - -;
#X obj 72 226 *~ 1;
#X floatatom 162 85 5 0 0 3 gain - -;
#X obj 262 449 t b;
#X obj 423 468 pack 0 5;
#X obj 262 474 pack 1 5;
#X obj 289 334 expr (($f1 - $f3) / $f2) + $f3 - $f1;
#X obj 74 583 outlet~;
#X obj 29 36 inlet~;
#X obj 182 37 inlet;
#X obj 226 37 inlet;
#X obj 267 37 inlet;
#X obj 307 37 inlet;
#X obj 356 37 inlet;
#X obj 143 37 inlet;
#X obj 367 524 demux~ 0 1;
#X obj 44 121 expr 1-$f1;
#X obj 29 195 *~;
#X obj 72 195 *~;
#X obj 130 165 line~;
#X obj 44 165 line~;
#X obj 143 85 tgl 15 0 empty empty empty 17 7 0 10 -262144 -1 -1 0
1;
#X obj 44 143 pack 0 500;
#X obj 130 143 pack 0 500;
#X obj 44 100 / 1;
#X obj 72 252 delwrite~ tr1-comp 24;
#X obj 74 321 delread~ tr1-comp 24;
#X obj 79 38 loadbang;
#X msg 79 59 0;
#X connect 0 0 3 0;
#X connect 1 0 19 0;
#X connect 2 0 1 1;
#X connect 3 0 4 0;
#X connect 4 0 15 0;
#X connect 4 1 18 0;
#X connect 5 0 18 1;
#X connect 6 0 4 1;
#X connect 6 0 18 2;
#X connect 7 0 8 0;
#X connect 8 0 9 0;
#X connect 9 0 10 0;
#X connect 10 0 16 0;
#X connect 11 0 17 1;
#X connect 12 0 16 1;
#X connect 13 0 0 0;
#X connect 13 0 37 0;
#X connect 14 0 13 1;
#X connect 15 0 17 0;
#X connect 16 0 2 0;
#X connect 17 0 2 0;
#X connect 18 0 7 0;
#X connect 20 0 29 0;
#X connect 20 0 30 0;
#X connect 21 0 14 0;
#X connect 22 0 5 0;
#X connect 23 0 6 0;
#X connect 24 0 11 0;
#X connect 25 0 12 0;
#X connect 26 0 33 0;
#X connect 28 0 34 0;
#X connect 29 0 19 0;
#X connect 30 0 13 0;
#X connect 31 0 30 1;
#X connect 32 0 29 1;
#X connect 33 0 36 0;
#X connect 34 0 32 0;
#X connect 35 0 31 0;
#X connect 36 0 28 0;
#X connect 36 0 35 0;
#X connect 38 0 1 0;
#X connect 39 0 40 0;
#X connect 40 0 33 0;
