#N canvas 0 22 477 509 10;
#X floatatom 159 65 5 0 1000 3 time - -;
#X obj 130 374 *~ 0.5;
#X floatatom 193 65 5 0 100 3 feedback - -;
#X obj 114 206 +~;
#X obj 28 375 outlet~;
#X obj 28 21 inlet~;
#X obj 142 21 inlet;
#X obj 180 21 inlet;
#X obj 220 21 inlet;
#X floatatom 194 203 5 0 0 0 - - -;
#X obj 194 181 / 100;
#X obj 129 111 expr 1-$f1;
#X obj 28 189 *~;
#X obj 71 189 *~;
#X obj 129 159 line~;
#X obj 43 159 line~;
#X obj 42 94 / 100;
#X obj 43 137 pack 0 500;
#X obj 129 137 pack 0 500;
#X obj 142 66 vsl 15 25 100 0 0 0 empty empty empty 0 -7 0 9 -262144
-1 -1 0 1;
#X msg 302 48 500;
#X msg 335 48 50;
#X obj 272 21 r l_bang;
#X obj 114 231 delwrite~ tr1-delay 1000;
#X obj 114 298 delread~ tr1-delay 500;
#X msg 272 47 100;
#X connect 0 0 24 0;
#X connect 1 0 3 1;
#X connect 2 0 10 0;
#X connect 3 0 23 0;
#X connect 5 0 12 0;
#X connect 5 0 13 0;
#X connect 6 0 19 0;
#X connect 7 0 0 0;
#X connect 8 0 2 0;
#X connect 9 0 1 1;
#X connect 10 0 9 0;
#X connect 11 0 18 0;
#X connect 12 0 4 0;
#X connect 13 0 3 0;
#X connect 14 0 13 1;
#X connect 15 0 12 1;
#X connect 16 0 11 0;
#X connect 16 0 17 0;
#X connect 17 0 15 0;
#X connect 18 0 14 0;
#X connect 19 0 16 0;
#X connect 20 0 0 0;
#X connect 21 0 2 0;
#X connect 22 0 20 0;
#X connect 22 0 21 0;
#X connect 22 0 25 0;
#X connect 24 0 1 0;
#X connect 24 0 4 0;
#X connect 25 0 19 0;
