#N canvas 8 23 1213 715 10;
#X obj 2 19 cnv 15 151 83 empty empty OSC 0 6 0 14 -162280 -204800
0;
#X obj 154 19 cnv 15 144 63 empty empty noise 0 6 0 14 -128992 -204800
0;
#X obj 154 83 cnv 15 144 19 empty empty LFO 0 6 0 14 -191407 -4032
0;
#X obj 2 103 cnv 15 296 35 empty empty Amp 0 8 0 14 -128992 -204800
0;
#X obj 409 268 route 0 1 2 3 4 5 6 7 8 9 10 11 12 13 14 15;
#X obj 409 320 ../../core/s_j-synth-core-001;
#X obj 158 34 hsl 45 12 0 1 0 0 no14_j-synth-noisemix-s no14_j-synth-noisemix-r
mix 49 6 0 10 -262144 -1 -1 0 1;
#X floatatom 187 85 5 0 0 1 - no14_j-synth-lfo-r no14_j-synth-lfo-s;
#N canvas 146 23 811 308 synth-ctl-unit 0;
#X obj 21 234 outlet;
#X obj 67 234 outlet;
#X obj 113 234 outlet;
#X obj 159 234 outlet;
#X obj 355 234 outlet;
#X obj 401 234 outlet;
#X obj 447 234 outlet;
#X obj 493 234 outlet;
#X obj 206 234 outlet;
#X obj 21 17 r no14_j-synth-slide-s;
#X obj 67 38 r no14_j-synth-oscmode-s;
#X obj 113 58 r no14_j-synth-oscsyncmode-s;
#X obj 159 82 r no14_j-synth-modulator-s;
#X obj 206 106 r no14_j-synth-modamp-s;
#X obj 539 124 r no14_j-synth-lfo-s;
#X obj 493 100 r no14_j-synth-lfowave-s;
#X obj 401 48 r no14_j-synth-noisefilter-s;
#X obj 447 70 r no14_j-synth-noiseadsr-s;
#X obj 585 158 r no14_j-synth-ampfilter-s;
#X obj 631 180 r no14_j-synth-ampadsr-s;
#X obj 355 19 r no14_j-synth-noisemix-s;
#X obj 539 234 outlet;
#X obj 585 234 outlet;
#X obj 631 234 outlet;
#X connect 9 0 0 0;
#X connect 10 0 1 0;
#X connect 11 0 2 0;
#X connect 12 0 3 0;
#X connect 13 0 8 0;
#X connect 14 0 21 0;
#X connect 15 0 7 0;
#X connect 16 0 5 0;
#X connect 17 0 6 0;
#X connect 18 0 22 0;
#X connect 19 0 23 0;
#X connect 20 0 4 0;
#X restore 481 301 pd synth-ctl-unit;
#X obj 409 248 r no14_j-synth-in;
#X obj 11 353 s~ no14_j-synth-out;
#X obj 409 632 throw~ no14_j-synth;
#X obj 11 331 catch~ no14_j-synth;
#X obj 65 20 hradio 10 1 1 5 no14_j-synth-slide-s no14_j-synth-slide-r
slide 55 4 0 9 -262144 -1 -1 2;
#X obj 3 47 hradio 15 1 0 2 no14_j-synth-oscmode-s no14_j-synth-oscmode-r
OSC-Mode 0 -8 0 9 -262144 -1 -1 0;
#X obj 56 47 hradio 15 1 0 4 no14_j-synth-oscsyncmode-s no14_j-synth-oscsyncmode-r
OSC-Sync-Mode 0 -8 0 9 -262144 -1 -1 0;
#X floatatom 3 85 5 0 0 1 Mod_amp(brightness) no14_j-synth-modamp-r
no14_j-synth-modamp-s;
#X floatatom 3 66 9 0 0 1 Modulator(osc2) no14_j-synth-modulator-r no14_j-synth-modulator-s
;
#X floatatom 226 31 5 0 0 2 hip - -;
#X floatatom 260 31 5 0 0 2 lop - -;
#X obj 221 86 hradio 15 1 0 2 no14_j-synth-lfowave-s no14_j-synth-lfowave-r
wave 33 8 0 10 -262144 -1 -1 0;
#X floatatom 156 63 5 0 0 2 A(m/s) - -;
#X floatatom 193 63 5 0 0 2 D(m/s) - -;
#X floatatom 265 63 5 0 0 2 R(m/s) - -;
#X floatatom 229 63 5 0 1 2 S(vol) - -;
#X obj 2 2 cnv 15 296 16 empty empty synth-14 120 7 0 14 -1 -262144
0;
#X obj 196 192 pack 0 0;
#X obj 196 214 s no14_j-synth-noisefilter-s;
#X obj 196 287 s no14_j-synth-noiseadsr-s;
#X obj 196 265 pack 0 0 0 0;
#X floatatom 35 119 5 0 0 2 hip - -;
#X floatatom 71 119 5 0 0 2 lop - -;
#X floatatom 116 119 5 0 0 2 A(m/s) - -;
#X floatatom 155 119 5 0 0 2 D(m/s) - -;
#X floatatom 236 119 5 0 0 2 R(m/s) - -;
#X floatatom 195 119 5 0 1 2 S(vol) - -;
#X obj 11 190 pack 0 0;
#X obj 11 263 pack 0 0 0 0;
#X obj 11 212 s no14_j-synth-ampfilter-s;
#X obj 11 285 s no14_j-synth-ampadsr-s;
#X obj 415 101 s no14_j-synth-slide-r;
#X obj 547 101 s no14_j-synth-oscmode-r;
#X obj 691 101 s no14_j-synth-oscsyncmode-r;
#X obj 859 101 s no14_j-synth-modulator-r;
#X obj 1015 101 s no14_j-synth-modamp-r;
#X obj 888 215 s no14_j-synth-lfo-r;
#X obj 1009 215 s no14_j-synth-lfowave-r;
#X obj 737 215 s no14_j-synth-noisemix-r;
#X obj 340 67 b;
#X obj 312 15 b;
#X obj 313 47 b;
#X obj 340 103 b;
#X obj 1076 63 sel 0;
#X msg 1076 84 1;
#X obj 902 63 sel 0 1 2 3;
#X msg 958 84 1;
#X msg 986 84 2;
#X msg 902 84 0;
#X msg 930 84 1.1;
#X obj 408 215 unpack 0 0;
#X obj 475 215 unpack 0 0 0 0;
#X obj 570 215 unpack 0 0;
#X obj 637 215 unpack 0 0 0 0;
#X msg 408 164 10 25000;
#X msg 570 164 10 25000;
#X msg 637 164 30 200 0.3 500;
#X msg 475 164 200 50 0.3 10;
#X obj 408 -21 r l_bang;
#X obj 408 127 t b;
#X obj 415 21 t b;
#X obj 424 359 ../../core/s_j-synth-core-001;
#N canvas 146 23 811 308 synth-ctl-unit 0;
#X obj 21 234 outlet;
#X obj 67 234 outlet;
#X obj 113 234 outlet;
#X obj 159 234 outlet;
#X obj 355 234 outlet;
#X obj 401 234 outlet;
#X obj 447 234 outlet;
#X obj 493 234 outlet;
#X obj 206 234 outlet;
#X obj 21 17 r no14_j-synth-slide-s;
#X obj 67 38 r no14_j-synth-oscmode-s;
#X obj 113 58 r no14_j-synth-oscsyncmode-s;
#X obj 159 82 r no14_j-synth-modulator-s;
#X obj 206 106 r no14_j-synth-modamp-s;
#X obj 539 124 r no14_j-synth-lfo-s;
#X obj 493 100 r no14_j-synth-lfowave-s;
#X obj 401 48 r no14_j-synth-noisefilter-s;
#X obj 447 70 r no14_j-synth-noiseadsr-s;
#X obj 585 158 r no14_j-synth-ampfilter-s;
#X obj 631 180 r no14_j-synth-ampadsr-s;
#X obj 355 19 r no14_j-synth-noisemix-s;
#X obj 539 234 outlet;
#X obj 585 234 outlet;
#X obj 631 234 outlet;
#X connect 9 0 0 0;
#X connect 10 0 1 0;
#X connect 11 0 2 0;
#X connect 12 0 3 0;
#X connect 13 0 8 0;
#X connect 14 0 21 0;
#X connect 15 0 7 0;
#X connect 16 0 5 0;
#X connect 17 0 6 0;
#X connect 18 0 22 0;
#X connect 19 0 23 0;
#X connect 20 0 4 0;
#X restore 496 340 pd synth-ctl-unit;
#X obj 440 398 ../../core/s_j-synth-core-001;
#N canvas 146 23 811 308 synth-ctl-unit 0;
#X obj 21 234 outlet;
#X obj 67 234 outlet;
#X obj 113 234 outlet;
#X obj 159 234 outlet;
#X obj 355 234 outlet;
#X obj 401 234 outlet;
#X obj 447 234 outlet;
#X obj 493 234 outlet;
#X obj 206 234 outlet;
#X obj 21 17 r no14_j-synth-slide-s;
#X obj 67 38 r no14_j-synth-oscmode-s;
#X obj 113 58 r no14_j-synth-oscsyncmode-s;
#X obj 159 82 r no14_j-synth-modulator-s;
#X obj 206 106 r no14_j-synth-modamp-s;
#X obj 539 124 r no14_j-synth-lfo-s;
#X obj 493 100 r no14_j-synth-lfowave-s;
#X obj 401 48 r no14_j-synth-noisefilter-s;
#X obj 447 70 r no14_j-synth-noiseadsr-s;
#X obj 585 158 r no14_j-synth-ampfilter-s;
#X obj 631 180 r no14_j-synth-ampadsr-s;
#X obj 355 19 r no14_j-synth-noisemix-s;
#X obj 539 234 outlet;
#X obj 585 234 outlet;
#X obj 631 234 outlet;
#X connect 9 0 0 0;
#X connect 10 0 1 0;
#X connect 11 0 2 0;
#X connect 12 0 3 0;
#X connect 13 0 8 0;
#X connect 14 0 21 0;
#X connect 15 0 7 0;
#X connect 16 0 5 0;
#X connect 17 0 6 0;
#X connect 18 0 22 0;
#X connect 19 0 23 0;
#X connect 20 0 4 0;
#X restore 512 379 pd synth-ctl-unit;
#X obj 456 437 ../../core/s_j-synth-core-001;
#N canvas 146 23 811 308 synth-ctl-unit 0;
#X obj 21 234 outlet;
#X obj 67 234 outlet;
#X obj 113 234 outlet;
#X obj 159 234 outlet;
#X obj 355 234 outlet;
#X obj 401 234 outlet;
#X obj 447 234 outlet;
#X obj 493 234 outlet;
#X obj 206 234 outlet;
#X obj 21 17 r no14_j-synth-slide-s;
#X obj 67 38 r no14_j-synth-oscmode-s;
#X obj 113 58 r no14_j-synth-oscsyncmode-s;
#X obj 159 82 r no14_j-synth-modulator-s;
#X obj 206 106 r no14_j-synth-modamp-s;
#X obj 539 124 r no14_j-synth-lfo-s;
#X obj 493 100 r no14_j-synth-lfowave-s;
#X obj 401 48 r no14_j-synth-noisefilter-s;
#X obj 447 70 r no14_j-synth-noiseadsr-s;
#X obj 585 158 r no14_j-synth-ampfilter-s;
#X obj 631 180 r no14_j-synth-ampadsr-s;
#X obj 355 19 r no14_j-synth-noisemix-s;
#X obj 539 234 outlet;
#X obj 585 234 outlet;
#X obj 631 234 outlet;
#X connect 9 0 0 0;
#X connect 10 0 1 0;
#X connect 11 0 2 0;
#X connect 12 0 3 0;
#X connect 13 0 8 0;
#X connect 14 0 21 0;
#X connect 15 0 7 0;
#X connect 16 0 5 0;
#X connect 17 0 6 0;
#X connect 18 0 22 0;
#X connect 19 0 23 0;
#X connect 20 0 4 0;
#X restore 528 418 pd synth-ctl-unit;
#X obj 472 476 ../../core/s_j-synth-core-001;
#N canvas 146 23 811 308 synth-ctl-unit 0;
#X obj 21 234 outlet;
#X obj 67 234 outlet;
#X obj 113 234 outlet;
#X obj 159 234 outlet;
#X obj 355 234 outlet;
#X obj 401 234 outlet;
#X obj 447 234 outlet;
#X obj 493 234 outlet;
#X obj 206 234 outlet;
#X obj 21 17 r no14_j-synth-slide-s;
#X obj 67 38 r no14_j-synth-oscmode-s;
#X obj 113 58 r no14_j-synth-oscsyncmode-s;
#X obj 159 82 r no14_j-synth-modulator-s;
#X obj 206 106 r no14_j-synth-modamp-s;
#X obj 539 124 r no14_j-synth-lfo-s;
#X obj 493 100 r no14_j-synth-lfowave-s;
#X obj 401 48 r no14_j-synth-noisefilter-s;
#X obj 447 70 r no14_j-synth-noiseadsr-s;
#X obj 585 158 r no14_j-synth-ampfilter-s;
#X obj 631 180 r no14_j-synth-ampadsr-s;
#X obj 355 19 r no14_j-synth-noisemix-s;
#X obj 539 234 outlet;
#X obj 585 234 outlet;
#X obj 631 234 outlet;
#X connect 9 0 0 0;
#X connect 10 0 1 0;
#X connect 11 0 2 0;
#X connect 12 0 3 0;
#X connect 13 0 8 0;
#X connect 14 0 21 0;
#X connect 15 0 7 0;
#X connect 16 0 5 0;
#X connect 17 0 6 0;
#X connect 18 0 22 0;
#X connect 19 0 23 0;
#X connect 20 0 4 0;
#X restore 544 457 pd synth-ctl-unit;
#X obj 488 515 ../../core/s_j-synth-core-001;
#N canvas 146 23 811 308 synth-ctl-unit 0;
#X obj 21 234 outlet;
#X obj 67 234 outlet;
#X obj 113 234 outlet;
#X obj 159 234 outlet;
#X obj 355 234 outlet;
#X obj 401 234 outlet;
#X obj 447 234 outlet;
#X obj 493 234 outlet;
#X obj 206 234 outlet;
#X obj 21 17 r no14_j-synth-slide-s;
#X obj 67 38 r no14_j-synth-oscmode-s;
#X obj 113 58 r no14_j-synth-oscsyncmode-s;
#X obj 159 82 r no14_j-synth-modulator-s;
#X obj 206 106 r no14_j-synth-modamp-s;
#X obj 539 124 r no14_j-synth-lfo-s;
#X obj 493 100 r no14_j-synth-lfowave-s;
#X obj 401 48 r no14_j-synth-noisefilter-s;
#X obj 447 70 r no14_j-synth-noiseadsr-s;
#X obj 585 158 r no14_j-synth-ampfilter-s;
#X obj 631 180 r no14_j-synth-ampadsr-s;
#X obj 355 19 r no14_j-synth-noisemix-s;
#X obj 539 234 outlet;
#X obj 585 234 outlet;
#X obj 631 234 outlet;
#X connect 9 0 0 0;
#X connect 10 0 1 0;
#X connect 11 0 2 0;
#X connect 12 0 3 0;
#X connect 13 0 8 0;
#X connect 14 0 21 0;
#X connect 15 0 7 0;
#X connect 16 0 5 0;
#X connect 17 0 6 0;
#X connect 18 0 22 0;
#X connect 19 0 23 0;
#X connect 20 0 4 0;
#X restore 560 496 pd synth-ctl-unit;
#X obj 504 554 ../../core/s_j-synth-core-001;
#N canvas 146 23 811 308 synth-ctl-unit 0;
#X obj 21 234 outlet;
#X obj 67 234 outlet;
#X obj 113 234 outlet;
#X obj 159 234 outlet;
#X obj 355 234 outlet;
#X obj 401 234 outlet;
#X obj 447 234 outlet;
#X obj 493 234 outlet;
#X obj 206 234 outlet;
#X obj 21 17 r no14_j-synth-slide-s;
#X obj 67 38 r no14_j-synth-oscmode-s;
#X obj 113 58 r no14_j-synth-oscsyncmode-s;
#X obj 159 82 r no14_j-synth-modulator-s;
#X obj 206 106 r no14_j-synth-modamp-s;
#X obj 539 124 r no14_j-synth-lfo-s;
#X obj 493 100 r no14_j-synth-lfowave-s;
#X obj 401 48 r no14_j-synth-noisefilter-s;
#X obj 447 70 r no14_j-synth-noiseadsr-s;
#X obj 585 158 r no14_j-synth-ampfilter-s;
#X obj 631 180 r no14_j-synth-ampadsr-s;
#X obj 355 19 r no14_j-synth-noisemix-s;
#X obj 539 234 outlet;
#X obj 585 234 outlet;
#X obj 631 234 outlet;
#X connect 9 0 0 0;
#X connect 10 0 1 0;
#X connect 11 0 2 0;
#X connect 12 0 3 0;
#X connect 13 0 8 0;
#X connect 14 0 21 0;
#X connect 15 0 7 0;
#X connect 16 0 5 0;
#X connect 17 0 6 0;
#X connect 18 0 22 0;
#X connect 19 0 23 0;
#X connect 20 0 4 0;
#X restore 576 535 pd synth-ctl-unit;
#X obj 520 593 ../../core/s_j-synth-core-001;
#N canvas 146 23 811 308 synth-ctl-unit 0;
#X obj 21 234 outlet;
#X obj 67 234 outlet;
#X obj 113 234 outlet;
#X obj 159 234 outlet;
#X obj 355 234 outlet;
#X obj 401 234 outlet;
#X obj 447 234 outlet;
#X obj 493 234 outlet;
#X obj 206 234 outlet;
#X obj 21 17 r no14_j-synth-slide-s;
#X obj 67 38 r no14_j-synth-oscmode-s;
#X obj 113 58 r no14_j-synth-oscsyncmode-s;
#X obj 159 82 r no14_j-synth-modulator-s;
#X obj 206 106 r no14_j-synth-modamp-s;
#X obj 539 124 r no14_j-synth-lfo-s;
#X obj 493 100 r no14_j-synth-lfowave-s;
#X obj 401 48 r no14_j-synth-noisefilter-s;
#X obj 447 70 r no14_j-synth-noiseadsr-s;
#X obj 585 158 r no14_j-synth-ampfilter-s;
#X obj 631 180 r no14_j-synth-ampadsr-s;
#X obj 355 19 r no14_j-synth-noisemix-s;
#X obj 539 234 outlet;
#X obj 585 234 outlet;
#X obj 631 234 outlet;
#X connect 9 0 0 0;
#X connect 10 0 1 0;
#X connect 11 0 2 0;
#X connect 12 0 3 0;
#X connect 13 0 8 0;
#X connect 14 0 21 0;
#X connect 15 0 7 0;
#X connect 16 0 5 0;
#X connect 17 0 6 0;
#X connect 18 0 22 0;
#X connect 19 0 23 0;
#X connect 20 0 4 0;
#X restore 592 574 pd synth-ctl-unit;
#X obj 639 320 ../../core/s_j-synth-core-001;
#N canvas 146 23 811 308 synth-ctl-unit 0;
#X obj 21 234 outlet;
#X obj 67 234 outlet;
#X obj 113 234 outlet;
#X obj 159 234 outlet;
#X obj 355 234 outlet;
#X obj 401 234 outlet;
#X obj 447 234 outlet;
#X obj 493 234 outlet;
#X obj 206 234 outlet;
#X obj 21 17 r no14_j-synth-slide-s;
#X obj 67 38 r no14_j-synth-oscmode-s;
#X obj 113 58 r no14_j-synth-oscsyncmode-s;
#X obj 159 82 r no14_j-synth-modulator-s;
#X obj 206 106 r no14_j-synth-modamp-s;
#X obj 539 124 r no14_j-synth-lfo-s;
#X obj 493 100 r no14_j-synth-lfowave-s;
#X obj 401 48 r no14_j-synth-noisefilter-s;
#X obj 447 70 r no14_j-synth-noiseadsr-s;
#X obj 585 158 r no14_j-synth-ampfilter-s;
#X obj 631 180 r no14_j-synth-ampadsr-s;
#X obj 355 19 r no14_j-synth-noisemix-s;
#X obj 539 234 outlet;
#X obj 585 234 outlet;
#X obj 631 234 outlet;
#X connect 9 0 0 0;
#X connect 10 0 1 0;
#X connect 11 0 2 0;
#X connect 12 0 3 0;
#X connect 13 0 8 0;
#X connect 14 0 21 0;
#X connect 15 0 7 0;
#X connect 16 0 5 0;
#X connect 17 0 6 0;
#X connect 18 0 22 0;
#X connect 19 0 23 0;
#X connect 20 0 4 0;
#X restore 711 301 pd synth-ctl-unit;
#X obj 654 359 ../../core/s_j-synth-core-001;
#N canvas 146 23 811 308 synth-ctl-unit 0;
#X obj 21 234 outlet;
#X obj 67 234 outlet;
#X obj 113 234 outlet;
#X obj 159 234 outlet;
#X obj 355 234 outlet;
#X obj 401 234 outlet;
#X obj 447 234 outlet;
#X obj 493 234 outlet;
#X obj 206 234 outlet;
#X obj 21 17 r no14_j-synth-slide-s;
#X obj 67 38 r no14_j-synth-oscmode-s;
#X obj 113 58 r no14_j-synth-oscsyncmode-s;
#X obj 159 82 r no14_j-synth-modulator-s;
#X obj 206 106 r no14_j-synth-modamp-s;
#X obj 539 124 r no14_j-synth-lfo-s;
#X obj 493 100 r no14_j-synth-lfowave-s;
#X obj 401 48 r no14_j-synth-noisefilter-s;
#X obj 447 70 r no14_j-synth-noiseadsr-s;
#X obj 585 158 r no14_j-synth-ampfilter-s;
#X obj 631 180 r no14_j-synth-ampadsr-s;
#X obj 355 19 r no14_j-synth-noisemix-s;
#X obj 539 234 outlet;
#X obj 585 234 outlet;
#X obj 631 234 outlet;
#X connect 9 0 0 0;
#X connect 10 0 1 0;
#X connect 11 0 2 0;
#X connect 12 0 3 0;
#X connect 13 0 8 0;
#X connect 14 0 21 0;
#X connect 15 0 7 0;
#X connect 16 0 5 0;
#X connect 17 0 6 0;
#X connect 18 0 22 0;
#X connect 19 0 23 0;
#X connect 20 0 4 0;
#X restore 726 340 pd synth-ctl-unit;
#X obj 670 398 ../../core/s_j-synth-core-001;
#N canvas 146 23 811 308 synth-ctl-unit 0;
#X obj 21 234 outlet;
#X obj 67 234 outlet;
#X obj 113 234 outlet;
#X obj 159 234 outlet;
#X obj 355 234 outlet;
#X obj 401 234 outlet;
#X obj 447 234 outlet;
#X obj 493 234 outlet;
#X obj 206 234 outlet;
#X obj 21 17 r no14_j-synth-slide-s;
#X obj 67 38 r no14_j-synth-oscmode-s;
#X obj 113 58 r no14_j-synth-oscsyncmode-s;
#X obj 159 82 r no14_j-synth-modulator-s;
#X obj 206 106 r no14_j-synth-modamp-s;
#X obj 539 124 r no14_j-synth-lfo-s;
#X obj 493 100 r no14_j-synth-lfowave-s;
#X obj 401 48 r no14_j-synth-noisefilter-s;
#X obj 447 70 r no14_j-synth-noiseadsr-s;
#X obj 585 158 r no14_j-synth-ampfilter-s;
#X obj 631 180 r no14_j-synth-ampadsr-s;
#X obj 355 19 r no14_j-synth-noisemix-s;
#X obj 539 234 outlet;
#X obj 585 234 outlet;
#X obj 631 234 outlet;
#X connect 9 0 0 0;
#X connect 10 0 1 0;
#X connect 11 0 2 0;
#X connect 12 0 3 0;
#X connect 13 0 8 0;
#X connect 14 0 21 0;
#X connect 15 0 7 0;
#X connect 16 0 5 0;
#X connect 17 0 6 0;
#X connect 18 0 22 0;
#X connect 19 0 23 0;
#X connect 20 0 4 0;
#X restore 742 379 pd synth-ctl-unit;
#X obj 686 437 ../../core/s_j-synth-core-001;
#N canvas 146 23 811 308 synth-ctl-unit 0;
#X obj 21 234 outlet;
#X obj 67 234 outlet;
#X obj 113 234 outlet;
#X obj 159 234 outlet;
#X obj 355 234 outlet;
#X obj 401 234 outlet;
#X obj 447 234 outlet;
#X obj 493 234 outlet;
#X obj 206 234 outlet;
#X obj 21 17 r no14_j-synth-slide-s;
#X obj 67 38 r no14_j-synth-oscmode-s;
#X obj 113 58 r no14_j-synth-oscsyncmode-s;
#X obj 159 82 r no14_j-synth-modulator-s;
#X obj 206 106 r no14_j-synth-modamp-s;
#X obj 539 124 r no14_j-synth-lfo-s;
#X obj 493 100 r no14_j-synth-lfowave-s;
#X obj 401 48 r no14_j-synth-noisefilter-s;
#X obj 447 70 r no14_j-synth-noiseadsr-s;
#X obj 585 158 r no14_j-synth-ampfilter-s;
#X obj 631 180 r no14_j-synth-ampadsr-s;
#X obj 355 19 r no14_j-synth-noisemix-s;
#X obj 539 234 outlet;
#X obj 585 234 outlet;
#X obj 631 234 outlet;
#X connect 9 0 0 0;
#X connect 10 0 1 0;
#X connect 11 0 2 0;
#X connect 12 0 3 0;
#X connect 13 0 8 0;
#X connect 14 0 21 0;
#X connect 15 0 7 0;
#X connect 16 0 5 0;
#X connect 17 0 6 0;
#X connect 18 0 22 0;
#X connect 19 0 23 0;
#X connect 20 0 4 0;
#X restore 758 418 pd synth-ctl-unit;
#X obj 702 476 ../../core/s_j-synth-core-001;
#N canvas 146 23 811 308 synth-ctl-unit 0;
#X obj 21 234 outlet;
#X obj 67 234 outlet;
#X obj 113 234 outlet;
#X obj 159 234 outlet;
#X obj 355 234 outlet;
#X obj 401 234 outlet;
#X obj 447 234 outlet;
#X obj 493 234 outlet;
#X obj 206 234 outlet;
#X obj 21 17 r no14_j-synth-slide-s;
#X obj 67 38 r no14_j-synth-oscmode-s;
#X obj 113 58 r no14_j-synth-oscsyncmode-s;
#X obj 159 82 r no14_j-synth-modulator-s;
#X obj 206 106 r no14_j-synth-modamp-s;
#X obj 539 124 r no14_j-synth-lfo-s;
#X obj 493 100 r no14_j-synth-lfowave-s;
#X obj 401 48 r no14_j-synth-noisefilter-s;
#X obj 447 70 r no14_j-synth-noiseadsr-s;
#X obj 585 158 r no14_j-synth-ampfilter-s;
#X obj 631 180 r no14_j-synth-ampadsr-s;
#X obj 355 19 r no14_j-synth-noisemix-s;
#X obj 539 234 outlet;
#X obj 585 234 outlet;
#X obj 631 234 outlet;
#X connect 9 0 0 0;
#X connect 10 0 1 0;
#X connect 11 0 2 0;
#X connect 12 0 3 0;
#X connect 13 0 8 0;
#X connect 14 0 21 0;
#X connect 15 0 7 0;
#X connect 16 0 5 0;
#X connect 17 0 6 0;
#X connect 18 0 22 0;
#X connect 19 0 23 0;
#X connect 20 0 4 0;
#X restore 774 457 pd synth-ctl-unit;
#X obj 718 515 ../../core/s_j-synth-core-001;
#N canvas 146 23 811 308 synth-ctl-unit 0;
#X obj 21 234 outlet;
#X obj 67 234 outlet;
#X obj 113 234 outlet;
#X obj 159 234 outlet;
#X obj 355 234 outlet;
#X obj 401 234 outlet;
#X obj 447 234 outlet;
#X obj 493 234 outlet;
#X obj 206 234 outlet;
#X obj 21 17 r no14_j-synth-slide-s;
#X obj 67 38 r no14_j-synth-oscmode-s;
#X obj 113 58 r no14_j-synth-oscsyncmode-s;
#X obj 159 82 r no14_j-synth-modulator-s;
#X obj 206 106 r no14_j-synth-modamp-s;
#X obj 539 124 r no14_j-synth-lfo-s;
#X obj 493 100 r no14_j-synth-lfowave-s;
#X obj 401 48 r no14_j-synth-noisefilter-s;
#X obj 447 70 r no14_j-synth-noiseadsr-s;
#X obj 585 158 r no14_j-synth-ampfilter-s;
#X obj 631 180 r no14_j-synth-ampadsr-s;
#X obj 355 19 r no14_j-synth-noisemix-s;
#X obj 539 234 outlet;
#X obj 585 234 outlet;
#X obj 631 234 outlet;
#X connect 9 0 0 0;
#X connect 10 0 1 0;
#X connect 11 0 2 0;
#X connect 12 0 3 0;
#X connect 13 0 8 0;
#X connect 14 0 21 0;
#X connect 15 0 7 0;
#X connect 16 0 5 0;
#X connect 17 0 6 0;
#X connect 18 0 22 0;
#X connect 19 0 23 0;
#X connect 20 0 4 0;
#X restore 790 496 pd synth-ctl-unit;
#X obj 734 554 ../../core/s_j-synth-core-001;
#N canvas 146 23 811 308 synth-ctl-unit 0;
#X obj 21 234 outlet;
#X obj 67 234 outlet;
#X obj 113 234 outlet;
#X obj 159 234 outlet;
#X obj 355 234 outlet;
#X obj 401 234 outlet;
#X obj 447 234 outlet;
#X obj 493 234 outlet;
#X obj 206 234 outlet;
#X obj 21 17 r no14_j-synth-slide-s;
#X obj 67 38 r no14_j-synth-oscmode-s;
#X obj 113 58 r no14_j-synth-oscsyncmode-s;
#X obj 159 82 r no14_j-synth-modulator-s;
#X obj 206 106 r no14_j-synth-modamp-s;
#X obj 539 124 r no14_j-synth-lfo-s;
#X obj 493 100 r no14_j-synth-lfowave-s;
#X obj 401 48 r no14_j-synth-noisefilter-s;
#X obj 447 70 r no14_j-synth-noiseadsr-s;
#X obj 585 158 r no14_j-synth-ampfilter-s;
#X obj 631 180 r no14_j-synth-ampadsr-s;
#X obj 355 19 r no14_j-synth-noisemix-s;
#X obj 539 234 outlet;
#X obj 585 234 outlet;
#X obj 631 234 outlet;
#X connect 9 0 0 0;
#X connect 10 0 1 0;
#X connect 11 0 2 0;
#X connect 12 0 3 0;
#X connect 13 0 8 0;
#X connect 14 0 21 0;
#X connect 15 0 7 0;
#X connect 16 0 5 0;
#X connect 17 0 6 0;
#X connect 18 0 22 0;
#X connect 19 0 23 0;
#X connect 20 0 4 0;
#X restore 806 535 pd synth-ctl-unit;
#X obj 750 593 ../../core/s_j-synth-core-001;
#N canvas 146 23 811 308 synth-ctl-unit 0;
#X obj 21 234 outlet;
#X obj 67 234 outlet;
#X obj 113 234 outlet;
#X obj 159 234 outlet;
#X obj 355 234 outlet;
#X obj 401 234 outlet;
#X obj 447 234 outlet;
#X obj 493 234 outlet;
#X obj 206 234 outlet;
#X obj 21 17 r no14_j-synth-slide-s;
#X obj 67 38 r no14_j-synth-oscmode-s;
#X obj 113 58 r no14_j-synth-oscsyncmode-s;
#X obj 159 82 r no14_j-synth-modulator-s;
#X obj 206 106 r no14_j-synth-modamp-s;
#X obj 539 124 r no14_j-synth-lfo-s;
#X obj 493 100 r no14_j-synth-lfowave-s;
#X obj 401 48 r no14_j-synth-noisefilter-s;
#X obj 447 70 r no14_j-synth-noiseadsr-s;
#X obj 585 158 r no14_j-synth-ampfilter-s;
#X obj 631 180 r no14_j-synth-ampadsr-s;
#X obj 355 19 r no14_j-synth-noisemix-s;
#X obj 539 234 outlet;
#X obj 585 234 outlet;
#X obj 631 234 outlet;
#X connect 9 0 0 0;
#X connect 10 0 1 0;
#X connect 11 0 2 0;
#X connect 12 0 3 0;
#X connect 13 0 8 0;
#X connect 14 0 21 0;
#X connect 15 0 7 0;
#X connect 16 0 5 0;
#X connect 17 0 6 0;
#X connect 18 0 22 0;
#X connect 19 0 23 0;
#X connect 20 0 4 0;
#X restore 822 574 pd synth-ctl-unit;
#X msg 737 164 0;
#X msg 888 164 0;
#X msg 1009 164 0;
#X msg 415 65 2;
#X msg 547 65 0;
#X msg 691 65 0;
#X connect 4 0 5 0;
#X connect 4 1 70 0;
#X connect 4 2 72 0;
#X connect 4 3 74 0;
#X connect 4 4 76 0;
#X connect 4 5 78 0;
#X connect 4 6 80 0;
#X connect 4 7 82 0;
#X connect 4 8 84 0;
#X connect 4 9 86 0;
#X connect 4 10 88 0;
#X connect 4 11 90 0;
#X connect 4 12 92 0;
#X connect 4 13 94 0;
#X connect 4 14 96 0;
#X connect 4 15 98 0;
#X connect 5 0 11 0;
#X connect 8 0 5 1;
#X connect 8 1 5 2;
#X connect 8 2 5 3;
#X connect 8 3 5 4;
#X connect 8 4 5 5;
#X connect 8 5 5 6;
#X connect 8 6 5 7;
#X connect 8 7 5 8;
#X connect 8 8 5 9;
#X connect 8 9 5 10;
#X connect 8 10 5 11;
#X connect 8 11 5 12;
#X connect 9 0 4 0;
#X connect 12 0 10 0;
#X connect 14 0 52 0;
#X connect 15 0 54 0;
#X connect 18 0 26 0;
#X connect 19 0 26 1;
#X connect 19 0 49 0;
#X connect 21 0 29 0;
#X connect 22 0 29 1;
#X connect 22 0 50 0;
#X connect 23 0 29 3;
#X connect 23 0 50 0;
#X connect 24 0 29 2;
#X connect 24 0 50 0;
#X connect 26 0 27 0;
#X connect 29 0 28 0;
#X connect 30 0 36 0;
#X connect 31 0 36 1;
#X connect 31 0 48 0;
#X connect 32 0 37 0;
#X connect 33 0 37 1;
#X connect 33 0 51 0;
#X connect 34 0 37 3;
#X connect 34 0 51 0;
#X connect 35 0 37 2;
#X connect 35 0 51 0;
#X connect 36 0 38 0;
#X connect 37 0 39 0;
#X connect 48 0 30 0;
#X connect 49 0 18 0;
#X connect 50 0 21 0;
#X connect 51 0 32 0;
#X connect 52 0 53 0;
#X connect 53 0 44 0;
#X connect 54 0 57 0;
#X connect 54 1 58 0;
#X connect 54 2 55 0;
#X connect 54 3 56 0;
#X connect 55 0 43 0;
#X connect 56 0 43 0;
#X connect 57 0 43 0;
#X connect 58 0 43 0;
#X connect 59 0 18 0;
#X connect 59 1 19 0;
#X connect 60 0 21 0;
#X connect 60 1 22 0;
#X connect 60 2 24 0;
#X connect 60 3 23 0;
#X connect 61 0 30 0;
#X connect 61 1 31 0;
#X connect 62 0 32 0;
#X connect 62 1 33 0;
#X connect 62 2 35 0;
#X connect 62 3 34 0;
#X connect 63 0 59 0;
#X connect 64 0 61 0;
#X connect 65 0 62 0;
#X connect 66 0 60 0;
#X connect 67 0 69 0;
#X connect 67 0 68 0;
#X connect 68 0 63 0;
#X connect 68 0 66 0;
#X connect 68 0 64 0;
#X connect 68 0 65 0;
#X connect 68 0 100 0;
#X connect 68 0 101 0;
#X connect 68 0 102 0;
#X connect 69 0 103 0;
#X connect 69 0 104 0;
#X connect 69 0 105 0;
#X connect 70 0 11 0;
#X connect 71 0 70 1;
#X connect 71 1 70 2;
#X connect 71 2 70 3;
#X connect 71 3 70 4;
#X connect 71 4 70 5;
#X connect 71 5 70 6;
#X connect 71 6 70 7;
#X connect 71 7 70 8;
#X connect 71 8 70 9;
#X connect 71 9 70 10;
#X connect 71 10 70 11;
#X connect 71 11 70 12;
#X connect 72 0 11 0;
#X connect 73 0 72 1;
#X connect 73 1 72 2;
#X connect 73 2 72 3;
#X connect 73 3 72 4;
#X connect 73 4 72 5;
#X connect 73 5 72 6;
#X connect 73 6 72 7;
#X connect 73 7 72 8;
#X connect 73 8 72 9;
#X connect 73 9 72 10;
#X connect 73 10 72 11;
#X connect 73 11 72 12;
#X connect 74 0 11 0;
#X connect 75 0 74 1;
#X connect 75 1 74 2;
#X connect 75 2 74 3;
#X connect 75 3 74 4;
#X connect 75 4 74 5;
#X connect 75 5 74 6;
#X connect 75 6 74 7;
#X connect 75 7 74 8;
#X connect 75 8 74 9;
#X connect 75 9 74 10;
#X connect 75 10 74 11;
#X connect 75 11 74 12;
#X connect 76 0 11 0;
#X connect 77 0 76 1;
#X connect 77 1 76 2;
#X connect 77 2 76 3;
#X connect 77 3 76 4;
#X connect 77 4 76 5;
#X connect 77 5 76 6;
#X connect 77 6 76 7;
#X connect 77 7 76 8;
#X connect 77 8 76 9;
#X connect 77 9 76 10;
#X connect 77 10 76 11;
#X connect 77 11 76 12;
#X connect 78 0 11 0;
#X connect 79 0 78 1;
#X connect 79 1 78 2;
#X connect 79 2 78 3;
#X connect 79 3 78 4;
#X connect 79 4 78 5;
#X connect 79 5 78 6;
#X connect 79 6 78 7;
#X connect 79 7 78 8;
#X connect 79 8 78 9;
#X connect 79 9 78 10;
#X connect 79 10 78 11;
#X connect 79 11 78 12;
#X connect 80 0 11 0;
#X connect 81 0 80 1;
#X connect 81 1 80 2;
#X connect 81 2 80 3;
#X connect 81 3 80 4;
#X connect 81 4 80 5;
#X connect 81 5 80 6;
#X connect 81 6 80 7;
#X connect 81 7 80 8;
#X connect 81 8 80 9;
#X connect 81 9 80 10;
#X connect 81 10 80 11;
#X connect 81 11 80 12;
#X connect 82 0 11 0;
#X connect 83 0 82 1;
#X connect 83 1 82 2;
#X connect 83 2 82 3;
#X connect 83 3 82 4;
#X connect 83 4 82 5;
#X connect 83 5 82 6;
#X connect 83 6 82 7;
#X connect 83 7 82 8;
#X connect 83 8 82 9;
#X connect 83 9 82 10;
#X connect 83 10 82 11;
#X connect 83 11 82 12;
#X connect 84 0 11 0;
#X connect 85 0 84 1;
#X connect 85 1 84 2;
#X connect 85 2 84 3;
#X connect 85 3 84 4;
#X connect 85 4 84 5;
#X connect 85 5 84 6;
#X connect 85 6 84 7;
#X connect 85 7 84 8;
#X connect 85 8 84 9;
#X connect 85 9 84 10;
#X connect 85 10 84 11;
#X connect 85 11 84 12;
#X connect 86 0 11 0;
#X connect 87 0 86 1;
#X connect 87 1 86 2;
#X connect 87 2 86 3;
#X connect 87 3 86 4;
#X connect 87 4 86 5;
#X connect 87 5 86 6;
#X connect 87 6 86 7;
#X connect 87 7 86 8;
#X connect 87 8 86 9;
#X connect 87 9 86 10;
#X connect 87 10 86 11;
#X connect 87 11 86 12;
#X connect 88 0 11 0;
#X connect 89 0 88 1;
#X connect 89 1 88 2;
#X connect 89 2 88 3;
#X connect 89 3 88 4;
#X connect 89 4 88 5;
#X connect 89 5 88 6;
#X connect 89 6 88 7;
#X connect 89 7 88 8;
#X connect 89 8 88 9;
#X connect 89 9 88 10;
#X connect 89 10 88 11;
#X connect 89 11 88 12;
#X connect 90 0 11 0;
#X connect 91 0 90 1;
#X connect 91 1 90 2;
#X connect 91 2 90 3;
#X connect 91 3 90 4;
#X connect 91 4 90 5;
#X connect 91 5 90 6;
#X connect 91 6 90 7;
#X connect 91 7 90 8;
#X connect 91 8 90 9;
#X connect 91 9 90 10;
#X connect 91 10 90 11;
#X connect 91 11 90 12;
#X connect 92 0 11 0;
#X connect 93 0 92 1;
#X connect 93 1 92 2;
#X connect 93 2 92 3;
#X connect 93 3 92 4;
#X connect 93 4 92 5;
#X connect 93 5 92 6;
#X connect 93 6 92 7;
#X connect 93 7 92 8;
#X connect 93 8 92 9;
#X connect 93 9 92 10;
#X connect 93 10 92 11;
#X connect 93 11 92 12;
#X connect 94 0 11 0;
#X connect 95 0 94 1;
#X connect 95 1 94 2;
#X connect 95 2 94 3;
#X connect 95 3 94 4;
#X connect 95 4 94 5;
#X connect 95 5 94 6;
#X connect 95 6 94 7;
#X connect 95 7 94 8;
#X connect 95 8 94 9;
#X connect 95 9 94 10;
#X connect 95 10 94 11;
#X connect 95 11 94 12;
#X connect 96 0 11 0;
#X connect 97 0 96 1;
#X connect 97 1 96 2;
#X connect 97 2 96 3;
#X connect 97 3 96 4;
#X connect 97 4 96 5;
#X connect 97 5 96 6;
#X connect 97 6 96 7;
#X connect 97 7 96 8;
#X connect 97 8 96 9;
#X connect 97 9 96 10;
#X connect 97 10 96 11;
#X connect 97 11 96 12;
#X connect 98 0 11 0;
#X connect 99 0 98 1;
#X connect 99 1 98 2;
#X connect 99 2 98 3;
#X connect 99 3 98 4;
#X connect 99 4 98 5;
#X connect 99 5 98 6;
#X connect 99 6 98 7;
#X connect 99 7 98 8;
#X connect 99 8 98 9;
#X connect 99 9 98 10;
#X connect 99 10 98 11;
#X connect 99 11 98 12;
#X connect 100 0 47 0;
#X connect 101 0 45 0;
#X connect 102 0 46 0;
#X connect 103 0 40 0;
#X connect 104 0 41 0;
#X connect 105 0 42 0;
#X coords 0 -1 1 1 300 140 2 0 0;
