#N canvas 7 23 632 466 10;
#X floatatom 297 70 5 0 0 0 - - -;
#X obj 297 46 f;
#X obj 334 47 + 1;
#X obj 334 69 mod 16;
#X obj 297 24 bng 12 250 50 0 empty empty empty 17 7 0 10 -262144 -1
-1;
#X floatatom 428 53 5 1 16 0 step_loop - -;
#X text 336 21 <- reset;
#X msg 312 24 0;
#X obj 3 190 vsl 8 32 0 127 0 0 empty empty empty 0 -9 0 10 -262144
-1 -1 0 1;
#N canvas 22 23 1226 722 one_musical_bar_step_1 0;
#X msg 10 226 color \$1 \$2 \$3;
#X obj 39 178 t b a;
#X obj 10 202 pack 0 2 0;
#X msg 110 226 color \$1 \$2 \$3;
#X obj 140 178 t b a;
#X obj 110 202 pack 0 2 0;
#X msg 142 126 20;
#X msg 110 126 10;
#X msg 10 126 10;
#X msg 208 226 color \$1 \$2 \$3;
#X obj 238 178 t b a;
#X obj 208 202 pack 0 2 0;
#X msg 240 126 20;
#X msg 208 126 10;
#X msg 306 226 color \$1 \$2 \$3;
#X obj 336 178 t b a;
#X obj 306 202 pack 0 2 0;
#X msg 338 126 20;
#X msg 306 126 10;
#X msg 404 226 color \$1 \$2 \$3;
#X obj 434 178 t b a;
#X obj 404 202 pack 0 2 0;
#X msg 404 126 10;
#X msg 503 226 color \$1 \$2 \$3;
#X obj 533 178 t b a;
#X obj 503 202 pack 0 2 0;
#X msg 543 126 20;
#X msg 503 126 10;
#X msg 601 226 color \$1 \$2 \$3;
#X obj 631 178 t b a;
#X obj 601 202 pack 0 2 0;
#X msg 639 126 20;
#X msg 601 126 10;
#X msg 699 226 color \$1 \$2 \$3;
#X obj 729 178 t b a;
#X obj 699 202 pack 0 2 0;
#X msg 736 126 20;
#X msg 699 126 10;
#X obj 10 17 inlet;
#X obj 10 546 outlet;
#X obj 110 546 outlet;
#X obj 306 546 outlet;
#X obj 208 546 outlet;
#X obj 503 546 outlet;
#X obj 404 546 outlet;
#X obj 601 546 outlet;
#X obj 699 546 outlet;
#X msg 798 226 color \$1 \$2 \$3;
#X obj 827 178 t b a;
#X obj 798 202 pack 0 2 0;
#X msg 898 226 color \$1 \$2 \$3;
#X obj 928 178 t b a;
#X obj 898 202 pack 0 2 0;
#X msg 930 126 20;
#X msg 898 126 10;
#X msg 798 126 10;
#X msg 996 226 color \$1 \$2 \$3;
#X obj 1026 178 t b a;
#X obj 996 202 pack 0 2 0;
#X msg 1028 126 20;
#X msg 996 126 10;
#X msg 1094 226 color \$1 \$2 \$3;
#X obj 1124 178 t b a;
#X obj 1094 202 pack 0 2 0;
#X msg 1126 126 20;
#X msg 1094 126 10;
#X msg 1192 226 color \$1 \$2 \$3;
#X obj 1222 178 t b a;
#X obj 1192 202 pack 0 2 0;
#X msg 1192 126 10;
#X msg 1291 226 color \$1 \$2 \$3;
#X obj 1321 178 t b a;
#X obj 1291 202 pack 0 2 0;
#X msg 1331 126 20;
#X msg 1291 126 10;
#X msg 1389 226 color \$1 \$2 \$3;
#X obj 1419 178 t b a;
#X obj 1389 202 pack 0 2 0;
#X msg 1427 126 20;
#X msg 1389 126 10;
#X msg 1487 226 color \$1 \$2 \$3;
#X obj 1517 178 t b a;
#X obj 1487 202 pack 0 2 0;
#X msg 1524 126 20;
#X msg 1487 126 10;
#X obj 798 546 outlet;
#X obj 898 546 outlet;
#X obj 1094 546 outlet;
#X obj 996 546 outlet;
#X obj 1291 546 outlet;
#X obj 1192 546 outlet;
#X obj 1389 546 outlet;
#X obj 1487 546 outlet;
#X obj 752 28 loadbang;
#X msg 42 126 12;
#X msg 436 126 11;
#X msg 830 126 11;
#X msg 1224 126 11;
#X obj 10 39 sel 0 1 2 3 4 5 6 7 8 9 10 11 12 13 14 15 16;
#N canvas 80 51 258 248 rdm-gen-1beat 0;
#X obj 26 43 random 127;
#X floatatom 26 63 5 0 0 0 - - -;
#X text 95 43 for note;
#X obj 26 17 inlet;
#X obj 26 171 outlet;
#X obj 26 82 expr if($i1 < 24 \, 0 \, 1);
#X connect 0 0 1 0;
#X connect 1 0 5 0;
#X connect 3 0 0 0;
#X connect 5 0 4 0;
#X restore 20 268 pd rdm-gen-1beat;
#N canvas 91 215 258 248 rdm-gen-4beat 0;
#X obj 26 43 random 127;
#X floatatom 26 63 5 0 0 0 - - -;
#X text 95 43 for note;
#X obj 26 17 inlet;
#X obj 26 171 outlet;
#X obj 26 82 expr if($i1 < 48 \, 0 \, 1);
#X connect 0 0 1 0;
#X connect 1 0 5 0;
#X connect 3 0 0 0;
#X connect 5 0 4 0;
#X restore 420 300 pd rdm-gen-4beat;
#N canvas 91 215 258 248 rdm-gen-8beat 0;
#X obj 26 43 random 127;
#X floatatom 26 63 5 0 0 0 - - -;
#X text 95 43 for note;
#X obj 26 17 inlet;
#X obj 26 171 outlet;
#X obj 26 82 expr if($i1 < 72 \, 0 \, 1);
#X connect 0 0 1 0;
#X connect 1 0 5 0;
#X connect 3 0 0 0;
#X connect 5 0 4 0;
#X restore 220 337 pd rdm-gen-8beat;
#N canvas 91 215 258 248 rdm-gen-16beat 0;
#X obj 26 43 random 127;
#X floatatom 26 63 5 0 0 0 - - -;
#X text 95 43 for note;
#X obj 26 17 inlet;
#X obj 26 171 outlet;
#X obj 26 82 expr if($i1 < 96 \, 0 \, 1);
#X connect 0 0 1 0;
#X connect 1 0 5 0;
#X connect 3 0 0 0;
#X connect 5 0 4 0;
#X restore 120 426 pd rdm-gen-16beat;
#N canvas 91 215 258 248 rdm-gen-16beat 0;
#X obj 26 43 random 127;
#X floatatom 26 63 5 0 0 0 - - -;
#X text 95 43 for note;
#X obj 26 17 inlet;
#X obj 26 171 outlet;
#X obj 26 82 expr if($i1 < 96 \, 0 \, 1);
#X connect 0 0 1 0;
#X connect 1 0 5 0;
#X connect 3 0 0 0;
#X connect 5 0 4 0;
#X restore 320 426 pd rdm-gen-16beat;
#N canvas 91 215 258 248 rdm-gen-8beat 0;
#X obj 26 43 random 127;
#X floatatom 26 63 5 0 0 0 - - -;
#X text 95 43 for note;
#X obj 26 17 inlet;
#X obj 26 171 outlet;
#X obj 26 82 expr if($i1 < 72 \, 0 \, 1);
#X connect 0 0 1 0;
#X connect 1 0 5 0;
#X connect 3 0 0 0;
#X connect 5 0 4 0;
#X restore 611 337 pd rdm-gen-8beat;
#N canvas 91 215 258 248 rdm-gen-16beat 0;
#X obj 26 43 random 127;
#X floatatom 26 63 5 0 0 0 - - -;
#X text 95 43 for note;
#X obj 26 17 inlet;
#X obj 26 171 outlet;
#X obj 26 82 expr if($i1 < 96 \, 0 \, 1);
#X connect 0 0 1 0;
#X connect 1 0 5 0;
#X connect 3 0 0 0;
#X connect 5 0 4 0;
#X restore 511 426 pd rdm-gen-16beat;
#N canvas 91 215 258 248 rdm-gen-16beat 0;
#X obj 26 43 random 127;
#X floatatom 26 63 5 0 0 0 - - -;
#X text 95 43 for note;
#X obj 26 17 inlet;
#X obj 26 171 outlet;
#X obj 26 82 expr if($i1 < 96 \, 0 \, 1);
#X connect 0 0 1 0;
#X connect 1 0 5 0;
#X connect 3 0 0 0;
#X connect 5 0 4 0;
#X restore 711 426 pd rdm-gen-16beat;
#N canvas 91 215 258 248 rdm-gen-4beat 0;
#X obj 26 43 random 127;
#X floatatom 26 63 5 0 0 0 - - -;
#X text 95 43 for note;
#X obj 26 17 inlet;
#X obj 26 171 outlet;
#X obj 26 82 expr if($i1 < 48 \, 0 \, 1);
#X connect 0 0 1 0;
#X connect 1 0 5 0;
#X connect 3 0 0 0;
#X connect 5 0 4 0;
#X restore 811 300 pd rdm-gen-4beat;
#N canvas 91 215 258 248 rdm-gen-8beat 0;
#X obj 26 43 random 127;
#X floatatom 26 63 5 0 0 0 - - -;
#X text 95 43 for note;
#X obj 26 17 inlet;
#X obj 26 171 outlet;
#X obj 26 82 expr if($i1 < 72 \, 0 \, 1);
#X connect 0 0 1 0;
#X connect 1 0 5 0;
#X connect 3 0 0 0;
#X connect 5 0 4 0;
#X restore 1010 337 pd rdm-gen-8beat;
#N canvas 91 215 258 248 rdm-gen-16beat 0;
#X obj 26 43 random 127;
#X floatatom 26 63 5 0 0 0 - - -;
#X text 95 43 for note;
#X obj 26 17 inlet;
#X obj 26 171 outlet;
#X obj 26 82 expr if($i1 < 96 \, 0 \, 1);
#X connect 0 0 1 0;
#X connect 1 0 5 0;
#X connect 3 0 0 0;
#X connect 5 0 4 0;
#X restore 911 426 pd rdm-gen-16beat;
#N canvas 91 215 258 248 rdm-gen-16beat 0;
#X obj 26 43 random 127;
#X floatatom 26 63 5 0 0 0 - - -;
#X text 95 43 for note;
#X obj 26 17 inlet;
#X obj 26 171 outlet;
#X obj 26 82 expr if($i1 < 96 \, 0 \, 1);
#X connect 0 0 1 0;
#X connect 1 0 5 0;
#X connect 3 0 0 0;
#X connect 5 0 4 0;
#X restore 1109 426 pd rdm-gen-16beat;
#N canvas 91 215 258 248 rdm-gen-4beat 0;
#X obj 26 43 random 127;
#X floatatom 26 63 5 0 0 0 - - -;
#X text 95 43 for note;
#X obj 26 17 inlet;
#X obj 26 171 outlet;
#X obj 26 82 expr if($i1 < 48 \, 0 \, 1);
#X connect 0 0 1 0;
#X connect 1 0 5 0;
#X connect 3 0 0 0;
#X connect 5 0 4 0;
#X restore 1205 300 pd rdm-gen-4beat;
#N canvas 91 215 258 248 rdm-gen-8beat 0;
#X obj 26 43 random 127;
#X floatatom 26 63 5 0 0 0 - - -;
#X text 95 43 for note;
#X obj 26 17 inlet;
#X obj 26 171 outlet;
#X obj 26 82 expr if($i1 < 72 \, 0 \, 1);
#X connect 0 0 1 0;
#X connect 1 0 5 0;
#X connect 3 0 0 0;
#X connect 5 0 4 0;
#X restore 1404 337 pd rdm-gen-8beat;
#N canvas 91 215 258 248 rdm-gen-16beat 0;
#X obj 26 43 random 127;
#X floatatom 26 63 5 0 0 0 - - -;
#X text 95 43 for note;
#X obj 26 17 inlet;
#X obj 26 171 outlet;
#X obj 26 82 expr if($i1 < 96 \, 0 \, 1);
#X connect 0 0 1 0;
#X connect 1 0 5 0;
#X connect 3 0 0 0;
#X connect 5 0 4 0;
#X restore 1304 426 pd rdm-gen-16beat;
#N canvas 91 215 258 248 rdm-gen-16beat 0;
#X obj 26 43 random 127;
#X floatatom 26 63 5 0 0 0 - - -;
#X text 95 43 for note;
#X obj 26 17 inlet;
#X obj 26 171 outlet;
#X obj 26 82 expr if($i1 < 96 \, 0 \, 1);
#X connect 0 0 1 0;
#X connect 1 0 5 0;
#X connect 3 0 0 0;
#X connect 5 0 4 0;
#X restore 1502 426 pd rdm-gen-16beat;
#X obj 390 17 inlet;
#X msg 752 50 19;
#X obj 289 598 hradio 15 1 0 3 empty empty empty 0 -8 0 10 -262144
-1 -1 0;
#X floatatom 202 597 5 0 0 0 - - -;
#X floatatom 211 657 5 0 0 0 - - -;
#N canvas 312 386 271 212 rand-gate-16 0;
#X obj 111 18 inlet;
#X obj 28 19 inlet;
#X obj 78 178 outlet;
#X text 63 21 data;
#X text 146 21 on/off;
#X obj 78 110 gate;
#X msg 111 132 0;
#X obj 111 45 sel 0 1 2;
#X msg 111 74 0;
#X msg 141 74 0;
#X msg 171 74 1;
#X obj 111 110 sel 0;
#X connect 0 0 7 0;
#X connect 1 0 5 1;
#X connect 5 0 2 0;
#X connect 6 0 2 0;
#X connect 7 0 8 0;
#X connect 7 1 9 0;
#X connect 7 2 10 0;
#X connect 8 0 5 0;
#X connect 8 0 11 0;
#X connect 9 0 5 0;
#X connect 9 0 11 0;
#X connect 10 0 5 0;
#X connect 10 0 11 0;
#X connect 11 0 6 0;
#X restore 202 627 pd rand-gate-16;
#X obj 453 598 hradio 15 1 0 3 empty empty empty 0 -8 0 10 -262144
-1 -1 0;
#X floatatom 372 597 5 0 0 0 - - -;
#X floatatom 381 657 5 0 0 0 - - -;
#N canvas 312 386 271 212 rand-gate-8 0;
#X obj 111 18 inlet;
#X obj 28 19 inlet;
#X obj 78 178 outlet;
#X text 63 21 data;
#X text 146 21 on/off;
#X obj 78 110 gate;
#X msg 111 132 0;
#X obj 111 45 sel 0 1 2;
#X msg 111 74 0;
#X msg 171 74 1;
#X obj 111 110 sel 0;
#X msg 141 74 1;
#X connect 0 0 7 0;
#X connect 1 0 5 1;
#X connect 5 0 2 0;
#X connect 6 0 2 0;
#X connect 7 0 8 0;
#X connect 7 1 11 0;
#X connect 7 2 9 0;
#X connect 8 0 5 0;
#X connect 8 0 10 0;
#X connect 9 0 5 0;
#X connect 9 0 10 0;
#X connect 10 0 6 0;
#X connect 11 0 5 0;
#X connect 11 0 10 0;
#X restore 372 627 pd rand-gate-8;
#N canvas 312 386 271 212 rand-gate-16 0;
#X obj 111 18 inlet;
#X obj 28 19 inlet;
#X obj 78 178 outlet;
#X text 63 21 data;
#X text 146 21 on/off;
#X obj 78 110 gate;
#X msg 111 132 0;
#X obj 111 45 sel 0 1 2;
#X msg 111 74 0;
#X msg 141 74 0;
#X msg 171 74 1;
#X obj 111 110 sel 0;
#X connect 0 0 7 0;
#X connect 1 0 5 1;
#X connect 5 0 2 0;
#X connect 6 0 2 0;
#X connect 7 0 8 0;
#X connect 7 1 9 0;
#X connect 7 2 10 0;
#X connect 8 0 5 0;
#X connect 8 0 11 0;
#X connect 9 0 5 0;
#X connect 9 0 11 0;
#X connect 10 0 5 0;
#X connect 10 0 11 0;
#X connect 11 0 6 0;
#X restore 120 453 pd rand-gate-16;
#N canvas 312 386 271 212 rand-gate-16 0;
#X obj 111 18 inlet;
#X obj 28 19 inlet;
#X obj 78 178 outlet;
#X text 63 21 data;
#X text 146 21 on/off;
#X obj 78 110 gate;
#X msg 111 132 0;
#X obj 111 45 sel 0 1 2;
#X msg 111 74 0;
#X msg 141 74 0;
#X msg 171 74 1;
#X obj 111 110 sel 0;
#X connect 0 0 7 0;
#X connect 1 0 5 1;
#X connect 5 0 2 0;
#X connect 6 0 2 0;
#X connect 7 0 8 0;
#X connect 7 1 9 0;
#X connect 7 2 10 0;
#X connect 8 0 5 0;
#X connect 8 0 11 0;
#X connect 9 0 5 0;
#X connect 9 0 11 0;
#X connect 10 0 5 0;
#X connect 10 0 11 0;
#X connect 11 0 6 0;
#X restore 320 453 pd rand-gate-16;
#N canvas 312 386 271 212 rand-gate-16 0;
#X obj 111 18 inlet;
#X obj 28 19 inlet;
#X obj 78 178 outlet;
#X text 63 21 data;
#X text 146 21 on/off;
#X obj 78 110 gate;
#X msg 111 132 0;
#X obj 111 45 sel 0 1 2;
#X msg 111 74 0;
#X msg 141 74 0;
#X msg 171 74 1;
#X obj 111 110 sel 0;
#X connect 0 0 7 0;
#X connect 1 0 5 1;
#X connect 5 0 2 0;
#X connect 6 0 2 0;
#X connect 7 0 8 0;
#X connect 7 1 9 0;
#X connect 7 2 10 0;
#X connect 8 0 5 0;
#X connect 8 0 11 0;
#X connect 9 0 5 0;
#X connect 9 0 11 0;
#X connect 10 0 5 0;
#X connect 10 0 11 0;
#X connect 11 0 6 0;
#X restore 511 453 pd rand-gate-16;
#N canvas 312 386 271 212 rand-gate-16 0;
#X obj 111 18 inlet;
#X obj 28 19 inlet;
#X obj 78 178 outlet;
#X text 63 21 data;
#X text 146 21 on/off;
#X obj 78 110 gate;
#X msg 111 132 0;
#X obj 111 45 sel 0 1 2;
#X msg 111 74 0;
#X msg 141 74 0;
#X msg 171 74 1;
#X obj 111 110 sel 0;
#X connect 0 0 7 0;
#X connect 1 0 5 1;
#X connect 5 0 2 0;
#X connect 6 0 2 0;
#X connect 7 0 8 0;
#X connect 7 1 9 0;
#X connect 7 2 10 0;
#X connect 8 0 5 0;
#X connect 8 0 11 0;
#X connect 9 0 5 0;
#X connect 9 0 11 0;
#X connect 10 0 5 0;
#X connect 10 0 11 0;
#X connect 11 0 6 0;
#X restore 711 453 pd rand-gate-16;
#N canvas 312 386 271 212 rand-gate-16 0;
#X obj 111 18 inlet;
#X obj 28 19 inlet;
#X obj 78 178 outlet;
#X text 63 21 data;
#X text 146 21 on/off;
#X obj 78 110 gate;
#X msg 111 132 0;
#X obj 111 45 sel 0 1 2;
#X msg 111 74 0;
#X msg 141 74 0;
#X msg 171 74 1;
#X obj 111 110 sel 0;
#X connect 0 0 7 0;
#X connect 1 0 5 1;
#X connect 5 0 2 0;
#X connect 6 0 2 0;
#X connect 7 0 8 0;
#X connect 7 1 9 0;
#X connect 7 2 10 0;
#X connect 8 0 5 0;
#X connect 8 0 11 0;
#X connect 9 0 5 0;
#X connect 9 0 11 0;
#X connect 10 0 5 0;
#X connect 10 0 11 0;
#X connect 11 0 6 0;
#X restore 911 453 pd rand-gate-16;
#N canvas 312 386 271 212 rand-gate-16 0;
#X obj 111 18 inlet;
#X obj 28 19 inlet;
#X obj 78 178 outlet;
#X text 63 21 data;
#X text 146 21 on/off;
#X obj 78 110 gate;
#X msg 111 132 0;
#X obj 111 45 sel 0 1 2;
#X msg 111 74 0;
#X msg 141 74 0;
#X msg 171 74 1;
#X obj 111 110 sel 0;
#X connect 0 0 7 0;
#X connect 1 0 5 1;
#X connect 5 0 2 0;
#X connect 6 0 2 0;
#X connect 7 0 8 0;
#X connect 7 1 9 0;
#X connect 7 2 10 0;
#X connect 8 0 5 0;
#X connect 8 0 11 0;
#X connect 9 0 5 0;
#X connect 9 0 11 0;
#X connect 10 0 5 0;
#X connect 10 0 11 0;
#X connect 11 0 6 0;
#X restore 1109 453 pd rand-gate-16;
#N canvas 312 386 271 212 rand-gate-16 0;
#X obj 111 18 inlet;
#X obj 28 19 inlet;
#X obj 78 178 outlet;
#X text 63 21 data;
#X text 146 21 on/off;
#X obj 78 110 gate;
#X msg 111 132 0;
#X obj 111 45 sel 0 1 2;
#X msg 111 74 0;
#X msg 141 74 0;
#X msg 171 74 1;
#X obj 111 110 sel 0;
#X connect 0 0 7 0;
#X connect 1 0 5 1;
#X connect 5 0 2 0;
#X connect 6 0 2 0;
#X connect 7 0 8 0;
#X connect 7 1 9 0;
#X connect 7 2 10 0;
#X connect 8 0 5 0;
#X connect 8 0 11 0;
#X connect 9 0 5 0;
#X connect 9 0 11 0;
#X connect 10 0 5 0;
#X connect 10 0 11 0;
#X connect 11 0 6 0;
#X restore 1304 453 pd rand-gate-16;
#N canvas 312 386 271 212 rand-gate-16 0;
#X obj 111 18 inlet;
#X obj 28 19 inlet;
#X obj 78 178 outlet;
#X text 63 21 data;
#X text 146 21 on/off;
#X obj 78 110 gate;
#X msg 111 132 0;
#X obj 111 45 sel 0 1 2;
#X msg 111 74 0;
#X msg 141 74 0;
#X msg 171 74 1;
#X obj 111 110 sel 0;
#X connect 0 0 7 0;
#X connect 1 0 5 1;
#X connect 5 0 2 0;
#X connect 6 0 2 0;
#X connect 7 0 8 0;
#X connect 7 1 9 0;
#X connect 7 2 10 0;
#X connect 8 0 5 0;
#X connect 8 0 11 0;
#X connect 9 0 5 0;
#X connect 9 0 11 0;
#X connect 10 0 5 0;
#X connect 10 0 11 0;
#X connect 11 0 6 0;
#X restore 1502 453 pd rand-gate-16;
#N canvas 312 386 271 212 rand-gate-8 0;
#X obj 111 18 inlet;
#X obj 28 19 inlet;
#X obj 78 178 outlet;
#X text 63 21 data;
#X text 146 21 on/off;
#X obj 78 110 gate;
#X msg 111 132 0;
#X obj 111 45 sel 0 1 2;
#X msg 111 74 0;
#X msg 171 74 1;
#X obj 111 110 sel 0;
#X msg 141 74 1;
#X connect 0 0 7 0;
#X connect 1 0 5 1;
#X connect 5 0 2 0;
#X connect 6 0 2 0;
#X connect 7 0 8 0;
#X connect 7 1 11 0;
#X connect 7 2 9 0;
#X connect 8 0 5 0;
#X connect 8 0 10 0;
#X connect 9 0 5 0;
#X connect 9 0 10 0;
#X connect 10 0 6 0;
#X connect 11 0 5 0;
#X connect 11 0 10 0;
#X restore 220 365 pd rand-gate-8;
#N canvas 312 386 271 212 rand-gate-8 0;
#X obj 111 18 inlet;
#X obj 28 19 inlet;
#X obj 78 178 outlet;
#X text 63 21 data;
#X text 146 21 on/off;
#X obj 78 110 gate;
#X msg 111 132 0;
#X obj 111 45 sel 0 1 2;
#X msg 111 74 0;
#X msg 171 74 1;
#X obj 111 110 sel 0;
#X msg 141 74 1;
#X connect 0 0 7 0;
#X connect 1 0 5 1;
#X connect 5 0 2 0;
#X connect 6 0 2 0;
#X connect 7 0 8 0;
#X connect 7 1 11 0;
#X connect 7 2 9 0;
#X connect 8 0 5 0;
#X connect 8 0 10 0;
#X connect 9 0 5 0;
#X connect 9 0 10 0;
#X connect 10 0 6 0;
#X connect 11 0 5 0;
#X connect 11 0 10 0;
#X restore 611 365 pd rand-gate-8;
#N canvas 312 386 271 212 rand-gate-8 0;
#X obj 111 18 inlet;
#X obj 28 19 inlet;
#X obj 78 178 outlet;
#X text 63 21 data;
#X text 146 21 on/off;
#X obj 78 110 gate;
#X msg 111 132 0;
#X obj 111 45 sel 0 1 2;
#X msg 111 74 0;
#X msg 171 74 1;
#X obj 111 110 sel 0;
#X msg 141 74 1;
#X connect 0 0 7 0;
#X connect 1 0 5 1;
#X connect 5 0 2 0;
#X connect 6 0 2 0;
#X connect 7 0 8 0;
#X connect 7 1 11 0;
#X connect 7 2 9 0;
#X connect 8 0 5 0;
#X connect 8 0 10 0;
#X connect 9 0 5 0;
#X connect 9 0 10 0;
#X connect 10 0 6 0;
#X connect 11 0 5 0;
#X connect 11 0 10 0;
#X restore 1010 365 pd rand-gate-8;
#N canvas 312 386 271 212 rand-gate-8 0;
#X obj 111 18 inlet;
#X obj 28 19 inlet;
#X obj 78 178 outlet;
#X text 63 21 data;
#X text 146 21 on/off;
#X obj 78 110 gate;
#X msg 111 132 0;
#X obj 111 45 sel 0 1 2;
#X msg 111 74 0;
#X msg 171 74 1;
#X obj 111 110 sel 0;
#X msg 141 74 1;
#X connect 0 0 7 0;
#X connect 1 0 5 1;
#X connect 5 0 2 0;
#X connect 6 0 2 0;
#X connect 7 0 8 0;
#X connect 7 1 11 0;
#X connect 7 2 9 0;
#X connect 8 0 5 0;
#X connect 8 0 10 0;
#X connect 9 0 5 0;
#X connect 9 0 10 0;
#X connect 10 0 6 0;
#X connect 11 0 5 0;
#X connect 11 0 10 0;
#X restore 1404 365 pd rand-gate-8;
#X obj 518 17 inlet;
#X text 557 21 rand-gate;
#X connect 0 0 39 0;
#X connect 1 0 2 0;
#X connect 1 1 2 1;
#X connect 2 0 0 0;
#X connect 3 0 40 0;
#X connect 4 0 5 0;
#X connect 4 1 5 1;
#X connect 5 0 3 0;
#X connect 6 0 5 0;
#X connect 7 0 5 0;
#X connect 8 0 2 0;
#X connect 9 0 42 0;
#X connect 10 0 11 0;
#X connect 10 1 11 1;
#X connect 11 0 9 0;
#X connect 12 0 11 0;
#X connect 13 0 11 0;
#X connect 14 0 41 0;
#X connect 15 0 16 0;
#X connect 15 1 16 1;
#X connect 16 0 14 0;
#X connect 17 0 16 0;
#X connect 18 0 16 0;
#X connect 19 0 44 0;
#X connect 20 0 21 0;
#X connect 20 1 21 1;
#X connect 21 0 19 0;
#X connect 22 0 21 0;
#X connect 23 0 43 0;
#X connect 24 0 25 0;
#X connect 24 1 25 1;
#X connect 25 0 23 0;
#X connect 26 0 25 0;
#X connect 27 0 25 0;
#X connect 28 0 45 0;
#X connect 29 0 30 0;
#X connect 29 1 30 1;
#X connect 30 0 28 0;
#X connect 31 0 30 0;
#X connect 32 0 30 0;
#X connect 33 0 46 0;
#X connect 34 0 35 0;
#X connect 34 1 35 1;
#X connect 35 0 33 0;
#X connect 36 0 35 0;
#X connect 37 0 35 0;
#X connect 38 0 98 0;
#X connect 47 0 85 0;
#X connect 48 0 49 0;
#X connect 48 1 49 1;
#X connect 49 0 47 0;
#X connect 50 0 86 0;
#X connect 51 0 52 0;
#X connect 51 1 52 1;
#X connect 52 0 50 0;
#X connect 53 0 52 0;
#X connect 54 0 52 0;
#X connect 55 0 49 0;
#X connect 56 0 88 0;
#X connect 57 0 58 0;
#X connect 57 1 58 1;
#X connect 58 0 56 0;
#X connect 59 0 58 0;
#X connect 60 0 58 0;
#X connect 61 0 87 0;
#X connect 62 0 63 0;
#X connect 62 1 63 1;
#X connect 63 0 61 0;
#X connect 64 0 63 0;
#X connect 65 0 63 0;
#X connect 66 0 90 0;
#X connect 67 0 68 0;
#X connect 67 1 68 1;
#X connect 68 0 66 0;
#X connect 69 0 68 0;
#X connect 70 0 89 0;
#X connect 71 0 72 0;
#X connect 71 1 72 1;
#X connect 72 0 70 0;
#X connect 73 0 72 0;
#X connect 74 0 72 0;
#X connect 75 0 91 0;
#X connect 76 0 77 0;
#X connect 76 1 77 1;
#X connect 77 0 75 0;
#X connect 78 0 77 0;
#X connect 79 0 77 0;
#X connect 80 0 92 0;
#X connect 81 0 82 0;
#X connect 81 1 82 1;
#X connect 82 0 80 0;
#X connect 83 0 82 0;
#X connect 84 0 82 0;
#X connect 93 0 116 0;
#X connect 93 0 94 0;
#X connect 93 0 6 0;
#X connect 93 0 12 0;
#X connect 93 0 17 0;
#X connect 93 0 95 0;
#X connect 93 0 26 0;
#X connect 93 0 31 0;
#X connect 93 0 36 0;
#X connect 93 0 96 0;
#X connect 93 0 53 0;
#X connect 93 0 59 0;
#X connect 93 0 64 0;
#X connect 93 0 97 0;
#X connect 93 0 73 0;
#X connect 93 0 78 0;
#X connect 93 0 83 0;
#X connect 94 0 2 0;
#X connect 95 0 21 0;
#X connect 96 0 49 0;
#X connect 97 0 68 0;
#X connect 98 0 8 0;
#X connect 98 0 83 0;
#X connect 98 1 7 0;
#X connect 98 1 94 0;
#X connect 98 2 13 0;
#X connect 98 2 6 0;
#X connect 98 3 18 0;
#X connect 98 3 12 0;
#X connect 98 4 22 0;
#X connect 98 4 17 0;
#X connect 98 5 95 0;
#X connect 98 5 27 0;
#X connect 98 6 26 0;
#X connect 98 6 32 0;
#X connect 98 7 37 0;
#X connect 98 7 31 0;
#X connect 98 8 55 0;
#X connect 98 8 36 0;
#X connect 98 9 54 0;
#X connect 98 9 96 0;
#X connect 98 10 60 0;
#X connect 98 10 53 0;
#X connect 98 11 65 0;
#X connect 98 11 59 0;
#X connect 98 12 69 0;
#X connect 98 12 64 0;
#X connect 98 13 74 0;
#X connect 98 13 97 0;
#X connect 98 14 79 0;
#X connect 98 14 73 0;
#X connect 98 15 84 0;
#X connect 98 15 78 0;
#X connect 98 16 83 0;
#X connect 99 0 39 0;
#X connect 100 0 44 0;
#X connect 101 0 133 0;
#X connect 102 0 125 0;
#X connect 103 0 126 0;
#X connect 104 0 134 0;
#X connect 105 0 127 0;
#X connect 106 0 128 0;
#X connect 107 0 85 0;
#X connect 108 0 135 0;
#X connect 109 0 129 0;
#X connect 110 0 130 0;
#X connect 111 0 90 0;
#X connect 112 0 136 0;
#X connect 113 0 131 0;
#X connect 114 0 132 0;
#X connect 115 0 99 0;
#X connect 115 0 102 0;
#X connect 115 0 101 0;
#X connect 115 0 103 0;
#X connect 115 0 100 0;
#X connect 115 0 105 0;
#X connect 115 0 104 0;
#X connect 115 0 106 0;
#X connect 115 0 107 0;
#X connect 115 0 109 0;
#X connect 115 0 108 0;
#X connect 115 0 110 0;
#X connect 115 0 111 0;
#X connect 115 0 113 0;
#X connect 115 0 112 0;
#X connect 115 0 114 0;
#X connect 116 0 1 0;
#X connect 116 0 4 0;
#X connect 116 0 10 0;
#X connect 116 0 15 0;
#X connect 116 0 20 0;
#X connect 116 0 24 0;
#X connect 116 0 29 0;
#X connect 116 0 34 0;
#X connect 116 0 48 0;
#X connect 116 0 51 0;
#X connect 116 0 57 0;
#X connect 116 0 62 0;
#X connect 116 0 67 0;
#X connect 116 0 71 0;
#X connect 116 0 76 0;
#X connect 116 0 81 0;
#X connect 117 0 120 1;
#X connect 118 0 120 0;
#X connect 120 0 119 0;
#X connect 121 0 124 1;
#X connect 122 0 124 0;
#X connect 124 0 123 0;
#X connect 125 0 40 0;
#X connect 126 0 41 0;
#X connect 127 0 43 0;
#X connect 128 0 46 0;
#X connect 129 0 86 0;
#X connect 130 0 87 0;
#X connect 131 0 89 0;
#X connect 132 0 92 0;
#X connect 133 0 42 0;
#X connect 134 0 45 0;
#X connect 135 0 88 0;
#X connect 136 0 91 0;
#X connect 137 0 125 1;
#X connect 137 0 133 1;
#X connect 137 0 126 1;
#X connect 137 0 127 1;
#X connect 137 0 134 1;
#X connect 137 0 128 1;
#X connect 137 0 129 1;
#X connect 137 0 135 1;
#X connect 137 0 130 1;
#X connect 137 0 131 1;
#X connect 137 0 136 1;
#X connect 137 0 132 1;
#X restore 12 102 pd one_musical_bar_step_1;
#X obj 2 166 hradio 10 1 0 16 empty empty empty 0 -8 0 10 -232576 -260097
-1 15;
#X obj 428 33 + 1;
#N canvas 479 243 364 426 note-gen 0;
#X obj 50 84 int;
#X obj 77 164 + 60;
#X text 113 166 Base Note;
#X obj 77 334 outlet;
#X obj 50 110 sel 0;
#X floatatom 33 181 5 0 0 0 - - -;
#X obj 50 8 inlet;
#X obj 126 8 inlet;
#X text 88 7 step;
#X text 165 7 Base Note;
#X obj 179 60 tabread \$0-velocity;
#X obj 77 309 pack 0 0 0;
#X obj 77 249 f;
#X obj 109 250 + 1;
#X obj 109 272 mod 16;
#X text 127 217 <- reset;
#X msg 92 220 0;
#X obj 77 193 t b a;
#X obj 50 60 tabread \$0-rhythm;
#X obj 50 30 t f f;
#X obj 77 138 - 1;
#X connect 0 0 4 0;
#X connect 1 0 5 0;
#X connect 1 0 17 0;
#X connect 4 1 20 0;
#X connect 6 0 19 0;
#X connect 7 0 1 1;
#X connect 10 0 11 2;
#X connect 11 0 3 0;
#X connect 12 0 13 0;
#X connect 12 0 11 0;
#X connect 13 0 14 0;
#X connect 14 0 12 1;
#X connect 16 0 12 1;
#X connect 17 0 12 0;
#X connect 17 1 11 1;
#X connect 18 0 0 0;
#X connect 19 0 18 0;
#X connect 19 1 10 0;
#X connect 20 0 1 0;
#X restore 297 215 pd note-gen;
#N canvas 2 158 747 343 one_musical_bar_note_a 0;
#X obj 13 181 int;
#X floatatom 13 203 5 0 0 0 - - -;
#X obj 53 181 int;
#X floatatom 53 203 5 0 0 0 - - -;
#X obj 93 181 int;
#X floatatom 93 203 5 0 0 0 - - -;
#X obj 133 181 int;
#X floatatom 133 203 5 0 0 0 - - -;
#X msg 13 232 \$1 0;
#X msg 53 232 \$1 1;
#X msg 93 232 \$1 2;
#X msg 133 232 \$1 3;
#X obj 173 181 int;
#X floatatom 173 203 5 0 0 0 - - -;
#X obj 213 181 int;
#X floatatom 213 203 5 0 0 0 - - -;
#X obj 253 181 int;
#X floatatom 253 203 5 0 0 0 - - -;
#X obj 293 181 int;
#X floatatom 293 203 5 0 0 0 - - -;
#X msg 173 232 \$1 4;
#X msg 213 232 \$1 5;
#X msg 253 232 \$1 6;
#X msg 293 232 \$1 7;
#X obj 333 181 int;
#X floatatom 333 203 5 0 0 0 - - -;
#X obj 373 181 int;
#X floatatom 373 203 5 0 0 0 - - -;
#X obj 413 181 int;
#X floatatom 413 203 5 0 0 0 - - -;
#X obj 453 181 int;
#X floatatom 453 203 5 0 0 0 - - -;
#X obj 493 181 int;
#X floatatom 493 203 5 0 0 0 - - -;
#X obj 533 181 int;
#X floatatom 533 203 5 0 0 0 - - -;
#X obj 573 181 int;
#X floatatom 573 203 5 0 0 0 - - -;
#X obj 613 181 int;
#X floatatom 613 203 5 0 0 0 - - -;
#X msg 333 232 \$1 8;
#X msg 373 232 \$1 9;
#X msg 413 232 \$1 10;
#X msg 453 232 \$1 11;
#X msg 493 232 \$1 12;
#X msg 533 232 \$1 13;
#X msg 573 232 \$1 14;
#X msg 613 232 \$1 15;
#X obj 13 270 outlet;
#X obj 13 28 inlet;
#X obj 53 28 inlet;
#X obj 93 28 inlet;
#X obj 133 28 inlet;
#X obj 173 28 inlet;
#X obj 213 28 inlet;
#X obj 253 28 inlet;
#X obj 293 28 inlet;
#X obj 333 28 inlet;
#X obj 373 28 inlet;
#X obj 413 28 inlet;
#X obj 453 28 inlet;
#X obj 493 28 inlet;
#X obj 533 28 inlet;
#X obj 573 28 inlet;
#X obj 613 28 inlet;
#X connect 0 0 1 0;
#X connect 1 0 8 0;
#X connect 2 0 3 0;
#X connect 3 0 9 0;
#X connect 4 0 5 0;
#X connect 5 0 10 0;
#X connect 6 0 7 0;
#X connect 7 0 11 0;
#X connect 8 0 48 0;
#X connect 9 0 48 0;
#X connect 10 0 48 0;
#X connect 11 0 48 0;
#X connect 12 0 13 0;
#X connect 13 0 20 0;
#X connect 14 0 15 0;
#X connect 15 0 21 0;
#X connect 16 0 17 0;
#X connect 17 0 22 0;
#X connect 18 0 19 0;
#X connect 19 0 23 0;
#X connect 20 0 48 0;
#X connect 21 0 48 0;
#X connect 22 0 48 0;
#X connect 23 0 48 0;
#X connect 24 0 25 0;
#X connect 25 0 40 0;
#X connect 26 0 27 0;
#X connect 27 0 41 0;
#X connect 28 0 29 0;
#X connect 29 0 42 0;
#X connect 30 0 31 0;
#X connect 31 0 43 0;
#X connect 32 0 33 0;
#X connect 33 0 44 0;
#X connect 34 0 35 0;
#X connect 35 0 45 0;
#X connect 36 0 37 0;
#X connect 37 0 46 0;
#X connect 38 0 39 0;
#X connect 39 0 47 0;
#X connect 40 0 48 0;
#X connect 41 0 48 0;
#X connect 42 0 48 0;
#X connect 43 0 48 0;
#X connect 44 0 48 0;
#X connect 45 0 48 0;
#X connect 46 0 48 0;
#X connect 47 0 48 0;
#X connect 49 0 0 0;
#X connect 50 0 2 0;
#X connect 51 0 4 0;
#X connect 52 0 6 0;
#X connect 53 0 12 0;
#X connect 54 0 14 0;
#X connect 55 0 16 0;
#X connect 56 0 18 0;
#X connect 57 0 24 0;
#X connect 58 0 26 0;
#X connect 59 0 28 0;
#X connect 60 0 30 0;
#X connect 61 0 32 0;
#X connect 62 0 34 0;
#X connect 63 0 36 0;
#X connect 64 0 38 0;
#X restore 4 245 pd one_musical_bar_note_a;
#N canvas 160 436 743 223 one_musical_bar_velocity_a 0;
#X msg 30 117 \$1 0;
#X msg 70 117 \$1 1;
#X msg 110 117 \$1 2;
#X msg 150 117 \$1 3;
#X msg 190 117 \$1 4;
#X msg 230 117 \$1 5;
#X msg 270 117 \$1 6;
#X msg 310 117 \$1 7;
#X msg 350 117 \$1 8;
#X msg 390 117 \$1 9;
#X msg 430 117 \$1 10;
#X msg 470 117 \$1 11;
#X msg 510 117 \$1 12;
#X msg 550 117 \$1 13;
#X msg 590 117 \$1 14;
#X msg 630 117 \$1 15;
#X obj 30 147 outlet;
#X obj 30 55 inlet;
#X obj 30 83 int;
#X obj 70 55 inlet;
#X obj 70 83 int;
#X obj 110 55 inlet;
#X obj 110 83 int;
#X obj 150 55 inlet;
#X obj 150 83 int;
#X obj 190 55 inlet;
#X obj 190 83 int;
#X obj 230 55 inlet;
#X obj 230 83 int;
#X obj 270 55 inlet;
#X obj 270 83 int;
#X obj 310 55 inlet;
#X obj 310 83 int;
#X obj 350 55 inlet;
#X obj 350 83 int;
#X obj 390 55 inlet;
#X obj 390 83 int;
#X obj 430 55 inlet;
#X obj 430 83 int;
#X obj 470 55 inlet;
#X obj 470 83 int;
#X obj 510 55 inlet;
#X obj 510 83 int;
#X obj 550 55 inlet;
#X obj 550 83 int;
#X obj 590 55 inlet;
#X obj 590 83 int;
#X obj 630 55 inlet;
#X obj 630 83 int;
#X connect 0 0 16 0;
#X connect 1 0 16 0;
#X connect 2 0 16 0;
#X connect 3 0 16 0;
#X connect 4 0 16 0;
#X connect 5 0 16 0;
#X connect 6 0 16 0;
#X connect 7 0 16 0;
#X connect 8 0 16 0;
#X connect 9 0 16 0;
#X connect 10 0 16 0;
#X connect 11 0 16 0;
#X connect 12 0 16 0;
#X connect 13 0 16 0;
#X connect 14 0 16 0;
#X connect 15 0 16 0;
#X connect 17 0 18 0;
#X connect 18 0 0 0;
#X connect 19 0 20 0;
#X connect 20 0 1 0;
#X connect 21 0 22 0;
#X connect 22 0 2 0;
#X connect 23 0 24 0;
#X connect 24 0 3 0;
#X connect 25 0 26 0;
#X connect 26 0 4 0;
#X connect 27 0 28 0;
#X connect 28 0 5 0;
#X connect 29 0 30 0;
#X connect 30 0 6 0;
#X connect 31 0 32 0;
#X connect 32 0 7 0;
#X connect 33 0 34 0;
#X connect 34 0 8 0;
#X connect 35 0 36 0;
#X connect 36 0 9 0;
#X connect 37 0 38 0;
#X connect 38 0 10 0;
#X connect 39 0 40 0;
#X connect 40 0 11 0;
#X connect 41 0 42 0;
#X connect 42 0 12 0;
#X connect 43 0 44 0;
#X connect 44 0 13 0;
#X connect 45 0 46 0;
#X connect 46 0 14 0;
#X connect 47 0 48 0;
#X connect 48 0 15 0;
#X restore 3 297 pd one_musical_bar_velocity_a;
#X obj 13 190 vsl 8 32 0 127 0 0 empty empty empty 0 -9 0 10 -262144
-1 -1 0 1;
#X obj 23 190 vsl 8 32 0 127 0 0 empty empty empty 0 -9 0 10 -262144
-1 -1 0 1;
#X obj 33 190 vsl 8 32 0 127 0 0 empty empty empty 0 -9 0 10 -262144
-1 -1 0 1;
#X obj 43 190 vsl 8 32 0 127 0 0 empty empty empty 0 -9 0 10 -262144
-1 -1 0 1;
#X obj 53 190 vsl 8 32 0 127 0 0 empty empty empty 0 -9 0 10 -262144
-1 -1 0 1;
#X obj 63 190 vsl 8 32 0 127 0 0 empty empty empty 0 -9 0 10 -262144
-1 -1 0 1;
#X obj 73 190 vsl 8 32 0 127 0 0 empty empty empty 0 -9 0 10 -262144
-1 -1 0 1;
#X obj 83 190 vsl 8 32 0 127 0 0 empty empty empty 0 -9 0 10 -262144
-1 -1 0 1;
#X obj 93 190 vsl 8 32 0 127 0 0 empty empty empty 0 -9 0 10 -262144
-1 -1 0 1;
#X obj 103 190 vsl 8 32 0 127 0 0 empty empty empty 0 -9 0 10 -262144
-1 -1 0 1;
#X obj 113 190 vsl 8 32 0 127 0 0 empty empty empty 0 -9 0 10 -262144
-1 -1 0 1;
#X obj 123 190 vsl 8 32 0 127 0 0 empty empty empty 0 -9 0 10 -262144
-1 -1 0 1;
#X obj 133 190 vsl 8 32 0 127 0 0 empty empty empty 0 -9 0 10 -262144
-1 -1 0 1;
#X obj 143 190 vsl 8 32 0 127 0 0 empty empty empty 0 -9 0 10 -262144
-1 -1 0 1;
#X obj 153 190 vsl 8 32 0 127 0 0 empty empty empty 0 -9 0 10 -262144
-1 -1 0 1;
#N canvas 33 106 1226 617 one_musical_bar_velocity_1 0;
#X msg 112 41 0;
#X obj 10 17 inlet;
#X obj 10 206 outlet;
#X obj 112 19 loadbang;
#X obj 90 206 outlet;
#X obj 170 206 outlet;
#X obj 250 206 outlet;
#X obj 330 206 outlet;
#X obj 410 206 outlet;
#X obj 490 206 outlet;
#X obj 570 206 outlet;
#X obj 650 206 outlet;
#X obj 730 206 outlet;
#X obj 810 206 outlet;
#X obj 890 206 outlet;
#X obj 970 206 outlet;
#X obj 1050 206 outlet;
#X obj 1130 206 outlet;
#X obj 1210 206 outlet;
#X obj 10 180 + 70;
#X obj 10 140 random 57;
#X obj 90 180 + 70;
#X obj 90 140 random 57;
#X obj 170 180 + 70;
#X obj 170 140 random 57;
#X obj 250 180 + 70;
#X obj 250 140 random 57;
#X obj 330 180 + 70;
#X obj 330 140 random 57;
#X obj 410 180 + 70;
#X obj 410 140 random 57;
#X obj 490 180 + 70;
#X obj 490 140 random 57;
#X obj 570 180 + 70;
#X obj 570 140 random 57;
#X obj 650 180 + 70;
#X obj 650 140 random 57;
#X obj 730 180 + 70;
#X obj 730 140 random 57;
#X obj 810 180 + 70;
#X obj 810 140 random 57;
#X obj 890 180 + 70;
#X obj 890 140 random 57;
#X obj 970 180 + 70;
#X obj 970 140 random 57;
#X obj 1050 180 + 70;
#X obj 1050 140 random 57;
#X obj 1130 180 + 70;
#X obj 1130 140 random 57;
#X obj 1210 180 + 70;
#X obj 1210 140 random 57;
#X connect 1 0 20 0;
#X connect 1 0 22 0;
#X connect 1 0 24 0;
#X connect 1 0 26 0;
#X connect 1 0 28 0;
#X connect 1 0 30 0;
#X connect 1 0 32 0;
#X connect 1 0 34 0;
#X connect 1 0 36 0;
#X connect 1 0 38 0;
#X connect 1 0 40 0;
#X connect 1 0 42 0;
#X connect 1 0 44 0;
#X connect 1 0 46 0;
#X connect 1 0 48 0;
#X connect 1 0 50 0;
#X connect 3 0 0 0;
#X connect 19 0 2 0;
#X connect 20 0 19 0;
#X connect 21 0 4 0;
#X connect 22 0 21 0;
#X connect 23 0 5 0;
#X connect 24 0 23 0;
#X connect 25 0 6 0;
#X connect 26 0 25 0;
#X connect 27 0 7 0;
#X connect 28 0 27 0;
#X connect 29 0 8 0;
#X connect 30 0 29 0;
#X connect 31 0 9 0;
#X connect 32 0 31 0;
#X connect 33 0 10 0;
#X connect 34 0 33 0;
#X connect 35 0 11 0;
#X connect 36 0 35 0;
#X connect 37 0 12 0;
#X connect 38 0 37 0;
#X connect 39 0 13 0;
#X connect 40 0 39 0;
#X connect 41 0 14 0;
#X connect 42 0 41 0;
#X connect 43 0 15 0;
#X connect 44 0 43 0;
#X connect 45 0 16 0;
#X connect 46 0 45 0;
#X connect 47 0 17 0;
#X connect 48 0 47 0;
#X connect 49 0 18 0;
#X connect 50 0 49 0;
#X restore 19 125 pd one_musical_bar_velocity_1;
#N canvas 0 22 482 305 (subpatch) 0;
#X array \$0-velocity 100 float 1;
#A 0 124 90 77 90 104 115 100 87 78 90 119 97 124 78 95 85 119 73 121
92 77 73 97 104 83 87 95 107 78 73 119 110 83 124 78 90 75 97 90 115
100 95 87 83 92 90 83 105 124 87 78 119 78 112 105 117 114 109 73 112
122 70 112 102 0 0 0 0 0 0 0 0 0 0 0 0 0 0 0 0 0 0 0 0 0 0 0 0 0 0
0 0 0 0 0 0 0 0 0 0;
#X coords 0 305 1 304 200 140 0;
#X restore 134 322 graph;
#X obj 3 322 tabwrite \$0-velocity;
#N canvas 0 22 450 278 (subpatch) 0;
#X array \$0-rhythm 100 float 1;
#A 0 1 0 0 0 1 0 0 0 0 0 0 0 1 0 0 0 0 0 0 0 0 0 0 0 0 0 0 0 0 0 0
0 0 0 0 0 0 0 0 0 0 0 0 0 0 0 0 0 0 0 0 0 0 0 0 0 0 0 0 0 0 0 0 0 0
0 0 0 0 0 0 0 0 0 0 0 0 0 0 0 0 0 0 0 0 0 0 0 0 0 0 0 0 0 0 0 0 0 0
0;
#X coords 0 278 1 277 200 140 0;
#X restore 119 273 graph;
#X obj 297 92 t f f;
#X obj 297 -9 inlet;
#X text 297 -23 16beat;
#X obj 164 194 bng 14 250 50 0 empty empty Random 17 7 0 10 -262144
-1 -1;
#X obj 164 211 bng 14 250 50 0 empty empty vRandom 17 7 0 10 -262144
-1 -1;
#X obj 164 176 bng 15 250 50 0 empty empty all_R 17 7 0 10 -162280
-258113 -1;
#X obj 339 -9 inlet;
#X obj 393 -9 inlet;
#X obj 429 -9 inlet;
#X text 392 -23 note;
#X text 431 -23 velo;
#X obj 2 -16 loadbang;
#X obj 297 237 outlet;
#X obj 131 154 hradio 10 1 0 3 empty empty Random-4/8/16 -80 5 0 10
-262144 -1 -1 0;
#X obj 265 5 b;
#X floatatom 360 196 5 0 0 0 - - -;
#X obj 3 178 tgl 8 0 empty empty empty 17 7 0 10 -33289 -250685 -262144
1 1;
#X obj 13 178 tgl 8 0 empty empty empty 17 7 0 10 -195568 -250685 -262144
0 7;
#X obj 23 178 tgl 8 0 empty empty empty 17 7 0 10 -195568 -250685 -262144
0 1;
#X obj 33 178 tgl 8 0 empty empty empty 17 7 0 10 -195568 -250685 -262144
0 7;
#X obj 43 178 tgl 8 0 empty empty empty 17 7 0 10 -128992 -250685 -262144
1 1;
#X obj 53 178 tgl 8 0 empty empty empty 17 7 0 10 -195568 -250685 -262144
0 7;
#X obj 63 178 tgl 8 0 empty empty empty 17 7 0 10 -195568 -250685 -262144
0 1;
#X obj 73 178 tgl 8 0 empty empty empty 17 7 0 10 -195568 -250685 -262144
0 1;
#X obj 83 178 tgl 8 0 empty empty empty 17 7 0 10 -128992 -250685 -262144
0 1;
#X obj 93 178 tgl 8 0 empty empty empty 17 7 0 10 -195568 -250685 -262144
0 7;
#X obj 103 178 tgl 8 0 empty empty empty 17 7 0 10 -195568 -250685
-262144 0 1;
#X obj 113 178 tgl 8 0 empty empty empty 17 7 0 10 -195568 -250685
-262144 0 1;
#X obj 123 178 tgl 8 0 empty empty empty 17 7 0 10 -128992 -250685
-262144 1 1;
#X obj 133 178 tgl 8 0 empty empty empty 17 7 0 10 -195568 -250685
-262144 0 7;
#X obj 143 178 tgl 8 0 empty empty empty 17 7 0 10 -195568 -250685
-262144 0 1;
#X obj 153 178 tgl 8 0 empty empty empty 17 7 0 10 -195568 -250685
-262144 0 1;
#X msg 2 4 15;
#X obj 4 273 tabwrite \$0-rhythm;
#X obj 360 173 int;
#X obj 167 154 hsl 48 15 31 127 0 0 empty empty empty -2 -8 0 10 -262144
-1 -1 2007 1;
#X obj 466 -9 inlet;
#X text 464 -23 4/8/16;
#X obj 506 -9 inlet;
#X text 504 -23 loop;
#X msg 30 4 60;
#X text 339 -23 pitch;
#X connect 0 0 34 0;
#X connect 1 0 2 0;
#X connect 1 0 0 0;
#X connect 2 0 3 0;
#X connect 3 0 1 1;
#X connect 4 0 1 0;
#X connect 5 0 3 1;
#X connect 7 0 1 1;
#X connect 8 0 14 0;
#X connect 9 0 50 0;
#X connect 9 1 51 0;
#X connect 9 2 52 0;
#X connect 9 3 53 0;
#X connect 9 4 54 0;
#X connect 9 5 55 0;
#X connect 9 6 56 0;
#X connect 9 7 57 0;
#X connect 9 8 58 0;
#X connect 9 9 59 0;
#X connect 9 10 60 0;
#X connect 9 11 61 0;
#X connect 9 12 62 0;
#X connect 9 13 63 0;
#X connect 9 14 64 0;
#X connect 9 15 65 0;
#X connect 10 0 11 0;
#X connect 10 0 48 0;
#X connect 11 0 5 0;
#X connect 12 0 46 0;
#X connect 13 0 67 0;
#X connect 14 0 32 0;
#X connect 15 0 14 1;
#X connect 16 0 14 2;
#X connect 17 0 14 3;
#X connect 18 0 14 4;
#X connect 19 0 14 5;
#X connect 20 0 14 6;
#X connect 21 0 14 7;
#X connect 22 0 14 8;
#X connect 23 0 14 9;
#X connect 24 0 14 10;
#X connect 25 0 14 11;
#X connect 26 0 14 12;
#X connect 27 0 14 13;
#X connect 28 0 14 14;
#X connect 29 0 14 15;
#X connect 30 0 8 0;
#X connect 30 1 15 0;
#X connect 30 2 16 0;
#X connect 30 3 17 0;
#X connect 30 4 18 0;
#X connect 30 5 19 0;
#X connect 30 6 20 0;
#X connect 30 7 21 0;
#X connect 30 8 22 0;
#X connect 30 9 23 0;
#X connect 30 10 24 0;
#X connect 30 11 25 0;
#X connect 30 12 26 0;
#X connect 30 13 27 0;
#X connect 30 14 28 0;
#X connect 30 15 29 0;
#X connect 34 0 12 0;
#X connect 34 1 9 0;
#X connect 35 0 4 0;
#X connect 37 0 9 1;
#X connect 38 0 30 0;
#X connect 39 0 37 0;
#X connect 39 0 38 0;
#X connect 40 0 69 0;
#X connect 41 0 37 0;
#X connect 42 0 38 0;
#X connect 45 0 66 0;
#X connect 45 0 74 0;
#X connect 47 0 9 2;
#X connect 48 0 7 0;
#X connect 49 0 12 1;
#X connect 50 0 13 0;
#X connect 51 0 13 1;
#X connect 52 0 13 2;
#X connect 53 0 13 3;
#X connect 54 0 13 4;
#X connect 55 0 13 5;
#X connect 56 0 13 6;
#X connect 57 0 13 7;
#X connect 58 0 13 8;
#X connect 59 0 13 9;
#X connect 60 0 13 10;
#X connect 61 0 13 11;
#X connect 62 0 13 12;
#X connect 63 0 13 13;
#X connect 64 0 13 14;
#X connect 65 0 13 15;
#X connect 66 0 10 0;
#X connect 68 0 49 0;
#X connect 69 0 68 0;
#X connect 70 0 47 0;
#X connect 72 0 10 0;
#X connect 74 0 69 0;
#X coords 0 -1 1 1 225 80 2 0 150;
