#N canvas 97 79 1017 624 10;
#X obj 1 152 cnv 15 220 168 empty empty empty 20 12 0 14 -191407 -66577
0;
#X obj 4 189 vradio 8 1 0 8 empty empty empty 0 -8 0 10 -33289 -250685
-262144 7;
#X obj 14 189 vradio 8 1 0 8 empty empty empty 0 -8 0 10 -195568 -250685
-262144 0;
#X obj 24 189 vradio 8 1 0 8 empty empty empty 0 -8 0 10 -195568 -250685
-262144 7;
#X obj 34 189 vradio 8 1 0 8 empty empty empty 0 -8 0 10 -195568 -250685
-262144 2;
#X obj 44 189 vradio 8 1 0 8 empty empty empty 0 -8 0 10 -128992 -250685
-262144 7;
#X obj 54 189 vradio 8 1 0 8 empty empty empty 0 -8 0 10 -195568 -250685
-262144 7;
#X obj 64 189 vradio 8 1 0 8 empty empty empty 0 -8 0 10 -195568 -250685
-262144 7;
#X obj 74 189 vradio 8 1 0 8 empty empty empty 0 -8 0 10 -195568 -250685
-262144 1;
#X obj 84 189 vradio 8 1 0 8 empty empty empty 0 -8 0 10 -128992 -250685
-262144 2;
#X obj 94 189 vradio 8 1 0 8 empty empty empty 0 -8 0 10 -195568 -250685
-262144 5;
#X obj 104 189 vradio 8 1 0 8 empty empty empty 0 -8 0 10 -195568 -250685
-262144 7;
#X obj 114 189 vradio 8 1 0 8 empty empty empty 0 -8 0 10 -195568 -250685
-262144 7;
#X obj 124 189 vradio 8 1 0 8 empty empty empty 0 -8 0 10 -128992 -250685
-262144 1;
#X obj 134 189 vradio 8 1 0 8 empty empty empty 0 -8 0 10 -195568 -250685
-262144 7;
#X obj 144 189 vradio 8 1 0 8 empty empty empty 0 -8 0 10 -195568 -250685
-262144 5;
#X obj 154 189 vradio 8 1 0 8 empty empty empty 0 -8 0 10 -195568 -250685
-262144 7;
#X floatatom 497 69 5 0 0 0 - - -, f 5;
#X obj 497 45 f;
#X obj 534 46 + 1;
#X obj 534 68 mod 16;
#X obj 497 23 bng 12 250 50 0 empty empty empty 17 7 0 10 -262144 -1
-1;
#X floatatom 788 52 5 1 16 0 step_loop - -, f 5;
#X text 536 20 <- reset;
#X msg 512 23 0;
#X obj 4 257 vsl 8 32 0 127 0 0 empty empty empty 0 -9 0 10 -228856
-1 -1 0 1;
#N canvas 61 73 1226 722 one_musical_bar_step_1 0;
#X msg 10 226 color \$1 \$2 \$3;
#X obj 39 178 t b a;
#X obj 10 202 pack 0 2 0;
#X msg 110 226 color \$1 \$2 \$3;
#X obj 140 178 t b a;
#X obj 110 202 pack 0 2 0;
#X msg 142 126 20;
#X msg 110 126 10;
#X msg 10 126 10;
#X msg 208 226 color \$1 \$2 \$3;
#X obj 238 178 t b a;
#X obj 208 202 pack 0 2 0;
#X msg 240 126 20;
#X msg 208 126 10;
#X msg 306 226 color \$1 \$2 \$3;
#X obj 336 178 t b a;
#X obj 306 202 pack 0 2 0;
#X msg 338 126 20;
#X msg 306 126 10;
#X msg 404 226 color \$1 \$2 \$3;
#X obj 434 178 t b a;
#X obj 404 202 pack 0 2 0;
#X msg 404 126 10;
#X msg 503 226 color \$1 \$2 \$3;
#X obj 533 178 t b a;
#X obj 503 202 pack 0 2 0;
#X msg 543 126 20;
#X msg 503 126 10;
#X msg 601 226 color \$1 \$2 \$3;
#X obj 631 178 t b a;
#X obj 601 202 pack 0 2 0;
#X msg 639 126 20;
#X msg 601 126 10;
#X msg 699 226 color \$1 \$2 \$3;
#X obj 729 178 t b a;
#X obj 699 202 pack 0 2 0;
#X msg 736 126 20;
#X msg 699 126 10;
#X obj 10 17 inlet;
#X obj 10 546 outlet;
#X obj 110 546 outlet;
#X obj 306 546 outlet;
#X obj 208 546 outlet;
#X obj 503 546 outlet;
#X obj 404 546 outlet;
#X obj 601 546 outlet;
#X obj 699 546 outlet;
#X msg 798 226 color \$1 \$2 \$3;
#X obj 827 178 t b a;
#X obj 798 202 pack 0 2 0;
#X msg 898 226 color \$1 \$2 \$3;
#X obj 928 178 t b a;
#X obj 898 202 pack 0 2 0;
#X msg 930 126 20;
#X msg 898 126 10;
#X msg 798 126 10;
#X msg 996 226 color \$1 \$2 \$3;
#X obj 1026 178 t b a;
#X obj 996 202 pack 0 2 0;
#X msg 1028 126 20;
#X msg 996 126 10;
#X msg 1094 226 color \$1 \$2 \$3;
#X obj 1124 178 t b a;
#X obj 1094 202 pack 0 2 0;
#X msg 1126 126 20;
#X msg 1094 126 10;
#X msg 1192 226 color \$1 \$2 \$3;
#X obj 1222 178 t b a;
#X obj 1192 202 pack 0 2 0;
#X msg 1192 126 10;
#X msg 1291 226 color \$1 \$2 \$3;
#X obj 1321 178 t b a;
#X obj 1291 202 pack 0 2 0;
#X msg 1331 126 20;
#X msg 1291 126 10;
#X msg 1389 226 color \$1 \$2 \$3;
#X obj 1419 178 t b a;
#X obj 1389 202 pack 0 2 0;
#X msg 1427 126 20;
#X msg 1389 126 10;
#X msg 1487 226 color \$1 \$2 \$3;
#X obj 1517 178 t b a;
#X obj 1487 202 pack 0 2 0;
#X msg 1518 126 20;
#X msg 1487 126 10;
#X obj 798 546 outlet;
#X obj 898 546 outlet;
#X obj 1094 546 outlet;
#X obj 996 546 outlet;
#X obj 1291 546 outlet;
#X obj 1192 546 outlet;
#X obj 1389 546 outlet;
#X obj 1487 546 outlet;
#X obj 752 28 loadbang;
#X msg 42 126 12;
#X msg 436 126 11;
#X msg 830 126 11;
#X msg 1224 126 11;
#N canvas 657 469 324 193 v-conver 0;
#X msg 20 77 7;
#X msg 48 77 6;
#X msg 77 77 5;
#X msg 107 77 4;
#X msg 135 77 3;
#X msg 164 77 2;
#X msg 194 77 1;
#X msg 223 77 0;
#X obj 20 48 sel 0 1 2 3 4 5 6 7;
#X obj 20 110 outlet;
#X obj 20 22 inlet;
#X connect 0 0 9 0;
#X connect 1 0 9 0;
#X connect 2 0 9 0;
#X connect 3 0 9 0;
#X connect 4 0 9 0;
#X connect 5 0 9 0;
#X connect 6 0 9 0;
#X connect 7 0 9 0;
#X connect 8 0 0 0;
#X connect 8 1 1 0;
#X connect 8 2 2 0;
#X connect 8 3 3 0;
#X connect 8 4 4 0;
#X connect 8 5 5 0;
#X connect 8 6 6 0;
#X connect 8 7 7 0;
#X connect 10 0 8 0;
#X restore 20 523 pd v-conver;
#X obj 10 39 sel 0 1 2 3 4 5 6 7 8 9 10 11 12 13 14 15 16;
#N canvas 657 469 324 193 v-conver 0;
#X msg 20 77 7;
#X msg 48 77 6;
#X msg 77 77 5;
#X msg 107 77 4;
#X msg 135 77 3;
#X msg 164 77 2;
#X msg 194 77 1;
#X msg 223 77 0;
#X obj 20 48 sel 0 1 2 3 4 5 6 7;
#X obj 20 110 outlet;
#X obj 20 22 inlet;
#X connect 0 0 9 0;
#X connect 1 0 9 0;
#X connect 2 0 9 0;
#X connect 3 0 9 0;
#X connect 4 0 9 0;
#X connect 5 0 9 0;
#X connect 6 0 9 0;
#X connect 7 0 9 0;
#X connect 8 0 0 0;
#X connect 8 1 1 0;
#X connect 8 2 2 0;
#X connect 8 3 3 0;
#X connect 8 4 4 0;
#X connect 8 5 5 0;
#X connect 8 6 6 0;
#X connect 8 7 7 0;
#X connect 10 0 8 0;
#X restore 120 523 pd v-conver;
#N canvas 657 469 324 193 v-conver 0;
#X msg 20 77 7;
#X msg 48 77 6;
#X msg 77 77 5;
#X msg 107 77 4;
#X msg 135 77 3;
#X msg 164 77 2;
#X msg 194 77 1;
#X msg 223 77 0;
#X obj 20 48 sel 0 1 2 3 4 5 6 7;
#X obj 20 110 outlet;
#X obj 20 22 inlet;
#X connect 0 0 9 0;
#X connect 1 0 9 0;
#X connect 2 0 9 0;
#X connect 3 0 9 0;
#X connect 4 0 9 0;
#X connect 5 0 9 0;
#X connect 6 0 9 0;
#X connect 7 0 9 0;
#X connect 8 0 0 0;
#X connect 8 1 1 0;
#X connect 8 2 2 0;
#X connect 8 3 3 0;
#X connect 8 4 4 0;
#X connect 8 5 5 0;
#X connect 8 6 6 0;
#X connect 8 7 7 0;
#X connect 10 0 8 0;
#X restore 220 523 pd v-conver;
#N canvas 657 469 324 193 v-conver 0;
#X msg 20 77 7;
#X msg 48 77 6;
#X msg 77 77 5;
#X msg 107 77 4;
#X msg 135 77 3;
#X msg 164 77 2;
#X msg 194 77 1;
#X msg 223 77 0;
#X obj 20 48 sel 0 1 2 3 4 5 6 7;
#X obj 20 110 outlet;
#X obj 20 22 inlet;
#X connect 0 0 9 0;
#X connect 1 0 9 0;
#X connect 2 0 9 0;
#X connect 3 0 9 0;
#X connect 4 0 9 0;
#X connect 5 0 9 0;
#X connect 6 0 9 0;
#X connect 7 0 9 0;
#X connect 8 0 0 0;
#X connect 8 1 1 0;
#X connect 8 2 2 0;
#X connect 8 3 3 0;
#X connect 8 4 4 0;
#X connect 8 5 5 0;
#X connect 8 6 6 0;
#X connect 8 7 7 0;
#X connect 10 0 8 0;
#X restore 320 523 pd v-conver;
#N canvas 657 469 324 193 v-conver 0;
#X msg 20 77 7;
#X msg 48 77 6;
#X msg 77 77 5;
#X msg 107 77 4;
#X msg 135 77 3;
#X msg 164 77 2;
#X msg 194 77 1;
#X msg 223 77 0;
#X obj 20 48 sel 0 1 2 3 4 5 6 7;
#X obj 20 110 outlet;
#X obj 20 22 inlet;
#X connect 0 0 9 0;
#X connect 1 0 9 0;
#X connect 2 0 9 0;
#X connect 3 0 9 0;
#X connect 4 0 9 0;
#X connect 5 0 9 0;
#X connect 6 0 9 0;
#X connect 7 0 9 0;
#X connect 8 0 0 0;
#X connect 8 1 1 0;
#X connect 8 2 2 0;
#X connect 8 3 3 0;
#X connect 8 4 4 0;
#X connect 8 5 5 0;
#X connect 8 6 6 0;
#X connect 8 7 7 0;
#X connect 10 0 8 0;
#X restore 420 523 pd v-conver;
#N canvas 657 469 324 193 v-conver 0;
#X msg 20 77 7;
#X msg 48 77 6;
#X msg 77 77 5;
#X msg 107 77 4;
#X msg 135 77 3;
#X msg 164 77 2;
#X msg 194 77 1;
#X msg 223 77 0;
#X obj 20 48 sel 0 1 2 3 4 5 6 7;
#X obj 20 110 outlet;
#X obj 20 22 inlet;
#X connect 0 0 9 0;
#X connect 1 0 9 0;
#X connect 2 0 9 0;
#X connect 3 0 9 0;
#X connect 4 0 9 0;
#X connect 5 0 9 0;
#X connect 6 0 9 0;
#X connect 7 0 9 0;
#X connect 8 0 0 0;
#X connect 8 1 1 0;
#X connect 8 2 2 0;
#X connect 8 3 3 0;
#X connect 8 4 4 0;
#X connect 8 5 5 0;
#X connect 8 6 6 0;
#X connect 8 7 7 0;
#X connect 10 0 8 0;
#X restore 511 523 pd v-conver;
#N canvas 657 469 324 193 v-conver 0;
#X msg 20 77 7;
#X msg 48 77 6;
#X msg 77 77 5;
#X msg 107 77 4;
#X msg 135 77 3;
#X msg 164 77 2;
#X msg 194 77 1;
#X msg 223 77 0;
#X obj 20 48 sel 0 1 2 3 4 5 6 7;
#X obj 20 110 outlet;
#X obj 20 22 inlet;
#X connect 0 0 9 0;
#X connect 1 0 9 0;
#X connect 2 0 9 0;
#X connect 3 0 9 0;
#X connect 4 0 9 0;
#X connect 5 0 9 0;
#X connect 6 0 9 0;
#X connect 7 0 9 0;
#X connect 8 0 0 0;
#X connect 8 1 1 0;
#X connect 8 2 2 0;
#X connect 8 3 3 0;
#X connect 8 4 4 0;
#X connect 8 5 5 0;
#X connect 8 6 6 0;
#X connect 8 7 7 0;
#X connect 10 0 8 0;
#X restore 611 523 pd v-conver;
#N canvas 657 469 324 193 v-conver 0;
#X msg 20 77 7;
#X msg 48 77 6;
#X msg 77 77 5;
#X msg 107 77 4;
#X msg 135 77 3;
#X msg 164 77 2;
#X msg 194 77 1;
#X msg 223 77 0;
#X obj 20 48 sel 0 1 2 3 4 5 6 7;
#X obj 20 110 outlet;
#X obj 20 22 inlet;
#X connect 0 0 9 0;
#X connect 1 0 9 0;
#X connect 2 0 9 0;
#X connect 3 0 9 0;
#X connect 4 0 9 0;
#X connect 5 0 9 0;
#X connect 6 0 9 0;
#X connect 7 0 9 0;
#X connect 8 0 0 0;
#X connect 8 1 1 0;
#X connect 8 2 2 0;
#X connect 8 3 3 0;
#X connect 8 4 4 0;
#X connect 8 5 5 0;
#X connect 8 6 6 0;
#X connect 8 7 7 0;
#X connect 10 0 8 0;
#X restore 711 523 pd v-conver;
#N canvas 657 469 324 193 v-conver 0;
#X msg 20 77 7;
#X msg 48 77 6;
#X msg 77 77 5;
#X msg 107 77 4;
#X msg 135 77 3;
#X msg 164 77 2;
#X msg 194 77 1;
#X msg 223 77 0;
#X obj 20 48 sel 0 1 2 3 4 5 6 7;
#X obj 20 110 outlet;
#X obj 20 22 inlet;
#X connect 0 0 9 0;
#X connect 1 0 9 0;
#X connect 2 0 9 0;
#X connect 3 0 9 0;
#X connect 4 0 9 0;
#X connect 5 0 9 0;
#X connect 6 0 9 0;
#X connect 7 0 9 0;
#X connect 8 0 0 0;
#X connect 8 1 1 0;
#X connect 8 2 2 0;
#X connect 8 3 3 0;
#X connect 8 4 4 0;
#X connect 8 5 5 0;
#X connect 8 6 6 0;
#X connect 8 7 7 0;
#X connect 10 0 8 0;
#X restore 811 523 pd v-conver;
#N canvas 657 469 324 193 v-conver 0;
#X msg 20 77 7;
#X msg 48 77 6;
#X msg 77 77 5;
#X msg 107 77 4;
#X msg 135 77 3;
#X msg 164 77 2;
#X msg 194 77 1;
#X msg 223 77 0;
#X obj 20 48 sel 0 1 2 3 4 5 6 7;
#X obj 20 110 outlet;
#X obj 20 22 inlet;
#X connect 0 0 9 0;
#X connect 1 0 9 0;
#X connect 2 0 9 0;
#X connect 3 0 9 0;
#X connect 4 0 9 0;
#X connect 5 0 9 0;
#X connect 6 0 9 0;
#X connect 7 0 9 0;
#X connect 8 0 0 0;
#X connect 8 1 1 0;
#X connect 8 2 2 0;
#X connect 8 3 3 0;
#X connect 8 4 4 0;
#X connect 8 5 5 0;
#X connect 8 6 6 0;
#X connect 8 7 7 0;
#X connect 10 0 8 0;
#X restore 911 523 pd v-conver;
#N canvas 657 469 324 193 v-conver 0;
#X msg 20 77 7;
#X msg 48 77 6;
#X msg 77 77 5;
#X msg 107 77 4;
#X msg 135 77 3;
#X msg 164 77 2;
#X msg 194 77 1;
#X msg 223 77 0;
#X obj 20 48 sel 0 1 2 3 4 5 6 7;
#X obj 20 110 outlet;
#X obj 20 22 inlet;
#X connect 0 0 9 0;
#X connect 1 0 9 0;
#X connect 2 0 9 0;
#X connect 3 0 9 0;
#X connect 4 0 9 0;
#X connect 5 0 9 0;
#X connect 6 0 9 0;
#X connect 7 0 9 0;
#X connect 8 0 0 0;
#X connect 8 1 1 0;
#X connect 8 2 2 0;
#X connect 8 3 3 0;
#X connect 8 4 4 0;
#X connect 8 5 5 0;
#X connect 8 6 6 0;
#X connect 8 7 7 0;
#X connect 10 0 8 0;
#X restore 1010 523 pd v-conver;
#N canvas 657 469 324 193 v-conver 0;
#X msg 20 77 7;
#X msg 48 77 6;
#X msg 77 77 5;
#X msg 107 77 4;
#X msg 135 77 3;
#X msg 164 77 2;
#X msg 194 77 1;
#X msg 223 77 0;
#X obj 20 48 sel 0 1 2 3 4 5 6 7;
#X obj 20 110 outlet;
#X obj 20 22 inlet;
#X connect 0 0 9 0;
#X connect 1 0 9 0;
#X connect 2 0 9 0;
#X connect 3 0 9 0;
#X connect 4 0 9 0;
#X connect 5 0 9 0;
#X connect 6 0 9 0;
#X connect 7 0 9 0;
#X connect 8 0 0 0;
#X connect 8 1 1 0;
#X connect 8 2 2 0;
#X connect 8 3 3 0;
#X connect 8 4 4 0;
#X connect 8 5 5 0;
#X connect 8 6 6 0;
#X connect 8 7 7 0;
#X connect 10 0 8 0;
#X restore 1109 523 pd v-conver;
#N canvas 657 469 324 193 v-conver 0;
#X msg 20 77 7;
#X msg 48 77 6;
#X msg 77 77 5;
#X msg 107 77 4;
#X msg 135 77 3;
#X msg 164 77 2;
#X msg 194 77 1;
#X msg 223 77 0;
#X obj 20 48 sel 0 1 2 3 4 5 6 7;
#X obj 20 110 outlet;
#X obj 20 22 inlet;
#X connect 0 0 9 0;
#X connect 1 0 9 0;
#X connect 2 0 9 0;
#X connect 3 0 9 0;
#X connect 4 0 9 0;
#X connect 5 0 9 0;
#X connect 6 0 9 0;
#X connect 7 0 9 0;
#X connect 8 0 0 0;
#X connect 8 1 1 0;
#X connect 8 2 2 0;
#X connect 8 3 3 0;
#X connect 8 4 4 0;
#X connect 8 5 5 0;
#X connect 8 6 6 0;
#X connect 8 7 7 0;
#X connect 10 0 8 0;
#X restore 1205 523 pd v-conver;
#N canvas 657 469 324 193 v-conver 0;
#X msg 20 77 7;
#X msg 48 77 6;
#X msg 77 77 5;
#X msg 107 77 4;
#X msg 135 77 3;
#X msg 164 77 2;
#X msg 194 77 1;
#X msg 223 77 0;
#X obj 20 48 sel 0 1 2 3 4 5 6 7;
#X obj 20 110 outlet;
#X obj 20 22 inlet;
#X connect 0 0 9 0;
#X connect 1 0 9 0;
#X connect 2 0 9 0;
#X connect 3 0 9 0;
#X connect 4 0 9 0;
#X connect 5 0 9 0;
#X connect 6 0 9 0;
#X connect 7 0 9 0;
#X connect 8 0 0 0;
#X connect 8 1 1 0;
#X connect 8 2 2 0;
#X connect 8 3 3 0;
#X connect 8 4 4 0;
#X connect 8 5 5 0;
#X connect 8 6 6 0;
#X connect 8 7 7 0;
#X connect 10 0 8 0;
#X restore 1304 523 pd v-conver;
#N canvas 657 469 324 193 v-conver 0;
#X msg 20 77 7;
#X msg 48 77 6;
#X msg 77 77 5;
#X msg 107 77 4;
#X msg 135 77 3;
#X msg 164 77 2;
#X msg 194 77 1;
#X msg 223 77 0;
#X obj 20 48 sel 0 1 2 3 4 5 6 7;
#X obj 20 110 outlet;
#X obj 20 22 inlet;
#X connect 0 0 9 0;
#X connect 1 0 9 0;
#X connect 2 0 9 0;
#X connect 3 0 9 0;
#X connect 4 0 9 0;
#X connect 5 0 9 0;
#X connect 6 0 9 0;
#X connect 7 0 9 0;
#X connect 8 0 0 0;
#X connect 8 1 1 0;
#X connect 8 2 2 0;
#X connect 8 3 3 0;
#X connect 8 4 4 0;
#X connect 8 5 5 0;
#X connect 8 6 6 0;
#X connect 8 7 7 0;
#X connect 10 0 8 0;
#X restore 1404 523 pd v-conver;
#N canvas 657 469 324 193 v-conver 0;
#X msg 20 77 7;
#X msg 48 77 6;
#X msg 77 77 5;
#X msg 107 77 4;
#X msg 135 77 3;
#X msg 164 77 2;
#X msg 194 77 1;
#X msg 223 77 0;
#X obj 20 48 sel 0 1 2 3 4 5 6 7;
#X obj 20 110 outlet;
#X obj 20 22 inlet;
#X connect 0 0 9 0;
#X connect 1 0 9 0;
#X connect 2 0 9 0;
#X connect 3 0 9 0;
#X connect 4 0 9 0;
#X connect 5 0 9 0;
#X connect 6 0 9 0;
#X connect 7 0 9 0;
#X connect 8 0 0 0;
#X connect 8 1 1 0;
#X connect 8 2 2 0;
#X connect 8 3 3 0;
#X connect 8 4 4 0;
#X connect 8 5 5 0;
#X connect 8 6 6 0;
#X connect 8 7 7 0;
#X connect 10 0 8 0;
#X restore 1502 523 pd v-conver;
#X msg 752 501 0;
#N canvas 80 51 258 248 rdm-gen-1beat 0;
#X obj 26 43 random 127;
#X floatatom 26 63 5 0 0 0 - - -, f 5;
#X obj 26 103 sel 1;
#X obj 26 123 random 7;
#X obj 26 145 + 1;
#X text 95 43 for note;
#X msg 84 145 0;
#X obj 84 120 bng 15 250 50 0 empty empty empty 17 7 0 10 -262144 -1
-1;
#X obj 26 17 inlet;
#X obj 26 171 outlet;
#X obj 26 82 expr if($i1 < 24 \, 0 \, 1);
#X connect 0 0 1 0;
#X connect 1 0 10 0;
#X connect 2 0 3 0;
#X connect 2 1 7 0;
#X connect 3 0 4 0;
#X connect 4 0 9 0;
#X connect 6 0 9 0;
#X connect 7 0 6 0;
#X connect 8 0 0 0;
#X connect 10 0 2 0;
#X restore 20 268 pd rdm-gen-1beat;
#N canvas 91 215 258 248 rdm-gen-4beat 0;
#X obj 26 43 random 127;
#X floatatom 26 63 5 0 0 0 - - -, f 5;
#X obj 26 103 sel 1;
#X obj 26 123 random 7;
#X obj 26 145 + 1;
#X text 95 43 for note;
#X msg 84 145 0;
#X obj 84 120 bng 15 250 50 0 empty empty empty 17 7 0 10 -262144 -1
-1;
#X obj 26 17 inlet;
#X obj 26 171 outlet;
#X obj 26 82 expr if($i1 < 48 \, 0 \, 1);
#X connect 0 0 1 0;
#X connect 1 0 10 0;
#X connect 2 0 3 0;
#X connect 2 1 7 0;
#X connect 3 0 4 0;
#X connect 4 0 9 0;
#X connect 6 0 9 0;
#X connect 7 0 6 0;
#X connect 8 0 0 0;
#X connect 10 0 2 0;
#X restore 420 300 pd rdm-gen-4beat;
#N canvas 91 215 258 248 rdm-gen-8beat 0;
#X obj 26 43 random 127;
#X floatatom 26 63 5 0 0 0 - - -, f 5;
#X obj 26 103 sel 1;
#X obj 26 123 random 7;
#X obj 26 145 + 1;
#X text 95 43 for note;
#X msg 84 145 0;
#X obj 84 120 bng 15 250 50 0 empty empty empty 17 7 0 10 -262144 -1
-1;
#X obj 26 17 inlet;
#X obj 26 171 outlet;
#X obj 26 82 expr if($i1 < 72 \, 0 \, 1);
#X connect 0 0 1 0;
#X connect 1 0 10 0;
#X connect 2 0 3 0;
#X connect 2 1 7 0;
#X connect 3 0 4 0;
#X connect 4 0 9 0;
#X connect 6 0 9 0;
#X connect 7 0 6 0;
#X connect 8 0 0 0;
#X connect 10 0 2 0;
#X restore 220 337 pd rdm-gen-8beat;
#N canvas 91 215 258 248 rdm-gen-16beat 0;
#X obj 26 43 random 127;
#X floatatom 26 63 5 0 0 0 - - -, f 5;
#X obj 26 103 sel 1;
#X obj 26 123 random 7;
#X obj 26 145 + 1;
#X text 95 43 for note;
#X msg 84 145 0;
#X obj 84 120 bng 15 250 50 0 empty empty empty 17 7 0 10 -262144 -1
-1;
#X obj 26 17 inlet;
#X obj 26 171 outlet;
#X obj 26 82 expr if($i1 < 96 \, 0 \, 1);
#X connect 0 0 1 0;
#X connect 1 0 10 0;
#X connect 2 0 3 0;
#X connect 2 1 7 0;
#X connect 3 0 4 0;
#X connect 4 0 9 0;
#X connect 6 0 9 0;
#X connect 7 0 6 0;
#X connect 8 0 0 0;
#X connect 10 0 2 0;
#X restore 120 426 pd rdm-gen-16beat;
#N canvas 91 215 258 248 rdm-gen-16beat 0;
#X obj 26 43 random 127;
#X floatatom 26 63 5 0 0 0 - - -, f 5;
#X obj 26 103 sel 1;
#X obj 26 123 random 7;
#X obj 26 145 + 1;
#X text 95 43 for note;
#X msg 84 145 0;
#X obj 84 120 bng 15 250 50 0 empty empty empty 17 7 0 10 -262144 -1
-1;
#X obj 26 17 inlet;
#X obj 26 171 outlet;
#X obj 26 82 expr if($i1 < 96 \, 0 \, 1);
#X connect 0 0 1 0;
#X connect 1 0 10 0;
#X connect 2 0 3 0;
#X connect 2 1 7 0;
#X connect 3 0 4 0;
#X connect 4 0 9 0;
#X connect 6 0 9 0;
#X connect 7 0 6 0;
#X connect 8 0 0 0;
#X connect 10 0 2 0;
#X restore 320 426 pd rdm-gen-16beat;
#N canvas 91 215 258 248 rdm-gen-8beat 0;
#X obj 26 43 random 127;
#X floatatom 26 63 5 0 0 0 - - -, f 5;
#X obj 26 103 sel 1;
#X obj 26 123 random 7;
#X obj 26 145 + 1;
#X text 95 43 for note;
#X msg 84 145 0;
#X obj 84 120 bng 15 250 50 0 empty empty empty 17 7 0 10 -262144 -1
-1;
#X obj 26 17 inlet;
#X obj 26 171 outlet;
#X obj 26 82 expr if($i1 < 72 \, 0 \, 1);
#X connect 0 0 1 0;
#X connect 1 0 10 0;
#X connect 2 0 3 0;
#X connect 2 1 7 0;
#X connect 3 0 4 0;
#X connect 4 0 9 0;
#X connect 6 0 9 0;
#X connect 7 0 6 0;
#X connect 8 0 0 0;
#X connect 10 0 2 0;
#X restore 611 337 pd rdm-gen-8beat;
#N canvas 91 215 258 248 rdm-gen-16beat 0;
#X obj 26 43 random 127;
#X floatatom 26 63 5 0 0 0 - - -, f 5;
#X obj 26 103 sel 1;
#X obj 26 123 random 7;
#X obj 26 145 + 1;
#X text 95 43 for note;
#X msg 84 145 0;
#X obj 84 120 bng 15 250 50 0 empty empty empty 17 7 0 10 -262144 -1
-1;
#X obj 26 17 inlet;
#X obj 26 171 outlet;
#X obj 26 82 expr if($i1 < 96 \, 0 \, 1);
#X connect 0 0 1 0;
#X connect 1 0 10 0;
#X connect 2 0 3 0;
#X connect 2 1 7 0;
#X connect 3 0 4 0;
#X connect 4 0 9 0;
#X connect 6 0 9 0;
#X connect 7 0 6 0;
#X connect 8 0 0 0;
#X connect 10 0 2 0;
#X restore 511 426 pd rdm-gen-16beat;
#N canvas 91 215 258 248 rdm-gen-16beat 0;
#X obj 26 43 random 127;
#X floatatom 26 63 5 0 0 0 - - -, f 5;
#X obj 26 103 sel 1;
#X obj 26 123 random 7;
#X obj 26 145 + 1;
#X text 95 43 for note;
#X msg 84 145 0;
#X obj 84 120 bng 15 250 50 0 empty empty empty 17 7 0 10 -262144 -1
-1;
#X obj 26 17 inlet;
#X obj 26 171 outlet;
#X obj 26 82 expr if($i1 < 96 \, 0 \, 1);
#X connect 0 0 1 0;
#X connect 1 0 10 0;
#X connect 2 0 3 0;
#X connect 2 1 7 0;
#X connect 3 0 4 0;
#X connect 4 0 9 0;
#X connect 6 0 9 0;
#X connect 7 0 6 0;
#X connect 8 0 0 0;
#X connect 10 0 2 0;
#X restore 711 426 pd rdm-gen-16beat;
#N canvas 91 215 258 248 rdm-gen-4beat 0;
#X obj 26 43 random 127;
#X floatatom 26 63 5 0 0 0 - - -, f 5;
#X obj 26 103 sel 1;
#X obj 26 123 random 7;
#X obj 26 145 + 1;
#X text 95 43 for note;
#X msg 84 145 0;
#X obj 84 120 bng 15 250 50 0 empty empty empty 17 7 0 10 -262144 -1
-1;
#X obj 26 17 inlet;
#X obj 26 171 outlet;
#X obj 26 82 expr if($i1 < 48 \, 0 \, 1);
#X connect 0 0 1 0;
#X connect 1 0 10 0;
#X connect 2 0 3 0;
#X connect 2 1 7 0;
#X connect 3 0 4 0;
#X connect 4 0 9 0;
#X connect 6 0 9 0;
#X connect 7 0 6 0;
#X connect 8 0 0 0;
#X connect 10 0 2 0;
#X restore 811 300 pd rdm-gen-4beat;
#N canvas 91 215 258 248 rdm-gen-8beat 0;
#X obj 26 43 random 127;
#X floatatom 26 63 5 0 0 0 - - -, f 5;
#X obj 26 103 sel 1;
#X obj 26 123 random 7;
#X obj 26 145 + 1;
#X text 95 43 for note;
#X msg 84 145 0;
#X obj 84 120 bng 15 250 50 0 empty empty empty 17 7 0 10 -262144 -1
-1;
#X obj 26 17 inlet;
#X obj 26 171 outlet;
#X obj 26 82 expr if($i1 < 72 \, 0 \, 1);
#X connect 0 0 1 0;
#X connect 1 0 10 0;
#X connect 2 0 3 0;
#X connect 2 1 7 0;
#X connect 3 0 4 0;
#X connect 4 0 9 0;
#X connect 6 0 9 0;
#X connect 7 0 6 0;
#X connect 8 0 0 0;
#X connect 10 0 2 0;
#X restore 1010 337 pd rdm-gen-8beat;
#N canvas 91 215 258 248 rdm-gen-16beat 0;
#X obj 26 43 random 127;
#X floatatom 26 63 5 0 0 0 - - -, f 5;
#X obj 26 103 sel 1;
#X obj 26 123 random 7;
#X obj 26 145 + 1;
#X text 95 43 for note;
#X msg 84 145 0;
#X obj 84 120 bng 15 250 50 0 empty empty empty 17 7 0 10 -262144 -1
-1;
#X obj 26 17 inlet;
#X obj 26 171 outlet;
#X obj 26 82 expr if($i1 < 96 \, 0 \, 1);
#X connect 0 0 1 0;
#X connect 1 0 10 0;
#X connect 2 0 3 0;
#X connect 2 1 7 0;
#X connect 3 0 4 0;
#X connect 4 0 9 0;
#X connect 6 0 9 0;
#X connect 7 0 6 0;
#X connect 8 0 0 0;
#X connect 10 0 2 0;
#X restore 911 426 pd rdm-gen-16beat;
#N canvas 91 215 258 248 rdm-gen-16beat 0;
#X obj 26 43 random 127;
#X floatatom 26 63 5 0 0 0 - - -, f 5;
#X obj 26 103 sel 1;
#X obj 26 123 random 7;
#X obj 26 145 + 1;
#X text 95 43 for note;
#X msg 84 145 0;
#X obj 84 120 bng 15 250 50 0 empty empty empty 17 7 0 10 -262144 -1
-1;
#X obj 26 17 inlet;
#X obj 26 171 outlet;
#X obj 26 82 expr if($i1 < 96 \, 0 \, 1);
#X connect 0 0 1 0;
#X connect 1 0 10 0;
#X connect 2 0 3 0;
#X connect 2 1 7 0;
#X connect 3 0 4 0;
#X connect 4 0 9 0;
#X connect 6 0 9 0;
#X connect 7 0 6 0;
#X connect 8 0 0 0;
#X connect 10 0 2 0;
#X restore 1109 426 pd rdm-gen-16beat;
#N canvas 91 215 258 248 rdm-gen-4beat 0;
#X obj 26 43 random 127;
#X floatatom 26 63 5 0 0 0 - - -, f 5;
#X obj 26 103 sel 1;
#X obj 26 123 random 7;
#X obj 26 145 + 1;
#X text 95 43 for note;
#X msg 84 145 0;
#X obj 84 120 bng 15 250 50 0 empty empty empty 17 7 0 10 -262144 -1
-1;
#X obj 26 17 inlet;
#X obj 26 171 outlet;
#X obj 26 82 expr if($i1 < 48 \, 0 \, 1);
#X connect 0 0 1 0;
#X connect 1 0 10 0;
#X connect 2 0 3 0;
#X connect 2 1 7 0;
#X connect 3 0 4 0;
#X connect 4 0 9 0;
#X connect 6 0 9 0;
#X connect 7 0 6 0;
#X connect 8 0 0 0;
#X connect 10 0 2 0;
#X restore 1205 300 pd rdm-gen-4beat;
#N canvas 91 215 258 248 rdm-gen-8beat 0;
#X obj 26 43 random 127;
#X floatatom 26 63 5 0 0 0 - - -, f 5;
#X obj 26 103 sel 1;
#X obj 26 123 random 7;
#X obj 26 145 + 1;
#X text 95 43 for note;
#X msg 84 145 0;
#X obj 84 120 bng 15 250 50 0 empty empty empty 17 7 0 10 -262144 -1
-1;
#X obj 26 17 inlet;
#X obj 26 171 outlet;
#X obj 26 82 expr if($i1 < 72 \, 0 \, 1);
#X connect 0 0 1 0;
#X connect 1 0 10 0;
#X connect 2 0 3 0;
#X connect 2 1 7 0;
#X connect 3 0 4 0;
#X connect 4 0 9 0;
#X connect 6 0 9 0;
#X connect 7 0 6 0;
#X connect 8 0 0 0;
#X connect 10 0 2 0;
#X restore 1404 337 pd rdm-gen-8beat;
#N canvas 91 215 258 248 rdm-gen-16beat 0;
#X obj 26 43 random 127;
#X floatatom 26 63 5 0 0 0 - - -, f 5;
#X obj 26 103 sel 1;
#X obj 26 123 random 7;
#X obj 26 145 + 1;
#X text 95 43 for note;
#X msg 84 145 0;
#X obj 84 120 bng 15 250 50 0 empty empty empty 17 7 0 10 -262144 -1
-1;
#X obj 26 17 inlet;
#X obj 26 171 outlet;
#X obj 26 82 expr if($i1 < 96 \, 0 \, 1);
#X connect 0 0 1 0;
#X connect 1 0 10 0;
#X connect 2 0 3 0;
#X connect 2 1 7 0;
#X connect 3 0 4 0;
#X connect 4 0 9 0;
#X connect 6 0 9 0;
#X connect 7 0 6 0;
#X connect 8 0 0 0;
#X connect 10 0 2 0;
#X restore 1304 426 pd rdm-gen-16beat;
#N canvas 91 215 258 248 rdm-gen-16beat 0;
#X obj 26 43 random 127;
#X floatatom 26 63 5 0 0 0 - - -, f 5;
#X obj 26 103 sel 1;
#X obj 26 123 random 7;
#X obj 26 145 + 1;
#X text 95 43 for note;
#X msg 84 145 0;
#X obj 84 120 bng 15 250 50 0 empty empty empty 17 7 0 10 -262144 -1
-1;
#X obj 26 17 inlet;
#X obj 26 171 outlet;
#X obj 26 82 expr if($i1 < 96 \, 0 \, 1);
#X connect 0 0 1 0;
#X connect 1 0 10 0;
#X connect 2 0 3 0;
#X connect 2 1 7 0;
#X connect 3 0 4 0;
#X connect 4 0 9 0;
#X connect 6 0 9 0;
#X connect 7 0 6 0;
#X connect 8 0 0 0;
#X connect 10 0 2 0;
#X restore 1502 426 pd rdm-gen-16beat;
#X obj 390 17 inlet;
#X msg 752 50 19;
#X obj 289 598 hradio 15 1 0 3 empty empty empty 0 -8 0 10 -262144
-1 -1 0;
#X floatatom 202 597 5 0 0 0 - - -, f 5;
#X floatatom 211 657 5 0 0 0 - - -, f 5;
#N canvas 312 386 271 212 rand-gate-16 0;
#X obj 111 18 inlet;
#X obj 28 19 inlet;
#X obj 78 178 outlet;
#X text 63 21 data;
#X text 146 21 on/off;
#X obj 78 110 gate;
#X msg 111 132 0;
#X obj 111 45 sel 0 1 2;
#X msg 111 74 0;
#X msg 141 74 0;
#X msg 171 74 1;
#X obj 111 110 sel 0;
#X connect 0 0 7 0;
#X connect 1 0 5 1;
#X connect 5 0 2 0;
#X connect 6 0 2 0;
#X connect 7 0 8 0;
#X connect 7 1 9 0;
#X connect 7 2 10 0;
#X connect 8 0 5 0;
#X connect 8 0 11 0;
#X connect 9 0 5 0;
#X connect 9 0 11 0;
#X connect 10 0 5 0;
#X connect 10 0 11 0;
#X connect 11 0 6 0;
#X restore 202 627 pd rand-gate-16;
#X obj 453 598 hradio 15 1 0 3 empty empty empty 0 -8 0 10 -262144
-1 -1 0;
#X floatatom 372 597 5 0 0 0 - - -, f 5;
#X floatatom 381 657 5 0 0 0 - - -, f 5;
#N canvas 312 386 271 212 rand-gate-8 0;
#X obj 111 18 inlet;
#X obj 28 19 inlet;
#X obj 78 178 outlet;
#X text 63 21 data;
#X text 146 21 on/off;
#X obj 78 110 gate;
#X msg 111 132 0;
#X obj 111 45 sel 0 1 2;
#X msg 111 74 0;
#X msg 171 74 1;
#X obj 111 110 sel 0;
#X msg 141 74 1;
#X connect 0 0 7 0;
#X connect 1 0 5 1;
#X connect 5 0 2 0;
#X connect 6 0 2 0;
#X connect 7 0 8 0;
#X connect 7 1 11 0;
#X connect 7 2 9 0;
#X connect 8 0 5 0;
#X connect 8 0 10 0;
#X connect 9 0 5 0;
#X connect 9 0 10 0;
#X connect 10 0 6 0;
#X connect 11 0 5 0;
#X connect 11 0 10 0;
#X restore 372 627 pd rand-gate-8;
#N canvas 312 386 271 212 rand-gate-16 0;
#X obj 111 18 inlet;
#X obj 28 19 inlet;
#X obj 78 178 outlet;
#X text 63 21 data;
#X text 146 21 on/off;
#X obj 78 110 gate;
#X msg 111 132 0;
#X obj 111 45 sel 0 1 2;
#X msg 111 74 0;
#X msg 141 74 0;
#X msg 171 74 1;
#X obj 111 110 sel 0;
#X connect 0 0 7 0;
#X connect 1 0 5 1;
#X connect 5 0 2 0;
#X connect 6 0 2 0;
#X connect 7 0 8 0;
#X connect 7 1 9 0;
#X connect 7 2 10 0;
#X connect 8 0 5 0;
#X connect 8 0 11 0;
#X connect 9 0 5 0;
#X connect 9 0 11 0;
#X connect 10 0 5 0;
#X connect 10 0 11 0;
#X connect 11 0 6 0;
#X restore 120 453 pd rand-gate-16;
#N canvas 312 386 271 212 rand-gate-16 0;
#X obj 111 18 inlet;
#X obj 28 19 inlet;
#X obj 78 178 outlet;
#X text 63 21 data;
#X text 146 21 on/off;
#X obj 78 110 gate;
#X msg 111 132 0;
#X obj 111 45 sel 0 1 2;
#X msg 111 74 0;
#X msg 141 74 0;
#X msg 171 74 1;
#X obj 111 110 sel 0;
#X connect 0 0 7 0;
#X connect 1 0 5 1;
#X connect 5 0 2 0;
#X connect 6 0 2 0;
#X connect 7 0 8 0;
#X connect 7 1 9 0;
#X connect 7 2 10 0;
#X connect 8 0 5 0;
#X connect 8 0 11 0;
#X connect 9 0 5 0;
#X connect 9 0 11 0;
#X connect 10 0 5 0;
#X connect 10 0 11 0;
#X connect 11 0 6 0;
#X restore 320 453 pd rand-gate-16;
#N canvas 312 386 271 212 rand-gate-16 0;
#X obj 111 18 inlet;
#X obj 28 19 inlet;
#X obj 78 178 outlet;
#X text 63 21 data;
#X text 146 21 on/off;
#X obj 78 110 gate;
#X msg 111 132 0;
#X obj 111 45 sel 0 1 2;
#X msg 111 74 0;
#X msg 141 74 0;
#X msg 171 74 1;
#X obj 111 110 sel 0;
#X connect 0 0 7 0;
#X connect 1 0 5 1;
#X connect 5 0 2 0;
#X connect 6 0 2 0;
#X connect 7 0 8 0;
#X connect 7 1 9 0;
#X connect 7 2 10 0;
#X connect 8 0 5 0;
#X connect 8 0 11 0;
#X connect 9 0 5 0;
#X connect 9 0 11 0;
#X connect 10 0 5 0;
#X connect 10 0 11 0;
#X connect 11 0 6 0;
#X restore 511 453 pd rand-gate-16;
#N canvas 312 386 271 212 rand-gate-16 0;
#X obj 111 18 inlet;
#X obj 28 19 inlet;
#X obj 78 178 outlet;
#X text 63 21 data;
#X text 146 21 on/off;
#X obj 78 110 gate;
#X msg 111 132 0;
#X obj 111 45 sel 0 1 2;
#X msg 111 74 0;
#X msg 141 74 0;
#X msg 171 74 1;
#X obj 111 110 sel 0;
#X connect 0 0 7 0;
#X connect 1 0 5 1;
#X connect 5 0 2 0;
#X connect 6 0 2 0;
#X connect 7 0 8 0;
#X connect 7 1 9 0;
#X connect 7 2 10 0;
#X connect 8 0 5 0;
#X connect 8 0 11 0;
#X connect 9 0 5 0;
#X connect 9 0 11 0;
#X connect 10 0 5 0;
#X connect 10 0 11 0;
#X connect 11 0 6 0;
#X restore 711 453 pd rand-gate-16;
#N canvas 312 386 271 212 rand-gate-16 0;
#X obj 111 18 inlet;
#X obj 28 19 inlet;
#X obj 78 178 outlet;
#X text 63 21 data;
#X text 146 21 on/off;
#X obj 78 110 gate;
#X msg 111 132 0;
#X obj 111 45 sel 0 1 2;
#X msg 111 74 0;
#X msg 141 74 0;
#X msg 171 74 1;
#X obj 111 110 sel 0;
#X connect 0 0 7 0;
#X connect 1 0 5 1;
#X connect 5 0 2 0;
#X connect 6 0 2 0;
#X connect 7 0 8 0;
#X connect 7 1 9 0;
#X connect 7 2 10 0;
#X connect 8 0 5 0;
#X connect 8 0 11 0;
#X connect 9 0 5 0;
#X connect 9 0 11 0;
#X connect 10 0 5 0;
#X connect 10 0 11 0;
#X connect 11 0 6 0;
#X restore 911 453 pd rand-gate-16;
#N canvas 312 386 271 212 rand-gate-16 0;
#X obj 111 18 inlet;
#X obj 28 19 inlet;
#X obj 78 178 outlet;
#X text 63 21 data;
#X text 146 21 on/off;
#X obj 78 110 gate;
#X msg 111 132 0;
#X obj 111 45 sel 0 1 2;
#X msg 111 74 0;
#X msg 141 74 0;
#X msg 171 74 1;
#X obj 111 110 sel 0;
#X connect 0 0 7 0;
#X connect 1 0 5 1;
#X connect 5 0 2 0;
#X connect 6 0 2 0;
#X connect 7 0 8 0;
#X connect 7 1 9 0;
#X connect 7 2 10 0;
#X connect 8 0 5 0;
#X connect 8 0 11 0;
#X connect 9 0 5 0;
#X connect 9 0 11 0;
#X connect 10 0 5 0;
#X connect 10 0 11 0;
#X connect 11 0 6 0;
#X restore 1109 453 pd rand-gate-16;
#N canvas 312 386 271 212 rand-gate-16 0;
#X obj 111 18 inlet;
#X obj 28 19 inlet;
#X obj 78 178 outlet;
#X text 63 21 data;
#X text 146 21 on/off;
#X obj 78 110 gate;
#X msg 111 132 0;
#X obj 111 45 sel 0 1 2;
#X msg 111 74 0;
#X msg 141 74 0;
#X msg 171 74 1;
#X obj 111 110 sel 0;
#X connect 0 0 7 0;
#X connect 1 0 5 1;
#X connect 5 0 2 0;
#X connect 6 0 2 0;
#X connect 7 0 8 0;
#X connect 7 1 9 0;
#X connect 7 2 10 0;
#X connect 8 0 5 0;
#X connect 8 0 11 0;
#X connect 9 0 5 0;
#X connect 9 0 11 0;
#X connect 10 0 5 0;
#X connect 10 0 11 0;
#X connect 11 0 6 0;
#X restore 1304 453 pd rand-gate-16;
#N canvas 312 386 271 212 rand-gate-16 0;
#X obj 111 18 inlet;
#X obj 28 19 inlet;
#X obj 78 178 outlet;
#X text 63 21 data;
#X text 146 21 on/off;
#X obj 78 110 gate;
#X msg 111 132 0;
#X obj 111 45 sel 0 1 2;
#X msg 111 74 0;
#X msg 141 74 0;
#X msg 171 74 1;
#X obj 111 110 sel 0;
#X connect 0 0 7 0;
#X connect 1 0 5 1;
#X connect 5 0 2 0;
#X connect 6 0 2 0;
#X connect 7 0 8 0;
#X connect 7 1 9 0;
#X connect 7 2 10 0;
#X connect 8 0 5 0;
#X connect 8 0 11 0;
#X connect 9 0 5 0;
#X connect 9 0 11 0;
#X connect 10 0 5 0;
#X connect 10 0 11 0;
#X connect 11 0 6 0;
#X restore 1502 453 pd rand-gate-16;
#N canvas 312 386 271 212 rand-gate-8 0;
#X obj 111 18 inlet;
#X obj 28 19 inlet;
#X obj 78 178 outlet;
#X text 63 21 data;
#X text 146 21 on/off;
#X obj 78 110 gate;
#X msg 111 132 0;
#X obj 111 45 sel 0 1 2;
#X msg 111 74 0;
#X msg 171 74 1;
#X obj 111 110 sel 0;
#X msg 141 74 1;
#X connect 0 0 7 0;
#X connect 1 0 5 1;
#X connect 5 0 2 0;
#X connect 6 0 2 0;
#X connect 7 0 8 0;
#X connect 7 1 11 0;
#X connect 7 2 9 0;
#X connect 8 0 5 0;
#X connect 8 0 10 0;
#X connect 9 0 5 0;
#X connect 9 0 10 0;
#X connect 10 0 6 0;
#X connect 11 0 5 0;
#X connect 11 0 10 0;
#X restore 220 365 pd rand-gate-8;
#N canvas 312 386 271 212 rand-gate-8 0;
#X obj 111 18 inlet;
#X obj 28 19 inlet;
#X obj 78 178 outlet;
#X text 63 21 data;
#X text 146 21 on/off;
#X obj 78 110 gate;
#X msg 111 132 0;
#X obj 111 45 sel 0 1 2;
#X msg 111 74 0;
#X msg 171 74 1;
#X obj 111 110 sel 0;
#X msg 141 74 1;
#X connect 0 0 7 0;
#X connect 1 0 5 1;
#X connect 5 0 2 0;
#X connect 6 0 2 0;
#X connect 7 0 8 0;
#X connect 7 1 11 0;
#X connect 7 2 9 0;
#X connect 8 0 5 0;
#X connect 8 0 10 0;
#X connect 9 0 5 0;
#X connect 9 0 10 0;
#X connect 10 0 6 0;
#X connect 11 0 5 0;
#X connect 11 0 10 0;
#X restore 611 365 pd rand-gate-8;
#N canvas 312 386 271 212 rand-gate-8 0;
#X obj 111 18 inlet;
#X obj 28 19 inlet;
#X obj 78 178 outlet;
#X text 63 21 data;
#X text 146 21 on/off;
#X obj 78 110 gate;
#X msg 111 132 0;
#X obj 111 45 sel 0 1 2;
#X msg 111 74 0;
#X msg 171 74 1;
#X obj 111 110 sel 0;
#X msg 141 74 1;
#X connect 0 0 7 0;
#X connect 1 0 5 1;
#X connect 5 0 2 0;
#X connect 6 0 2 0;
#X connect 7 0 8 0;
#X connect 7 1 11 0;
#X connect 7 2 9 0;
#X connect 8 0 5 0;
#X connect 8 0 10 0;
#X connect 9 0 5 0;
#X connect 9 0 10 0;
#X connect 10 0 6 0;
#X connect 11 0 5 0;
#X connect 11 0 10 0;
#X restore 1010 365 pd rand-gate-8;
#N canvas 312 386 271 212 rand-gate-8 0;
#X obj 111 18 inlet;
#X obj 28 19 inlet;
#X obj 78 178 outlet;
#X text 63 21 data;
#X text 146 21 on/off;
#X obj 78 110 gate;
#X msg 111 132 0;
#X obj 111 45 sel 0 1 2;
#X msg 111 74 0;
#X msg 171 74 1;
#X obj 111 110 sel 0;
#X msg 141 74 1;
#X connect 0 0 7 0;
#X connect 1 0 5 1;
#X connect 5 0 2 0;
#X connect 6 0 2 0;
#X connect 7 0 8 0;
#X connect 7 1 11 0;
#X connect 7 2 9 0;
#X connect 8 0 5 0;
#X connect 8 0 10 0;
#X connect 9 0 5 0;
#X connect 9 0 10 0;
#X connect 10 0 6 0;
#X connect 11 0 5 0;
#X connect 11 0 10 0;
#X restore 1404 365 pd rand-gate-8;
#X obj 518 17 inlet;
#X text 557 21 rand-gate;
#X connect 0 0 39 0;
#X connect 1 0 2 0;
#X connect 1 1 2 1;
#X connect 2 0 0 0;
#X connect 3 0 40 0;
#X connect 4 0 5 0;
#X connect 4 1 5 1;
#X connect 5 0 3 0;
#X connect 6 0 5 0;
#X connect 7 0 5 0;
#X connect 8 0 2 0;
#X connect 9 0 42 0;
#X connect 10 0 11 0;
#X connect 10 1 11 1;
#X connect 11 0 9 0;
#X connect 12 0 11 0;
#X connect 13 0 11 0;
#X connect 14 0 41 0;
#X connect 15 0 16 0;
#X connect 15 1 16 1;
#X connect 16 0 14 0;
#X connect 17 0 16 0;
#X connect 18 0 16 0;
#X connect 19 0 44 0;
#X connect 20 0 21 0;
#X connect 20 1 21 1;
#X connect 21 0 19 0;
#X connect 22 0 21 0;
#X connect 23 0 43 0;
#X connect 24 0 25 0;
#X connect 24 1 25 1;
#X connect 25 0 23 0;
#X connect 26 0 25 0;
#X connect 27 0 25 0;
#X connect 28 0 45 0;
#X connect 29 0 30 0;
#X connect 29 1 30 1;
#X connect 30 0 28 0;
#X connect 31 0 30 0;
#X connect 32 0 30 0;
#X connect 33 0 46 0;
#X connect 34 0 35 0;
#X connect 34 1 35 1;
#X connect 35 0 33 0;
#X connect 36 0 35 0;
#X connect 37 0 35 0;
#X connect 38 0 99 0;
#X connect 47 0 85 0;
#X connect 48 0 49 0;
#X connect 48 1 49 1;
#X connect 49 0 47 0;
#X connect 50 0 86 0;
#X connect 51 0 52 0;
#X connect 51 1 52 1;
#X connect 52 0 50 0;
#X connect 53 0 52 0;
#X connect 54 0 52 0;
#X connect 55 0 49 0;
#X connect 56 0 88 0;
#X connect 57 0 58 0;
#X connect 57 1 58 1;
#X connect 58 0 56 0;
#X connect 59 0 58 0;
#X connect 60 0 58 0;
#X connect 61 0 87 0;
#X connect 62 0 63 0;
#X connect 62 1 63 1;
#X connect 63 0 61 0;
#X connect 64 0 63 0;
#X connect 65 0 63 0;
#X connect 66 0 90 0;
#X connect 67 0 68 0;
#X connect 67 1 68 1;
#X connect 68 0 66 0;
#X connect 69 0 68 0;
#X connect 70 0 89 0;
#X connect 71 0 72 0;
#X connect 71 1 72 1;
#X connect 72 0 70 0;
#X connect 73 0 72 0;
#X connect 74 0 72 0;
#X connect 75 0 91 0;
#X connect 76 0 77 0;
#X connect 76 1 77 1;
#X connect 77 0 75 0;
#X connect 78 0 77 0;
#X connect 79 0 77 0;
#X connect 80 0 92 0;
#X connect 81 0 82 0;
#X connect 81 1 82 1;
#X connect 82 0 80 0;
#X connect 83 0 82 0;
#X connect 84 0 82 0;
#X connect 93 0 133 0;
#X connect 93 0 94 0;
#X connect 93 0 6 0;
#X connect 93 0 12 0;
#X connect 93 0 17 0;
#X connect 93 0 95 0;
#X connect 93 0 26 0;
#X connect 93 0 31 0;
#X connect 93 0 36 0;
#X connect 93 0 96 0;
#X connect 93 0 53 0;
#X connect 93 0 59 0;
#X connect 93 0 64 0;
#X connect 93 0 97 0;
#X connect 93 0 73 0;
#X connect 93 0 78 0;
#X connect 93 0 83 0;
#X connect 93 0 115 0;
#X connect 94 0 2 0;
#X connect 95 0 21 0;
#X connect 96 0 49 0;
#X connect 97 0 68 0;
#X connect 98 0 39 0;
#X connect 99 0 8 0;
#X connect 99 0 83 0;
#X connect 99 1 7 0;
#X connect 99 1 94 0;
#X connect 99 2 13 0;
#X connect 99 2 6 0;
#X connect 99 3 18 0;
#X connect 99 3 12 0;
#X connect 99 4 22 0;
#X connect 99 4 17 0;
#X connect 99 5 95 0;
#X connect 99 5 27 0;
#X connect 99 6 26 0;
#X connect 99 6 32 0;
#X connect 99 7 37 0;
#X connect 99 7 31 0;
#X connect 99 8 55 0;
#X connect 99 8 36 0;
#X connect 99 9 54 0;
#X connect 99 9 96 0;
#X connect 99 10 60 0;
#X connect 99 10 53 0;
#X connect 99 11 65 0;
#X connect 99 11 59 0;
#X connect 99 12 69 0;
#X connect 99 12 64 0;
#X connect 99 13 74 0;
#X connect 99 13 97 0;
#X connect 99 14 79 0;
#X connect 99 14 73 0;
#X connect 99 15 84 0;
#X connect 99 15 78 0;
#X connect 99 16 83 0;
#X connect 100 0 40 0;
#X connect 101 0 42 0;
#X connect 102 0 41 0;
#X connect 103 0 44 0;
#X connect 104 0 43 0;
#X connect 105 0 45 0;
#X connect 106 0 46 0;
#X connect 107 0 85 0;
#X connect 108 0 86 0;
#X connect 109 0 88 0;
#X connect 110 0 87 0;
#X connect 111 0 90 0;
#X connect 112 0 89 0;
#X connect 113 0 91 0;
#X connect 114 0 92 0;
#X connect 115 0 98 0;
#X connect 115 0 100 0;
#X connect 115 0 101 0;
#X connect 115 0 102 0;
#X connect 115 0 103 0;
#X connect 115 0 104 0;
#X connect 115 0 105 0;
#X connect 115 0 106 0;
#X connect 115 0 107 0;
#X connect 115 0 108 0;
#X connect 115 0 109 0;
#X connect 115 0 110 0;
#X connect 115 0 111 0;
#X connect 115 0 112 0;
#X connect 115 0 113 0;
#X connect 115 0 114 0;
#X connect 116 0 98 0;
#X connect 117 0 103 0;
#X connect 118 0 150 0;
#X connect 119 0 142 0;
#X connect 120 0 143 0;
#X connect 121 0 151 0;
#X connect 122 0 144 0;
#X connect 123 0 145 0;
#X connect 124 0 107 0;
#X connect 125 0 152 0;
#X connect 126 0 146 0;
#X connect 127 0 147 0;
#X connect 128 0 111 0;
#X connect 129 0 153 0;
#X connect 130 0 148 0;
#X connect 131 0 149 0;
#X connect 132 0 116 0;
#X connect 132 0 119 0;
#X connect 132 0 118 0;
#X connect 132 0 120 0;
#X connect 132 0 117 0;
#X connect 132 0 122 0;
#X connect 132 0 121 0;
#X connect 132 0 123 0;
#X connect 132 0 124 0;
#X connect 132 0 126 0;
#X connect 132 0 125 0;
#X connect 132 0 127 0;
#X connect 132 0 128 0;
#X connect 132 0 130 0;
#X connect 132 0 129 0;
#X connect 132 0 131 0;
#X connect 133 0 1 0;
#X connect 133 0 4 0;
#X connect 133 0 10 0;
#X connect 133 0 15 0;
#X connect 133 0 20 0;
#X connect 133 0 24 0;
#X connect 133 0 29 0;
#X connect 133 0 34 0;
#X connect 133 0 48 0;
#X connect 133 0 51 0;
#X connect 133 0 57 0;
#X connect 133 0 62 0;
#X connect 133 0 67 0;
#X connect 133 0 71 0;
#X connect 133 0 76 0;
#X connect 133 0 81 0;
#X connect 134 0 137 1;
#X connect 135 0 137 0;
#X connect 137 0 136 0;
#X connect 138 0 141 1;
#X connect 139 0 141 0;
#X connect 141 0 140 0;
#X connect 142 0 100 0;
#X connect 143 0 102 0;
#X connect 144 0 104 0;
#X connect 145 0 106 0;
#X connect 146 0 108 0;
#X connect 147 0 110 0;
#X connect 148 0 112 0;
#X connect 149 0 114 0;
#X connect 150 0 101 0;
#X connect 151 0 105 0;
#X connect 152 0 109 0;
#X connect 153 0 113 0;
#X connect 154 0 142 1;
#X connect 154 0 150 1;
#X connect 154 0 143 1;
#X connect 154 0 144 1;
#X connect 154 0 151 1;
#X connect 154 0 145 1;
#X connect 154 0 146 1;
#X connect 154 0 152 1;
#X connect 154 0 147 1;
#X connect 154 0 148 1;
#X connect 154 0 153 1;
#X connect 154 0 149 1;
#X restore 3 71 pd one_musical_bar_step_1;
#X obj 3 177 hradio 10 1 1 16 empty empty empty 0 -8 0 10 -232576 -260097
-1 15;
#X obj 788 32 + 1;
#X obj 591 119 unpack 0 0 0 0 0 0 0;
#X msg 591 148 \$1 1;
#X msg 626 148 \$1 2;
#X msg 661 148 \$1 3;
#X msg 698 148 \$1 4;
#X msg 733 148 \$1 5;
#X msg 768 148 \$1 6;
#X msg 803 148 \$1 7;
#X msg 37 3 1 3 5 7 8 10 12;
#X obj 591 -10 inlet;
#N canvas 452 195 810 511 note-gen 0;
#X obj 50 124 int;
#X obj 148 122 * 12;
#X obj 77 304 + 60;
#X obj 77 241 +;
#X text 113 306 Base Note;
#X obj 77 460 outlet;
#X floatatom 33 258 5 0 0 0 - - -, f 5;
#X obj 50 170 sel 0;
#X obj 77 266 + 0;
#X text 101 269 key;
#X floatatom 37 321 5 0 0 0 - - -, f 5;
#X obj 77 217 - 1;
#X obj 50 8 inlet;
#X obj 216 8 inlet;
#X text 88 7 step;
#X text 255 7 Base Note;
#X obj 146 8 inlet;
#X text 185 7 Key;
#X obj 50 100 tabread \$0-note;
#X obj 50 146 tabread \$0-scale;
#X obj 148 100 tabread \$0-octave;
#X obj 259 100 tabread \$0-velocity;
#X obj 50 40 t f f f f;
#X obj 247 330 + 60;
#X obj 247 267 +;
#X text 283 332 Base Note;
#X floatatom 203 284 5 0 0 0 - - -, f 5;
#X obj 247 292 + 0;
#X text 271 295 key;
#X floatatom 207 347 5 0 0 0 - - -, f 5;
#X obj 247 243 - 1;
#X text 400 227 3rd_Major;
#X obj 400 213 + 4;
#X obj 247 213 + 3;
#X text 252 227 3rd_minor;
#X obj 567 330 + 60;
#X obj 567 267 +;
#X text 603 332 Base Note;
#X floatatom 523 284 5 0 0 0 - - -, f 5;
#X obj 567 292 + 0;
#X text 591 295 key;
#X floatatom 527 347 5 0 0 0 - - -, f 5;
#X obj 567 243 - 1;
#X text 572 227 M7;
#X obj 567 213 + 11;
#X obj 740 213 + 10;
#X text 740 227 m7;
#X text 315 421 3rd_tone;
#X text 637 422 7th_tone;
#X obj 247 459 outlet;
#X obj 567 459 outlet;
#X obj 130 187 sel 1 6 8 2 4 7 9 11;
#X obj 259 187 sel 3 5 10 12 2 4 7 9 11;
#X obj 414 187 sel 3 5 8 10 12 2 4 7 9 11;
#X obj 599 187 sel 1 6 10 12 2 4 7 9 11;
#X obj 77 421 pack 0 0 0;
#X obj 247 420 pack 0 0 0;
#X obj 567 420 pack 0 0 0;
#X obj 647 65 f;
#X obj 679 66 + 1;
#X obj 679 88 mod 16;
#X text 697 33 <- reset;
#X msg 662 36 0;
#X obj 647 9 t b a;
#X obj 647 112 pack 0 0 0 0;
#X obj 77 397 int;
#X obj 77 368 t b a;
#X obj 247 397 int;
#X obj 247 368 t b a;
#X obj 567 397 int;
#X obj 567 368 t b a;
#X connect 0 0 19 0;
#X connect 1 0 3 1;
#X connect 1 0 24 1;
#X connect 1 0 36 1;
#X connect 2 0 10 0;
#X connect 2 0 66 0;
#X connect 3 0 6 0;
#X connect 3 0 8 0;
#X connect 7 1 51 0;
#X connect 7 1 52 0;
#X connect 7 1 53 0;
#X connect 7 1 54 0;
#X connect 7 1 11 0;
#X connect 8 0 2 0;
#X connect 11 0 3 0;
#X connect 12 0 22 0;
#X connect 13 0 2 1;
#X connect 13 0 23 1;
#X connect 13 0 35 1;
#X connect 16 0 8 1;
#X connect 16 0 27 1;
#X connect 16 0 39 1;
#X connect 18 0 0 0;
#X connect 19 0 7 0;
#X connect 20 0 1 0;
#X connect 21 0 55 2;
#X connect 21 0 56 2;
#X connect 21 0 57 2;
#X connect 22 0 18 0;
#X connect 22 1 20 0;
#X connect 22 2 21 0;
#X connect 22 3 65 1;
#X connect 22 3 67 1;
#X connect 22 3 69 1;
#X connect 23 0 29 0;
#X connect 23 0 68 0;
#X connect 24 0 26 0;
#X connect 24 0 27 0;
#X connect 27 0 23 0;
#X connect 30 0 24 0;
#X connect 32 0 30 0;
#X connect 33 0 30 0;
#X connect 35 0 41 0;
#X connect 35 0 70 0;
#X connect 36 0 38 0;
#X connect 36 0 39 0;
#X connect 39 0 35 0;
#X connect 42 0 36 0;
#X connect 44 0 42 0;
#X connect 45 0 42 0;
#X connect 51 8 33 0;
#X connect 52 9 32 0;
#X connect 53 10 44 0;
#X connect 54 9 45 0;
#X connect 55 0 5 0;
#X connect 56 0 49 0;
#X connect 57 0 50 0;
#X connect 58 0 59 0;
#X connect 58 0 64 0;
#X connect 59 0 60 0;
#X connect 60 0 58 1;
#X connect 62 0 58 1;
#X connect 63 0 58 0;
#X connect 63 1 64 1;
#X connect 65 0 55 0;
#X connect 66 0 65 0;
#X connect 66 1 55 1;
#X connect 67 0 56 0;
#X connect 68 0 67 0;
#X connect 68 1 56 1;
#X connect 69 0 57 0;
#X connect 70 0 69 0;
#X connect 70 1 57 1;
#X restore 497 316 pd note-gen;
#X obj 4 294 vradio 8 1 0 3 empty empty empty 0 -8 0 10 -262144 -1
-1 1;
#N canvas 61 324 747 343 one_musical_bar_note_a 0;
#X obj 13 181 int;
#X floatatom 13 203 5 0 0 0 - - -, f 5;
#X obj 53 181 int;
#X floatatom 53 203 5 0 0 0 - - -, f 5;
#X obj 93 181 int;
#X floatatom 93 203 5 0 0 0 - - -, f 5;
#X obj 133 181 int;
#X floatatom 133 203 5 0 0 0 - - -, f 5;
#X msg 13 232 \$1 0;
#X msg 53 232 \$1 1;
#X msg 93 232 \$1 2;
#X msg 133 232 \$1 3;
#X obj 173 181 int;
#X floatatom 173 203 5 0 0 0 - - -, f 5;
#X obj 213 181 int;
#X floatatom 213 203 5 0 0 0 - - -, f 5;
#X obj 253 181 int;
#X floatatom 253 203 5 0 0 0 - - -, f 5;
#X obj 293 181 int;
#X floatatom 293 203 5 0 0 0 - - -, f 5;
#X msg 173 232 \$1 4;
#X msg 213 232 \$1 5;
#X msg 253 232 \$1 6;
#X msg 293 232 \$1 7;
#X obj 333 181 int;
#X floatatom 333 203 5 0 0 0 - - -, f 5;
#X obj 373 181 int;
#X floatatom 373 203 5 0 0 0 - - -, f 5;
#X obj 413 181 int;
#X floatatom 413 203 5 0 0 0 - - -, f 5;
#X obj 453 181 int;
#X floatatom 453 203 5 0 0 0 - - -, f 5;
#X obj 493 181 int;
#X floatatom 493 203 5 0 0 0 - - -, f 5;
#X obj 533 181 int;
#X floatatom 533 203 5 0 0 0 - - -, f 5;
#X obj 573 181 int;
#X floatatom 573 203 5 0 0 0 - - -, f 5;
#X obj 613 181 int;
#X floatatom 613 203 5 0 0 0 - - -, f 5;
#X msg 333 232 \$1 8;
#X msg 373 232 \$1 9;
#X msg 413 232 \$1 10;
#X msg 453 232 \$1 11;
#X msg 493 232 \$1 12;
#X msg 533 232 \$1 13;
#X msg 573 232 \$1 14;
#X msg 613 232 \$1 15;
#N canvas 657 469 324 193 v-conver 0;
#X msg 20 77 7;
#X msg 48 77 6;
#X msg 77 77 5;
#X msg 107 77 4;
#X msg 135 77 3;
#X msg 164 77 2;
#X msg 194 77 1;
#X msg 223 77 0;
#X obj 20 48 sel 0 1 2 3 4 5 6 7;
#X obj 20 110 outlet;
#X obj 20 22 inlet;
#X connect 0 0 9 0;
#X connect 1 0 9 0;
#X connect 2 0 9 0;
#X connect 3 0 9 0;
#X connect 4 0 9 0;
#X connect 5 0 9 0;
#X connect 6 0 9 0;
#X connect 7 0 9 0;
#X connect 8 0 0 0;
#X connect 8 1 1 0;
#X connect 8 2 2 0;
#X connect 8 3 3 0;
#X connect 8 4 4 0;
#X connect 8 5 5 0;
#X connect 8 6 6 0;
#X connect 8 7 7 0;
#X connect 10 0 8 0;
#X restore 13 70 pd v-conver;
#N canvas 657 469 324 193 v-conver 0;
#X msg 20 77 7;
#X msg 48 77 6;
#X msg 77 77 5;
#X msg 107 77 4;
#X msg 135 77 3;
#X msg 164 77 2;
#X msg 194 77 1;
#X msg 223 77 0;
#X obj 20 48 sel 0 1 2 3 4 5 6 7;
#X obj 20 110 outlet;
#X obj 20 22 inlet;
#X connect 0 0 9 0;
#X connect 1 0 9 0;
#X connect 2 0 9 0;
#X connect 3 0 9 0;
#X connect 4 0 9 0;
#X connect 5 0 9 0;
#X connect 6 0 9 0;
#X connect 7 0 9 0;
#X connect 8 0 0 0;
#X connect 8 1 1 0;
#X connect 8 2 2 0;
#X connect 8 3 3 0;
#X connect 8 4 4 0;
#X connect 8 5 5 0;
#X connect 8 6 6 0;
#X connect 8 7 7 0;
#X connect 10 0 8 0;
#X restore 53 92 pd v-conver;
#N canvas 657 469 324 193 v-conver 0;
#X msg 20 77 7;
#X msg 48 77 6;
#X msg 77 77 5;
#X msg 107 77 4;
#X msg 135 77 3;
#X msg 164 77 2;
#X msg 194 77 1;
#X msg 223 77 0;
#X obj 20 48 sel 0 1 2 3 4 5 6 7;
#X obj 20 110 outlet;
#X obj 20 22 inlet;
#X connect 0 0 9 0;
#X connect 1 0 9 0;
#X connect 2 0 9 0;
#X connect 3 0 9 0;
#X connect 4 0 9 0;
#X connect 5 0 9 0;
#X connect 6 0 9 0;
#X connect 7 0 9 0;
#X connect 8 0 0 0;
#X connect 8 1 1 0;
#X connect 8 2 2 0;
#X connect 8 3 3 0;
#X connect 8 4 4 0;
#X connect 8 5 5 0;
#X connect 8 6 6 0;
#X connect 8 7 7 0;
#X connect 10 0 8 0;
#X restore 93 113 pd v-conver;
#N canvas 657 469 324 193 v-conver 0;
#X msg 20 77 7;
#X msg 48 77 6;
#X msg 77 77 5;
#X msg 107 77 4;
#X msg 135 77 3;
#X msg 164 77 2;
#X msg 194 77 1;
#X msg 223 77 0;
#X obj 20 48 sel 0 1 2 3 4 5 6 7;
#X obj 20 110 outlet;
#X obj 20 22 inlet;
#X connect 0 0 9 0;
#X connect 1 0 9 0;
#X connect 2 0 9 0;
#X connect 3 0 9 0;
#X connect 4 0 9 0;
#X connect 5 0 9 0;
#X connect 6 0 9 0;
#X connect 7 0 9 0;
#X connect 8 0 0 0;
#X connect 8 1 1 0;
#X connect 8 2 2 0;
#X connect 8 3 3 0;
#X connect 8 4 4 0;
#X connect 8 5 5 0;
#X connect 8 6 6 0;
#X connect 8 7 7 0;
#X connect 10 0 8 0;
#X restore 133 133 pd v-conver;
#N canvas 657 469 324 193 v-conver 0;
#X msg 20 77 7;
#X msg 48 77 6;
#X msg 77 77 5;
#X msg 107 77 4;
#X msg 135 77 3;
#X msg 164 77 2;
#X msg 194 77 1;
#X msg 223 77 0;
#X obj 20 48 sel 0 1 2 3 4 5 6 7;
#X obj 20 110 outlet;
#X obj 20 22 inlet;
#X connect 0 0 9 0;
#X connect 1 0 9 0;
#X connect 2 0 9 0;
#X connect 3 0 9 0;
#X connect 4 0 9 0;
#X connect 5 0 9 0;
#X connect 6 0 9 0;
#X connect 7 0 9 0;
#X connect 8 0 0 0;
#X connect 8 1 1 0;
#X connect 8 2 2 0;
#X connect 8 3 3 0;
#X connect 8 4 4 0;
#X connect 8 5 5 0;
#X connect 8 6 6 0;
#X connect 8 7 7 0;
#X connect 10 0 8 0;
#X restore 173 70 pd v-conver;
#N canvas 657 469 324 193 v-conver 0;
#X msg 20 77 7;
#X msg 48 77 6;
#X msg 77 77 5;
#X msg 107 77 4;
#X msg 135 77 3;
#X msg 164 77 2;
#X msg 194 77 1;
#X msg 223 77 0;
#X obj 20 48 sel 0 1 2 3 4 5 6 7;
#X obj 20 110 outlet;
#X obj 20 22 inlet;
#X connect 0 0 9 0;
#X connect 1 0 9 0;
#X connect 2 0 9 0;
#X connect 3 0 9 0;
#X connect 4 0 9 0;
#X connect 5 0 9 0;
#X connect 6 0 9 0;
#X connect 7 0 9 0;
#X connect 8 0 0 0;
#X connect 8 1 1 0;
#X connect 8 2 2 0;
#X connect 8 3 3 0;
#X connect 8 4 4 0;
#X connect 8 5 5 0;
#X connect 8 6 6 0;
#X connect 8 7 7 0;
#X connect 10 0 8 0;
#X restore 213 92 pd v-conver;
#N canvas 657 469 324 193 v-conver 0;
#X msg 20 77 7;
#X msg 48 77 6;
#X msg 77 77 5;
#X msg 107 77 4;
#X msg 135 77 3;
#X msg 164 77 2;
#X msg 194 77 1;
#X msg 223 77 0;
#X obj 20 48 sel 0 1 2 3 4 5 6 7;
#X obj 20 110 outlet;
#X obj 20 22 inlet;
#X connect 0 0 9 0;
#X connect 1 0 9 0;
#X connect 2 0 9 0;
#X connect 3 0 9 0;
#X connect 4 0 9 0;
#X connect 5 0 9 0;
#X connect 6 0 9 0;
#X connect 7 0 9 0;
#X connect 8 0 0 0;
#X connect 8 1 1 0;
#X connect 8 2 2 0;
#X connect 8 3 3 0;
#X connect 8 4 4 0;
#X connect 8 5 5 0;
#X connect 8 6 6 0;
#X connect 8 7 7 0;
#X connect 10 0 8 0;
#X restore 253 113 pd v-conver;
#N canvas 657 469 324 193 v-conver 0;
#X msg 20 77 7;
#X msg 48 77 6;
#X msg 77 77 5;
#X msg 107 77 4;
#X msg 135 77 3;
#X msg 164 77 2;
#X msg 194 77 1;
#X msg 223 77 0;
#X obj 20 48 sel 0 1 2 3 4 5 6 7;
#X obj 20 110 outlet;
#X obj 20 22 inlet;
#X connect 0 0 9 0;
#X connect 1 0 9 0;
#X connect 2 0 9 0;
#X connect 3 0 9 0;
#X connect 4 0 9 0;
#X connect 5 0 9 0;
#X connect 6 0 9 0;
#X connect 7 0 9 0;
#X connect 8 0 0 0;
#X connect 8 1 1 0;
#X connect 8 2 2 0;
#X connect 8 3 3 0;
#X connect 8 4 4 0;
#X connect 8 5 5 0;
#X connect 8 6 6 0;
#X connect 8 7 7 0;
#X connect 10 0 8 0;
#X restore 293 133 pd v-conver;
#N canvas 657 469 324 193 v-conver 0;
#X msg 20 77 7;
#X msg 48 77 6;
#X msg 77 77 5;
#X msg 107 77 4;
#X msg 135 77 3;
#X msg 164 77 2;
#X msg 194 77 1;
#X msg 223 77 0;
#X obj 20 48 sel 0 1 2 3 4 5 6 7;
#X obj 20 110 outlet;
#X obj 20 22 inlet;
#X connect 0 0 9 0;
#X connect 1 0 9 0;
#X connect 2 0 9 0;
#X connect 3 0 9 0;
#X connect 4 0 9 0;
#X connect 5 0 9 0;
#X connect 6 0 9 0;
#X connect 7 0 9 0;
#X connect 8 0 0 0;
#X connect 8 1 1 0;
#X connect 8 2 2 0;
#X connect 8 3 3 0;
#X connect 8 4 4 0;
#X connect 8 5 5 0;
#X connect 8 6 6 0;
#X connect 8 7 7 0;
#X connect 10 0 8 0;
#X restore 333 70 pd v-conver;
#N canvas 657 469 324 193 v-conver 0;
#X msg 20 77 7;
#X msg 48 77 6;
#X msg 77 77 5;
#X msg 107 77 4;
#X msg 135 77 3;
#X msg 164 77 2;
#X msg 194 77 1;
#X msg 223 77 0;
#X obj 20 48 sel 0 1 2 3 4 5 6 7;
#X obj 20 110 outlet;
#X obj 20 22 inlet;
#X connect 0 0 9 0;
#X connect 1 0 9 0;
#X connect 2 0 9 0;
#X connect 3 0 9 0;
#X connect 4 0 9 0;
#X connect 5 0 9 0;
#X connect 6 0 9 0;
#X connect 7 0 9 0;
#X connect 8 0 0 0;
#X connect 8 1 1 0;
#X connect 8 2 2 0;
#X connect 8 3 3 0;
#X connect 8 4 4 0;
#X connect 8 5 5 0;
#X connect 8 6 6 0;
#X connect 8 7 7 0;
#X connect 10 0 8 0;
#X restore 373 92 pd v-conver;
#N canvas 657 469 324 193 v-conver 0;
#X msg 20 77 7;
#X msg 48 77 6;
#X msg 77 77 5;
#X msg 107 77 4;
#X msg 135 77 3;
#X msg 164 77 2;
#X msg 194 77 1;
#X msg 223 77 0;
#X obj 20 48 sel 0 1 2 3 4 5 6 7;
#X obj 20 110 outlet;
#X obj 20 22 inlet;
#X connect 0 0 9 0;
#X connect 1 0 9 0;
#X connect 2 0 9 0;
#X connect 3 0 9 0;
#X connect 4 0 9 0;
#X connect 5 0 9 0;
#X connect 6 0 9 0;
#X connect 7 0 9 0;
#X connect 8 0 0 0;
#X connect 8 1 1 0;
#X connect 8 2 2 0;
#X connect 8 3 3 0;
#X connect 8 4 4 0;
#X connect 8 5 5 0;
#X connect 8 6 6 0;
#X connect 8 7 7 0;
#X connect 10 0 8 0;
#X restore 413 113 pd v-conver;
#N canvas 657 469 324 193 v-conver 0;
#X msg 20 77 7;
#X msg 48 77 6;
#X msg 77 77 5;
#X msg 107 77 4;
#X msg 135 77 3;
#X msg 164 77 2;
#X msg 194 77 1;
#X msg 223 77 0;
#X obj 20 48 sel 0 1 2 3 4 5 6 7;
#X obj 20 110 outlet;
#X obj 20 22 inlet;
#X connect 0 0 9 0;
#X connect 1 0 9 0;
#X connect 2 0 9 0;
#X connect 3 0 9 0;
#X connect 4 0 9 0;
#X connect 5 0 9 0;
#X connect 6 0 9 0;
#X connect 7 0 9 0;
#X connect 8 0 0 0;
#X connect 8 1 1 0;
#X connect 8 2 2 0;
#X connect 8 3 3 0;
#X connect 8 4 4 0;
#X connect 8 5 5 0;
#X connect 8 6 6 0;
#X connect 8 7 7 0;
#X connect 10 0 8 0;
#X restore 453 133 pd v-conver;
#N canvas 657 469 324 193 v-conver 0;
#X msg 20 77 7;
#X msg 48 77 6;
#X msg 77 77 5;
#X msg 107 77 4;
#X msg 135 77 3;
#X msg 164 77 2;
#X msg 194 77 1;
#X msg 223 77 0;
#X obj 20 48 sel 0 1 2 3 4 5 6 7;
#X obj 20 110 outlet;
#X obj 20 22 inlet;
#X connect 0 0 9 0;
#X connect 1 0 9 0;
#X connect 2 0 9 0;
#X connect 3 0 9 0;
#X connect 4 0 9 0;
#X connect 5 0 9 0;
#X connect 6 0 9 0;
#X connect 7 0 9 0;
#X connect 8 0 0 0;
#X connect 8 1 1 0;
#X connect 8 2 2 0;
#X connect 8 3 3 0;
#X connect 8 4 4 0;
#X connect 8 5 5 0;
#X connect 8 6 6 0;
#X connect 8 7 7 0;
#X connect 10 0 8 0;
#X restore 493 70 pd v-conver;
#N canvas 657 469 324 193 v-conver 0;
#X msg 20 77 7;
#X msg 48 77 6;
#X msg 77 77 5;
#X msg 107 77 4;
#X msg 135 77 3;
#X msg 164 77 2;
#X msg 194 77 1;
#X msg 223 77 0;
#X obj 20 48 sel 0 1 2 3 4 5 6 7;
#X obj 20 110 outlet;
#X obj 20 22 inlet;
#X connect 0 0 9 0;
#X connect 1 0 9 0;
#X connect 2 0 9 0;
#X connect 3 0 9 0;
#X connect 4 0 9 0;
#X connect 5 0 9 0;
#X connect 6 0 9 0;
#X connect 7 0 9 0;
#X connect 8 0 0 0;
#X connect 8 1 1 0;
#X connect 8 2 2 0;
#X connect 8 3 3 0;
#X connect 8 4 4 0;
#X connect 8 5 5 0;
#X connect 8 6 6 0;
#X connect 8 7 7 0;
#X connect 10 0 8 0;
#X restore 533 92 pd v-conver;
#N canvas 657 469 324 193 v-conver 0;
#X msg 20 77 7;
#X msg 48 77 6;
#X msg 77 77 5;
#X msg 107 77 4;
#X msg 135 77 3;
#X msg 164 77 2;
#X msg 194 77 1;
#X msg 223 77 0;
#X obj 20 48 sel 0 1 2 3 4 5 6 7;
#X obj 20 110 outlet;
#X obj 20 22 inlet;
#X connect 0 0 9 0;
#X connect 1 0 9 0;
#X connect 2 0 9 0;
#X connect 3 0 9 0;
#X connect 4 0 9 0;
#X connect 5 0 9 0;
#X connect 6 0 9 0;
#X connect 7 0 9 0;
#X connect 8 0 0 0;
#X connect 8 1 1 0;
#X connect 8 2 2 0;
#X connect 8 3 3 0;
#X connect 8 4 4 0;
#X connect 8 5 5 0;
#X connect 8 6 6 0;
#X connect 8 7 7 0;
#X connect 10 0 8 0;
#X restore 573 113 pd v-conver;
#N canvas 657 469 324 193 v-conver 0;
#X msg 20 77 7;
#X msg 48 77 6;
#X msg 77 77 5;
#X msg 107 77 4;
#X msg 135 77 3;
#X msg 164 77 2;
#X msg 194 77 1;
#X msg 223 77 0;
#X obj 20 48 sel 0 1 2 3 4 5 6 7;
#X obj 20 110 outlet;
#X obj 20 22 inlet;
#X connect 0 0 9 0;
#X connect 1 0 9 0;
#X connect 2 0 9 0;
#X connect 3 0 9 0;
#X connect 4 0 9 0;
#X connect 5 0 9 0;
#X connect 6 0 9 0;
#X connect 7 0 9 0;
#X connect 8 0 0 0;
#X connect 8 1 1 0;
#X connect 8 2 2 0;
#X connect 8 3 3 0;
#X connect 8 4 4 0;
#X connect 8 5 5 0;
#X connect 8 6 6 0;
#X connect 8 7 7 0;
#X connect 10 0 8 0;
#X restore 613 133 pd v-conver;
#X obj 13 270 outlet;
#X obj 13 28 inlet;
#X obj 53 28 inlet;
#X obj 93 28 inlet;
#X obj 133 28 inlet;
#X obj 173 28 inlet;
#X obj 213 28 inlet;
#X obj 253 28 inlet;
#X obj 293 28 inlet;
#X obj 333 28 inlet;
#X obj 373 28 inlet;
#X obj 413 28 inlet;
#X obj 453 28 inlet;
#X obj 493 28 inlet;
#X obj 533 28 inlet;
#X obj 573 28 inlet;
#X obj 613 28 inlet;
#X connect 0 0 1 0;
#X connect 1 0 8 0;
#X connect 2 0 3 0;
#X connect 3 0 9 0;
#X connect 4 0 5 0;
#X connect 5 0 10 0;
#X connect 6 0 7 0;
#X connect 7 0 11 0;
#X connect 8 0 64 0;
#X connect 9 0 64 0;
#X connect 10 0 64 0;
#X connect 11 0 64 0;
#X connect 12 0 13 0;
#X connect 13 0 20 0;
#X connect 14 0 15 0;
#X connect 15 0 21 0;
#X connect 16 0 17 0;
#X connect 17 0 22 0;
#X connect 18 0 19 0;
#X connect 19 0 23 0;
#X connect 20 0 64 0;
#X connect 21 0 64 0;
#X connect 22 0 64 0;
#X connect 23 0 64 0;
#X connect 24 0 25 0;
#X connect 25 0 40 0;
#X connect 26 0 27 0;
#X connect 27 0 41 0;
#X connect 28 0 29 0;
#X connect 29 0 42 0;
#X connect 30 0 31 0;
#X connect 31 0 43 0;
#X connect 32 0 33 0;
#X connect 33 0 44 0;
#X connect 34 0 35 0;
#X connect 35 0 45 0;
#X connect 36 0 37 0;
#X connect 37 0 46 0;
#X connect 38 0 39 0;
#X connect 39 0 47 0;
#X connect 40 0 64 0;
#X connect 41 0 64 0;
#X connect 42 0 64 0;
#X connect 43 0 64 0;
#X connect 44 0 64 0;
#X connect 45 0 64 0;
#X connect 46 0 64 0;
#X connect 47 0 64 0;
#X connect 48 0 0 0;
#X connect 49 0 2 0;
#X connect 50 0 4 0;
#X connect 51 0 6 0;
#X connect 52 0 12 0;
#X connect 53 0 14 0;
#X connect 54 0 16 0;
#X connect 55 0 18 0;
#X connect 56 0 24 0;
#X connect 57 0 26 0;
#X connect 58 0 28 0;
#X connect 59 0 30 0;
#X connect 60 0 32 0;
#X connect 61 0 34 0;
#X connect 62 0 36 0;
#X connect 63 0 38 0;
#X connect 65 0 48 0;
#X connect 66 0 49 0;
#X connect 67 0 50 0;
#X connect 68 0 51 0;
#X connect 69 0 52 0;
#X connect 70 0 53 0;
#X connect 71 0 54 0;
#X connect 72 0 55 0;
#X connect 73 0 56 0;
#X connect 74 0 57 0;
#X connect 75 0 58 0;
#X connect 76 0 59 0;
#X connect 77 0 60 0;
#X connect 78 0 61 0;
#X connect 79 0 62 0;
#X connect 80 0 63 0;
#X restore 3 339 pd one_musical_bar_note_a;
#N canvas 160 436 743 223 one_musical_bar_velocity_a 0;
#X msg 30 117 \$1 0;
#X msg 70 117 \$1 1;
#X msg 110 117 \$1 2;
#X msg 150 117 \$1 3;
#X msg 190 117 \$1 4;
#X msg 230 117 \$1 5;
#X msg 270 117 \$1 6;
#X msg 310 117 \$1 7;
#X msg 350 117 \$1 8;
#X msg 390 117 \$1 9;
#X msg 430 117 \$1 10;
#X msg 470 117 \$1 11;
#X msg 510 117 \$1 12;
#X msg 550 117 \$1 13;
#X msg 590 117 \$1 14;
#X msg 630 117 \$1 15;
#X obj 30 147 outlet;
#X obj 30 55 inlet;
#X obj 30 83 int;
#X obj 70 55 inlet;
#X obj 70 83 int;
#X obj 110 55 inlet;
#X obj 110 83 int;
#X obj 150 55 inlet;
#X obj 150 83 int;
#X obj 190 55 inlet;
#X obj 190 83 int;
#X obj 230 55 inlet;
#X obj 230 83 int;
#X obj 270 55 inlet;
#X obj 270 83 int;
#X obj 310 55 inlet;
#X obj 310 83 int;
#X obj 350 55 inlet;
#X obj 350 83 int;
#X obj 390 55 inlet;
#X obj 390 83 int;
#X obj 430 55 inlet;
#X obj 430 83 int;
#X obj 470 55 inlet;
#X obj 470 83 int;
#X obj 510 55 inlet;
#X obj 510 83 int;
#X obj 550 55 inlet;
#X obj 550 83 int;
#X obj 590 55 inlet;
#X obj 590 83 int;
#X obj 630 55 inlet;
#X obj 630 83 int;
#X connect 0 0 16 0;
#X connect 1 0 16 0;
#X connect 2 0 16 0;
#X connect 3 0 16 0;
#X connect 4 0 16 0;
#X connect 5 0 16 0;
#X connect 6 0 16 0;
#X connect 7 0 16 0;
#X connect 8 0 16 0;
#X connect 9 0 16 0;
#X connect 10 0 16 0;
#X connect 11 0 16 0;
#X connect 12 0 16 0;
#X connect 13 0 16 0;
#X connect 14 0 16 0;
#X connect 15 0 16 0;
#X connect 17 0 18 0;
#X connect 18 0 0 0;
#X connect 19 0 20 0;
#X connect 20 0 1 0;
#X connect 21 0 22 0;
#X connect 22 0 2 0;
#X connect 23 0 24 0;
#X connect 24 0 3 0;
#X connect 25 0 26 0;
#X connect 26 0 4 0;
#X connect 27 0 28 0;
#X connect 28 0 5 0;
#X connect 29 0 30 0;
#X connect 30 0 6 0;
#X connect 31 0 32 0;
#X connect 32 0 7 0;
#X connect 33 0 34 0;
#X connect 34 0 8 0;
#X connect 35 0 36 0;
#X connect 36 0 9 0;
#X connect 37 0 38 0;
#X connect 38 0 10 0;
#X connect 39 0 40 0;
#X connect 40 0 11 0;
#X connect 41 0 42 0;
#X connect 42 0 12 0;
#X connect 43 0 44 0;
#X connect 44 0 13 0;
#X connect 45 0 46 0;
#X connect 46 0 14 0;
#X connect 47 0 48 0;
#X connect 48 0 15 0;
#X restore 4 403 pd one_musical_bar_velocity_a;
#N canvas 160 436 805 337 one_musical_bar_octave_a 0;
#X obj 23 191 int;
#X floatatom 23 213 5 0 0 0 - - -, f 5;
#X obj 63 191 int;
#X floatatom 63 213 5 0 0 0 - - -, f 5;
#X obj 103 191 int;
#X floatatom 103 213 5 0 0 0 - - -, f 5;
#X obj 143 191 int;
#X floatatom 143 213 5 0 0 0 - - -, f 5;
#X msg 23 242 \$1 0;
#X msg 63 242 \$1 1;
#X msg 103 242 \$1 2;
#X msg 143 242 \$1 3;
#X obj 183 191 int;
#X floatatom 183 213 5 0 0 0 - - -, f 5;
#X obj 223 191 int;
#X floatatom 223 213 5 0 0 0 - - -, f 5;
#X obj 263 191 int;
#X floatatom 263 213 5 0 0 0 - - -, f 5;
#X obj 303 191 int;
#X floatatom 303 213 5 0 0 0 - - -, f 5;
#X msg 183 242 \$1 4;
#X msg 223 242 \$1 5;
#X msg 263 242 \$1 6;
#X msg 303 242 \$1 7;
#X obj 343 191 int;
#X floatatom 343 213 5 0 0 0 - - -, f 5;
#X obj 383 191 int;
#X floatatom 383 213 5 0 0 0 - - -, f 5;
#X obj 423 191 int;
#X floatatom 423 213 5 0 0 0 - - -, f 5;
#X obj 463 191 int;
#X floatatom 463 213 5 0 0 0 - - -, f 5;
#X obj 503 191 int;
#X floatatom 503 213 5 0 0 0 - - -, f 5;
#X obj 543 191 int;
#X floatatom 543 213 5 0 0 0 - - -, f 5;
#X obj 583 191 int;
#X floatatom 583 213 5 0 0 0 - - -, f 5;
#X obj 623 191 int;
#X floatatom 623 213 5 0 0 0 - - -, f 5;
#X msg 343 242 \$1 8;
#X msg 383 242 \$1 9;
#X msg 423 242 \$1 10;
#X msg 463 242 \$1 11;
#X msg 503 242 \$1 12;
#X msg 543 242 \$1 13;
#X msg 583 242 \$1 14;
#X msg 623 242 \$1 15;
#N canvas 657 469 324 193 v-conver 0;
#X obj 20 110 outlet;
#X obj 20 22 inlet;
#X obj 20 48 sel 0 1 2;
#X msg 20 77 1;
#X msg 48 77 0;
#X msg 77 77 -1;
#X connect 1 0 2 0;
#X connect 2 0 3 0;
#X connect 2 1 4 0;
#X connect 2 2 5 0;
#X connect 3 0 0 0;
#X connect 4 0 0 0;
#X connect 5 0 0 0;
#X restore 23 80 pd v-conver;
#X obj 23 280 outlet;
#X obj 23 38 inlet;
#X obj 63 38 inlet;
#X obj 103 38 inlet;
#X obj 143 38 inlet;
#X obj 183 38 inlet;
#X obj 223 38 inlet;
#X obj 263 38 inlet;
#X obj 303 38 inlet;
#X obj 343 38 inlet;
#X obj 383 38 inlet;
#X obj 423 38 inlet;
#X obj 463 38 inlet;
#X obj 503 38 inlet;
#X obj 543 38 inlet;
#X obj 583 38 inlet;
#X obj 623 38 inlet;
#N canvas 657 469 324 193 v-conver 0;
#X obj 20 110 outlet;
#X obj 20 22 inlet;
#X obj 20 48 sel 0 1 2;
#X msg 20 77 1;
#X msg 48 77 0;
#X msg 77 77 -1;
#X connect 1 0 2 0;
#X connect 2 0 3 0;
#X connect 2 1 4 0;
#X connect 2 2 5 0;
#X connect 3 0 0 0;
#X connect 4 0 0 0;
#X connect 5 0 0 0;
#X restore 63 106 pd v-conver;
#N canvas 657 469 324 193 v-conver 0;
#X obj 20 110 outlet;
#X obj 20 22 inlet;
#X obj 20 48 sel 0 1 2;
#X msg 20 77 1;
#X msg 48 77 0;
#X msg 77 77 -1;
#X connect 1 0 2 0;
#X connect 2 0 3 0;
#X connect 2 1 4 0;
#X connect 2 2 5 0;
#X connect 3 0 0 0;
#X connect 4 0 0 0;
#X connect 5 0 0 0;
#X restore 103 131 pd v-conver;
#N canvas 657 469 324 193 v-conver 0;
#X obj 20 110 outlet;
#X obj 20 22 inlet;
#X obj 20 48 sel 0 1 2;
#X msg 20 77 1;
#X msg 48 77 0;
#X msg 77 77 -1;
#X connect 1 0 2 0;
#X connect 2 0 3 0;
#X connect 2 1 4 0;
#X connect 2 2 5 0;
#X connect 3 0 0 0;
#X connect 4 0 0 0;
#X connect 5 0 0 0;
#X restore 143 159 pd v-conver;
#N canvas 657 469 324 193 v-conver 0;
#X obj 20 110 outlet;
#X obj 20 22 inlet;
#X obj 20 48 sel 0 1 2;
#X msg 20 77 1;
#X msg 48 77 0;
#X msg 77 77 -1;
#X connect 1 0 2 0;
#X connect 2 0 3 0;
#X connect 2 1 4 0;
#X connect 2 2 5 0;
#X connect 3 0 0 0;
#X connect 4 0 0 0;
#X connect 5 0 0 0;
#X restore 183 80 pd v-conver;
#N canvas 657 469 324 193 v-conver 0;
#X obj 20 110 outlet;
#X obj 20 22 inlet;
#X obj 20 48 sel 0 1 2;
#X msg 20 77 1;
#X msg 48 77 0;
#X msg 77 77 -1;
#X connect 1 0 2 0;
#X connect 2 0 3 0;
#X connect 2 1 4 0;
#X connect 2 2 5 0;
#X connect 3 0 0 0;
#X connect 4 0 0 0;
#X connect 5 0 0 0;
#X restore 223 106 pd v-conver;
#N canvas 657 469 324 193 v-conver 0;
#X obj 20 110 outlet;
#X obj 20 22 inlet;
#X obj 20 48 sel 0 1 2;
#X msg 20 77 1;
#X msg 48 77 0;
#X msg 77 77 -1;
#X connect 1 0 2 0;
#X connect 2 0 3 0;
#X connect 2 1 4 0;
#X connect 2 2 5 0;
#X connect 3 0 0 0;
#X connect 4 0 0 0;
#X connect 5 0 0 0;
#X restore 263 131 pd v-conver;
#N canvas 657 469 324 193 v-conver 0;
#X obj 20 110 outlet;
#X obj 20 22 inlet;
#X obj 20 48 sel 0 1 2;
#X msg 20 77 1;
#X msg 48 77 0;
#X msg 77 77 -1;
#X connect 1 0 2 0;
#X connect 2 0 3 0;
#X connect 2 1 4 0;
#X connect 2 2 5 0;
#X connect 3 0 0 0;
#X connect 4 0 0 0;
#X connect 5 0 0 0;
#X restore 303 159 pd v-conver;
#N canvas 657 469 324 193 v-conver 0;
#X obj 20 110 outlet;
#X obj 20 22 inlet;
#X obj 20 48 sel 0 1 2;
#X msg 20 77 1;
#X msg 48 77 0;
#X msg 77 77 -1;
#X connect 1 0 2 0;
#X connect 2 0 3 0;
#X connect 2 1 4 0;
#X connect 2 2 5 0;
#X connect 3 0 0 0;
#X connect 4 0 0 0;
#X connect 5 0 0 0;
#X restore 343 80 pd v-conver;
#N canvas 657 469 324 193 v-conver 0;
#X obj 20 110 outlet;
#X obj 20 22 inlet;
#X obj 20 48 sel 0 1 2;
#X msg 20 77 1;
#X msg 48 77 0;
#X msg 77 77 -1;
#X connect 1 0 2 0;
#X connect 2 0 3 0;
#X connect 2 1 4 0;
#X connect 2 2 5 0;
#X connect 3 0 0 0;
#X connect 4 0 0 0;
#X connect 5 0 0 0;
#X restore 383 106 pd v-conver;
#N canvas 657 469 324 193 v-conver 0;
#X obj 20 110 outlet;
#X obj 20 22 inlet;
#X obj 20 48 sel 0 1 2;
#X msg 20 77 1;
#X msg 48 77 0;
#X msg 77 77 -1;
#X connect 1 0 2 0;
#X connect 2 0 3 0;
#X connect 2 1 4 0;
#X connect 2 2 5 0;
#X connect 3 0 0 0;
#X connect 4 0 0 0;
#X connect 5 0 0 0;
#X restore 423 131 pd v-conver;
#N canvas 657 469 324 193 v-conver 0;
#X obj 20 110 outlet;
#X obj 20 22 inlet;
#X obj 20 48 sel 0 1 2;
#X msg 20 77 1;
#X msg 48 77 0;
#X msg 77 77 -1;
#X connect 1 0 2 0;
#X connect 2 0 3 0;
#X connect 2 1 4 0;
#X connect 2 2 5 0;
#X connect 3 0 0 0;
#X connect 4 0 0 0;
#X connect 5 0 0 0;
#X restore 463 159 pd v-conver;
#N canvas 657 469 324 193 v-conver 0;
#X obj 20 110 outlet;
#X obj 20 22 inlet;
#X obj 20 48 sel 0 1 2;
#X msg 20 77 1;
#X msg 48 77 0;
#X msg 77 77 -1;
#X connect 1 0 2 0;
#X connect 2 0 3 0;
#X connect 2 1 4 0;
#X connect 2 2 5 0;
#X connect 3 0 0 0;
#X connect 4 0 0 0;
#X connect 5 0 0 0;
#X restore 503 80 pd v-conver;
#N canvas 657 469 324 193 v-conver 0;
#X obj 20 110 outlet;
#X obj 20 22 inlet;
#X obj 20 48 sel 0 1 2;
#X msg 20 77 1;
#X msg 48 77 0;
#X msg 77 77 -1;
#X connect 1 0 2 0;
#X connect 2 0 3 0;
#X connect 2 1 4 0;
#X connect 2 2 5 0;
#X connect 3 0 0 0;
#X connect 4 0 0 0;
#X connect 5 0 0 0;
#X restore 543 106 pd v-conver;
#N canvas 657 469 324 193 v-conver 0;
#X obj 20 110 outlet;
#X obj 20 22 inlet;
#X obj 20 48 sel 0 1 2;
#X msg 20 77 1;
#X msg 48 77 0;
#X msg 77 77 -1;
#X connect 1 0 2 0;
#X connect 2 0 3 0;
#X connect 2 1 4 0;
#X connect 2 2 5 0;
#X connect 3 0 0 0;
#X connect 4 0 0 0;
#X connect 5 0 0 0;
#X restore 583 131 pd v-conver;
#N canvas 657 469 324 193 v-conver 0;
#X obj 20 110 outlet;
#X obj 20 22 inlet;
#X obj 20 48 sel 0 1 2;
#X msg 20 77 1;
#X msg 48 77 0;
#X msg 77 77 -1;
#X connect 1 0 2 0;
#X connect 2 0 3 0;
#X connect 2 1 4 0;
#X connect 2 2 5 0;
#X connect 3 0 0 0;
#X connect 4 0 0 0;
#X connect 5 0 0 0;
#X restore 623 159 pd v-conver;
#X floatatom 44 152 5 0 0 0 - - -, f 5;
#X connect 0 0 1 0;
#X connect 1 0 8 0;
#X connect 2 0 3 0;
#X connect 3 0 9 0;
#X connect 4 0 5 0;
#X connect 5 0 10 0;
#X connect 6 0 7 0;
#X connect 7 0 11 0;
#X connect 8 0 49 0;
#X connect 9 0 49 0;
#X connect 10 0 49 0;
#X connect 11 0 49 0;
#X connect 12 0 13 0;
#X connect 13 0 20 0;
#X connect 14 0 15 0;
#X connect 15 0 21 0;
#X connect 16 0 17 0;
#X connect 17 0 22 0;
#X connect 18 0 19 0;
#X connect 19 0 23 0;
#X connect 20 0 49 0;
#X connect 21 0 49 0;
#X connect 22 0 49 0;
#X connect 23 0 49 0;
#X connect 24 0 25 0;
#X connect 25 0 40 0;
#X connect 26 0 27 0;
#X connect 27 0 41 0;
#X connect 28 0 29 0;
#X connect 29 0 42 0;
#X connect 30 0 31 0;
#X connect 31 0 43 0;
#X connect 32 0 33 0;
#X connect 33 0 44 0;
#X connect 34 0 35 0;
#X connect 35 0 45 0;
#X connect 36 0 37 0;
#X connect 37 0 46 0;
#X connect 38 0 39 0;
#X connect 39 0 47 0;
#X connect 40 0 49 0;
#X connect 41 0 49 0;
#X connect 42 0 49 0;
#X connect 43 0 49 0;
#X connect 44 0 49 0;
#X connect 45 0 49 0;
#X connect 46 0 49 0;
#X connect 47 0 49 0;
#X connect 48 0 0 0;
#X connect 50 0 48 0;
#X connect 51 0 66 0;
#X connect 52 0 67 0;
#X connect 53 0 68 0;
#X connect 54 0 69 0;
#X connect 55 0 70 0;
#X connect 56 0 71 0;
#X connect 57 0 72 0;
#X connect 58 0 73 0;
#X connect 59 0 74 0;
#X connect 60 0 75 0;
#X connect 61 0 76 0;
#X connect 62 0 77 0;
#X connect 63 0 78 0;
#X connect 64 0 79 0;
#X connect 65 0 80 0;
#X connect 66 0 2 0;
#X connect 67 0 4 0;
#X connect 68 0 6 0;
#X connect 69 0 12 0;
#X connect 70 0 14 0;
#X connect 71 0 16 0;
#X connect 72 0 18 0;
#X connect 73 0 24 0;
#X connect 74 0 26 0;
#X connect 75 0 28 0;
#X connect 76 0 30 0;
#X connect 77 0 32 0;
#X connect 78 0 34 0;
#X connect 79 0 36 0;
#X connect 80 0 38 0;
#X connect 81 0 0 0;
#X restore 4 463 pd one_musical_bar_octave_a;
#N canvas 37 96 1226 617 one_musical_bar_octave_1 0;
#X msg 511 -276 0;
#X obj 8 -300 inlet;
#X obj 8 -111 outlet;
#X obj 511 -298 loadbang;
#N canvas 657 469 324 193 v-conver 0;
#X obj 20 110 outlet;
#X obj 20 22 inlet;
#X obj 20 48 sel 1 0 -1;
#X msg 20 77 0;
#X msg 48 77 1;
#X msg 77 77 2;
#X connect 1 0 2 0;
#X connect 2 0 3 0;
#X connect 2 1 4 0;
#X connect 2 2 5 0;
#X connect 3 0 0 0;
#X connect 4 0 0 0;
#X connect 5 0 0 0;
#X restore 8 -134 pd v-conver;
#X obj 88 -111 outlet;
#N canvas 657 469 324 193 v-conver 0;
#X obj 20 110 outlet;
#X obj 20 22 inlet;
#X obj 20 48 sel 1 0 -1;
#X msg 20 77 0;
#X msg 48 77 1;
#X msg 77 77 2;
#X connect 1 0 2 0;
#X connect 2 0 3 0;
#X connect 2 1 4 0;
#X connect 2 2 5 0;
#X connect 3 0 0 0;
#X connect 4 0 0 0;
#X connect 5 0 0 0;
#X restore 88 -134 pd v-conver;
#X obj 168 -111 outlet;
#N canvas 10 362 324 193 v-conver 0;
#X obj 20 110 outlet;
#X obj 20 22 inlet;
#X obj 20 48 sel 1 0 -1;
#X msg 20 77 0;
#X msg 48 77 1;
#X msg 77 77 2;
#X connect 1 0 2 0;
#X connect 2 0 3 0;
#X connect 2 1 4 0;
#X connect 2 2 5 0;
#X connect 3 0 0 0;
#X connect 4 0 0 0;
#X connect 5 0 0 0;
#X restore 168 -134 pd v-conver;
#X obj 248 -111 outlet;
#N canvas 657 469 324 193 v-conver 0;
#X obj 20 110 outlet;
#X obj 20 22 inlet;
#X obj 20 48 sel 1 0 -1;
#X msg 20 77 0;
#X msg 48 77 1;
#X msg 77 77 2;
#X connect 1 0 2 0;
#X connect 2 0 3 0;
#X connect 2 1 4 0;
#X connect 2 2 5 0;
#X connect 3 0 0 0;
#X connect 4 0 0 0;
#X connect 5 0 0 0;
#X restore 248 -134 pd v-conver;
#X obj 328 -111 outlet;
#N canvas 657 469 324 193 v-conver 0;
#X obj 20 110 outlet;
#X obj 20 22 inlet;
#X obj 20 48 sel 1 0 -1;
#X msg 20 77 0;
#X msg 48 77 1;
#X msg 77 77 2;
#X connect 1 0 2 0;
#X connect 2 0 3 0;
#X connect 2 1 4 0;
#X connect 2 2 5 0;
#X connect 3 0 0 0;
#X connect 4 0 0 0;
#X connect 5 0 0 0;
#X restore 328 -134 pd v-conver;
#X obj 408 -111 outlet;
#N canvas 657 469 324 193 v-conver 0;
#X obj 20 110 outlet;
#X obj 20 22 inlet;
#X obj 20 48 sel 1 0 -1;
#X msg 20 77 0;
#X msg 48 77 1;
#X msg 77 77 2;
#X connect 1 0 2 0;
#X connect 2 0 3 0;
#X connect 2 1 4 0;
#X connect 2 2 5 0;
#X connect 3 0 0 0;
#X connect 4 0 0 0;
#X connect 5 0 0 0;
#X restore 408 -134 pd v-conver;
#X obj 488 -111 outlet;
#N canvas 657 469 324 193 v-conver 0;
#X obj 20 110 outlet;
#X obj 20 22 inlet;
#X obj 20 48 sel 1 0 -1;
#X msg 20 77 0;
#X msg 48 77 1;
#X msg 77 77 2;
#X connect 1 0 2 0;
#X connect 2 0 3 0;
#X connect 2 1 4 0;
#X connect 2 2 5 0;
#X connect 3 0 0 0;
#X connect 4 0 0 0;
#X connect 5 0 0 0;
#X restore 488 -134 pd v-conver;
#X obj 568 -111 outlet;
#N canvas 657 469 324 193 v-conver 0;
#X obj 20 110 outlet;
#X obj 20 22 inlet;
#X obj 20 48 sel 1 0 -1;
#X msg 20 77 0;
#X msg 48 77 1;
#X msg 77 77 2;
#X connect 1 0 2 0;
#X connect 2 0 3 0;
#X connect 2 1 4 0;
#X connect 2 2 5 0;
#X connect 3 0 0 0;
#X connect 4 0 0 0;
#X connect 5 0 0 0;
#X restore 568 -134 pd v-conver;
#X obj 648 -111 outlet;
#N canvas 657 469 324 193 v-conver 0;
#X obj 20 110 outlet;
#X obj 20 22 inlet;
#X obj 20 48 sel 1 0 -1;
#X msg 20 77 0;
#X msg 48 77 1;
#X msg 77 77 2;
#X connect 1 0 2 0;
#X connect 2 0 3 0;
#X connect 2 1 4 0;
#X connect 2 2 5 0;
#X connect 3 0 0 0;
#X connect 4 0 0 0;
#X connect 5 0 0 0;
#X restore 648 -134 pd v-conver;
#X obj 728 -111 outlet;
#N canvas 657 469 324 193 v-conver 0;
#X obj 20 110 outlet;
#X obj 20 22 inlet;
#X obj 20 48 sel 1 0 -1;
#X msg 20 77 0;
#X msg 48 77 1;
#X msg 77 77 2;
#X connect 1 0 2 0;
#X connect 2 0 3 0;
#X connect 2 1 4 0;
#X connect 2 2 5 0;
#X connect 3 0 0 0;
#X connect 4 0 0 0;
#X connect 5 0 0 0;
#X restore 728 -134 pd v-conver;
#X obj 808 -111 outlet;
#N canvas 657 469 324 193 v-conver 0;
#X obj 20 110 outlet;
#X obj 20 22 inlet;
#X obj 20 48 sel 1 0 -1;
#X msg 20 77 0;
#X msg 48 77 1;
#X msg 77 77 2;
#X connect 1 0 2 0;
#X connect 2 0 3 0;
#X connect 2 1 4 0;
#X connect 2 2 5 0;
#X connect 3 0 0 0;
#X connect 4 0 0 0;
#X connect 5 0 0 0;
#X restore 808 -134 pd v-conver;
#X obj 888 -111 outlet;
#N canvas 657 469 324 193 v-conver 0;
#X obj 20 110 outlet;
#X obj 20 22 inlet;
#X obj 20 48 sel 1 0 -1;
#X msg 20 77 0;
#X msg 48 77 1;
#X msg 77 77 2;
#X connect 1 0 2 0;
#X connect 2 0 3 0;
#X connect 2 1 4 0;
#X connect 2 2 5 0;
#X connect 3 0 0 0;
#X connect 4 0 0 0;
#X connect 5 0 0 0;
#X restore 888 -134 pd v-conver;
#X obj 968 -111 outlet;
#N canvas 657 469 324 193 v-conver 0;
#X obj 20 110 outlet;
#X obj 20 22 inlet;
#X obj 20 48 sel 1 0 -1;
#X msg 20 77 0;
#X msg 48 77 1;
#X msg 77 77 2;
#X connect 1 0 2 0;
#X connect 2 0 3 0;
#X connect 2 1 4 0;
#X connect 2 2 5 0;
#X connect 3 0 0 0;
#X connect 4 0 0 0;
#X connect 5 0 0 0;
#X restore 968 -134 pd v-conver;
#X obj 1048 -111 outlet;
#N canvas 657 469 324 193 v-conver 0;
#X obj 20 110 outlet;
#X obj 20 22 inlet;
#X obj 20 48 sel 1 0 -1;
#X msg 20 77 0;
#X msg 48 77 1;
#X msg 77 77 2;
#X connect 1 0 2 0;
#X connect 2 0 3 0;
#X connect 2 1 4 0;
#X connect 2 2 5 0;
#X connect 3 0 0 0;
#X connect 4 0 0 0;
#X connect 5 0 0 0;
#X restore 1048 -134 pd v-conver;
#X obj 1128 -111 outlet;
#N canvas 657 469 324 193 v-conver 0;
#X obj 20 110 outlet;
#X obj 20 22 inlet;
#X obj 20 48 sel 1 0 -1;
#X msg 20 77 0;
#X msg 48 77 1;
#X msg 77 77 2;
#X connect 1 0 2 0;
#X connect 2 0 3 0;
#X connect 2 1 4 0;
#X connect 2 2 5 0;
#X connect 3 0 0 0;
#X connect 4 0 0 0;
#X connect 5 0 0 0;
#X restore 1128 -134 pd v-conver;
#X obj 1208 -111 outlet;
#N canvas 657 469 324 193 v-conver 0;
#X obj 20 110 outlet;
#X obj 20 22 inlet;
#X obj 20 48 sel 1 0 -1;
#X msg 20 77 0;
#X msg 48 77 1;
#X msg 77 77 2;
#X connect 1 0 2 0;
#X connect 2 0 3 0;
#X connect 2 1 4 0;
#X connect 2 2 5 0;
#X connect 3 0 0 0;
#X connect 4 0 0 0;
#X connect 5 0 0 0;
#X restore 1208 -134 pd v-conver;
#N canvas 443 191 318 201 random-gen-oct 0;
#X floatatom 18 82 5 0 0 0 - - -, f 5;
#X obj 18 22 random 127;
#X floatatom 18 43 5 0 0 0 - - -, f 5;
#X obj 18 60 expr if($i1 < 22 \, -1 \, if($i1 > 106 \, 1 \, 0));
#X text 89 23 for octarve;
#X obj 18 -3 inlet;
#X obj 18 106 outlet;
#X connect 0 0 6 0;
#X connect 1 0 2 0;
#X connect 2 0 3 0;
#X connect 3 0 0 0;
#X connect 5 0 1 0;
#X restore 8 -194 pd random-gen-oct;
#N canvas 443 191 318 201 random-gen-oct 0;
#X floatatom 18 82 5 0 0 0 - - -, f 5;
#X obj 18 22 random 127;
#X floatatom 18 43 5 0 0 0 - - -, f 5;
#X obj 18 60 expr if($i1 < 22 \, -1 \, if($i1 > 106 \, 1 \, 0));
#X text 89 23 for octarve;
#X obj 18 -3 inlet;
#X obj 18 106 outlet;
#X connect 0 0 6 0;
#X connect 1 0 2 0;
#X connect 2 0 3 0;
#X connect 3 0 0 0;
#X connect 5 0 1 0;
#X restore 88 -164 pd random-gen-oct;
#N canvas 443 191 318 201 random-gen-oct 0;
#X floatatom 18 82 5 0 0 0 - - -, f 5;
#X obj 18 22 random 127;
#X floatatom 18 43 5 0 0 0 - - -, f 5;
#X obj 18 60 expr if($i1 < 22 \, -1 \, if($i1 > 106 \, 1 \, 0));
#X text 89 23 for octarve;
#X obj 18 -3 inlet;
#X obj 18 106 outlet;
#X connect 0 0 6 0;
#X connect 1 0 2 0;
#X connect 2 0 3 0;
#X connect 3 0 0 0;
#X connect 5 0 1 0;
#X restore 168 -194 pd random-gen-oct;
#N canvas 443 191 318 201 random-gen-oct 0;
#X floatatom 18 82 5 0 0 0 - - -, f 5;
#X obj 18 22 random 127;
#X floatatom 18 43 5 0 0 0 - - -, f 5;
#X obj 18 60 expr if($i1 < 22 \, -1 \, if($i1 > 106 \, 1 \, 0));
#X text 89 23 for octarve;
#X obj 18 -3 inlet;
#X obj 18 106 outlet;
#X connect 0 0 6 0;
#X connect 1 0 2 0;
#X connect 2 0 3 0;
#X connect 3 0 0 0;
#X connect 5 0 1 0;
#X restore 248 -164 pd random-gen-oct;
#N canvas 443 191 318 201 random-gen-oct 0;
#X floatatom 18 82 5 0 0 0 - - -, f 5;
#X obj 18 22 random 127;
#X floatatom 18 43 5 0 0 0 - - -, f 5;
#X obj 18 60 expr if($i1 < 22 \, -1 \, if($i1 > 106 \, 1 \, 0));
#X text 89 23 for octarve;
#X obj 18 -3 inlet;
#X obj 18 106 outlet;
#X connect 0 0 6 0;
#X connect 1 0 2 0;
#X connect 2 0 3 0;
#X connect 3 0 0 0;
#X connect 5 0 1 0;
#X restore 328 -194 pd random-gen-oct;
#N canvas 443 191 318 201 random-gen-oct 0;
#X floatatom 18 82 5 0 0 0 - - -, f 5;
#X obj 18 22 random 127;
#X floatatom 18 43 5 0 0 0 - - -, f 5;
#X obj 18 60 expr if($i1 < 22 \, -1 \, if($i1 > 106 \, 1 \, 0));
#X text 89 23 for octarve;
#X obj 18 -3 inlet;
#X obj 18 106 outlet;
#X connect 0 0 6 0;
#X connect 1 0 2 0;
#X connect 2 0 3 0;
#X connect 3 0 0 0;
#X connect 5 0 1 0;
#X restore 408 -164 pd random-gen-oct;
#N canvas 443 191 318 201 random-gen-oct 0;
#X floatatom 18 82 5 0 0 0 - - -, f 5;
#X obj 18 22 random 127;
#X floatatom 18 43 5 0 0 0 - - -, f 5;
#X obj 18 60 expr if($i1 < 22 \, -1 \, if($i1 > 106 \, 1 \, 0));
#X text 89 23 for octarve;
#X obj 18 -3 inlet;
#X obj 18 106 outlet;
#X connect 0 0 6 0;
#X connect 1 0 2 0;
#X connect 2 0 3 0;
#X connect 3 0 0 0;
#X connect 5 0 1 0;
#X restore 488 -194 pd random-gen-oct;
#N canvas 443 191 318 201 random-gen-oct 0;
#X floatatom 18 82 5 0 0 0 - - -, f 5;
#X obj 18 22 random 127;
#X floatatom 18 43 5 0 0 0 - - -, f 5;
#X obj 18 60 expr if($i1 < 22 \, -1 \, if($i1 > 106 \, 1 \, 0));
#X text 89 23 for octarve;
#X obj 18 -3 inlet;
#X obj 18 106 outlet;
#X connect 0 0 6 0;
#X connect 1 0 2 0;
#X connect 2 0 3 0;
#X connect 3 0 0 0;
#X connect 5 0 1 0;
#X restore 568 -164 pd random-gen-oct;
#N canvas 443 191 318 201 random-gen-oct 0;
#X floatatom 18 82 5 0 0 0 - - -, f 5;
#X obj 18 22 random 127;
#X floatatom 18 43 5 0 0 0 - - -, f 5;
#X obj 18 60 expr if($i1 < 22 \, -1 \, if($i1 > 106 \, 1 \, 0));
#X text 89 23 for octarve;
#X obj 18 -3 inlet;
#X obj 18 106 outlet;
#X connect 0 0 6 0;
#X connect 1 0 2 0;
#X connect 2 0 3 0;
#X connect 3 0 0 0;
#X connect 5 0 1 0;
#X restore 648 -194 pd random-gen-oct;
#N canvas 443 191 318 201 random-gen-oct 0;
#X floatatom 18 82 5 0 0 0 - - -, f 5;
#X obj 18 22 random 127;
#X floatatom 18 43 5 0 0 0 - - -, f 5;
#X obj 18 60 expr if($i1 < 22 \, -1 \, if($i1 > 106 \, 1 \, 0));
#X text 89 23 for octarve;
#X obj 18 -3 inlet;
#X obj 18 106 outlet;
#X connect 0 0 6 0;
#X connect 1 0 2 0;
#X connect 2 0 3 0;
#X connect 3 0 0 0;
#X connect 5 0 1 0;
#X restore 728 -164 pd random-gen-oct;
#N canvas 443 191 318 201 random-gen-oct 0;
#X floatatom 18 82 5 0 0 0 - - -, f 5;
#X obj 18 22 random 127;
#X floatatom 18 43 5 0 0 0 - - -, f 5;
#X obj 18 60 expr if($i1 < 22 \, -1 \, if($i1 > 106 \, 1 \, 0));
#X text 89 23 for octarve;
#X obj 18 -3 inlet;
#X obj 18 106 outlet;
#X connect 0 0 6 0;
#X connect 1 0 2 0;
#X connect 2 0 3 0;
#X connect 3 0 0 0;
#X connect 5 0 1 0;
#X restore 808 -194 pd random-gen-oct;
#N canvas 443 191 318 201 random-gen-oct 0;
#X floatatom 18 82 5 0 0 0 - - -, f 5;
#X obj 18 22 random 127;
#X floatatom 18 43 5 0 0 0 - - -, f 5;
#X obj 18 60 expr if($i1 < 22 \, -1 \, if($i1 > 106 \, 1 \, 0));
#X text 89 23 for octarve;
#X obj 18 -3 inlet;
#X obj 18 106 outlet;
#X connect 0 0 6 0;
#X connect 1 0 2 0;
#X connect 2 0 3 0;
#X connect 3 0 0 0;
#X connect 5 0 1 0;
#X restore 888 -164 pd random-gen-oct;
#N canvas 443 191 318 201 random-gen-oct 0;
#X floatatom 18 82 5 0 0 0 - - -, f 5;
#X obj 18 22 random 127;
#X floatatom 18 43 5 0 0 0 - - -, f 5;
#X obj 18 60 expr if($i1 < 22 \, -1 \, if($i1 > 106 \, 1 \, 0));
#X text 89 23 for octarve;
#X obj 18 -3 inlet;
#X obj 18 106 outlet;
#X connect 0 0 6 0;
#X connect 1 0 2 0;
#X connect 2 0 3 0;
#X connect 3 0 0 0;
#X connect 5 0 1 0;
#X restore 968 -194 pd random-gen-oct;
#N canvas 443 191 318 201 random-gen-oct 0;
#X floatatom 18 82 5 0 0 0 - - -, f 5;
#X obj 18 22 random 127;
#X floatatom 18 43 5 0 0 0 - - -, f 5;
#X obj 18 60 expr if($i1 < 22 \, -1 \, if($i1 > 106 \, 1 \, 0));
#X text 89 23 for octarve;
#X obj 18 -3 inlet;
#X obj 18 106 outlet;
#X connect 0 0 6 0;
#X connect 1 0 2 0;
#X connect 2 0 3 0;
#X connect 3 0 0 0;
#X connect 5 0 1 0;
#X restore 1048 -164 pd random-gen-oct;
#N canvas 443 191 318 201 random-gen-oct 0;
#X floatatom 18 82 5 0 0 0 - - -, f 5;
#X obj 18 22 random 127;
#X floatatom 18 43 5 0 0 0 - - -, f 5;
#X obj 18 60 expr if($i1 < 22 \, -1 \, if($i1 > 106 \, 1 \, 0));
#X text 89 23 for octarve;
#X obj 18 -3 inlet;
#X obj 18 106 outlet;
#X connect 0 0 6 0;
#X connect 1 0 2 0;
#X connect 2 0 3 0;
#X connect 3 0 0 0;
#X connect 5 0 1 0;
#X restore 1128 -194 pd random-gen-oct;
#N canvas 443 191 318 201 random-gen-oct 0;
#X floatatom 18 82 5 0 0 0 - - -, f 5;
#X obj 18 22 random 127;
#X floatatom 18 43 5 0 0 0 - - -, f 5;
#X obj 18 60 expr if($i1 < 22 \, -1 \, if($i1 > 106 \, 1 \, 0));
#X text 89 23 for octarve;
#X obj 18 -3 inlet;
#X obj 18 106 outlet;
#X connect 0 0 6 0;
#X connect 1 0 2 0;
#X connect 2 0 3 0;
#X connect 3 0 0 0;
#X connect 5 0 1 0;
#X restore 1208 -164 pd random-gen-oct;
#X obj 286 -300 inlet;
#X connect 0 0 4 0;
#X connect 0 0 6 0;
#X connect 0 0 8 0;
#X connect 0 0 10 0;
#X connect 0 0 12 0;
#X connect 0 0 14 0;
#X connect 0 0 16 0;
#X connect 0 0 18 0;
#X connect 0 0 20 0;
#X connect 0 0 22 0;
#X connect 0 0 24 0;
#X connect 0 0 26 0;
#X connect 0 0 28 0;
#X connect 0 0 30 0;
#X connect 0 0 32 0;
#X connect 0 0 34 0;
#X connect 1 0 35 0;
#X connect 1 0 36 0;
#X connect 1 0 37 0;
#X connect 1 0 38 0;
#X connect 1 0 39 0;
#X connect 1 0 40 0;
#X connect 1 0 41 0;
#X connect 1 0 42 0;
#X connect 1 0 43 0;
#X connect 1 0 44 0;
#X connect 1 0 45 0;
#X connect 1 0 46 0;
#X connect 1 0 47 0;
#X connect 1 0 48 0;
#X connect 1 0 49 0;
#X connect 1 0 50 0;
#X connect 3 0 0 0;
#X connect 4 0 2 0;
#X connect 6 0 5 0;
#X connect 8 0 7 0;
#X connect 10 0 9 0;
#X connect 12 0 11 0;
#X connect 14 0 13 0;
#X connect 16 0 15 0;
#X connect 18 0 17 0;
#X connect 20 0 19 0;
#X connect 22 0 21 0;
#X connect 24 0 23 0;
#X connect 26 0 25 0;
#X connect 28 0 27 0;
#X connect 30 0 29 0;
#X connect 32 0 31 0;
#X connect 34 0 33 0;
#X connect 35 0 4 0;
#X connect 36 0 6 0;
#X connect 37 0 8 0;
#X connect 38 0 10 0;
#X connect 39 0 12 0;
#X connect 40 0 14 0;
#X connect 41 0 16 0;
#X connect 42 0 18 0;
#X connect 43 0 20 0;
#X connect 44 0 22 0;
#X connect 45 0 24 0;
#X connect 46 0 26 0;
#X connect 47 0 28 0;
#X connect 48 0 30 0;
#X connect 49 0 32 0;
#X connect 50 0 34 0;
#X connect 51 0 0 0;
#X restore 10 124 pd one_musical_bar_octave_1;
#X obj 14 257 vsl 8 32 0 127 0 0 empty empty empty 0 -9 0 10 -228856
-1 -1 0 1;
#X obj 14 294 vradio 8 1 0 3 empty empty empty 0 -8 0 10 -262144 -1
-1 1;
#X obj 24 257 vsl 8 32 0 127 0 0 empty empty empty 0 -9 0 10 -228856
-1 -1 0 1;
#X obj 24 294 vradio 8 1 0 3 empty empty empty 0 -8 0 10 -262144 -1
-1 1;
#X obj 34 257 vsl 8 32 0 127 0 0 empty empty empty 0 -9 0 10 -228856
-1 -1 0 1;
#X obj 34 294 vradio 8 1 0 3 empty empty empty 0 -8 0 10 -262144 -1
-1 1;
#X obj 44 257 vsl 8 32 0 127 0 0 empty empty empty 0 -9 0 10 -228856
-1 -1 0 1;
#X obj 44 294 vradio 8 1 0 3 empty empty empty 0 -8 0 10 -262144 -1
-1 1;
#X obj 54 257 vsl 8 32 0 127 0 0 empty empty empty 0 -9 0 10 -228856
-1 -1 0 1;
#X obj 54 294 vradio 8 1 0 3 empty empty empty 0 -8 0 10 -262144 -1
-1 1;
#X obj 64 257 vsl 8 32 0 127 0 0 empty empty empty 0 -9 0 10 -228856
-1 -1 0 1;
#X obj 64 294 vradio 8 1 0 3 empty empty empty 0 -8 0 10 -262144 -1
-1 1;
#X obj 74 257 vsl 8 32 0 127 0 0 empty empty empty 0 -9 0 10 -228856
-1 -1 0 1;
#X obj 74 294 vradio 8 1 0 3 empty empty empty 0 -8 0 10 -262144 -1
-1 1;
#X obj 84 257 vsl 8 32 0 127 0 0 empty empty empty 0 -9 0 10 -228856
-1 -1 0 1;
#X obj 84 294 vradio 8 1 0 3 empty empty empty 0 -8 0 10 -262144 -1
-1 1;
#X obj 94 257 vsl 8 32 0 127 0 0 empty empty empty 0 -9 0 10 -228856
-1 -1 0 1;
#X obj 94 294 vradio 8 1 0 3 empty empty empty 0 -8 0 10 -262144 -1
-1 1;
#X obj 104 257 vsl 8 32 0 127 0 0 empty empty empty 0 -9 0 10 -228856
-1 -1 0 1;
#X obj 104 294 vradio 8 1 0 3 empty empty empty 0 -8 0 10 -262144 -1
-1 1;
#X obj 114 257 vsl 8 32 0 127 0 0 empty empty empty 0 -9 0 10 -228856
-1 -1 0 1;
#X obj 114 294 vradio 8 1 0 3 empty empty empty 0 -8 0 10 -262144 -1
-1 1;
#X obj 124 257 vsl 8 32 0 127 0 0 empty empty empty 0 -9 0 10 -228856
-1 -1 0 1;
#X obj 124 294 vradio 8 1 0 3 empty empty empty 0 -8 0 10 -262144 -1
-1 1;
#X obj 134 257 vsl 8 32 0 127 0 0 empty empty empty 0 -9 0 10 -228856
-1 -1 0 1;
#X obj 134 294 vradio 8 1 0 3 empty empty empty 0 -8 0 10 -262144 -1
-1 1;
#X obj 144 257 vsl 8 32 0 127 0 0 empty empty empty 0 -9 0 10 -228856
-1 -1 0 1;
#X obj 144 294 vradio 8 1 0 3 empty empty empty 0 -8 0 10 -262144 -1
-1 1;
#X obj 154 257 vsl 8 32 0 127 0 0 empty empty empty 0 -9 0 10 -228856
-1 -1 0 1;
#X obj 154 294 vradio 8 1 0 3 empty empty empty 0 -8 0 10 -262144 -1
-1 1;
#N canvas 33 106 1226 617 one_musical_bar_velocity_1 0;
#X msg 112 41 0;
#X obj 10 17 inlet;
#X obj 10 206 outlet;
#X obj 112 19 loadbang;
#X obj 90 206 outlet;
#X obj 170 206 outlet;
#X obj 250 206 outlet;
#X obj 330 206 outlet;
#X obj 410 206 outlet;
#X obj 490 206 outlet;
#X obj 570 206 outlet;
#X obj 650 206 outlet;
#X obj 730 206 outlet;
#X obj 810 206 outlet;
#X obj 890 206 outlet;
#X obj 970 206 outlet;
#X obj 1050 206 outlet;
#X obj 1130 206 outlet;
#X obj 1210 206 outlet;
#X obj 10 180 + 40;
#X obj 10 140 random 87;
#X obj 90 180 + 40;
#X obj 90 140 random 87;
#X obj 170 180 + 40;
#X obj 170 140 random 87;
#X obj 250 180 + 40;
#X obj 250 140 random 87;
#X obj 330 180 + 40;
#X obj 330 140 random 87;
#X obj 410 180 + 40;
#X obj 410 140 random 87;
#X obj 490 180 + 40;
#X obj 490 140 random 87;
#X obj 570 180 + 40;
#X obj 570 140 random 87;
#X obj 650 180 + 40;
#X obj 650 140 random 87;
#X obj 730 180 + 40;
#X obj 730 140 random 87;
#X obj 810 180 + 40;
#X obj 810 140 random 87;
#X obj 890 180 + 40;
#X obj 890 140 random 87;
#X obj 970 180 + 40;
#X obj 970 140 random 87;
#X obj 1050 180 + 40;
#X obj 1050 140 random 87;
#X obj 1130 180 + 40;
#X obj 1130 140 random 87;
#X obj 1210 180 + 40;
#X obj 1210 140 random 87;
#X connect 1 0 20 0;
#X connect 1 0 22 0;
#X connect 1 0 24 0;
#X connect 1 0 26 0;
#X connect 1 0 28 0;
#X connect 1 0 30 0;
#X connect 1 0 32 0;
#X connect 1 0 34 0;
#X connect 1 0 36 0;
#X connect 1 0 38 0;
#X connect 1 0 40 0;
#X connect 1 0 42 0;
#X connect 1 0 44 0;
#X connect 1 0 46 0;
#X connect 1 0 48 0;
#X connect 1 0 50 0;
#X connect 3 0 0 0;
#X connect 19 0 2 0;
#X connect 20 0 19 0;
#X connect 21 0 4 0;
#X connect 22 0 21 0;
#X connect 23 0 5 0;
#X connect 24 0 23 0;
#X connect 25 0 6 0;
#X connect 26 0 25 0;
#X connect 27 0 7 0;
#X connect 28 0 27 0;
#X connect 29 0 8 0;
#X connect 30 0 29 0;
#X connect 31 0 9 0;
#X connect 32 0 31 0;
#X connect 33 0 10 0;
#X connect 34 0 33 0;
#X connect 35 0 11 0;
#X connect 36 0 35 0;
#X connect 37 0 12 0;
#X connect 38 0 37 0;
#X connect 39 0 13 0;
#X connect 40 0 39 0;
#X connect 41 0 14 0;
#X connect 42 0 41 0;
#X connect 43 0 15 0;
#X connect 44 0 43 0;
#X connect 45 0 16 0;
#X connect 46 0 45 0;
#X connect 47 0 17 0;
#X connect 48 0 47 0;
#X connect 49 0 18 0;
#X connect 50 0 49 0;
#X restore 19 98 pd one_musical_bar_velocity_1;
#N canvas 0 22 482 305 (subpatch) 0;
#X array \$0-velocity 100 float 1;
#A 0 97 66 66 76 110 77 84 64 108 112 125 107 50 111 91 62 89 62 59
100 102 126 64 63 72 115 40 90 54 117 120 71 41 93 46 87 104 92 76
77 104 52 107 87 63 79 85 49 116 59 60 55 84 124 99 107 97 74 58 71
53 126 122 54 0 0 0 0 0 0 0 0 0 0 0 0 0 0 0 0 0 0 0 0 0 0 0 0 0 0 0
0 0 0 0 0 0 0 0 0;
#X coords 0 305 1 304 200 140 0;
#X restore 135 428 graph;
#X obj 4 428 tabwrite \$0-velocity;
#X obj 591 174 tabwrite \$0-scale;
#N canvas 0 22 450 278 (subpatch) 0;
#X array \$0-scale 10 float 1;
#A 0 0 1 3 5 6 8 10 12 0 0;
#X coords 0 278 1 277 200 140 0;
#X restore 701 174 graph;
#X obj 4 498 tabwrite \$0-octave;
#N canvas 0 22 450 278 (subpatch) 0;
#X array \$0-octave 100 float 3;
#A 0 0 0 0 0 0 0 0 0 0 0 0 0 0 0 0 0 0 0 0 0 0 0 0 0 0 0 0 0 0 0 0
0 0 0 0 0 0 0 0 0 0 0 0 0 0 0 0 0 0 0 0 0 0 0 0 0 0 0 0 0 0 0 0 0 0
0 0 0 0 0 0 0 0 0 0 0 0 0 0 0 0 0 0 0 0 0 0 0 0 0 0 0 0 0 0 0 0 0 0
0;
#X coords 0 278 1 277 200 140 0;
#X restore 124 498 graph;
#X obj 3 367 tabwrite \$0-note;
#N canvas 0 22 450 278 (subpatch) 0;
#X array \$0-note 100 float 1;
#A 0 0 7 0 5 0 0 0 6 5 2 0 0 6 0 2 0 0 0 0 0 0 0 0 0 0 0 0 0 0 0 0
0 0 0 0 0 0 0 0 0 0 0 0 0 0 0 0 0 0 0 0 0 0 0 0 0 0 0 0 0 0 0 0 0 0
0 0 0 0 0 0 0 0 0 0 0 0 0 0 0 0 0 0 0 0 0 0 0 0 0 0 0 0 0 0 0 0 0 0
0;
#X coords 0 278 1 277 200 140 0;
#X restore 108 367 graph;
#X obj 497 111 t f f;
#X obj 497 -10 inlet;
#X text 497 -24 16beat;
#X obj 43 165 hradio 10 1 0 12 empty empty KeySet -38 5 0 9 -262144
-1 -1 0;
#X obj 166 182 bng 14 250 50 0 empty empty Random 17 7 0 10 -262144
-1 -1;
#X obj 166 198 bng 14 250 50 0 empty empty up 17 7 0 10 -262144 -1
-1;
#X obj 166 230 bng 14 250 50 0 empty empty down 17 7 0 10 -262144 -1
-1;
#X obj 166 214 bng 14 250 50 0 empty empty reset 17 7 0 10 -262144
-1 -1;
#X obj 166 273 bng 14 250 50 0 empty empty Random 17 7 0 10 -262144
-1 -1;
#X obj 166 303 bng 14 250 50 0 empty empty Random 17 7 0 10 -262144
-1 -1;
#X text 164 246 Velocity;
#X text 164 289 Octave;
#X obj 166 165 bng 15 250 50 0 empty empty all_R 17 7 0 10 -162280
-258113 -1;
#X text 593 3 scale;
#X msg 560 225 12;
#X floatatom 560 277 5 0 0 0 - - -, f 5;
#X msg 589 225 -12;
#X obj 560 249 + 60;
#X obj 633 -10 inlet;
#X obj 705 -10 inlet;
#X obj 669 -10 inlet;
#X text 632 -24 note;
#X text 671 -24 velo;
#X text 705 -24 oct;
#X obj 2 -17 loadbang;
#X obj 497 463 outlet;
#X obj 133 153 hradio 10 1 1 3 empty empty Random-4/8/16 -80 5 0 10
-262144 -1 -1 2;
#X obj 441 6 b;
#X obj 743 -10 inlet;
#X obj 817 -10 inlet;
#X text 742 -25 4/8/6;
#X text 819 -24 loop;
#X text 553 484 3rd_tone;
#X obj 555 463 outlet;
#X obj 625 463 outlet;
#X text 623 484 7th_tone;
#X obj 441 -17 r reset;
#X obj 597 25 sel 0;
#X obj 597 68 expr if($f1 == 128 \, $f2 \, 1);
#X msg 597 47 128;
#X obj 206 293 bng 12 250 50 0 empty empty empty 17 7 0 10 -262144
-1 -1;
#X obj 166 150 bng 13 250 50 0 empty empty store 17 7 0 10 -128992
-258113 -1;
#X obj 891 -10 inlet;
#X text 888 -24 preset;
#X obj 685 463 outlet;
#X obj 648 311 gate;
#X msg 634 275 0;
#X obj 608 296 tgl 15 0 empty empty empty 17 7 0 10 -262144 -1 -1 1
1;
#X msg 608 276 1;
#X obj 447 179 t b b;
#X obj 531 164 t b b;
#X obj 448 201 t b b;
#X msg 843 208 set \$1;
#X msg 527 225 48;
#X obj 854 -10 inlet;
#X text 856 -24 root;
#X obj 816 187 t b f;
#X msg 142 3 60;
#X obj 185 1 unpack 0 0 0 0 0 0 0 0 0 0 0 0 0 0 0 0, f 33;
#X msg 2 3 15;
#X obj 669 253 pack 0 0 0 0 0 0 0 0 0 0 0 0 0 0 0 0, f 33;
#X text 494 523 output: bar-No / note / velo;
#X obj 780 -10 inlet;
#X text 779 -25 key;
#X connect 1 0 41 0;
#X connect 1 0 144 0;
#X connect 2 0 41 1;
#X connect 2 0 144 1;
#X connect 3 0 41 2;
#X connect 3 0 144 2;
#X connect 4 0 41 3;
#X connect 4 0 144 3;
#X connect 5 0 41 4;
#X connect 5 0 144 4;
#X connect 6 0 41 5;
#X connect 6 0 144 5;
#X connect 7 0 41 6;
#X connect 7 0 144 6;
#X connect 8 0 41 7;
#X connect 8 0 144 7;
#X connect 9 0 41 8;
#X connect 9 0 144 8;
#X connect 10 0 41 9;
#X connect 10 0 144 9;
#X connect 11 0 41 10;
#X connect 11 0 144 10;
#X connect 12 0 41 11;
#X connect 12 0 144 11;
#X connect 13 0 41 12;
#X connect 13 0 144 12;
#X connect 14 0 41 13;
#X connect 14 0 144 13;
#X connect 15 0 41 14;
#X connect 15 0 144 14;
#X connect 16 0 41 15;
#X connect 16 0 144 15;
#X connect 17 0 84 0;
#X connect 17 0 121 0;
#X connect 18 0 19 0;
#X connect 18 0 17 0;
#X connect 19 0 20 0;
#X connect 20 0 18 1;
#X connect 21 0 18 0;
#X connect 22 0 122 1;
#X connect 24 0 18 1;
#X connect 25 0 42 0;
#X connect 26 0 1 0;
#X connect 26 1 2 0;
#X connect 26 2 3 0;
#X connect 26 3 4 0;
#X connect 26 4 5 0;
#X connect 26 5 6 0;
#X connect 26 6 7 0;
#X connect 26 7 8 0;
#X connect 26 8 9 0;
#X connect 26 9 10 0;
#X connect 26 10 11 0;
#X connect 26 11 12 0;
#X connect 26 12 13 0;
#X connect 26 13 14 0;
#X connect 26 14 15 0;
#X connect 26 15 16 0;
#X connect 27 0 28 0;
#X connect 28 0 22 0;
#X connect 29 0 30 0;
#X connect 29 1 31 0;
#X connect 29 2 32 0;
#X connect 29 3 33 0;
#X connect 29 4 34 0;
#X connect 29 5 35 0;
#X connect 29 6 36 0;
#X connect 30 0 78 0;
#X connect 31 0 78 0;
#X connect 32 0 78 0;
#X connect 33 0 78 0;
#X connect 34 0 78 0;
#X connect 35 0 78 0;
#X connect 36 0 78 0;
#X connect 37 0 29 0;
#X connect 38 0 29 0;
#X connect 39 0 109 0;
#X connect 39 1 117 0;
#X connect 39 2 118 0;
#X connect 40 0 43 0;
#X connect 41 0 82 0;
#X connect 42 0 77 0;
#X connect 43 0 80 0;
#X connect 44 0 40 0;
#X connect 44 1 46 0;
#X connect 44 2 48 0;
#X connect 44 3 50 0;
#X connect 44 4 52 0;
#X connect 44 5 54 0;
#X connect 44 6 56 0;
#X connect 44 7 58 0;
#X connect 44 8 60 0;
#X connect 44 9 62 0;
#X connect 44 10 64 0;
#X connect 44 11 66 0;
#X connect 44 12 68 0;
#X connect 44 13 70 0;
#X connect 44 14 72 0;
#X connect 44 15 74 0;
#X connect 45 0 42 1;
#X connect 46 0 43 1;
#X connect 47 0 42 2;
#X connect 48 0 43 2;
#X connect 49 0 42 3;
#X connect 50 0 43 3;
#X connect 51 0 42 4;
#X connect 52 0 43 4;
#X connect 53 0 42 5;
#X connect 54 0 43 5;
#X connect 55 0 42 6;
#X connect 56 0 43 6;
#X connect 57 0 42 7;
#X connect 58 0 43 7;
#X connect 59 0 42 8;
#X connect 60 0 43 8;
#X connect 61 0 42 9;
#X connect 62 0 43 9;
#X connect 63 0 42 10;
#X connect 64 0 43 10;
#X connect 65 0 42 11;
#X connect 66 0 43 11;
#X connect 67 0 42 12;
#X connect 68 0 43 12;
#X connect 69 0 42 13;
#X connect 70 0 43 13;
#X connect 71 0 42 14;
#X connect 72 0 43 14;
#X connect 73 0 42 15;
#X connect 74 0 43 15;
#X connect 75 0 25 0;
#X connect 75 1 45 0;
#X connect 75 2 47 0;
#X connect 75 3 49 0;
#X connect 75 4 51 0;
#X connect 75 5 53 0;
#X connect 75 6 55 0;
#X connect 75 7 57 0;
#X connect 75 8 59 0;
#X connect 75 9 61 0;
#X connect 75 10 63 0;
#X connect 75 11 65 0;
#X connect 75 12 67 0;
#X connect 75 13 69 0;
#X connect 75 14 71 0;
#X connect 75 15 73 0;
#X connect 84 0 39 0;
#X connect 84 1 26 0;
#X connect 85 0 21 0;
#X connect 87 0 39 1;
#X connect 88 0 135 0;
#X connect 89 0 98 0;
#X connect 90 0 100 0;
#X connect 91 0 137 0;
#X connect 92 0 75 0;
#X connect 93 0 44 0;
#X connect 96 0 133 0;
#X connect 98 0 101 0;
#X connect 99 0 101 1;
#X connect 99 0 39 2;
#X connect 100 0 101 0;
#X connect 101 0 99 0;
#X connect 102 0 88 0;
#X connect 103 0 93 0;
#X connect 104 0 92 0;
#X connect 108 0 143 0;
#X connect 108 0 37 0;
#X connect 108 0 141 0;
#X connect 110 0 26 2;
#X connect 111 0 24 0;
#X connect 112 0 110 0;
#X connect 113 0 27 0;
#X connect 120 0 111 0;
#X connect 121 0 123 0;
#X connect 122 0 20 1;
#X connect 123 0 122 0;
#X connect 124 0 44 1;
#X connect 125 0 134 0;
#X connect 126 0 142 0;
#X connect 129 0 128 0;
#X connect 130 0 131 0;
#X connect 131 0 129 0;
#X connect 132 0 131 0;
#X connect 133 0 88 0;
#X connect 133 0 92 0;
#X connect 133 0 93 0;
#X connect 133 1 130 0;
#X connect 134 0 144 0;
#X connect 134 1 132 0;
#X connect 135 0 26 1;
#X connect 135 1 130 0;
#X connect 136 0 137 0;
#X connect 137 0 99 0;
#X connect 137 0 101 1;
#X connect 138 0 140 0;
#X connect 140 0 91 0;
#X connect 140 1 136 0;
#X connect 141 0 140 0;
#X connect 142 0 1 0;
#X connect 142 1 2 0;
#X connect 142 2 3 0;
#X connect 142 3 4 0;
#X connect 142 4 5 0;
#X connect 142 5 6 0;
#X connect 142 6 7 0;
#X connect 142 7 8 0;
#X connect 142 8 9 0;
#X connect 142 9 10 0;
#X connect 142 10 11 0;
#X connect 142 11 12 0;
#X connect 142 12 13 0;
#X connect 142 13 14 0;
#X connect 142 14 15 0;
#X connect 142 15 16 0;
#X connect 143 0 27 0;
#X connect 144 0 129 1;
#X connect 146 0 87 0;
#X coords 0 -1 1 1 220 170 2 0 150;
