#N canvas 267 217 419 392 10;
#X obj 56 238 *~;
#X floatatom 71 219 5 0 1 0 - - -;
#X obj 209 238 *~;
#X floatatom 224 219 5 0 1 0 - - -;
#X obj 56 3 inlet~;
#X obj 272 67 mtof;
#X floatatom 272 48 5 0 0 0 - - -;
#X floatatom 272 90 10 0 0 0 - - -;
#X obj 56 106 lop~;
#X obj 272 2 loadbang;
#X text 284 115 Pre EQ;
#X text 240 133 (deja la voz audible);
#X obj 133 238 *~;
#X floatatom 148 219 5 0 1 0 - - -;
#X obj 56 363 outlet~;
#X obj 56 311 +~;
#X obj 56 334 +~;
#X msg 272 23 136;
#X obj 224 197 line;
#X msg 224 173 \$1 100;
#X obj 148 197 line;
#X msg 148 173 \$1 100;
#X obj 71 197 line;
#X msg 71 173 \$1 100;
#X obj 106 3 inlet;
#X obj 148 3 inlet;
#X obj 224 3 inlet;
#X obj 209 285 hip~ 3000;
#X obj 133 285 lop~ 3000;
#X obj 133 262 hip~ 300;
#X obj 56 262 lop~ 300;
#X connect 0 0 30 0;
#X connect 1 0 0 1;
#X connect 2 0 27 0;
#X connect 3 0 2 1;
#X connect 4 0 8 0;
#X connect 5 0 7 0;
#X connect 6 0 5 0;
#X connect 7 0 8 1;
#X connect 8 0 0 0;
#X connect 8 0 12 0;
#X connect 8 0 2 0;
#X connect 9 0 17 0;
#X connect 12 0 29 0;
#X connect 13 0 12 1;
#X connect 15 0 16 0;
#X connect 16 0 14 0;
#X connect 17 0 6 0;
#X connect 18 0 3 0;
#X connect 19 0 18 0;
#X connect 20 0 13 0;
#X connect 21 0 20 0;
#X connect 22 0 1 0;
#X connect 23 0 22 0;
#X connect 24 0 23 0;
#X connect 25 0 21 0;
#X connect 26 0 19 0;
#X connect 27 0 16 1;
#X connect 28 0 15 1;
#X connect 29 0 28 0;
#X connect 30 0 15 0;
