#N canvas 260 23 548 374 10;
#X obj 53 159 + 50;
#X obj 53 137 random 200;
#X obj 24 318 outlet;
#X floatatom 24 244 5 0 0 0 A - -, f 5;
#X floatatom 164 244 5 0 0 0 D - -, f 5;
#X obj 193 137 random 200;
#X obj 24 137 + 7;
#X obj 24 115 random 43;
#X obj 164 137 + 3;
#X obj 164 115 random 42;
#X obj 193 159 + 45;
#X obj 88 181 + 25;
#X obj 88 159 random 250;
#X obj 88 203 * 11;
#X obj 227 203 * 9;
#X obj 227 181 + 101;
#X obj 227 159 random 299;
#X floatatom 304 244 5 0 0 0 S - -, f 5;
#X obj 331 160 random 100;
#X obj 331 182 / 100;
#X text 164 35 1:short+short 2:short+long 3:long+short 4:long+long
5:slong+sLong 6:oneshot;
#X obj 24 78 sel 0 1 2 3 4 5;
#X obj 164 78 sel 0 1 2 3 4 5;
#X obj 304 78 sel 5;
#X obj 331 137 b;
#X floatatom 414 244 5 0 0 0 R - -, f 5;
#X obj 441 160 random 100;
#X obj 414 78 sel 5;
#X obj 441 137 b;
#X obj 441 182 * 11;
#X obj 24 288 pack 0 0 0 0;
#X obj 64 49 hradio 15 1 0 6 empty empty empty 0 -8 0 10 -262144 -1
-1 5;
#X obj 24 49 inlet;
#X obj 24 264 pipe 100;
#X obj 22 6 cnv 15 10 10 empty empty ADSR_Randomizer 20 12 0 20 -262144
-66577 0;
#X obj 104 318 outlet;
#X obj 164 318 outlet;
#X obj 223 318 outlet;
#X obj 283 318 outlet;
#X text 245 14 By Junya Nakajima;
#X msg 304 115 0.1;
#X msg 414 115 1;
#X connect 0 0 3 0;
#X connect 1 0 0 0;
#X connect 3 0 33 0;
#X connect 3 0 35 0;
#X connect 4 0 30 1;
#X connect 4 0 36 0;
#X connect 5 0 10 0;
#X connect 6 0 3 0;
#X connect 7 0 6 0;
#X connect 8 0 4 0;
#X connect 9 0 8 0;
#X connect 10 0 4 0;
#X connect 11 0 13 0;
#X connect 12 0 11 0;
#X connect 13 0 3 0;
#X connect 14 0 4 0;
#X connect 15 0 14 0;
#X connect 16 0 15 0;
#X connect 17 0 30 2;
#X connect 17 0 37 0;
#X connect 18 0 19 0;
#X connect 19 0 17 0;
#X connect 21 0 7 0;
#X connect 21 1 7 0;
#X connect 21 2 1 0;
#X connect 21 3 1 0;
#X connect 21 4 12 0;
#X connect 21 5 7 0;
#X connect 22 0 9 0;
#X connect 22 1 5 0;
#X connect 22 2 9 0;
#X connect 22 3 5 0;
#X connect 22 4 16 0;
#X connect 22 5 9 0;
#X connect 23 0 40 0;
#X connect 23 1 24 0;
#X connect 24 0 18 0;
#X connect 25 0 30 3;
#X connect 25 0 38 0;
#X connect 26 0 29 0;
#X connect 27 0 41 0;
#X connect 27 1 28 0;
#X connect 28 0 26 0;
#X connect 29 0 25 0;
#X connect 30 0 2 0;
#X connect 31 0 21 0;
#X connect 31 0 22 0;
#X connect 31 0 23 0;
#X connect 31 0 27 0;
#X connect 32 0 21 0;
#X connect 32 0 22 0;
#X connect 32 0 23 0;
#X connect 32 0 27 0;
#X connect 33 0 30 0;
#X connect 40 0 17 0;
#X connect 41 0 25 0;
