#N canvas 0 22 609 641 10;
#X obj 33 48 inlet~;
#X obj 149 57 inlet;
#X obj 33 492 outlet~;
#X obj 96 492 outlet~;
#X text 40 512 left;
#X text 99 512 right;
#X text 140 538 (C) Copyright 2004 Hans-Christoph Steiner;
#X text 244 554 released under the GNU GPL;
#X obj 117 37 loadbang;
#X msg 117 57 0.5;
#X obj 347 181 / 2;
#X text 20 27 [gogins_pan~];
#X obj 378 103 loadbang;
#X obj 379 323 expr sqrt(2)/2;
#X obj 219 162 trigger float float;
#X obj 116 397 *;
#X obj 218 398 *;
#X obj 150 200 *;
#X obj 150 221 -;
#X obj 150 248 trigger float float;
#X obj 150 273 cos;
#X obj 278 272 sin;
#X text 111 466 the algorithm comes from Michael Gogins on the Csound
list;
#X obj 217 336 +;
#X obj 117 334 -;
#X obj 149 84 clip 0 1;
#N canvas 184 54 499 618 pan-core 0;
#X obj 21 106 inlet~;
#X obj 226 126 inlet;
#X obj 80 453 *~;
#X obj 80 482 outlet~;
#X obj 210 452 *~;
#X obj 210 481 outlet~;
#X text 87 502 left;
#X text 213 501 right;
#X text 140 528 (C) Copyright 2004 Hans-Christoph Steiner;
#X text 244 544 released under the GNU GPL;
#X obj 226 428 line~;
#X obj 96 428 line~;
#X obj 317 193 loadbang;
#X floatatom 325 254 7 0 0 3 blocksize_in_ms - -;
#X obj 300 194 bng 15 250 50 0 empty empty empty 0 -6 0 8 -262144 -1
-1;
#X obj 226 347 t f b;
#X obj 256 366 f;
#X obj 226 389 pack f f;
#X msg 226 409 \$1 \$2;
#X obj 96 347 t f b;
#X obj 126 366 f;
#X obj 96 389 pack f f;
#X msg 96 409 \$1 \$2;
#X obj 96 127 inlet;
#X text 20 27 [pan_core~];
#N canvas 766 197 433 359 blocksize_in_ms 0;
#X obj 188 272 outlet;
#X obj 174 41 inlet;
#X obj 174 66 bang;
#X text 219 41 bang to recalculate;
#X obj 174 134 samplerate~;
#X obj 188 202 /;
#X msg 174 180 64;
#X obj 174 161 t b f;
#X text 40 180 default block size:;
#X text 18 35 [blocksize_in_ms];
#X obj 188 239 * 1000;
#X text 45 288 TODO: make blocksize read from actual Pd setting;
#X connect 1 0 2 0;
#X connect 2 0 4 0;
#X connect 4 0 7 0;
#X connect 5 0 10 0;
#X connect 6 0 5 0;
#X connect 7 0 6 0;
#X connect 7 1 5 1;
#X connect 10 0 0 0;
#X restore 317 225 pd blocksize_in_ms;
#X connect 0 0 2 0;
#X connect 0 0 4 0;
#X connect 1 0 15 0;
#X connect 2 0 3 0;
#X connect 4 0 5 0;
#X connect 10 0 4 1;
#X connect 11 0 2 1;
#X connect 12 0 25 0;
#X connect 14 0 25 0;
#X connect 15 0 17 0;
#X connect 15 1 16 0;
#X connect 16 0 17 1;
#X connect 17 0 18 0;
#X connect 18 0 10 0;
#X connect 19 0 21 0;
#X connect 19 1 20 0;
#X connect 20 0 21 1;
#X connect 21 0 22 0;
#X connect 22 0 11 0;
#X connect 23 0 19 0;
#X connect 25 0 13 0;
#X connect 25 0 16 1;
#X connect 25 0 20 1;
#X restore 33 449 pd pan-core;
#N canvas 643 23 238 268 pi 0;
#X obj 46 66 inlet;
#X obj 92 195 outlet;
#X obj 92 108 bang;
#X obj 132 66 loadbang;
#X text 25 27 bang to get the value of pi;
#X msg 92 130 1;
#X obj 92 152 atan;
#X obj 92 174 * 4;
#X connect 0 0 2 0;
#X connect 2 0 5 0;
#X connect 3 0 2 0;
#X connect 5 0 6 0;
#X connect 6 0 7 0;
#X connect 7 0 1 0;
#X restore 219 138 pd pi;
#X connect 0 0 26 0;
#X connect 1 0 25 0;
#X connect 8 0 9 0;
#X connect 9 0 25 0;
#X connect 10 0 18 1;
#X connect 12 0 13 0;
#X connect 12 0 27 0;
#X connect 13 0 16 1;
#X connect 13 0 15 1;
#X connect 14 0 17 1;
#X connect 14 1 10 0;
#X connect 15 0 26 1;
#X connect 16 0 26 2;
#X connect 17 0 18 0;
#X connect 18 0 19 0;
#X connect 19 0 20 0;
#X connect 19 1 21 0;
#X connect 20 0 23 0;
#X connect 20 0 24 0;
#X connect 21 0 23 1;
#X connect 21 0 24 1;
#X connect 23 0 16 0;
#X connect 24 0 15 0;
#X connect 25 0 17 0;
#X connect 26 0 2 0;
#X connect 26 1 3 0;
#X connect 27 0 14 0;
