#N canvas 34 66 626 509 12;
#X obj 274 152 *~;
#X floatatom 2 78 5 0 0 3 - - -, f 5;
#X obj 2 13 tgl 25 0 empty empty on/off 0 -6 0 10 -99865 -262144 -66577
0 1;
#X msg 3 112 \; pd dsp \$1;
#X obj 433 152 *~;
#X obj 433 180 hip~ 5;
#X obj 274 211 dac~ 1 2;
#X obj 274 180 hip~ 5;
#X obj 187 123 line;
#X text 111 -4 By Junya Nakajima;
#X obj 187 98 pack 0 100;
#X obj 359 212 env~;
#X obj 359 235 - 100;
#X obj 433 213 env~;
#X obj 433 236 - 100;
#X obj 275 277 writesf~ 2;
#X obj 77 15 vu 10 80 empty empty -1 -8 0 10 -66577 -1 0 0;
#X obj 91 15 vu 10 80 empty empty -1 -8 0 10 -66577 -1 0 0;
#X obj 43 15 vsl 30 80 0 1 0 0 empty empty Master_Vol 0 -9 0 10 -99865
-228856 -1 5500 1;
#X obj 84 320 r~ from-aux1_l;
#X obj 102 342 r~ from-aux2_l;
#X obj 407 344 r~ from-aux2_r;
#X obj 389 322 r~ from-aux1_r;
#X msg 2 257 start;
#X msg 51 257 stop;
#X msg 34 231 open ../recording/2mix.wav;
#X obj 2 41 bng 15 250 50 0 empty empty Rec 17 7 0 10 -262144 -258113
-1;
#X obj 2 59 bng 15 250 50 0 empty empty Stop 17 7 0 10 -262144 -1 -1
;
#X obj 2 205 t b b;
#X obj 13 320 r~ ch1_l;
#X obj 21 344 r~ ch2_l;
#X obj 30 368 r~ ch3_l;
#X obj 308 320 r~ ch1_r;
#X obj 319 344 r~ ch2_r;
#X obj 330 368 r~ ch3_r;
#X obj 13 408 throw~ master-out-l;
#X obj 308 408 throw~ master-out-r;
#X obj 274 126 catch~ master-out-l;
#X obj 433 126 catch~ master-out-r;
#X obj 397 280 send~ 2mix-L;
#X obj 507 280 send~ 2mix-R;
#X connect 0 0 7 0;
#X connect 2 0 3 0;
#X connect 4 0 5 0;
#X connect 5 0 6 1;
#X connect 5 0 13 0;
#X connect 5 0 15 1;
#X connect 5 0 40 0;
#X connect 7 0 6 0;
#X connect 7 0 11 0;
#X connect 7 0 15 0;
#X connect 7 0 39 0;
#X connect 8 0 1 0;
#X connect 8 0 0 1;
#X connect 8 0 4 1;
#X connect 10 0 8 0;
#X connect 11 0 12 0;
#X connect 12 0 16 0;
#X connect 13 0 14 0;
#X connect 14 0 17 0;
#X connect 18 0 10 0;
#X connect 19 0 35 0;
#X connect 20 0 35 0;
#X connect 21 0 36 0;
#X connect 22 0 36 0;
#X connect 23 0 15 0;
#X connect 24 0 15 0;
#X connect 25 0 15 0;
#X connect 26 0 28 0;
#X connect 27 0 24 0;
#X connect 28 0 23 0;
#X connect 28 1 25 0;
#X connect 29 0 35 0;
#X connect 30 0 35 0;
#X connect 31 0 35 0;
#X connect 32 0 36 0;
#X connect 33 0 36 0;
#X connect 34 0 36 0;
#X connect 37 0 0 0;
#X connect 38 0 4 0;
#X coords 0 -1 1 1 105 100 2 0 0;
