#N canvas 492 300 426 302 10;
#X floatatom 96 50 5 0 0 2 BPM - -, f 5;
#X obj 96 131 / 120;
#X msg 96 109 60000;
#X obj 61 35 tgl 30 0 empty empty empty 17 7 0 10 -99865 -4032 -1 0
1;
#X obj 26 35 bng 30 250 50 0 empty empty empty 17 7 0 10 -99865 -258113
-1;
#X obj 96 82 t b f;
#X text 32 261 By Junya Nakajima;
#X text 50 214 4note;
#X text 136 215 16note;
#X obj 31 82 s start-1;
#X obj 39 195 metro 1000;
#X obj 39 171 r start-1;
#X obj 126 195 metro 1000;
#X obj 126 171 r start-1;
#X obj 189 171 / 4;
#X obj 39 239 s tempoBang-4;
#X obj 126 239 s tempoBang-16;
#X obj 287 195 metro 1000;
#X obj 287 171 r start-1;
#X obj 287 239 s tempoBang-32;
#X obj 350 171 / 8;
#X text 297 215 32note;
#X obj 215 33 loadbang;
#X obj 144 33 r set-bpm;
#X msg 215 54 120;
#X connect 0 0 5 0;
#X connect 1 0 10 1;
#X connect 1 0 14 0;
#X connect 1 0 20 0;
#X connect 2 0 1 0;
#X connect 3 0 9 0;
#X connect 5 0 2 0;
#X connect 5 1 1 1;
#X connect 10 0 15 0;
#X connect 10 0 4 0;
#X connect 11 0 10 0;
#X connect 12 0 16 0;
#X connect 13 0 12 0;
#X connect 14 0 12 1;
#X connect 17 0 19 0;
#X connect 18 0 17 0;
#X connect 20 0 17 1;
#X connect 22 0 24 0;
#X connect 23 0 0 0;
#X connect 24 0 0 0;
#X coords 0 -1 1 1 115 40 2 20 30;
