#N canvas 67 220 1066 472 10;
#X obj 728 367 route 0 4 8 12 16 20 24 28 32 36 40 44 48 52 56 60;
#X obj 136 413 outlet;
#X obj 713 396 route 2 6 10 14 18 22 26 30 34 38 42 46 50 54 58 62
;
#X text 869 271 16-beat;
#X text 732 268 8-beat;
#X text 600 268 4-beat;
#X obj 240 367 route 0 8 16 24 32 40 48 56;
#X text 244 268 2-beat;
#X obj 410 367 route 4 12 20 28 36 44 52 60;
#X text 414 268 2ura-beat;
#X obj 136 367 route 0 16 32 48;
#X text 140 268 1-beat;
#X obj 244 177 gate 7;
#X obj 326 52 + 1;
#X obj 326 21 inlet;
#X obj 501 21 inlet;
#X obj 897 310 +;
#X obj 756 311 +;
#X obj 624 309 +;
#X obj 438 311 +;
#X obj 268 311 +;
#X obj 164 311 +;
#X obj 406 21 inlet;
#X obj 406 51 sel 0 1 2;
#X msg 406 76 -12;
#X msg 439 76 0;
#X msg 469 76 12;
#X obj 136 21 inlet;
#X obj 183 141 gate;
#X obj 230 141 gate;
#X obj 277 141 gate;
#X obj 541 21 inlet;
#X obj 581 21 inlet;
#X text 620 22 note;
#X text 442 20 oct;
#X text 360 21 beat;
#X text 175 20 harmny;
#X text 759 11 1;
#X text 775 11 2;
#X text 805 11 4;
#X text 820 11 8;
#X text 832 11 16;
#X obj 669 27 hradio 15 1 0 4 empty empty empty 0 -8 0 10 -262144 -1
-1 0;
#X text 820 11 8;
#X obj 756 27 hradio 15 1 1 6 empty empty empty 0 -8 0 10 -262144 -1
-1 5;
#X obj 848 27 hradio 15 1 1 3 empty empty empty 0 -8 0 10 -262144 -1
-1 1;
#X floatatom 66 87 5 0 0 0 - - -, f 5;
#X obj 136 42 expr if($i1 == 0 \, 1 \, 0) \; if($i1 == 1 \, 1 \, 0)
\; if($i1 == 2 \, 1 \, 0) \; if($i1 == 3 \, 1 \, 0);
#X obj 66 68 b;
#X obj 38 20 inlet;
#X text 99 20 note;
#X obj 136 141 gate;
#X obj 136 285 unpack 0 0 0;
#X obj 136 338 pack 0 0 0;
#X obj 240 338 pack 0 0 0;
#X obj 240 285 unpack 0 0 0;
#X obj 410 285 unpack 0 0 0;
#X obj 410 338 pack 0 0 0;
#X obj 596 285 unpack 0 0 0;
#X obj 596 338 pack 0 0 0;
#X obj 728 338 pack 0 0 0;
#X obj 728 285 unpack 0 0 0;
#X obj 867 287 unpack 0 0 0;
#X obj 867 340 pack 0 0;
#X obj 38 45 unpack 0 0 0;
#X obj 38 105 pack 0 0 0;
#X connect 0 0 1 0;
#X connect 0 1 1 0;
#X connect 0 2 1 0;
#X connect 0 3 1 0;
#X connect 0 4 1 0;
#X connect 0 5 1 0;
#X connect 0 6 1 0;
#X connect 0 7 1 0;
#X connect 0 8 1 0;
#X connect 0 9 1 0;
#X connect 0 10 1 0;
#X connect 0 11 1 0;
#X connect 0 12 1 0;
#X connect 0 13 1 0;
#X connect 0 14 1 0;
#X connect 0 15 1 0;
#X connect 2 0 1 0;
#X connect 2 1 1 0;
#X connect 2 2 1 0;
#X connect 2 3 1 0;
#X connect 2 4 1 0;
#X connect 2 5 1 0;
#X connect 2 6 1 0;
#X connect 2 7 1 0;
#X connect 2 8 1 0;
#X connect 2 9 1 0;
#X connect 2 10 1 0;
#X connect 2 11 1 0;
#X connect 2 12 1 0;
#X connect 2 13 1 0;
#X connect 2 14 1 0;
#X connect 2 15 1 0;
#X connect 6 0 1 0;
#X connect 6 1 1 0;
#X connect 6 2 1 0;
#X connect 6 3 1 0;
#X connect 6 4 1 0;
#X connect 6 5 1 0;
#X connect 6 6 1 0;
#X connect 6 7 1 0;
#X connect 8 0 1 0;
#X connect 8 1 1 0;
#X connect 8 2 1 0;
#X connect 8 3 1 0;
#X connect 8 4 1 0;
#X connect 8 5 1 0;
#X connect 8 6 1 0;
#X connect 8 7 1 0;
#X connect 10 0 1 0;
#X connect 10 1 1 0;
#X connect 10 2 1 0;
#X connect 10 3 1 0;
#X connect 12 0 52 0;
#X connect 12 1 55 0;
#X connect 12 2 56 0;
#X connect 12 3 58 0;
#X connect 12 4 61 0;
#X connect 12 5 62 0;
#X connect 13 0 12 0;
#X connect 14 0 13 0;
#X connect 15 0 28 1;
#X connect 15 0 64 0;
#X connect 16 0 63 0;
#X connect 17 0 60 1;
#X connect 18 0 59 1;
#X connect 19 0 57 1;
#X connect 20 0 54 1;
#X connect 21 0 53 1;
#X connect 22 0 23 0;
#X connect 23 0 24 0;
#X connect 23 1 25 0;
#X connect 23 2 26 0;
#X connect 24 0 21 1;
#X connect 24 0 20 1;
#X connect 24 0 19 1;
#X connect 24 0 18 1;
#X connect 24 0 17 1;
#X connect 24 0 16 1;
#X connect 25 0 21 1;
#X connect 25 0 20 1;
#X connect 25 0 19 1;
#X connect 25 0 18 1;
#X connect 25 0 17 1;
#X connect 25 0 16 1;
#X connect 26 0 21 1;
#X connect 26 0 20 1;
#X connect 26 0 19 1;
#X connect 26 0 18 1;
#X connect 26 0 17 1;
#X connect 26 0 16 1;
#X connect 27 0 47 0;
#X connect 28 0 12 1;
#X connect 29 0 12 1;
#X connect 30 0 12 1;
#X connect 31 0 29 1;
#X connect 32 0 30 1;
#X connect 42 0 47 0;
#X connect 44 0 13 0;
#X connect 45 0 23 0;
#X connect 46 0 65 1;
#X connect 47 0 51 0;
#X connect 47 1 28 0;
#X connect 47 2 29 0;
#X connect 47 3 30 0;
#X connect 48 0 46 0;
#X connect 49 0 46 0;
#X connect 51 0 12 1;
#X connect 52 0 53 0;
#X connect 52 1 21 0;
#X connect 52 2 53 2;
#X connect 53 0 10 0;
#X connect 54 0 6 0;
#X connect 55 0 54 0;
#X connect 55 1 20 0;
#X connect 55 2 54 2;
#X connect 56 0 57 0;
#X connect 56 1 19 0;
#X connect 56 2 57 2;
#X connect 57 0 8 0;
#X connect 58 0 59 0;
#X connect 58 1 18 0;
#X connect 58 2 59 2;
#X connect 59 0 0 0;
#X connect 60 0 0 0;
#X connect 60 0 2 0;
#X connect 61 0 60 0;
#X connect 61 1 17 0;
#X connect 61 2 60 2;
#X connect 62 1 16 0;
#X connect 62 2 63 1;
#X connect 63 0 1 0;
#X connect 64 0 65 0;
#X connect 64 1 48 0;
#X connect 64 2 65 2;
#X connect 65 0 51 1;
