#N canvas 93 218 302 377 10;
#X floatatom 80 -58 5 0 100 1 pan - -;
#X obj 80 55 expr 1-$f1;
#X obj -12 166 *~;
#X obj 31 166 *~;
#X obj 80 28 * 0.01;
#X obj 153 103 line~;
#X obj 81 103 line~;
#X obj 81 81 pack 0 100;
#X obj 153 81 pack 0 100;
#X text 119 -122 by Junya Nakajima;
#X obj -12 192 outlet~;
#X obj 37 192 outlet~;
#X obj -11 -124 inlet~;
#X obj -12 134 *~;
#X obj 3 97 line~;
#X obj 3 66 pack 0 100;
#X obj 37 -124 inlet;
#X obj 80 -124 inlet;
#X floatatom 3 -60 5 0 127 1 Vol - -;
#X obj 3 40 / 127;
#X connect 0 0 4 0;
#X connect 1 0 7 0;
#X connect 2 0 10 0;
#X connect 3 0 11 0;
#X connect 4 0 1 0;
#X connect 4 0 8 0;
#X connect 5 0 3 1;
#X connect 6 0 2 1;
#X connect 7 0 6 0;
#X connect 8 0 5 0;
#X connect 12 0 13 0;
#X connect 13 0 2 0;
#X connect 13 0 3 0;
#X connect 14 0 13 1;
#X connect 15 0 14 0;
#X connect 16 0 18 0;
#X connect 17 0 0 0;
#X connect 18 0 19 0;
#X connect 19 0 15 0;
#X coords 0 377 1 376 40 135 0;
