#N canvas 262 27 971 546 10;
#X obj 104 -321 mtof;
#X floatatom 104 -298 5 0 0 1 Freq - -;
#X floatatom 104 -343 5 0 0 0 - - -;
#X obj 146 -11 *~;
#X obj 555 -28 vline~;
#X obj 555 -84 pack f f f f;
#X msg 555 -62 1 \$2 \, \$4 \$3 \$2;
#X text 711 -84 A(\$2):Attack(time);
#X text 711 -68 D(\$3):Decay(time);
#X obj 649 -84 pack f f;
#X msg 649 -62 0 \$2;
#X text 711 -38 R:Release(time);
#X text 711 -53 S(\$4):Sustain(vol);
#X obj 55 -101 sel 1 0;
#X obj 55 -120 tgl 15 0 empty empty note_on/off 17 7 0 10 -262144 -1
-1 0 1;
#X floatatom 578 -111 6 0 0 2 A_(time) - -;
#X floatatom 630 -111 6 0 0 2 D_(time) - -;
#X floatatom 729 -111 6 0 0 2 R_(time) - -;
#X floatatom 683 -111 6 0 1 2 S_(vol) - -;
#X obj 578 -397 inlet;
#X text 578 -417 A;
#X obj 630 -397 inlet;
#X obj 683 -397 inlet;
#X obj 729 -397 inlet;
#X text 629 -417 D;
#X text 683 -417 S;
#X text 729 -417 R;
#X msg 82 -261 1;
#X msg 55 -143 0;
#X obj 55 -164 del 100;
#X obj 55 -327 t b b;
#X obj 161 -343 / 127;
#X floatatom 161 -313 5 0 0 0 - - -;
#X text 165 -328 velocity;
#X obj 146 34 *~;
#X obj 94 -186 int;
#X obj 161 11 vline~;
#X msg 161 -37 \$1 20;
#X obj 528 -95 +;
#X obj 448 -157 osc~;
#X obj 146 -140 *~;
#X floatatom 448 -175 5 0 0 1 LFO - -;
#X floatatom 526 -124 5 0 1 0 - - -;
#X obj 526 -146 line;
#X msg 526 -170 \$1 100;
#X obj 146 -108 lop~ 25000;
#X obj 526 -397 inlet;
#X obj 104 -397 inlet;
#X obj 225 -397 inlet;
#X obj 343 -397 inlet;
#X obj 448 -397 inlet;
#X obj 104 -371 unpack 0 0;
#X obj 146 73 outlet~;
#X obj -5 -397 loadbang;
#X obj 210 -200 osc~;
#X obj 210 -226 * 2;
#X obj 245 -200 osc~;
#X obj 245 -226 * 3;
#X obj 279 -200 osc~;
#X obj 146 -200 osc~;
#X obj 279 -226 * 4;
#X obj 210 -177 *~;
#X obj 245 -177 *~;
#X obj 279 -177 *~;
#X obj 146 -177 *~;
#X obj 314 -200 osc~;
#X obj 314 -177 *~;
#X obj 314 -226 * 5;
#X obj 225 -313 unpack 0 0 0 0;
#X msg -5 -330 2 3 4 5;
#X msg 791 -359 3 5 7 9;
#X msg 806 -336 2 4 6 8;
#X obj 343 -312 unpack 0 0 0 0 0;
#X msg 804 -246 1 0 0 0 0;
#X msg -5 -305 1 1 1 1 1;
#X connect 0 0 1 0;
#X connect 1 0 59 0;
#X connect 1 0 55 0;
#X connect 1 0 57 0;
#X connect 1 0 60 0;
#X connect 1 0 67 0;
#X connect 2 0 0 0;
#X connect 2 0 30 0;
#X connect 3 0 34 0;
#X connect 4 0 3 1;
#X connect 5 0 6 0;
#X connect 6 0 4 0;
#X connect 9 0 10 0;
#X connect 10 0 4 0;
#X connect 13 0 5 0;
#X connect 13 1 9 0;
#X connect 14 0 13 0;
#X connect 15 0 5 1;
#X connect 15 0 38 0;
#X connect 16 0 5 2;
#X connect 16 0 38 1;
#X connect 17 0 9 1;
#X connect 18 0 5 3;
#X connect 19 0 15 0;
#X connect 21 0 16 0;
#X connect 22 0 18 0;
#X connect 23 0 17 0;
#X connect 27 0 14 0;
#X connect 28 0 14 0;
#X connect 29 0 28 0;
#X connect 30 0 29 0;
#X connect 30 1 27 0;
#X connect 31 0 32 0;
#X connect 32 0 37 0;
#X connect 34 0 52 0;
#X connect 35 0 29 1;
#X connect 36 0 34 1;
#X connect 37 0 36 0;
#X connect 38 0 35 0;
#X connect 39 0 40 1;
#X connect 40 0 45 0;
#X connect 41 0 39 0;
#X connect 42 0 45 1;
#X connect 43 0 42 0;
#X connect 44 0 43 0;
#X connect 45 0 3 0;
#X connect 46 0 44 0;
#X connect 47 0 51 0;
#X connect 48 0 68 0;
#X connect 49 0 72 0;
#X connect 50 0 41 0;
#X connect 51 0 2 0;
#X connect 51 1 31 0;
#X connect 53 0 69 0;
#X connect 53 0 74 0;
#X connect 54 0 61 0;
#X connect 55 0 54 0;
#X connect 56 0 62 0;
#X connect 57 0 56 0;
#X connect 58 0 63 0;
#X connect 59 0 64 0;
#X connect 60 0 58 0;
#X connect 61 0 40 0;
#X connect 62 0 40 0;
#X connect 63 0 40 0;
#X connect 64 0 40 0;
#X connect 65 0 66 0;
#X connect 66 0 40 0;
#X connect 67 0 65 0;
#X connect 68 0 55 1;
#X connect 68 1 57 1;
#X connect 68 2 60 1;
#X connect 68 3 67 1;
#X connect 69 0 68 0;
#X connect 70 0 68 0;
#X connect 71 0 68 0;
#X connect 72 0 64 1;
#X connect 72 1 61 1;
#X connect 72 2 62 1;
#X connect 72 3 63 1;
#X connect 72 4 66 1;
#X connect 73 0 72 0;
#X connect 74 0 72 0;
#X coords 0 546 1 545 230 190 0;
