#N canvas 226 23 891 551 10;
#X obj 104 -190 mtof;
#X floatatom 104 -167 5 0 0 1 Fundamental_freq - -;
#X floatatom 104 -212 5 0 0 0 - - -;
#X obj 146 120 *~;
#X obj 555 103 vline~;
#X obj 555 47 pack f f f f;
#X msg 555 69 1 \$2 \, \$4 \$3 \$2;
#X text 711 47 A(\$2):Attack(time);
#X text 711 63 D(\$3):Decay(time);
#X obj 649 47 pack f f;
#X msg 649 69 0 \$2;
#X text 711 93 R:Release(time);
#X text 711 78 S(\$4):Sustain(vol);
#X obj 55 30 sel 1 0;
#X obj 55 11 tgl 15 0 empty empty note_on/off 17 7 0 10 -262144 -1
-1 0 1;
#X floatatom 578 20 6 0 0 2 A_(time) - -;
#X floatatom 630 20 6 0 0 2 D_(time) - -;
#X floatatom 729 20 6 0 0 2 R_(time) - -;
#X floatatom 683 20 6 0 1 2 S_(vol) - -;
#X obj 578 -266 inlet;
#X text 578 -286 A;
#X obj 630 -266 inlet;
#X obj 683 -266 inlet;
#X obj 729 -266 inlet;
#X text 629 -286 D;
#X text 683 -286 S;
#X text 729 -286 R;
#X msg 82 -130 1;
#X msg 55 -12 0;
#X obj 55 -33 del 100;
#X obj 55 -196 t b b;
#X obj 161 -212 / 127;
#X floatatom 161 -182 5 0 0 0 - - -;
#X text 198 -208 velocity;
#X obj 146 165 *~;
#X obj 94 -55 int;
#X obj 161 142 vline~;
#X msg 161 94 \$1 20;
#X obj 190 -86 phasor~;
#X obj 528 36 +;
#X obj 190 -55 *~;
#X obj 146 -55 *~;
#X obj 243 -125 expr 1-$f1;
#X obj 243 -81 line~;
#X obj 243 -103 pack 0 500;
#X obj 313 -81 line~;
#X obj 313 -103 pack 0 500;
#X obj 246 -145 hsl 64 15 0 1 0 0 empty empty empty -2 -8 0 10 -262144
-1 -1 0 1;
#X obj 146 -32 +~;
#X obj 448 -26 osc~;
#X obj 146 -9 *~;
#X floatatom 448 -44 5 0 0 1 LFO - -;
#X obj 146 -86 cycle~;
#X obj 146 -118 +~;
#X obj 318 -135 *~;
#X floatatom 368 -151 5 0 0 1 Modulation_index - -;
#X floatatom 318 -178 5 0 0 1 Modulator - -;
#X obj 318 -156 osc~;
#X floatatom 526 7 5 0 1 0 - - -;
#X obj 526 -15 line;
#X msg 526 -39 \$1 100;
#X obj 146 23 lop~ 25000;
#X obj 526 -266 inlet;
#X obj 104 -266 inlet;
#X obj 243 -266 inlet;
#X obj 318 -266 inlet;
#X obj 368 -266 inlet;
#X obj 448 -266 inlet;
#X obj 104 -240 unpack 0 0;
#X obj 146 204 outlet~;
#X obj 13 -266 loadbang;
#X msg 13 -162 0;
#X connect 0 0 1 0;
#X connect 1 0 53 0;
#X connect 2 0 0 0;
#X connect 2 0 30 0;
#X connect 3 0 34 0;
#X connect 4 0 3 1;
#X connect 5 0 6 0;
#X connect 6 0 4 0;
#X connect 9 0 10 0;
#X connect 10 0 4 0;
#X connect 13 0 5 0;
#X connect 13 1 9 0;
#X connect 14 0 13 0;
#X connect 15 0 5 1;
#X connect 15 0 39 0;
#X connect 16 0 5 2;
#X connect 16 0 39 1;
#X connect 17 0 9 1;
#X connect 18 0 5 3;
#X connect 19 0 15 0;
#X connect 21 0 16 0;
#X connect 22 0 18 0;
#X connect 23 0 17 0;
#X connect 27 0 14 0;
#X connect 28 0 14 0;
#X connect 29 0 28 0;
#X connect 30 0 29 0;
#X connect 30 1 27 0;
#X connect 31 0 32 0;
#X connect 32 0 37 0;
#X connect 34 0 69 0;
#X connect 35 0 29 1;
#X connect 36 0 34 1;
#X connect 37 0 36 0;
#X connect 38 0 40 0;
#X connect 39 0 35 0;
#X connect 40 0 48 1;
#X connect 41 0 48 0;
#X connect 42 0 44 0;
#X connect 43 0 41 1;
#X connect 44 0 43 0;
#X connect 45 0 40 1;
#X connect 46 0 45 0;
#X connect 47 0 42 0;
#X connect 47 0 46 0;
#X connect 48 0 50 0;
#X connect 49 0 50 1;
#X connect 50 0 61 0;
#X connect 51 0 49 0;
#X connect 52 0 41 0;
#X connect 53 0 38 0;
#X connect 53 0 52 0;
#X connect 54 0 53 1;
#X connect 55 0 54 1;
#X connect 56 0 57 0;
#X connect 57 0 54 0;
#X connect 58 0 61 1;
#X connect 59 0 58 0;
#X connect 60 0 59 0;
#X connect 61 0 3 0;
#X connect 62 0 60 0;
#X connect 63 0 68 0;
#X connect 64 0 47 0;
#X connect 65 0 56 0;
#X connect 66 0 55 0;
#X connect 67 0 51 0;
#X connect 68 0 2 0;
#X connect 68 1 31 0;
#X connect 70 0 71 0;
#X connect 71 0 47 0;
#X coords 0 551 1 550 230 190 0;
