#N canvas 30 23 1212 699 10;
#X obj 71 152 mtof;
#X floatatom 71 175 10 0 0 1 Fundamental_freq - -, f 10;
#X obj 142 562 *~;
#X obj 911 545 vline~;
#X obj 911 489 pack f f f f;
#X msg 911 511 1 \$2 \, \$4 \$3 \$2;
#X text 1067 489 A(\$2):Attack(time);
#X text 1067 505 D(\$3):Decay(time);
#X obj 1005 489 pack f f;
#X msg 1005 511 0 \$2;
#X text 1067 535 R:Release(time);
#X text 1067 520 S(\$4):Sustain(vol);
#X obj 10 472 sel 1 0;
#X obj 10 336 tgl 15 0 empty empty note_on/off 17 7 0 10 -262144 -1
-1 0 1;
#X floatatom 934 462 6 0 0 2 A_(time) - -, f 6;
#X floatatom 986 462 6 0 0 2 D_(time) - -, f 6;
#X floatatom 1085 462 6 0 0 2 R_(time) - -, f 6;
#X floatatom 1039 462 6 0 1 2 S_(vol) - -, f 6;
#X obj 934 76 inlet;
#X msg 37 148 1;
#X msg 10 301 0;
#X obj 10 280 del 100;
#X obj 10 119 t b b;
#X obj 157 130 / 127;
#X floatatom 157 153 5 0 0 0 - - -, f 5;
#X text 194 131 velocity;
#X obj 142 607 *~;
#X obj 49 495 int;
#X obj 157 584 vline~;
#X msg 157 536 \$1 20;
#X obj 884 478 +;
#X obj 305 383 *~;
#X obj 142 383 *~;
#X obj 509 317 expr 1-$f1;
#X obj 509 361 line~;
#X obj 509 339 pack 0 500;
#X obj 579 361 line~;
#X obj 579 339 pack 0 500;
#X obj 512 297 hsl 64 15 0 1 0 0 empty empty empty -2 -8 0 10 -262144
-1 -1 0 1;
#X obj 142 404 +~;
#X obj 175 445 *~;
#X floatatom 717 98 5 0 0 1 LFO - -, f 5;
#X obj 142 310 +~;
#X obj 354 277 *~;
#X floatatom 404 261 5 0 0 1 Mod_amp(brightness) - -, f 5;
#X floatatom 354 236 10 0 0 1 Modulator - -, f 10;
#X floatatom 839 479 5 0 1 0 - - -, f 5;
#X obj 839 160 line;
#X msg 839 136 \$1 100;
#X obj 142 495 lop~ 25000;
#X obj 509 76 inlet;
#X obj 717 76 inlet;
#X obj 71 102 unpack 0 0;
#X obj 142 646 outlet~;
#X obj 988 15 loadbang;
#X msg 1039 280 0;
#X obj 354 76 inlet;
#X obj 404 76 inlet;
#X floatatom 782 453 5 0 1 0 - - -, f 5;
#X obj 782 160 line;
#X msg 782 136 \$1 100;
#X obj 142 469 hip~ 10;
#X obj 782 76 inlet;
#X text 184 332 carrier;
#N canvas 305 160 616 349 noise-gen 0;
#X obj 76 -332 noise~;
#X floatatom 216 -273 5 0 1 0 - - -, f 5;
#X obj 216 -295 line;
#X msg 216 -319 \$1 100;
#X obj 76 -257 lop~ 25000;
#X obj 216 -386 inlet;
#X floatatom 156 -303 5 0 1 0 - - -, f 5;
#X obj 156 -325 line;
#X msg 156 -349 \$1 100;
#X obj 76 -287 hip~ 10;
#X obj 156 -386 inlet;
#X obj 76 -150 *~;
#X obj 288 -167 vline~;
#X obj 288 -223 pack f f f f;
#X msg 288 -201 1 \$2 \, \$4 \$3 \$2;
#X text 451 -223 A(\$2):Attack(time);
#X text 451 -207 D(\$3):Decay(time);
#X obj 382 -223 pack f f;
#X msg 382 -201 0 \$2;
#X text 451 -177 R:Release(time);
#X text 451 -192 S(\$4):Sustain(vol);
#X floatatom 338 -250 6 0 0 2 A_(time) - -, f 6;
#X floatatom 390 -250 6 0 0 2 D_(time) - -, f 6;
#X floatatom 489 -250 6 0 0 2 R_(time) - -, f 6;
#X floatatom 443 -250 6 0 1 2 S_(vol) - -, f 6;
#X obj 338 -386 inlet;
#X text 338 -406 A;
#X obj 390 -386 inlet;
#X obj 443 -386 inlet;
#X obj 489 -386 inlet;
#X text 389 -406 D;
#X text 443 -406 S;
#X text 489 -406 R;
#X obj 76 -108 outlet~;
#X obj 288 -250 sel 1 0;
#X obj 288 -386 inlet;
#X connect 0 0 9 0;
#X connect 1 0 4 1;
#X connect 2 0 1 0;
#X connect 3 0 2 0;
#X connect 4 0 11 0;
#X connect 5 0 3 0;
#X connect 6 0 9 1;
#X connect 7 0 6 0;
#X connect 8 0 7 0;
#X connect 9 0 4 0;
#X connect 10 0 8 0;
#X connect 11 0 33 0;
#X connect 12 0 11 1;
#X connect 13 0 14 0;
#X connect 14 0 12 0;
#X connect 17 0 18 0;
#X connect 18 0 12 0;
#X connect 21 0 13 1;
#X connect 22 0 13 2;
#X connect 23 0 17 1;
#X connect 24 0 13 3;
#X connect 25 0 21 0;
#X connect 27 0 22 0;
#X connect 28 0 24 0;
#X connect 29 0 23 0;
#X connect 34 0 13 0;
#X connect 34 1 17 0;
#X connect 35 0 34 0;
#X restore 305 351 pd noise-gen;
#X obj 354 256 cycle~;
#X obj 142 333 cycle~;
#X obj 215 96 hradio 15 1 0 2 empty empty empty 0 -8 0 10 -262144 -1
-1 0;
#X obj 215 76 inlet;
#X text 208 59 OSC_mode;
#X obj 354 297 demultiplex~ . .;
#X obj 142 362 +~;
#X obj 215 223 sel 0;
#X obj 665 97 hradio 15 1 0 2 empty empty empty 0 -8 0 10 -262144 -1
-1 0;
#X obj 665 76 inlet;
#X obj 313 219 * 2;
#X obj 280 96 hradio 15 1 0 4 empty empty empty 0 -8 0 10 -262144 -1
-1 0;
#X obj 280 76 inlet;
#X obj 280 219 *;
#X text 281 59 OSC_sync_mode;
#X obj 280 191 gate 3;
#X obj 365 179 expr if($f2 == 1 \, $f1 \, 0);
#X obj 354 159 expr if($f2 == 0 \, $f1 \, 0);
#X floatatom 354 138 5 0 0 0 - - -, f 5;
#X obj 365 202 expr if($f1 <= 5 \, $f1 \, 5);
#X obj 559 76 inlet;
#X obj 609 76 inlet;
#X text 559 59 noise;
#X text 609 59 noise;
#X text 557 93 filter;
#X text 618 93 ADSR;
#X obj 379 327 unpack 0 0 0 0;
#X obj 305 327 unpack 0 0;
#X obj 934 425 unpack 0 0 0 0;
#X obj 782 108 unpack 0 0;
#X text 781 59 filter;
#X text 934 58 ADSR;
#X msg 988 59 0;
#X obj 988 78 t f f f b;
#N canvas 818 109 450 300 note-slide 0;
#X obj 37 230 line;
#X floatatom 37 165 5 0 0 0 - - -, f 5;
#X obj 37 185 pack f f;
#X msg 37 207 \$1 \$2;
#X obj 37 108 t f f;
#X msg 80 213 set \$1;
#X floatatom 82 109 5 0 0 0 - - -, f 5;
#X obj 257 152 +;
#X floatatom 109 169 5 0 0 0 - - -, f 5;
#X obj 37 129 +;
#X obj 82 129 sel 0;
#X msg 82 164 0;
#X obj 109 150 b;
#X obj 37 43 inlet;
#X obj 37 252 outlet;
#X obj 122 45 hradio 15 1 0 5 empty empty empty 0 -8 0 10 -262144 -1
-1 0;
#X obj 82 64 sel 0 1 2 3 4;
#X msg 140 86 0;
#X obj 82 43 inlet;
#X obj 257 43 inlet;
#X obj 302 43 inlet;
#X floatatom 257 127 5 0 0 0 - - -, f 5;
#X floatatom 302 87 5 0 0 0 - - -, f 5;
#X obj 269 103 b;
#X msg 110 86 -12;
#X msg 82 86 -24;
#X msg 168 86 12;
#X msg 196 86 24;
#X connect 0 0 14 0;
#X connect 1 0 2 0;
#X connect 2 0 3 0;
#X connect 3 0 0 0;
#X connect 4 0 9 0;
#X connect 4 1 5 0;
#X connect 5 0 0 0;
#X connect 6 0 9 1;
#X connect 6 0 10 0;
#X connect 7 0 8 0;
#X connect 8 0 2 1;
#X connect 9 0 1 0;
#X connect 10 0 11 0;
#X connect 10 1 12 0;
#X connect 11 0 2 1;
#X connect 12 0 8 0;
#X connect 13 0 4 0;
#X connect 15 0 16 0;
#X connect 16 0 25 0;
#X connect 16 1 24 0;
#X connect 16 2 17 0;
#X connect 16 3 26 0;
#X connect 16 4 27 0;
#X connect 17 0 6 0;
#X connect 18 0 16 0;
#X connect 19 0 21 0;
#X connect 20 0 22 0;
#X connect 21 0 7 0;
#X connect 22 0 7 1;
#X connect 22 0 23 0;
#X connect 23 0 21 0;
#X connect 24 0 6 0;
#X connect 25 0 6 0;
#X connect 26 0 6 0;
#X connect 27 0 6 0;
#X restore 71 130 pd note-slide;
#X obj 71 76 inlet;
#X obj 112 76 inlet;
#X text 113 60 slide;
#X obj 988 38 t b b;
#X msg 1015 59 1;
#X obj 364 111 t b f;
#X msg 215 244 1;
#X obj 1091 123 env~;
#X obj 1091 146 - 100;
#X obj 1092 169 vu 10 80 empty empty -1 -8 0 10 -66577 -1 0 0;
#X obj 650 276 *~;
#X obj 665 211 expr 1-$f1;
#X obj 665 255 line~;
#X obj 752 255 line~;
#X obj 737 276 *~;
#X obj 665 233 pack 0 50;
#X obj 752 233 pack 0 50;
#X obj 650 189 osc~;
#X obj 737 212 phasor~;
#X obj 650 428 demux~;
#X obj 717 408 expr if($f1 == 0 \, 0 \, 1);
#X obj 142 425 demux~;
#X text 213 112 AD;
#X text 229 112 FM;
#X connect 0 0 1 0;
#X connect 1 0 80 1;
#X connect 1 0 42 0;
#X connect 2 0 26 0;
#X connect 3 0 2 1;
#X connect 4 0 5 0;
#X connect 5 0 3 0;
#X connect 8 0 9 0;
#X connect 9 0 3 0;
#X connect 12 0 4 0;
#X connect 12 1 8 0;
#X connect 13 0 12 0;
#X connect 13 0 64 2;
#X connect 14 0 4 1;
#X connect 14 0 30 0;
#X connect 14 0 99 2;
#X connect 15 0 4 2;
#X connect 15 0 30 1;
#X connect 15 0 99 3;
#X connect 16 0 8 1;
#X connect 17 0 4 3;
#X connect 18 0 93 0;
#X connect 19 0 13 0;
#X connect 20 0 13 0;
#X connect 21 0 20 0;
#X connect 22 0 21 0;
#X connect 22 1 19 0;
#X connect 23 0 24 0;
#X connect 24 0 29 0;
#X connect 26 0 53 0;
#X connect 27 0 21 1;
#X connect 28 0 26 1;
#X connect 29 0 28 0;
#X connect 30 0 27 0;
#X connect 31 0 39 1;
#X connect 32 0 39 0;
#X connect 33 0 35 0;
#X connect 34 0 32 1;
#X connect 35 0 34 0;
#X connect 36 0 31 1;
#X connect 37 0 36 0;
#X connect 38 0 33 0;
#X connect 38 0 37 0;
#X connect 39 0 121 0;
#X connect 40 0 61 0;
#X connect 41 0 117 0;
#X connect 41 0 118 0;
#X connect 41 0 120 0;
#X connect 42 0 66 0;
#X connect 43 0 70 0;
#X connect 44 0 43 1;
#X connect 45 0 65 0;
#X connect 46 0 49 1;
#X connect 47 0 46 0;
#X connect 48 0 47 0;
#X connect 49 0 2 0;
#X connect 50 0 38 0;
#X connect 51 0 41 0;
#X connect 52 0 22 0;
#X connect 52 0 99 0;
#X connect 52 1 23 0;
#X connect 55 0 38 0;
#X connect 56 0 83 0;
#X connect 57 0 44 0;
#X connect 58 0 61 1;
#X connect 59 0 58 0;
#X connect 60 0 59 0;
#X connect 61 0 49 0;
#X connect 62 0 94 0;
#X connect 64 0 31 0;
#X connect 65 0 43 0;
#X connect 66 0 71 0;
#X connect 67 0 70 0;
#X connect 67 0 72 0;
#X connect 68 0 67 0;
#X connect 70 0 71 1;
#X connect 70 1 42 1;
#X connect 71 0 32 0;
#X connect 73 0 111 0;
#X connect 73 0 116 0;
#X connect 74 0 73 0;
#X connect 75 0 45 0;
#X connect 76 0 80 0;
#X connect 76 0 105 0;
#X connect 77 0 76 0;
#X connect 78 0 45 0;
#X connect 80 0 78 0;
#X connect 80 1 45 0;
#X connect 80 2 75 0;
#X connect 81 0 84 0;
#X connect 82 0 45 0;
#X connect 83 0 82 0;
#X connect 83 0 81 0;
#X connect 84 0 78 1;
#X connect 85 0 92 0;
#X connect 86 0 91 0;
#X connect 91 0 64 3;
#X connect 91 1 64 4;
#X connect 91 2 64 5;
#X connect 91 3 64 6;
#X connect 92 0 64 0;
#X connect 92 1 64 1;
#X connect 93 0 14 0;
#X connect 93 1 15 0;
#X connect 93 2 17 0;
#X connect 93 3 16 0;
#X connect 94 0 60 0;
#X connect 94 1 48 0;
#X connect 97 0 98 0;
#X connect 98 0 67 0;
#X connect 98 1 76 0;
#X connect 98 2 73 0;
#X connect 98 3 55 0;
#X connect 99 0 0 0;
#X connect 100 0 52 0;
#X connect 101 0 99 1;
#X connect 103 0 97 0;
#X connect 103 1 104 0;
#X connect 104 0 98 0;
#X connect 105 0 83 0;
#X connect 105 1 82 1;
#X connect 105 1 81 1;
#X connect 106 0 44 0;
#X connect 107 0 108 0;
#X connect 108 0 109 0;
#X connect 110 0 119 0;
#X connect 111 0 115 0;
#X connect 112 0 110 1;
#X connect 113 0 114 1;
#X connect 114 0 119 0;
#X connect 115 0 112 0;
#X connect 116 0 113 0;
#X connect 117 0 110 0;
#X connect 118 0 114 0;
#X connect 119 1 40 1;
#X connect 120 0 119 0;
#X connect 120 0 121 0;
#X connect 121 0 61 0;
#X connect 121 1 40 0;
#X coords 0 699 1 698 230 190 0;
