#N canvas 138 75 624 666 10;
#X obj 114 -35 mtof;
#X obj 158 151 osc~;
#X floatatom 158 66 5 0 0 1 modulator_freq - -;
#X floatatom 114 113 5 0 0 0 carrier_freq - -;
#X floatatom 210 93 5 0 0 1 modulation_index - -;
#X obj 158 130 +~ 440;
#X floatatom 114 -57 5 0 0 0 - - -;
#X obj 206 130 noise~;
#X obj 158 180 +~;
#X obj 206 153 *~;
#X floatatom 253 130 5 0 100 1 noise_mix - -;
#X obj 158 109 *~;
#X obj 158 89 osc~;
#X obj 156 435 *~;
#X obj 224 418 vline~;
#X obj 224 362 pack f f f f;
#X msg 224 384 1 \$2 \, \$4 \$3 \$2;
#X text 380 362 A(\$2):Attack(time);
#X text 380 378 D(\$3):Decay(time);
#X obj 318 362 pack f f;
#X msg 318 384 0 \$2;
#X text 380 408 R:Release(time);
#X text 380 393 S(\$4):Sustain(vol);
#X obj 65 345 sel 1 0;
#X obj 65 326 tgl 15 0 empty empty note_on/off 17 7 0 10 -262144 -1
-1 0 1;
#X floatatom 247 335 6 0 0 2 A_(time) - -;
#X floatatom 299 335 6 0 0 2 D_(time) - -;
#X floatatom 398 335 6 0 0 2 R_(time) - -;
#X floatatom 352 335 6 0 1 2 S_(vol) - -;
#X obj 114 -111 inlet;
#X obj 156 505 outlet~;
#X text 114 -128 midi;
#X obj 438 -111 inlet;
#X text 438 -131 A;
#X obj 478 -111 inlet;
#X obj 518 -111 inlet;
#X obj 558 -111 inlet;
#X text 477 -131 D;
#X text 518 -131 S;
#X text 558 -131 R;
#X obj 253 153 / 100;
#X msg 92 195 1;
#X msg 65 303 0;
#X obj 65 282 del 100;
#X obj 104 235 r tempo_m/s-16;
#X obj 65 -41 t b b;
#X obj 114 -85 unpack 0 0;
#X obj 171 -57 / 127;
#X floatatom 171 -27 5 0 0 0 - - -;
#X text 208 -53 velocity;
#X obj 156 480 *~;
#X obj 104 260 int;
#X obj 171 457 vline~;
#X msg 171 389 \$1 20;
#X obj 294 -111 inlet;
#X obj 344 -111 inlet;
#X obj 390 -111 inlet;
#X obj 191 351 +;
#X connect 0 0 3 0;
#X connect 1 0 8 0;
#X connect 2 0 12 0;
#X connect 3 0 5 1;
#X connect 4 0 11 1;
#X connect 5 0 1 0;
#X connect 6 0 0 0;
#X connect 6 0 45 0;
#X connect 7 0 9 0;
#X connect 8 0 13 0;
#X connect 9 0 8 1;
#X connect 10 0 40 0;
#X connect 11 0 5 0;
#X connect 12 0 11 0;
#X connect 13 0 50 0;
#X connect 14 0 13 1;
#X connect 15 0 16 0;
#X connect 16 0 14 0;
#X connect 19 0 20 0;
#X connect 20 0 14 0;
#X connect 23 0 15 0;
#X connect 23 1 19 0;
#X connect 24 0 23 0;
#X connect 25 0 15 1;
#X connect 25 0 57 0;
#X connect 26 0 15 2;
#X connect 26 0 57 1;
#X connect 27 0 19 1;
#X connect 28 0 15 3;
#X connect 29 0 46 0;
#X connect 32 0 25 0;
#X connect 34 0 26 0;
#X connect 35 0 28 0;
#X connect 36 0 27 0;
#X connect 40 0 9 1;
#X connect 41 0 24 0;
#X connect 42 0 24 0;
#X connect 43 0 42 0;
#X connect 45 0 43 0;
#X connect 45 1 41 0;
#X connect 46 0 6 0;
#X connect 46 1 47 0;
#X connect 47 0 48 0;
#X connect 48 0 53 0;
#X connect 50 0 30 0;
#X connect 51 0 43 1;
#X connect 52 0 50 1;
#X connect 53 0 52 0;
#X connect 54 0 2 0;
#X connect 55 0 4 0;
#X connect 56 0 10 0;
#X connect 57 0 51 0;
