#N canvas 35 23 1222 419 10;
#X obj 21 94 hip~ 5;
#X obj 21 140 writesf~ 1;
#X obj 21 115 *~ 0.9;
#X msg 327 12 start;
#X msg 376 12 stop;
#X msg 67 115 open track-01.wav;
#X obj 92 138 env~;
#X obj 123 138 - 100;
#X obj 8 75 vu 8 80 empty empty -1 -8 0 10 -66577 -1 0 0;
#X obj 247 12 bng 15 250 50 0 empty empty empty 17 7 0 10 -262144 -1
-1;
#X obj 327 34 s writesf;
#X obj 247 34 s track-open;
#X obj 67 94 r writesf;
#X obj 127 94 r track-open;
#X obj 221 94 hip~ 5;
#X obj 221 140 writesf~ 1;
#X obj 221 115 *~ 0.9;
#X obj 292 138 env~;
#X obj 323 138 - 100;
#X obj 208 75 vu 8 80 empty empty -1 -8 0 10 -66577 -1 0 0;
#X obj 267 94 r writesf;
#X obj 327 94 r track-open;
#X obj 424 94 hip~ 5;
#X obj 424 140 writesf~ 1;
#X obj 424 115 *~ 0.9;
#X obj 495 138 env~;
#X obj 526 138 - 100;
#X obj 411 75 vu 8 80 empty empty -1 -8 0 10 -66577 -1 0 0;
#X obj 470 94 r writesf;
#X obj 530 94 r track-open;
#X obj 624 94 hip~ 5;
#X obj 624 140 writesf~ 1;
#X obj 624 115 *~ 0.9;
#X obj 695 138 env~;
#X obj 726 138 - 100;
#X obj 611 75 vu 8 80 empty empty -1 -8 0 10 -66577 -1 0 0;
#X obj 670 94 r writesf;
#X obj 730 94 r track-open;
#X obj 825 94 hip~ 5;
#X obj 825 140 writesf~ 1;
#X obj 825 115 *~ 0.9;
#X obj 896 138 env~;
#X obj 927 138 - 100;
#X obj 812 75 vu 8 80 empty empty -1 -8 0 10 -66577 -1 0 0;
#X obj 871 94 r writesf;
#X obj 931 94 r track-open;
#X obj 1025 94 hip~ 5;
#X obj 1025 140 writesf~ 1;
#X obj 1025 115 *~ 0.9;
#X obj 1096 138 env~;
#X obj 1127 138 - 100;
#X obj 1012 75 vu 8 80 empty empty -1 -8 0 10 -66577 -1 0 0;
#X obj 1071 94 r writesf;
#X obj 1131 94 r track-open;
#X msg 267 115 open track-02.wav;
#X msg 470 115 open track-03.wav;
#X msg 670 115 open track-04.wav;
#X msg 871 115 open track-05.wav;
#X msg 1071 115 open track-06.wav;
#X obj 21 73 r~ tr1_mixer-in;
#X obj 221 73 r~ tr2_mixer-in;
#X obj 424 73 r~ tr3_mixer-in;
#X obj 624 73 r~ tr4_mixer-in;
#X obj 825 73 r~ tr5_mixer-in;
#X obj 1025 73 r~ tr6_mixer-in;
#X obj 21 204 hip~ 5;
#X obj 21 250 writesf~ 1;
#X obj 21 225 *~ 0.9;
#X obj 92 248 env~;
#X obj 123 248 - 100;
#X obj 8 185 vu 8 80 empty empty -1 -8 0 10 -66577 -1 0 0;
#X obj 67 204 r writesf;
#X obj 127 204 r track-open;
#X obj 221 204 hip~ 5;
#X obj 221 250 writesf~ 1;
#X obj 221 225 *~ 0.9;
#X obj 292 248 env~;
#X obj 323 248 - 100;
#X obj 208 185 vu 8 80 empty empty -1 -8 0 10 -66577 -1 0 0;
#X obj 267 204 r writesf;
#X obj 327 204 r track-open;
#X obj 21 183 r~ tr7_mixer-in;
#X msg 67 225 open track-07.wav;
#X obj 221 183 r~ tr8_mixer-in;
#X msg 267 225 open track-08.wav;
#X obj 8 34 cnv 15 30 20 empty empty Track-Recorder 20 6 0 24 -262144
-66577 0;
#X obj 424 204 hip~ 5;
#X obj 424 250 writesf~ 1;
#X obj 424 225 *~ 0.9;
#X obj 495 248 env~;
#X obj 526 248 - 100;
#X obj 411 185 vu 8 80 empty empty -1 -8 0 10 -66577 -1 0 0;
#X obj 470 204 r writesf;
#X obj 530 204 r track-open;
#X obj 624 204 hip~ 5;
#X obj 624 250 writesf~ 1;
#X obj 624 225 *~ 0.9;
#X obj 695 248 env~;
#X obj 726 248 - 100;
#X obj 611 185 vu 8 80 empty empty -1 -8 0 10 -66577 -1 0 0;
#X obj 670 204 r writesf;
#X obj 730 204 r track-open;
#X obj 827 204 hip~ 5;
#X obj 827 250 writesf~ 1;
#X obj 827 225 *~ 0.9;
#X obj 898 248 env~;
#X obj 929 248 - 100;
#X obj 814 185 vu 8 80 empty empty -1 -8 0 10 -66577 -1 0 0;
#X obj 873 204 r writesf;
#X obj 933 204 r track-open;
#X obj 1027 204 hip~ 5;
#X obj 1027 250 writesf~ 1;
#X obj 1027 225 *~ 0.9;
#X obj 1098 248 env~;
#X obj 1129 248 - 100;
#X obj 1014 185 vu 8 80 empty empty -1 -8 0 10 -66577 -1 0 0;
#X obj 1073 204 r writesf;
#X obj 1133 204 r track-open;
#X obj 424 183 r~ tr9_mixer-in;
#X msg 470 225 open track-09.wav;
#X obj 624 183 r~ tr10_mixer-in;
#X msg 670 225 open track-10.wav;
#X obj 827 183 r~ tr11_mixer-in;
#X msg 873 225 open track-11.wav;
#X obj 1027 183 r~ tr12_mixer-in;
#X msg 1073 225 open track-12.wav;
#X obj 21 314 hip~ 5;
#X obj 21 360 writesf~ 1;
#X obj 21 335 *~ 0.9;
#X obj 92 358 env~;
#X obj 123 358 - 100;
#X obj 8 295 vu 8 80 empty empty -1 -8 0 10 -66577 -1 0 0;
#X obj 67 314 r writesf;
#X obj 127 314 r track-open;
#X obj 221 314 hip~ 5;
#X obj 221 360 writesf~ 1;
#X obj 221 335 *~ 0.9;
#X obj 292 358 env~;
#X obj 323 358 - 100;
#X obj 208 295 vu 8 80 empty empty -1 -8 0 10 -66577 -1 0 0;
#X obj 267 314 r writesf;
#X obj 327 314 r track-open;
#X obj 424 314 hip~ 5;
#X obj 424 360 writesf~ 1;
#X obj 424 335 *~ 0.9;
#X obj 495 358 env~;
#X obj 526 358 - 100;
#X obj 411 295 vu 8 80 empty empty -1 -8 0 10 -66577 -1 0 0;
#X obj 470 314 r writesf;
#X obj 530 314 r track-open;
#X obj 624 314 hip~ 5;
#X obj 624 360 writesf~ 1;
#X obj 624 335 *~ 0.9;
#X obj 695 358 env~;
#X obj 726 358 - 100;
#X obj 611 295 vu 8 80 empty empty -1 -8 0 10 -66577 -1 0 0;
#X obj 670 314 r writesf;
#X obj 730 314 r track-open;
#X obj 21 293 r~ tr13_mixer-in;
#X msg 67 335 open track-13.wav;
#X obj 221 293 r~ tr14_mixer-in;
#X msg 267 335 open track-14.wav;
#X obj 424 293 r~ tr15_mixer-in;
#X msg 470 335 open track-15.wav;
#X obj 624 293 r~ tr16_mixer-in;
#X msg 670 335 open track-16.wav;
#X connect 0 0 2 0;
#X connect 2 0 1 0;
#X connect 2 0 6 0;
#X connect 3 0 10 0;
#X connect 4 0 10 0;
#X connect 5 0 1 0;
#X connect 6 0 7 0;
#X connect 7 0 8 0;
#X connect 9 0 11 0;
#X connect 12 0 1 0;
#X connect 13 0 5 0;
#X connect 14 0 16 0;
#X connect 16 0 15 0;
#X connect 16 0 17 0;
#X connect 17 0 18 0;
#X connect 18 0 19 0;
#X connect 20 0 15 0;
#X connect 21 0 54 0;
#X connect 22 0 24 0;
#X connect 24 0 23 0;
#X connect 24 0 25 0;
#X connect 25 0 26 0;
#X connect 26 0 27 0;
#X connect 28 0 23 0;
#X connect 29 0 55 0;
#X connect 30 0 32 0;
#X connect 32 0 31 0;
#X connect 32 0 33 0;
#X connect 33 0 34 0;
#X connect 34 0 35 0;
#X connect 36 0 31 0;
#X connect 37 0 56 0;
#X connect 38 0 40 0;
#X connect 40 0 39 0;
#X connect 40 0 41 0;
#X connect 41 0 42 0;
#X connect 42 0 43 0;
#X connect 44 0 39 0;
#X connect 45 0 57 0;
#X connect 46 0 48 0;
#X connect 48 0 47 0;
#X connect 48 0 49 0;
#X connect 49 0 50 0;
#X connect 50 0 51 0;
#X connect 52 0 47 0;
#X connect 53 0 58 0;
#X connect 54 0 15 0;
#X connect 55 0 23 0;
#X connect 56 0 31 0;
#X connect 57 0 39 0;
#X connect 58 0 47 0;
#X connect 59 0 0 0;
#X connect 60 0 14 0;
#X connect 61 0 22 0;
#X connect 62 0 30 0;
#X connect 63 0 38 0;
#X connect 64 0 46 0;
#X connect 65 0 67 0;
#X connect 67 0 66 0;
#X connect 67 0 68 0;
#X connect 68 0 69 0;
#X connect 69 0 70 0;
#X connect 71 0 66 0;
#X connect 72 0 82 0;
#X connect 73 0 75 0;
#X connect 75 0 74 0;
#X connect 75 0 76 0;
#X connect 76 0 77 0;
#X connect 77 0 78 0;
#X connect 79 0 74 0;
#X connect 80 0 84 0;
#X connect 81 0 65 0;
#X connect 82 0 66 0;
#X connect 83 0 73 0;
#X connect 84 0 74 0;
#X connect 86 0 88 0;
#X connect 88 0 87 0;
#X connect 88 0 89 0;
#X connect 89 0 90 0;
#X connect 90 0 91 0;
#X connect 92 0 87 0;
#X connect 93 0 119 0;
#X connect 94 0 96 0;
#X connect 96 0 95 0;
#X connect 96 0 97 0;
#X connect 97 0 98 0;
#X connect 98 0 99 0;
#X connect 100 0 95 0;
#X connect 101 0 121 0;
#X connect 102 0 104 0;
#X connect 104 0 103 0;
#X connect 104 0 105 0;
#X connect 105 0 106 0;
#X connect 106 0 107 0;
#X connect 108 0 103 0;
#X connect 109 0 123 0;
#X connect 110 0 112 0;
#X connect 112 0 111 0;
#X connect 112 0 113 0;
#X connect 113 0 114 0;
#X connect 114 0 115 0;
#X connect 116 0 111 0;
#X connect 117 0 125 0;
#X connect 118 0 86 0;
#X connect 119 0 87 0;
#X connect 120 0 94 0;
#X connect 121 0 95 0;
#X connect 122 0 102 0;
#X connect 123 0 103 0;
#X connect 124 0 110 0;
#X connect 125 0 111 0;
#X connect 126 0 128 0;
#X connect 128 0 127 0;
#X connect 128 0 129 0;
#X connect 129 0 130 0;
#X connect 130 0 131 0;
#X connect 132 0 127 0;
#X connect 133 0 159 0;
#X connect 134 0 136 0;
#X connect 136 0 135 0;
#X connect 136 0 137 0;
#X connect 137 0 138 0;
#X connect 138 0 139 0;
#X connect 140 0 135 0;
#X connect 141 0 161 0;
#X connect 142 0 144 0;
#X connect 144 0 143 0;
#X connect 144 0 145 0;
#X connect 145 0 146 0;
#X connect 146 0 147 0;
#X connect 148 0 143 0;
#X connect 149 0 163 0;
#X connect 150 0 152 0;
#X connect 152 0 151 0;
#X connect 152 0 153 0;
#X connect 153 0 154 0;
#X connect 154 0 155 0;
#X connect 156 0 151 0;
#X connect 157 0 165 0;
#X connect 158 0 126 0;
#X connect 159 0 127 0;
#X connect 160 0 134 0;
#X connect 161 0 135 0;
#X connect 162 0 142 0;
#X connect 163 0 143 0;
#X connect 164 0 150 0;
#X connect 165 0 151 0;
