#N canvas 194 57 1011 593 10;
#X obj 16 198 route 0 1 2 3 4 5 6 7 8 9 10 11 12 13 14 15;
#X floatatom 5 70 6 0 0 2 A_(time) - no4-adsyn01-amp_a-s;
#X floatatom 57 70 6 0 0 2 D_(time) - no4-adsyn01-amp_d-s;
#X floatatom 156 70 6 0 0 2 R_(time) - no4-adsyn01-amp_r-s;
#X floatatom 110 70 6 0 1 2 S_(vol) - no4-adsyn01-amp_s-s;
#N canvas 401 128 397 445 delay 0;
#X floatatom 149 55 5 0 1000 3 time - -;
#X obj 120 364 *~ 0.5;
#X floatatom 183 55 5 0 100 3 feedback - -;
#X obj 104 196 +~;
#X obj 18 365 outlet~;
#X obj 18 11 inlet~;
#X obj 132 11 inlet;
#X obj 170 11 inlet;
#X obj 210 11 inlet;
#X floatatom 184 193 5 0 0 0 - - -;
#X obj 184 171 / 100;
#X obj 119 101 expr 1-$f1;
#X obj 18 179 *~;
#X obj 61 179 *~;
#X obj 119 149 line~;
#X obj 33 149 line~;
#X obj 32 84 / 100;
#X obj 33 127 pack 0 500;
#X obj 119 127 pack 0 500;
#X obj 132 56 vsl 15 25 100 0 0 0 empty empty empty 0 -7 0 9 -262144
-1 -1 0 1;
#X msg 292 38 500;
#X msg 325 38 50;
#X msg 262 37 100;
#X obj 104 221 delwrite~ no4_add-synth-delay 1000;
#X obj 104 288 delread~ no4_add-synth-delay 500;
#X obj 262 11 loadbang;
#X connect 0 0 24 0;
#X connect 1 0 3 1;
#X connect 2 0 10 0;
#X connect 3 0 23 0;
#X connect 5 0 12 0;
#X connect 5 0 13 0;
#X connect 6 0 19 0;
#X connect 7 0 0 0;
#X connect 8 0 2 0;
#X connect 9 0 1 1;
#X connect 10 0 9 0;
#X connect 11 0 18 0;
#X connect 12 0 4 0;
#X connect 13 0 3 0;
#X connect 14 0 13 1;
#X connect 15 0 12 1;
#X connect 16 0 11 0;
#X connect 16 0 17 0;
#X connect 17 0 15 0;
#X connect 18 0 14 0;
#X connect 19 0 16 0;
#X connect 20 0 0 0;
#X connect 21 0 2 0;
#X connect 22 0 19 0;
#X connect 24 0 1 0;
#X connect 24 0 4 0;
#X connect 25 0 20 0;
#X connect 25 0 21 0;
#X connect 25 0 22 0;
#X coords 0 -1 1 1 100 45 1 130 40;
#X restore 124 92 pd delay;
#N canvas 759 251 398 262 adsr-random 0;
#X obj 27 216 outlet;
#X obj 107 216 outlet;
#X obj 187 216 outlet;
#X obj 267 216 outlet;
#X obj 267 129 random 600;
#X obj 187 129 random 100;
#X obj 187 172 / 100;
#X obj 27 15 inlet;
#X obj 27 129 random 100;
#X obj 107 129 random 200;
#X obj 164 40 t b b;
#X obj 191 92 unpack 0 0 0 0;
#X obj 267 172 + 1;
#X msg 191 66 100 200 10 9;
#X obj 164 17 inlet;
#X connect 4 0 12 0;
#X connect 5 0 6 0;
#X connect 6 0 2 0;
#X connect 7 0 5 0;
#X connect 7 0 4 0;
#X connect 7 0 8 0;
#X connect 7 0 9 0;
#X connect 8 0 0 0;
#X connect 9 0 1 0;
#X connect 10 0 8 0;
#X connect 10 0 9 0;
#X connect 10 0 5 0;
#X connect 10 0 4 0;
#X connect 10 1 13 0;
#X connect 11 0 8 1;
#X connect 11 1 9 1;
#X connect 11 2 5 1;
#X connect 11 3 4 1;
#X connect 12 0 3 0;
#X connect 13 0 11 0;
#X connect 14 0 10 0;
#X restore 312 53 pd adsr-random;
#X obj 209 71 bng 15 250 50 0 empty empty empty 17 7 0 10 -262144 -1
-1;
#X floatatom 176 16 5 0 0 1 LFO - no4-adsyn01-lfo-s;
#X floatatom 176 38 5 0 0 1 LPF - no4-adsyn01-lpfilter-s;
#X obj 16 176 r no4_add-synth-in;
#X obj 124 146 s~ no4_add-synth-out;
#X obj 16 469 throw~ no4_add-synth;
#X obj 5 -28 catch~ no4_add-synth;
#X obj 315 -47 loadbang;
#X msg 315 -23 25000;
#X obj 312 75 r tempo_m/s-16;
#X obj 16 250 ../../core/s_add-synth-core-001;
#N canvas 146 23 1066 306 synth-ctl-unit 0;
#X obj 449 184 r no4-adsyn01-lfo-s;
#X obj 496 205 r no4-adsyn01-lpfilter-s;
#X obj 21 234 outlet;
#X obj 281 234 outlet;
#X obj 449 234 outlet;
#X obj 645 234 outlet;
#X obj 691 234 outlet;
#X obj 737 234 outlet;
#X obj 783 234 outlet;
#X obj 496 234 outlet;
#X obj 645 35 r no4-adsyn01-amp_a-s;
#X obj 691 57 r no4-adsyn01-amp_d-s;
#X obj 737 80 r no4-adsyn01-amp_s-s;
#X obj 783 104 r no4-adsyn01-amp_r-s;
#X obj 21 139 pack 0 0 0 0;
#X obj 52 114 t b f;
#X obj 52 53 r no4-adsyn01-overtone-2;
#X obj 21 33 r no4-adsyn01-overtone-1;
#X obj 90 73 r no4-adsyn01-overtone-3;
#X obj 128 93 r no4-adsyn01-overtone-4;
#X obj 90 114 t b f;
#X obj 128 114 t b f;
#X obj 312 137 t b f;
#X obj 350 137 t b f;
#X obj 388 137 t b f;
#X obj 281 162 pack 0 0 0 0 0;
#X obj 426 137 t b f;
#X obj 312 53 r no4-adsyn01-overtone-vol_1;
#X obj 426 114 r no4-adsyn01-overtone-vol_4;
#X obj 388 93 r no4-adsyn01-overtone-vol_3;
#X obj 350 73 r no4-adsyn01-overtone-vol_2;
#X obj 281 33 r no4-adsyn01-Fundamental-vol;
#X connect 0 0 4 0;
#X connect 1 0 9 0;
#X connect 10 0 5 0;
#X connect 11 0 6 0;
#X connect 12 0 7 0;
#X connect 13 0 8 0;
#X connect 14 0 2 0;
#X connect 15 0 14 0;
#X connect 15 1 14 1;
#X connect 16 0 15 0;
#X connect 17 0 14 0;
#X connect 18 0 20 0;
#X connect 19 0 21 0;
#X connect 20 0 14 0;
#X connect 20 1 14 2;
#X connect 21 0 14 0;
#X connect 21 1 14 3;
#X connect 22 0 25 0;
#X connect 22 1 25 1;
#X connect 23 0 25 0;
#X connect 23 1 25 2;
#X connect 24 0 25 0;
#X connect 24 1 25 3;
#X connect 25 0 3 0;
#X connect 26 0 25 0;
#X connect 26 1 25 4;
#X connect 27 0 22 0;
#X connect 28 0 26 0;
#X connect 29 0 24 0;
#X connect 30 0 23 0;
#X connect 31 0 25 0;
#X restore 100 227 pd synth-ctl-unit;
#X obj 390 -1 unpack 0 0 0 0;
#X floatatom 73 16 5 0 0 0 - - no4-adsyn01-overtone-2;
#X floatatom 107 16 5 0 0 0 - - no4-adsyn01-overtone-3;
#X floatatom 141 16 5 0 0 0 - - no4-adsyn01-overtone-4;
#X floatatom 39 16 5 0 0 0 - - no4-adsyn01-overtone-1;
#X text 38 -1 Overtone;
#X floatatom 107 38 5 0 1 0 - - no4-adsyn01-overtone-vol_3;
#X floatatom 141 38 5 0 1 0 - - no4-adsyn01-overtone-vol_4;
#X floatatom 73 38 5 0 1 0 - - no4-adsyn01-overtone-vol_2;
#X floatatom 39 38 5 0 1 0 - - no4-adsyn01-overtone-vol_1;
#X floatatom 5 38 5 0 1 2 f0-vol - no4-adsyn01-Fundamental-vol;
#X text 172 0 ADD Synth;
#X obj 490 21 unpack 0 0 0 0 0;
#X msg 390 -23 2 3 4 5;
#X msg 490 -23 1 0.8 0.7 0.6 0.5;
#N canvas 401 128 397 445 bp-filter 0;
#X obj 18 365 outlet~;
#X obj 18 11 inlet~;
#X obj 132 11 inlet;
#X obj 170 11 inlet;
#X obj 210 11 inlet;
#X obj 33 101 expr 1-$f1;
#X obj 18 179 *~;
#X obj 73 179 *~;
#X obj 119 149 line~;
#X obj 33 149 line~;
#X obj 33 127 pack 0 500;
#X obj 119 127 pack 0 500;
#X obj 104 248 line;
#X msg 104 227 \$1 100;
#X obj 155 269 line;
#X floatatom 151 55 5 200 25000 3 Frq - -;
#X floatatom 187 55 5 1 30 3 Q - -;
#X obj 73 286 bp~ 2000 30;
#X msg 155 248 \$1 800;
#X obj 132 55 tgl 15 0 empty empty empty 17 7 0 10 -262144 -1 -1 0
1;
#X msg 262 37 0;
#X msg 292 38 10000;
#X msg 334 38 10;
#X obj 262 11 loadbang;
#X connect 1 0 6 0;
#X connect 1 0 7 0;
#X connect 2 0 19 0;
#X connect 3 0 15 0;
#X connect 4 0 16 0;
#X connect 5 0 10 0;
#X connect 6 0 0 0;
#X connect 7 0 17 0;
#X connect 8 0 7 1;
#X connect 9 0 6 1;
#X connect 10 0 9 0;
#X connect 11 0 8 0;
#X connect 12 0 17 1;
#X connect 13 0 12 0;
#X connect 14 0 17 2;
#X connect 15 0 13 0;
#X connect 16 0 18 0;
#X connect 17 0 0 0;
#X connect 18 0 14 0;
#X connect 19 0 5 0;
#X connect 19 0 11 0;
#X connect 20 0 19 0;
#X connect 21 0 15 0;
#X connect 22 0 16 0;
#X connect 23 0 21 0;
#X connect 23 0 22 0;
#X connect 23 0 20 0;
#X coords 0 -1 1 1 100 45 1 130 40;
#X restore 5 92 pd bp-filter;
#X obj 36 300 ../../core/s_add-synth-core-001;
#N canvas 146 23 1066 306 synth-ctl-unit 0;
#X obj 449 184 r no4-adsyn01-lfo-s;
#X obj 496 205 r no4-adsyn01-lpfilter-s;
#X obj 21 234 outlet;
#X obj 281 234 outlet;
#X obj 449 234 outlet;
#X obj 645 234 outlet;
#X obj 691 234 outlet;
#X obj 737 234 outlet;
#X obj 783 234 outlet;
#X obj 496 234 outlet;
#X obj 645 35 r no4-adsyn01-amp_a-s;
#X obj 691 57 r no4-adsyn01-amp_d-s;
#X obj 737 80 r no4-adsyn01-amp_s-s;
#X obj 783 104 r no4-adsyn01-amp_r-s;
#X obj 21 139 pack 0 0 0 0;
#X obj 52 114 t b f;
#X obj 52 53 r no4-adsyn01-overtone-2;
#X obj 21 33 r no4-adsyn01-overtone-1;
#X obj 90 73 r no4-adsyn01-overtone-3;
#X obj 128 93 r no4-adsyn01-overtone-4;
#X obj 90 114 t b f;
#X obj 128 114 t b f;
#X obj 312 137 t b f;
#X obj 350 137 t b f;
#X obj 388 137 t b f;
#X obj 281 162 pack 0 0 0 0 0;
#X obj 426 137 t b f;
#X obj 312 53 r no4-adsyn01-overtone-vol_1;
#X obj 426 114 r no4-adsyn01-overtone-vol_4;
#X obj 388 93 r no4-adsyn01-overtone-vol_3;
#X obj 350 73 r no4-adsyn01-overtone-vol_2;
#X obj 281 33 r no4-adsyn01-Fundamental-vol;
#X connect 0 0 4 0;
#X connect 1 0 9 0;
#X connect 10 0 5 0;
#X connect 11 0 6 0;
#X connect 12 0 7 0;
#X connect 13 0 8 0;
#X connect 14 0 2 0;
#X connect 15 0 14 0;
#X connect 15 1 14 1;
#X connect 16 0 15 0;
#X connect 17 0 14 0;
#X connect 18 0 20 0;
#X connect 19 0 21 0;
#X connect 20 0 14 0;
#X connect 20 1 14 2;
#X connect 21 0 14 0;
#X connect 21 1 14 3;
#X connect 22 0 25 0;
#X connect 22 1 25 1;
#X connect 23 0 25 0;
#X connect 23 1 25 2;
#X connect 24 0 25 0;
#X connect 24 1 25 3;
#X connect 25 0 3 0;
#X connect 26 0 25 0;
#X connect 26 1 25 4;
#X connect 27 0 22 0;
#X connect 28 0 26 0;
#X connect 29 0 24 0;
#X connect 30 0 23 0;
#X connect 31 0 25 0;
#X restore 120 277 pd synth-ctl-unit;
#X obj 56 350 ../../core/s_add-synth-core-001;
#N canvas 146 23 1066 306 synth-ctl-unit 0;
#X obj 449 184 r no4-adsyn01-lfo-s;
#X obj 496 205 r no4-adsyn01-lpfilter-s;
#X obj 21 234 outlet;
#X obj 281 234 outlet;
#X obj 449 234 outlet;
#X obj 645 234 outlet;
#X obj 691 234 outlet;
#X obj 737 234 outlet;
#X obj 783 234 outlet;
#X obj 496 234 outlet;
#X obj 645 35 r no4-adsyn01-amp_a-s;
#X obj 691 57 r no4-adsyn01-amp_d-s;
#X obj 737 80 r no4-adsyn01-amp_s-s;
#X obj 783 104 r no4-adsyn01-amp_r-s;
#X obj 21 139 pack 0 0 0 0;
#X obj 52 114 t b f;
#X obj 52 53 r no4-adsyn01-overtone-2;
#X obj 21 33 r no4-adsyn01-overtone-1;
#X obj 90 73 r no4-adsyn01-overtone-3;
#X obj 128 93 r no4-adsyn01-overtone-4;
#X obj 90 114 t b f;
#X obj 128 114 t b f;
#X obj 312 137 t b f;
#X obj 350 137 t b f;
#X obj 388 137 t b f;
#X obj 281 162 pack 0 0 0 0 0;
#X obj 426 137 t b f;
#X obj 312 53 r no4-adsyn01-overtone-vol_1;
#X obj 426 114 r no4-adsyn01-overtone-vol_4;
#X obj 388 93 r no4-adsyn01-overtone-vol_3;
#X obj 350 73 r no4-adsyn01-overtone-vol_2;
#X obj 281 33 r no4-adsyn01-Fundamental-vol;
#X connect 0 0 4 0;
#X connect 1 0 9 0;
#X connect 10 0 5 0;
#X connect 11 0 6 0;
#X connect 12 0 7 0;
#X connect 13 0 8 0;
#X connect 14 0 2 0;
#X connect 15 0 14 0;
#X connect 15 1 14 1;
#X connect 16 0 15 0;
#X connect 17 0 14 0;
#X connect 18 0 20 0;
#X connect 19 0 21 0;
#X connect 20 0 14 0;
#X connect 20 1 14 2;
#X connect 21 0 14 0;
#X connect 21 1 14 3;
#X connect 22 0 25 0;
#X connect 22 1 25 1;
#X connect 23 0 25 0;
#X connect 23 1 25 2;
#X connect 24 0 25 0;
#X connect 24 1 25 3;
#X connect 25 0 3 0;
#X connect 26 0 25 0;
#X connect 26 1 25 4;
#X connect 27 0 22 0;
#X connect 28 0 26 0;
#X connect 29 0 24 0;
#X connect 30 0 23 0;
#X connect 31 0 25 0;
#X restore 140 327 pd synth-ctl-unit;
#X obj 76 410 ../../core/s_add-synth-core-001;
#N canvas 146 23 1066 306 synth-ctl-unit 0;
#X obj 449 184 r no4-adsyn01-lfo-s;
#X obj 496 205 r no4-adsyn01-lpfilter-s;
#X obj 21 234 outlet;
#X obj 281 234 outlet;
#X obj 449 234 outlet;
#X obj 645 234 outlet;
#X obj 691 234 outlet;
#X obj 737 234 outlet;
#X obj 783 234 outlet;
#X obj 496 234 outlet;
#X obj 645 35 r no4-adsyn01-amp_a-s;
#X obj 691 57 r no4-adsyn01-amp_d-s;
#X obj 737 80 r no4-adsyn01-amp_s-s;
#X obj 783 104 r no4-adsyn01-amp_r-s;
#X obj 21 139 pack 0 0 0 0;
#X obj 52 114 t b f;
#X obj 52 53 r no4-adsyn01-overtone-2;
#X obj 21 33 r no4-adsyn01-overtone-1;
#X obj 90 73 r no4-adsyn01-overtone-3;
#X obj 128 93 r no4-adsyn01-overtone-4;
#X obj 90 114 t b f;
#X obj 128 114 t b f;
#X obj 312 137 t b f;
#X obj 350 137 t b f;
#X obj 388 137 t b f;
#X obj 281 162 pack 0 0 0 0 0;
#X obj 426 137 t b f;
#X obj 312 53 r no4-adsyn01-overtone-vol_1;
#X obj 426 114 r no4-adsyn01-overtone-vol_4;
#X obj 388 93 r no4-adsyn01-overtone-vol_3;
#X obj 350 73 r no4-adsyn01-overtone-vol_2;
#X obj 281 33 r no4-adsyn01-Fundamental-vol;
#X connect 0 0 4 0;
#X connect 1 0 9 0;
#X connect 10 0 5 0;
#X connect 11 0 6 0;
#X connect 12 0 7 0;
#X connect 13 0 8 0;
#X connect 14 0 2 0;
#X connect 15 0 14 0;
#X connect 15 1 14 1;
#X connect 16 0 15 0;
#X connect 17 0 14 0;
#X connect 18 0 20 0;
#X connect 19 0 21 0;
#X connect 20 0 14 0;
#X connect 20 1 14 2;
#X connect 21 0 14 0;
#X connect 21 1 14 3;
#X connect 22 0 25 0;
#X connect 22 1 25 1;
#X connect 23 0 25 0;
#X connect 23 1 25 2;
#X connect 24 0 25 0;
#X connect 24 1 25 3;
#X connect 25 0 3 0;
#X connect 26 0 25 0;
#X connect 26 1 25 4;
#X connect 27 0 22 0;
#X connect 28 0 26 0;
#X connect 29 0 24 0;
#X connect 30 0 23 0;
#X connect 31 0 25 0;
#X restore 160 387 pd synth-ctl-unit;
#X obj 256 250 ../../core/s_add-synth-core-001;
#N canvas 146 23 1066 306 synth-ctl-unit 0;
#X obj 449 184 r no4-adsyn01-lfo-s;
#X obj 496 205 r no4-adsyn01-lpfilter-s;
#X obj 21 234 outlet;
#X obj 281 234 outlet;
#X obj 449 234 outlet;
#X obj 645 234 outlet;
#X obj 691 234 outlet;
#X obj 737 234 outlet;
#X obj 783 234 outlet;
#X obj 496 234 outlet;
#X obj 645 35 r no4-adsyn01-amp_a-s;
#X obj 691 57 r no4-adsyn01-amp_d-s;
#X obj 737 80 r no4-adsyn01-amp_s-s;
#X obj 783 104 r no4-adsyn01-amp_r-s;
#X obj 21 139 pack 0 0 0 0;
#X obj 52 114 t b f;
#X obj 52 53 r no4-adsyn01-overtone-2;
#X obj 21 33 r no4-adsyn01-overtone-1;
#X obj 90 73 r no4-adsyn01-overtone-3;
#X obj 128 93 r no4-adsyn01-overtone-4;
#X obj 90 114 t b f;
#X obj 128 114 t b f;
#X obj 312 137 t b f;
#X obj 350 137 t b f;
#X obj 388 137 t b f;
#X obj 281 162 pack 0 0 0 0 0;
#X obj 426 137 t b f;
#X obj 312 53 r no4-adsyn01-overtone-vol_1;
#X obj 426 114 r no4-adsyn01-overtone-vol_4;
#X obj 388 93 r no4-adsyn01-overtone-vol_3;
#X obj 350 73 r no4-adsyn01-overtone-vol_2;
#X obj 281 33 r no4-adsyn01-Fundamental-vol;
#X connect 0 0 4 0;
#X connect 1 0 9 0;
#X connect 10 0 5 0;
#X connect 11 0 6 0;
#X connect 12 0 7 0;
#X connect 13 0 8 0;
#X connect 14 0 2 0;
#X connect 15 0 14 0;
#X connect 15 1 14 1;
#X connect 16 0 15 0;
#X connect 17 0 14 0;
#X connect 18 0 20 0;
#X connect 19 0 21 0;
#X connect 20 0 14 0;
#X connect 20 1 14 2;
#X connect 21 0 14 0;
#X connect 21 1 14 3;
#X connect 22 0 25 0;
#X connect 22 1 25 1;
#X connect 23 0 25 0;
#X connect 23 1 25 2;
#X connect 24 0 25 0;
#X connect 24 1 25 3;
#X connect 25 0 3 0;
#X connect 26 0 25 0;
#X connect 26 1 25 4;
#X connect 27 0 22 0;
#X connect 28 0 26 0;
#X connect 29 0 24 0;
#X connect 30 0 23 0;
#X connect 31 0 25 0;
#X restore 340 227 pd synth-ctl-unit;
#X obj 276 300 ../../core/s_add-synth-core-001;
#N canvas 146 23 1066 306 synth-ctl-unit 0;
#X obj 449 184 r no4-adsyn01-lfo-s;
#X obj 496 205 r no4-adsyn01-lpfilter-s;
#X obj 21 234 outlet;
#X obj 281 234 outlet;
#X obj 449 234 outlet;
#X obj 645 234 outlet;
#X obj 691 234 outlet;
#X obj 737 234 outlet;
#X obj 783 234 outlet;
#X obj 496 234 outlet;
#X obj 645 35 r no4-adsyn01-amp_a-s;
#X obj 691 57 r no4-adsyn01-amp_d-s;
#X obj 737 80 r no4-adsyn01-amp_s-s;
#X obj 783 104 r no4-adsyn01-amp_r-s;
#X obj 21 139 pack 0 0 0 0;
#X obj 52 114 t b f;
#X obj 52 53 r no4-adsyn01-overtone-2;
#X obj 21 33 r no4-adsyn01-overtone-1;
#X obj 90 73 r no4-adsyn01-overtone-3;
#X obj 128 93 r no4-adsyn01-overtone-4;
#X obj 90 114 t b f;
#X obj 128 114 t b f;
#X obj 312 137 t b f;
#X obj 350 137 t b f;
#X obj 388 137 t b f;
#X obj 281 162 pack 0 0 0 0 0;
#X obj 426 137 t b f;
#X obj 312 53 r no4-adsyn01-overtone-vol_1;
#X obj 426 114 r no4-adsyn01-overtone-vol_4;
#X obj 388 93 r no4-adsyn01-overtone-vol_3;
#X obj 350 73 r no4-adsyn01-overtone-vol_2;
#X obj 281 33 r no4-adsyn01-Fundamental-vol;
#X connect 0 0 4 0;
#X connect 1 0 9 0;
#X connect 10 0 5 0;
#X connect 11 0 6 0;
#X connect 12 0 7 0;
#X connect 13 0 8 0;
#X connect 14 0 2 0;
#X connect 15 0 14 0;
#X connect 15 1 14 1;
#X connect 16 0 15 0;
#X connect 17 0 14 0;
#X connect 18 0 20 0;
#X connect 19 0 21 0;
#X connect 20 0 14 0;
#X connect 20 1 14 2;
#X connect 21 0 14 0;
#X connect 21 1 14 3;
#X connect 22 0 25 0;
#X connect 22 1 25 1;
#X connect 23 0 25 0;
#X connect 23 1 25 2;
#X connect 24 0 25 0;
#X connect 24 1 25 3;
#X connect 25 0 3 0;
#X connect 26 0 25 0;
#X connect 26 1 25 4;
#X connect 27 0 22 0;
#X connect 28 0 26 0;
#X connect 29 0 24 0;
#X connect 30 0 23 0;
#X connect 31 0 25 0;
#X restore 360 277 pd synth-ctl-unit;
#X obj 296 350 ../../core/s_add-synth-core-001;
#N canvas 146 23 1066 306 synth-ctl-unit 0;
#X obj 449 184 r no4-adsyn01-lfo-s;
#X obj 496 205 r no4-adsyn01-lpfilter-s;
#X obj 21 234 outlet;
#X obj 281 234 outlet;
#X obj 449 234 outlet;
#X obj 645 234 outlet;
#X obj 691 234 outlet;
#X obj 737 234 outlet;
#X obj 783 234 outlet;
#X obj 496 234 outlet;
#X obj 645 35 r no4-adsyn01-amp_a-s;
#X obj 691 57 r no4-adsyn01-amp_d-s;
#X obj 737 80 r no4-adsyn01-amp_s-s;
#X obj 783 104 r no4-adsyn01-amp_r-s;
#X obj 21 139 pack 0 0 0 0;
#X obj 52 114 t b f;
#X obj 52 53 r no4-adsyn01-overtone-2;
#X obj 21 33 r no4-adsyn01-overtone-1;
#X obj 90 73 r no4-adsyn01-overtone-3;
#X obj 128 93 r no4-adsyn01-overtone-4;
#X obj 90 114 t b f;
#X obj 128 114 t b f;
#X obj 312 137 t b f;
#X obj 350 137 t b f;
#X obj 388 137 t b f;
#X obj 281 162 pack 0 0 0 0 0;
#X obj 426 137 t b f;
#X obj 312 53 r no4-adsyn01-overtone-vol_1;
#X obj 426 114 r no4-adsyn01-overtone-vol_4;
#X obj 388 93 r no4-adsyn01-overtone-vol_3;
#X obj 350 73 r no4-adsyn01-overtone-vol_2;
#X obj 281 33 r no4-adsyn01-Fundamental-vol;
#X connect 0 0 4 0;
#X connect 1 0 9 0;
#X connect 10 0 5 0;
#X connect 11 0 6 0;
#X connect 12 0 7 0;
#X connect 13 0 8 0;
#X connect 14 0 2 0;
#X connect 15 0 14 0;
#X connect 15 1 14 1;
#X connect 16 0 15 0;
#X connect 17 0 14 0;
#X connect 18 0 20 0;
#X connect 19 0 21 0;
#X connect 20 0 14 0;
#X connect 20 1 14 2;
#X connect 21 0 14 0;
#X connect 21 1 14 3;
#X connect 22 0 25 0;
#X connect 22 1 25 1;
#X connect 23 0 25 0;
#X connect 23 1 25 2;
#X connect 24 0 25 0;
#X connect 24 1 25 3;
#X connect 25 0 3 0;
#X connect 26 0 25 0;
#X connect 26 1 25 4;
#X connect 27 0 22 0;
#X connect 28 0 26 0;
#X connect 29 0 24 0;
#X connect 30 0 23 0;
#X connect 31 0 25 0;
#X restore 380 327 pd synth-ctl-unit;
#X obj 316 410 ../../core/s_add-synth-core-001;
#N canvas 146 23 1066 306 synth-ctl-unit 0;
#X obj 449 184 r no4-adsyn01-lfo-s;
#X obj 496 205 r no4-adsyn01-lpfilter-s;
#X obj 21 234 outlet;
#X obj 281 234 outlet;
#X obj 449 234 outlet;
#X obj 645 234 outlet;
#X obj 691 234 outlet;
#X obj 737 234 outlet;
#X obj 783 234 outlet;
#X obj 496 234 outlet;
#X obj 645 35 r no4-adsyn01-amp_a-s;
#X obj 691 57 r no4-adsyn01-amp_d-s;
#X obj 737 80 r no4-adsyn01-amp_s-s;
#X obj 783 104 r no4-adsyn01-amp_r-s;
#X obj 21 139 pack 0 0 0 0;
#X obj 52 114 t b f;
#X obj 52 53 r no4-adsyn01-overtone-2;
#X obj 21 33 r no4-adsyn01-overtone-1;
#X obj 90 73 r no4-adsyn01-overtone-3;
#X obj 128 93 r no4-adsyn01-overtone-4;
#X obj 90 114 t b f;
#X obj 128 114 t b f;
#X obj 312 137 t b f;
#X obj 350 137 t b f;
#X obj 388 137 t b f;
#X obj 281 162 pack 0 0 0 0 0;
#X obj 426 137 t b f;
#X obj 312 53 r no4-adsyn01-overtone-vol_1;
#X obj 426 114 r no4-adsyn01-overtone-vol_4;
#X obj 388 93 r no4-adsyn01-overtone-vol_3;
#X obj 350 73 r no4-adsyn01-overtone-vol_2;
#X obj 281 33 r no4-adsyn01-Fundamental-vol;
#X connect 0 0 4 0;
#X connect 1 0 9 0;
#X connect 10 0 5 0;
#X connect 11 0 6 0;
#X connect 12 0 7 0;
#X connect 13 0 8 0;
#X connect 14 0 2 0;
#X connect 15 0 14 0;
#X connect 15 1 14 1;
#X connect 16 0 15 0;
#X connect 17 0 14 0;
#X connect 18 0 20 0;
#X connect 19 0 21 0;
#X connect 20 0 14 0;
#X connect 20 1 14 2;
#X connect 21 0 14 0;
#X connect 21 1 14 3;
#X connect 22 0 25 0;
#X connect 22 1 25 1;
#X connect 23 0 25 0;
#X connect 23 1 25 2;
#X connect 24 0 25 0;
#X connect 24 1 25 3;
#X connect 25 0 3 0;
#X connect 26 0 25 0;
#X connect 26 1 25 4;
#X connect 27 0 22 0;
#X connect 28 0 26 0;
#X connect 29 0 24 0;
#X connect 30 0 23 0;
#X connect 31 0 25 0;
#X restore 400 387 pd synth-ctl-unit;
#X obj 486 250 ../../core/s_add-synth-core-001;
#N canvas 146 23 1066 306 synth-ctl-unit 0;
#X obj 449 184 r no4-adsyn01-lfo-s;
#X obj 496 205 r no4-adsyn01-lpfilter-s;
#X obj 21 234 outlet;
#X obj 281 234 outlet;
#X obj 449 234 outlet;
#X obj 645 234 outlet;
#X obj 691 234 outlet;
#X obj 737 234 outlet;
#X obj 783 234 outlet;
#X obj 496 234 outlet;
#X obj 645 35 r no4-adsyn01-amp_a-s;
#X obj 691 57 r no4-adsyn01-amp_d-s;
#X obj 737 80 r no4-adsyn01-amp_s-s;
#X obj 783 104 r no4-adsyn01-amp_r-s;
#X obj 21 139 pack 0 0 0 0;
#X obj 52 114 t b f;
#X obj 52 53 r no4-adsyn01-overtone-2;
#X obj 21 33 r no4-adsyn01-overtone-1;
#X obj 90 73 r no4-adsyn01-overtone-3;
#X obj 128 93 r no4-adsyn01-overtone-4;
#X obj 90 114 t b f;
#X obj 128 114 t b f;
#X obj 312 137 t b f;
#X obj 350 137 t b f;
#X obj 388 137 t b f;
#X obj 281 162 pack 0 0 0 0 0;
#X obj 426 137 t b f;
#X obj 312 53 r no4-adsyn01-overtone-vol_1;
#X obj 426 114 r no4-adsyn01-overtone-vol_4;
#X obj 388 93 r no4-adsyn01-overtone-vol_3;
#X obj 350 73 r no4-adsyn01-overtone-vol_2;
#X obj 281 33 r no4-adsyn01-Fundamental-vol;
#X connect 0 0 4 0;
#X connect 1 0 9 0;
#X connect 10 0 5 0;
#X connect 11 0 6 0;
#X connect 12 0 7 0;
#X connect 13 0 8 0;
#X connect 14 0 2 0;
#X connect 15 0 14 0;
#X connect 15 1 14 1;
#X connect 16 0 15 0;
#X connect 17 0 14 0;
#X connect 18 0 20 0;
#X connect 19 0 21 0;
#X connect 20 0 14 0;
#X connect 20 1 14 2;
#X connect 21 0 14 0;
#X connect 21 1 14 3;
#X connect 22 0 25 0;
#X connect 22 1 25 1;
#X connect 23 0 25 0;
#X connect 23 1 25 2;
#X connect 24 0 25 0;
#X connect 24 1 25 3;
#X connect 25 0 3 0;
#X connect 26 0 25 0;
#X connect 26 1 25 4;
#X connect 27 0 22 0;
#X connect 28 0 26 0;
#X connect 29 0 24 0;
#X connect 30 0 23 0;
#X connect 31 0 25 0;
#X restore 570 227 pd synth-ctl-unit;
#X obj 506 300 ../../core/s_add-synth-core-001;
#N canvas 146 23 1066 306 synth-ctl-unit 0;
#X obj 449 184 r no4-adsyn01-lfo-s;
#X obj 496 205 r no4-adsyn01-lpfilter-s;
#X obj 21 234 outlet;
#X obj 281 234 outlet;
#X obj 449 234 outlet;
#X obj 645 234 outlet;
#X obj 691 234 outlet;
#X obj 737 234 outlet;
#X obj 783 234 outlet;
#X obj 496 234 outlet;
#X obj 645 35 r no4-adsyn01-amp_a-s;
#X obj 691 57 r no4-adsyn01-amp_d-s;
#X obj 737 80 r no4-adsyn01-amp_s-s;
#X obj 783 104 r no4-adsyn01-amp_r-s;
#X obj 21 139 pack 0 0 0 0;
#X obj 52 114 t b f;
#X obj 52 53 r no4-adsyn01-overtone-2;
#X obj 21 33 r no4-adsyn01-overtone-1;
#X obj 90 73 r no4-adsyn01-overtone-3;
#X obj 128 93 r no4-adsyn01-overtone-4;
#X obj 90 114 t b f;
#X obj 128 114 t b f;
#X obj 312 137 t b f;
#X obj 350 137 t b f;
#X obj 388 137 t b f;
#X obj 281 162 pack 0 0 0 0 0;
#X obj 426 137 t b f;
#X obj 312 53 r no4-adsyn01-overtone-vol_1;
#X obj 426 114 r no4-adsyn01-overtone-vol_4;
#X obj 388 93 r no4-adsyn01-overtone-vol_3;
#X obj 350 73 r no4-adsyn01-overtone-vol_2;
#X obj 281 33 r no4-adsyn01-Fundamental-vol;
#X connect 0 0 4 0;
#X connect 1 0 9 0;
#X connect 10 0 5 0;
#X connect 11 0 6 0;
#X connect 12 0 7 0;
#X connect 13 0 8 0;
#X connect 14 0 2 0;
#X connect 15 0 14 0;
#X connect 15 1 14 1;
#X connect 16 0 15 0;
#X connect 17 0 14 0;
#X connect 18 0 20 0;
#X connect 19 0 21 0;
#X connect 20 0 14 0;
#X connect 20 1 14 2;
#X connect 21 0 14 0;
#X connect 21 1 14 3;
#X connect 22 0 25 0;
#X connect 22 1 25 1;
#X connect 23 0 25 0;
#X connect 23 1 25 2;
#X connect 24 0 25 0;
#X connect 24 1 25 3;
#X connect 25 0 3 0;
#X connect 26 0 25 0;
#X connect 26 1 25 4;
#X connect 27 0 22 0;
#X connect 28 0 26 0;
#X connect 29 0 24 0;
#X connect 30 0 23 0;
#X connect 31 0 25 0;
#X restore 590 277 pd synth-ctl-unit;
#X obj 526 350 ../../core/s_add-synth-core-001;
#N canvas 146 23 1066 306 synth-ctl-unit 0;
#X obj 449 184 r no4-adsyn01-lfo-s;
#X obj 496 205 r no4-adsyn01-lpfilter-s;
#X obj 21 234 outlet;
#X obj 281 234 outlet;
#X obj 449 234 outlet;
#X obj 645 234 outlet;
#X obj 691 234 outlet;
#X obj 737 234 outlet;
#X obj 783 234 outlet;
#X obj 496 234 outlet;
#X obj 645 35 r no4-adsyn01-amp_a-s;
#X obj 691 57 r no4-adsyn01-amp_d-s;
#X obj 737 80 r no4-adsyn01-amp_s-s;
#X obj 783 104 r no4-adsyn01-amp_r-s;
#X obj 21 139 pack 0 0 0 0;
#X obj 52 114 t b f;
#X obj 52 53 r no4-adsyn01-overtone-2;
#X obj 21 33 r no4-adsyn01-overtone-1;
#X obj 90 73 r no4-adsyn01-overtone-3;
#X obj 128 93 r no4-adsyn01-overtone-4;
#X obj 90 114 t b f;
#X obj 128 114 t b f;
#X obj 312 137 t b f;
#X obj 350 137 t b f;
#X obj 388 137 t b f;
#X obj 281 162 pack 0 0 0 0 0;
#X obj 426 137 t b f;
#X obj 312 53 r no4-adsyn01-overtone-vol_1;
#X obj 426 114 r no4-adsyn01-overtone-vol_4;
#X obj 388 93 r no4-adsyn01-overtone-vol_3;
#X obj 350 73 r no4-adsyn01-overtone-vol_2;
#X obj 281 33 r no4-adsyn01-Fundamental-vol;
#X connect 0 0 4 0;
#X connect 1 0 9 0;
#X connect 10 0 5 0;
#X connect 11 0 6 0;
#X connect 12 0 7 0;
#X connect 13 0 8 0;
#X connect 14 0 2 0;
#X connect 15 0 14 0;
#X connect 15 1 14 1;
#X connect 16 0 15 0;
#X connect 17 0 14 0;
#X connect 18 0 20 0;
#X connect 19 0 21 0;
#X connect 20 0 14 0;
#X connect 20 1 14 2;
#X connect 21 0 14 0;
#X connect 21 1 14 3;
#X connect 22 0 25 0;
#X connect 22 1 25 1;
#X connect 23 0 25 0;
#X connect 23 1 25 2;
#X connect 24 0 25 0;
#X connect 24 1 25 3;
#X connect 25 0 3 0;
#X connect 26 0 25 0;
#X connect 26 1 25 4;
#X connect 27 0 22 0;
#X connect 28 0 26 0;
#X connect 29 0 24 0;
#X connect 30 0 23 0;
#X connect 31 0 25 0;
#X restore 610 327 pd synth-ctl-unit;
#X obj 546 410 ../../core/s_add-synth-core-001;
#N canvas 146 23 1066 306 synth-ctl-unit 0;
#X obj 449 184 r no4-adsyn01-lfo-s;
#X obj 496 205 r no4-adsyn01-lpfilter-s;
#X obj 21 234 outlet;
#X obj 281 234 outlet;
#X obj 449 234 outlet;
#X obj 645 234 outlet;
#X obj 691 234 outlet;
#X obj 737 234 outlet;
#X obj 783 234 outlet;
#X obj 496 234 outlet;
#X obj 645 35 r no4-adsyn01-amp_a-s;
#X obj 691 57 r no4-adsyn01-amp_d-s;
#X obj 737 80 r no4-adsyn01-amp_s-s;
#X obj 783 104 r no4-adsyn01-amp_r-s;
#X obj 21 139 pack 0 0 0 0;
#X obj 52 114 t b f;
#X obj 52 53 r no4-adsyn01-overtone-2;
#X obj 21 33 r no4-adsyn01-overtone-1;
#X obj 90 73 r no4-adsyn01-overtone-3;
#X obj 128 93 r no4-adsyn01-overtone-4;
#X obj 90 114 t b f;
#X obj 128 114 t b f;
#X obj 312 137 t b f;
#X obj 350 137 t b f;
#X obj 388 137 t b f;
#X obj 281 162 pack 0 0 0 0 0;
#X obj 426 137 t b f;
#X obj 312 53 r no4-adsyn01-overtone-vol_1;
#X obj 426 114 r no4-adsyn01-overtone-vol_4;
#X obj 388 93 r no4-adsyn01-overtone-vol_3;
#X obj 350 73 r no4-adsyn01-overtone-vol_2;
#X obj 281 33 r no4-adsyn01-Fundamental-vol;
#X connect 0 0 4 0;
#X connect 1 0 9 0;
#X connect 10 0 5 0;
#X connect 11 0 6 0;
#X connect 12 0 7 0;
#X connect 13 0 8 0;
#X connect 14 0 2 0;
#X connect 15 0 14 0;
#X connect 15 1 14 1;
#X connect 16 0 15 0;
#X connect 17 0 14 0;
#X connect 18 0 20 0;
#X connect 19 0 21 0;
#X connect 20 0 14 0;
#X connect 20 1 14 2;
#X connect 21 0 14 0;
#X connect 21 1 14 3;
#X connect 22 0 25 0;
#X connect 22 1 25 1;
#X connect 23 0 25 0;
#X connect 23 1 25 2;
#X connect 24 0 25 0;
#X connect 24 1 25 3;
#X connect 25 0 3 0;
#X connect 26 0 25 0;
#X connect 26 1 25 4;
#X connect 27 0 22 0;
#X connect 28 0 26 0;
#X connect 29 0 24 0;
#X connect 30 0 23 0;
#X connect 31 0 25 0;
#X restore 630 387 pd synth-ctl-unit;
#X obj 726 250 ../../core/s_add-synth-core-001;
#N canvas 146 23 1066 306 synth-ctl-unit 0;
#X obj 449 184 r no4-adsyn01-lfo-s;
#X obj 496 205 r no4-adsyn01-lpfilter-s;
#X obj 21 234 outlet;
#X obj 281 234 outlet;
#X obj 449 234 outlet;
#X obj 645 234 outlet;
#X obj 691 234 outlet;
#X obj 737 234 outlet;
#X obj 783 234 outlet;
#X obj 496 234 outlet;
#X obj 645 35 r no4-adsyn01-amp_a-s;
#X obj 691 57 r no4-adsyn01-amp_d-s;
#X obj 737 80 r no4-adsyn01-amp_s-s;
#X obj 783 104 r no4-adsyn01-amp_r-s;
#X obj 21 139 pack 0 0 0 0;
#X obj 52 114 t b f;
#X obj 52 53 r no4-adsyn01-overtone-2;
#X obj 21 33 r no4-adsyn01-overtone-1;
#X obj 90 73 r no4-adsyn01-overtone-3;
#X obj 128 93 r no4-adsyn01-overtone-4;
#X obj 90 114 t b f;
#X obj 128 114 t b f;
#X obj 312 137 t b f;
#X obj 350 137 t b f;
#X obj 388 137 t b f;
#X obj 281 162 pack 0 0 0 0 0;
#X obj 426 137 t b f;
#X obj 312 53 r no4-adsyn01-overtone-vol_1;
#X obj 426 114 r no4-adsyn01-overtone-vol_4;
#X obj 388 93 r no4-adsyn01-overtone-vol_3;
#X obj 350 73 r no4-adsyn01-overtone-vol_2;
#X obj 281 33 r no4-adsyn01-Fundamental-vol;
#X connect 0 0 4 0;
#X connect 1 0 9 0;
#X connect 10 0 5 0;
#X connect 11 0 6 0;
#X connect 12 0 7 0;
#X connect 13 0 8 0;
#X connect 14 0 2 0;
#X connect 15 0 14 0;
#X connect 15 1 14 1;
#X connect 16 0 15 0;
#X connect 17 0 14 0;
#X connect 18 0 20 0;
#X connect 19 0 21 0;
#X connect 20 0 14 0;
#X connect 20 1 14 2;
#X connect 21 0 14 0;
#X connect 21 1 14 3;
#X connect 22 0 25 0;
#X connect 22 1 25 1;
#X connect 23 0 25 0;
#X connect 23 1 25 2;
#X connect 24 0 25 0;
#X connect 24 1 25 3;
#X connect 25 0 3 0;
#X connect 26 0 25 0;
#X connect 26 1 25 4;
#X connect 27 0 22 0;
#X connect 28 0 26 0;
#X connect 29 0 24 0;
#X connect 30 0 23 0;
#X connect 31 0 25 0;
#X restore 810 227 pd synth-ctl-unit;
#X obj 746 300 ../../core/s_add-synth-core-001;
#N canvas 146 23 1066 306 synth-ctl-unit 0;
#X obj 449 184 r no4-adsyn01-lfo-s;
#X obj 496 205 r no4-adsyn01-lpfilter-s;
#X obj 21 234 outlet;
#X obj 281 234 outlet;
#X obj 449 234 outlet;
#X obj 645 234 outlet;
#X obj 691 234 outlet;
#X obj 737 234 outlet;
#X obj 783 234 outlet;
#X obj 496 234 outlet;
#X obj 645 35 r no4-adsyn01-amp_a-s;
#X obj 691 57 r no4-adsyn01-amp_d-s;
#X obj 737 80 r no4-adsyn01-amp_s-s;
#X obj 783 104 r no4-adsyn01-amp_r-s;
#X obj 21 139 pack 0 0 0 0;
#X obj 52 114 t b f;
#X obj 52 53 r no4-adsyn01-overtone-2;
#X obj 21 33 r no4-adsyn01-overtone-1;
#X obj 90 73 r no4-adsyn01-overtone-3;
#X obj 128 93 r no4-adsyn01-overtone-4;
#X obj 90 114 t b f;
#X obj 128 114 t b f;
#X obj 312 137 t b f;
#X obj 350 137 t b f;
#X obj 388 137 t b f;
#X obj 281 162 pack 0 0 0 0 0;
#X obj 426 137 t b f;
#X obj 312 53 r no4-adsyn01-overtone-vol_1;
#X obj 426 114 r no4-adsyn01-overtone-vol_4;
#X obj 388 93 r no4-adsyn01-overtone-vol_3;
#X obj 350 73 r no4-adsyn01-overtone-vol_2;
#X obj 281 33 r no4-adsyn01-Fundamental-vol;
#X connect 0 0 4 0;
#X connect 1 0 9 0;
#X connect 10 0 5 0;
#X connect 11 0 6 0;
#X connect 12 0 7 0;
#X connect 13 0 8 0;
#X connect 14 0 2 0;
#X connect 15 0 14 0;
#X connect 15 1 14 1;
#X connect 16 0 15 0;
#X connect 17 0 14 0;
#X connect 18 0 20 0;
#X connect 19 0 21 0;
#X connect 20 0 14 0;
#X connect 20 1 14 2;
#X connect 21 0 14 0;
#X connect 21 1 14 3;
#X connect 22 0 25 0;
#X connect 22 1 25 1;
#X connect 23 0 25 0;
#X connect 23 1 25 2;
#X connect 24 0 25 0;
#X connect 24 1 25 3;
#X connect 25 0 3 0;
#X connect 26 0 25 0;
#X connect 26 1 25 4;
#X connect 27 0 22 0;
#X connect 28 0 26 0;
#X connect 29 0 24 0;
#X connect 30 0 23 0;
#X connect 31 0 25 0;
#X restore 830 277 pd synth-ctl-unit;
#X obj 766 350 ../../core/s_add-synth-core-001;
#N canvas 146 23 1066 306 synth-ctl-unit 0;
#X obj 449 184 r no4-adsyn01-lfo-s;
#X obj 496 205 r no4-adsyn01-lpfilter-s;
#X obj 21 234 outlet;
#X obj 281 234 outlet;
#X obj 449 234 outlet;
#X obj 645 234 outlet;
#X obj 691 234 outlet;
#X obj 737 234 outlet;
#X obj 783 234 outlet;
#X obj 496 234 outlet;
#X obj 645 35 r no4-adsyn01-amp_a-s;
#X obj 691 57 r no4-adsyn01-amp_d-s;
#X obj 737 80 r no4-adsyn01-amp_s-s;
#X obj 783 104 r no4-adsyn01-amp_r-s;
#X obj 21 139 pack 0 0 0 0;
#X obj 52 114 t b f;
#X obj 52 53 r no4-adsyn01-overtone-2;
#X obj 21 33 r no4-adsyn01-overtone-1;
#X obj 90 73 r no4-adsyn01-overtone-3;
#X obj 128 93 r no4-adsyn01-overtone-4;
#X obj 90 114 t b f;
#X obj 128 114 t b f;
#X obj 312 137 t b f;
#X obj 350 137 t b f;
#X obj 388 137 t b f;
#X obj 281 162 pack 0 0 0 0 0;
#X obj 426 137 t b f;
#X obj 312 53 r no4-adsyn01-overtone-vol_1;
#X obj 426 114 r no4-adsyn01-overtone-vol_4;
#X obj 388 93 r no4-adsyn01-overtone-vol_3;
#X obj 350 73 r no4-adsyn01-overtone-vol_2;
#X obj 281 33 r no4-adsyn01-Fundamental-vol;
#X connect 0 0 4 0;
#X connect 1 0 9 0;
#X connect 10 0 5 0;
#X connect 11 0 6 0;
#X connect 12 0 7 0;
#X connect 13 0 8 0;
#X connect 14 0 2 0;
#X connect 15 0 14 0;
#X connect 15 1 14 1;
#X connect 16 0 15 0;
#X connect 17 0 14 0;
#X connect 18 0 20 0;
#X connect 19 0 21 0;
#X connect 20 0 14 0;
#X connect 20 1 14 2;
#X connect 21 0 14 0;
#X connect 21 1 14 3;
#X connect 22 0 25 0;
#X connect 22 1 25 1;
#X connect 23 0 25 0;
#X connect 23 1 25 2;
#X connect 24 0 25 0;
#X connect 24 1 25 3;
#X connect 25 0 3 0;
#X connect 26 0 25 0;
#X connect 26 1 25 4;
#X connect 27 0 22 0;
#X connect 28 0 26 0;
#X connect 29 0 24 0;
#X connect 30 0 23 0;
#X connect 31 0 25 0;
#X restore 850 327 pd synth-ctl-unit;
#X obj 786 410 ../../core/s_add-synth-core-001;
#N canvas 146 23 1066 306 synth-ctl-unit 0;
#X obj 449 184 r no4-adsyn01-lfo-s;
#X obj 496 205 r no4-adsyn01-lpfilter-s;
#X obj 21 234 outlet;
#X obj 281 234 outlet;
#X obj 449 234 outlet;
#X obj 645 234 outlet;
#X obj 691 234 outlet;
#X obj 737 234 outlet;
#X obj 783 234 outlet;
#X obj 496 234 outlet;
#X obj 645 35 r no4-adsyn01-amp_a-s;
#X obj 691 57 r no4-adsyn01-amp_d-s;
#X obj 737 80 r no4-adsyn01-amp_s-s;
#X obj 783 104 r no4-adsyn01-amp_r-s;
#X obj 21 139 pack 0 0 0 0;
#X obj 52 114 t b f;
#X obj 52 53 r no4-adsyn01-overtone-2;
#X obj 21 33 r no4-adsyn01-overtone-1;
#X obj 90 73 r no4-adsyn01-overtone-3;
#X obj 128 93 r no4-adsyn01-overtone-4;
#X obj 90 114 t b f;
#X obj 128 114 t b f;
#X obj 312 137 t b f;
#X obj 350 137 t b f;
#X obj 388 137 t b f;
#X obj 281 162 pack 0 0 0 0 0;
#X obj 426 137 t b f;
#X obj 312 53 r no4-adsyn01-overtone-vol_1;
#X obj 426 114 r no4-adsyn01-overtone-vol_4;
#X obj 388 93 r no4-adsyn01-overtone-vol_3;
#X obj 350 73 r no4-adsyn01-overtone-vol_2;
#X obj 281 33 r no4-adsyn01-Fundamental-vol;
#X connect 0 0 4 0;
#X connect 1 0 9 0;
#X connect 10 0 5 0;
#X connect 11 0 6 0;
#X connect 12 0 7 0;
#X connect 13 0 8 0;
#X connect 14 0 2 0;
#X connect 15 0 14 0;
#X connect 15 1 14 1;
#X connect 16 0 15 0;
#X connect 17 0 14 0;
#X connect 18 0 20 0;
#X connect 19 0 21 0;
#X connect 20 0 14 0;
#X connect 20 1 14 2;
#X connect 21 0 14 0;
#X connect 21 1 14 3;
#X connect 22 0 25 0;
#X connect 22 1 25 1;
#X connect 23 0 25 0;
#X connect 23 1 25 2;
#X connect 24 0 25 0;
#X connect 24 1 25 3;
#X connect 25 0 3 0;
#X connect 26 0 25 0;
#X connect 26 1 25 4;
#X connect 27 0 22 0;
#X connect 28 0 26 0;
#X connect 29 0 24 0;
#X connect 30 0 23 0;
#X connect 31 0 25 0;
#X restore 870 387 pd synth-ctl-unit;
#X obj 630 53 unpack 0 0 0 0;
#X msg 630 -23 15 200 0.78 100;
#X connect 0 0 17 0;
#X connect 0 1 35 0;
#X connect 0 2 37 0;
#X connect 0 3 39 0;
#X connect 0 4 41 0;
#X connect 0 5 43 0;
#X connect 0 6 45 0;
#X connect 0 7 47 0;
#X connect 0 8 49 0;
#X connect 0 9 51 0;
#X connect 0 10 53 0;
#X connect 0 11 55 0;
#X connect 0 12 57 0;
#X connect 0 13 59 0;
#X connect 0 14 61 0;
#X connect 0 15 63 0;
#X connect 5 0 11 0;
#X connect 6 0 1 0;
#X connect 6 1 2 0;
#X connect 6 2 4 0;
#X connect 6 3 3 0;
#X connect 7 0 6 0;
#X connect 10 0 0 0;
#X connect 13 0 34 0;
#X connect 14 0 15 0;
#X connect 14 0 32 0;
#X connect 14 0 33 0;
#X connect 14 0 6 1;
#X connect 15 0 9 0;
#X connect 16 0 5 2;
#X connect 17 0 12 0;
#X connect 18 0 17 1;
#X connect 18 1 17 2;
#X connect 18 2 17 3;
#X connect 18 3 17 4;
#X connect 18 4 17 5;
#X connect 18 5 17 6;
#X connect 18 6 17 7;
#X connect 18 7 17 8;
#X connect 19 0 23 0;
#X connect 19 1 20 0;
#X connect 19 2 21 0;
#X connect 19 3 22 0;
#X connect 31 0 29 0;
#X connect 31 1 28 0;
#X connect 31 2 27 0;
#X connect 31 3 25 0;
#X connect 31 4 26 0;
#X connect 32 0 19 0;
#X connect 33 0 31 0;
#X connect 34 0 5 0;
#X connect 35 0 12 0;
#X connect 36 0 35 1;
#X connect 36 1 35 2;
#X connect 36 2 35 3;
#X connect 36 3 35 4;
#X connect 36 4 35 5;
#X connect 36 5 35 6;
#X connect 36 6 35 7;
#X connect 36 7 35 8;
#X connect 37 0 12 0;
#X connect 38 0 37 1;
#X connect 38 1 37 2;
#X connect 38 2 37 3;
#X connect 38 3 37 4;
#X connect 38 4 37 5;
#X connect 38 5 37 6;
#X connect 38 6 37 7;
#X connect 38 7 37 8;
#X connect 39 0 12 0;
#X connect 40 0 39 1;
#X connect 40 1 39 2;
#X connect 40 2 39 3;
#X connect 40 3 39 4;
#X connect 40 4 39 5;
#X connect 40 5 39 6;
#X connect 40 6 39 7;
#X connect 40 7 39 8;
#X connect 41 0 12 0;
#X connect 42 0 41 1;
#X connect 42 1 41 2;
#X connect 42 2 41 3;
#X connect 42 3 41 4;
#X connect 42 4 41 5;
#X connect 42 5 41 6;
#X connect 42 6 41 7;
#X connect 42 7 41 8;
#X connect 43 0 12 0;
#X connect 44 0 43 1;
#X connect 44 1 43 2;
#X connect 44 2 43 3;
#X connect 44 3 43 4;
#X connect 44 4 43 5;
#X connect 44 5 43 6;
#X connect 44 6 43 7;
#X connect 44 7 43 8;
#X connect 45 0 12 0;
#X connect 46 0 45 1;
#X connect 46 1 45 2;
#X connect 46 2 45 3;
#X connect 46 3 45 4;
#X connect 46 4 45 5;
#X connect 46 5 45 6;
#X connect 46 6 45 7;
#X connect 46 7 45 8;
#X connect 47 0 12 0;
#X connect 48 0 47 1;
#X connect 48 1 47 2;
#X connect 48 2 47 3;
#X connect 48 3 47 4;
#X connect 48 4 47 5;
#X connect 48 5 47 6;
#X connect 48 6 47 7;
#X connect 48 7 47 8;
#X connect 49 0 12 0;
#X connect 50 0 49 1;
#X connect 50 1 49 2;
#X connect 50 2 49 3;
#X connect 50 3 49 4;
#X connect 50 4 49 5;
#X connect 50 5 49 6;
#X connect 50 6 49 7;
#X connect 50 7 49 8;
#X connect 51 0 12 0;
#X connect 52 0 51 1;
#X connect 52 1 51 2;
#X connect 52 2 51 3;
#X connect 52 3 51 4;
#X connect 52 4 51 5;
#X connect 52 5 51 6;
#X connect 52 6 51 7;
#X connect 52 7 51 8;
#X connect 53 0 12 0;
#X connect 54 0 53 1;
#X connect 54 1 53 2;
#X connect 54 2 53 3;
#X connect 54 3 53 4;
#X connect 54 4 53 5;
#X connect 54 5 53 6;
#X connect 54 6 53 7;
#X connect 54 7 53 8;
#X connect 55 0 12 0;
#X connect 56 0 55 1;
#X connect 56 1 55 2;
#X connect 56 2 55 3;
#X connect 56 3 55 4;
#X connect 56 4 55 5;
#X connect 56 5 55 6;
#X connect 56 6 55 7;
#X connect 56 7 55 8;
#X connect 57 0 12 0;
#X connect 58 0 57 1;
#X connect 58 1 57 2;
#X connect 58 2 57 3;
#X connect 58 3 57 4;
#X connect 58 4 57 5;
#X connect 58 5 57 6;
#X connect 58 6 57 7;
#X connect 58 7 57 8;
#X connect 59 0 12 0;
#X connect 60 0 59 1;
#X connect 60 1 59 2;
#X connect 60 2 59 3;
#X connect 60 3 59 4;
#X connect 60 4 59 5;
#X connect 60 5 59 6;
#X connect 60 6 59 7;
#X connect 60 7 59 8;
#X connect 61 0 12 0;
#X connect 62 0 61 1;
#X connect 62 1 61 2;
#X connect 62 2 61 3;
#X connect 62 3 61 4;
#X connect 62 4 61 5;
#X connect 62 5 61 6;
#X connect 62 6 61 7;
#X connect 62 7 61 8;
#X connect 63 0 12 0;
#X connect 64 0 63 1;
#X connect 64 1 63 2;
#X connect 64 2 63 3;
#X connect 64 3 63 4;
#X connect 64 4 63 5;
#X connect 64 5 63 6;
#X connect 64 6 63 7;
#X connect 64 7 63 8;
#X connect 65 0 1 0;
#X connect 65 1 2 0;
#X connect 65 2 4 0;
#X connect 65 3 3 0;
#X connect 66 0 65 0;
#X coords 0 -1 1 1 230 140 2 0 0;
