#N canvas 135 27 196 195 10;
#X obj 46 33 receive fromGUI;
#X obj 46 64 send toNetwork;
#X obj 46 105 receive fromNetwork;
#X obj 46 131 send toGUI;
#X obj 204 29 list trim;
#N canvas 0 22 1138 534 tr-vol 0;
#X msg 46 145 list /tr-vol-1 \$1;
#X msg 110 195 list /tr-vol-2 \$1;
#X msg 175 247 list /tr-vol-3 \$1;
#X msg 240 303 list /tr-vol-4 \$1;
#X msg 304 145 list /tr-vol-5 \$1;
#X msg 369 195 list /tr-vol-6 \$1;
#X obj 46 49 inlet;
#X obj 46 394 outlet;
#X msg 434 245 list /tr-vol-7 \$1;
#X msg 498 302 list /tr-vol-8 \$1;
#X obj 46 85 route /tr-vol-1 /tr-vol-2 /tr-vol-3 /tr-vol-4 /tr-vol-5
/tr-vol-6 /tr-vol-7 /tr-vol-8 /tr-vol-9 /tr-vol-10 /tr-vol-11 /tr-vol-12
/tr-vol-13 /tr-vol-14 /tr-vol-15 /tr-vol-16, f 173;
#X msg 563 145 list /tr-vol-9 \$1;
#X msg 628 195 list /tr-vol-10 \$1;
#X msg 692 247 list /tr-vol-11 \$1;
#X msg 757 303 list /tr-vol-12 \$1;
#X msg 822 145 list /tr-vol-13 \$1;
#X msg 886 195 list /tr-vol-14 \$1;
#X msg 951 245 list /tr-vol-15 \$1;
#X msg 1016 302 list /tr-vol-16 \$1;
#X connect 0 0 7 0;
#X connect 1 0 7 0;
#X connect 2 0 7 0;
#X connect 3 0 7 0;
#X connect 4 0 7 0;
#X connect 5 0 7 0;
#X connect 6 0 10 0;
#X connect 8 0 7 0;
#X connect 9 0 7 0;
#X connect 10 0 0 0;
#X connect 10 1 1 0;
#X connect 10 2 2 0;
#X connect 10 3 3 0;
#X connect 10 4 4 0;
#X connect 10 5 5 0;
#X connect 10 6 8 0;
#X connect 10 7 9 0;
#X connect 10 8 11 0;
#X connect 10 9 12 0;
#X connect 10 10 13 0;
#X connect 10 11 14 0;
#X connect 10 12 15 0;
#X connect 10 13 16 0;
#X connect 10 14 17 0;
#X connect 10 15 18 0;
#X connect 11 0 7 0;
#X connect 12 0 7 0;
#X connect 13 0 7 0;
#X connect 14 0 7 0;
#X connect 15 0 7 0;
#X connect 16 0 7 0;
#X connect 17 0 7 0;
#X connect 18 0 7 0;
#X restore 204 70 pd tr-vol;
#N canvas 82 373 628 232 XYSlider 0;
#X obj 23 25 inlet;
#X obj 23 151 outlet;
#X obj 23 50 route /XYSlider-1 /XYSlider-2 /XYSlider-3 /XYSlider-4
/XYSlider-5 /XYSlider-6, f 77;
#X msg 23 81 list /XYSlider-1 \$1 \$2;
#X msg 99 111 list /XYSlider-2 \$1 \$2;
#X msg 176 81 list /XYSlider-3 \$1 \$2;
#X msg 252 111 list /XYSlider-4 \$1 \$2;
#X msg 329 81 list /XYSlider-5 \$1 \$2;
#X msg 405 111 list /XYSlider-6 \$1 \$2;
#X connect 0 0 2 0;
#X connect 2 0 3 0;
#X connect 2 1 4 0;
#X connect 2 2 5 0;
#X connect 2 3 6 0;
#X connect 2 4 7 0;
#X connect 2 5 8 0;
#X connect 3 0 1 0;
#X connect 4 0 1 0;
#X connect 5 0 1 0;
#X connect 6 0 1 0;
#X connect 7 0 1 0;
#X connect 8 0 1 0;
#X restore 265 70 pd XYSlider;
#X connect 0 0 1 0;
#X connect 2 0 3 0;
#X connect 4 0 5 0;
#X connect 4 0 6 0;
