#N canvas 506 169 683 508 12;
#X obj 18 355 sendOSC;
#X msg 37 226 disconnect;
#X msg 133 226 connect localhost 8031;
#X msg 111 325 send /tr-vol-1 \$1;
#X floatatom 111 304 5 0 0 0 - - -, f 5;
#X msg 18 197 connect 192.168.111.9 54322;
#N canvas 23 228 1137 257 tr-vol 0;
#X obj 10 9 inlet;
#X obj 10 96 s tr1_ctl_vol;
#X obj 75 124 s tr2_ctl_vol;
#X obj 141 154 s tr3_ctl_vol;
#X obj 207 182 s tr4_ctl_vol;
#X obj 273 93 s tr5_ctl_vol;
#X obj 339 122 s tr6_ctl_vol;
#X obj 10 41 OSCroute /tr-vol-1 /tr-vol-2 /tr-vol-3 /tr-vol-4 /tr-vol-5
/tr-vol-6 /tr-vol-7 /tr-vol-8 /tr-vol-9 /tr-vol-10 /tr-vol-11 /tr-vol-12
/tr-vol-13 /tr-vol-14 /tr-vol-15 /tr-vol-16, f 176;
#X obj 404 154 s tr7_ctl_vol;
#X obj 470 182 s tr8_ctl_vol;
#X obj 536 96 s tr9_ctl_vol;
#X obj 602 124 s tr10_ctl_vol;
#X obj 668 154 s tr11_ctl_vol;
#X obj 733 182 s tr12_ctl_vol;
#X obj 799 93 s tr13_ctl_vol;
#X obj 865 122 s tr14_ctl_vol;
#X obj 931 154 s tr15_ctl_vol;
#X obj 997 182 s tr16_ctl_vol;
#X connect 0 0 7 0;
#X connect 7 0 1 0;
#X connect 7 1 2 0;
#X connect 7 2 3 0;
#X connect 7 3 4 0;
#X connect 7 4 5 0;
#X connect 7 5 6 0;
#X connect 7 6 8 0;
#X connect 7 7 9 0;
#X connect 7 8 10 0;
#X connect 7 9 11 0;
#X connect 7 10 12 0;
#X connect 7 11 13 0;
#X connect 7 12 14 0;
#X connect 7 13 15 0;
#X connect 7 14 16 0;
#X connect 7 15 17 0;
#X restore 23 73 pd tr-vol;
#X obj 23 14 dumpOSC 8001;
#X connect 1 0 0 0;
#X connect 2 0 0 0;
#X connect 3 0 0 0;
#X connect 4 0 3 0;
#X connect 5 0 0 0;
#X connect 7 0 6 0;
