#N canvas 65 23 1213 715 10;
#X obj 2 19 cnv 15 151 83 empty empty OSC 0 6 0 14 -162280 -204800
0;
#X obj 154 19 cnv 15 144 63 empty empty noise 0 6 0 14 -128992 -204800
0;
#X obj 154 83 cnv 15 144 19 empty empty LFO 0 6 0 14 -191407 -4032
0;
#X obj 2 103 cnv 15 296 35 empty empty Amp 0 8 0 14 -128992 -204800
0;
#X obj 409 500 ../../core/s_j-synth-core-001;
#X obj 158 34 hsl 45 12 0 1 0 0 no15_j-synth-noisemix-s no15_j-synth-noisemix-r
mix 25 6 0 10 -262144 -1 -1 300 1;
#X floatatom 187 85 5 0 0 1 - no15_j-synth-lfo-r no15_j-synth-lfo-s,
f 5;
#N canvas 146 23 811 308 synth-ctl-unit 0;
#X obj 21 234 outlet;
#X obj 67 234 outlet;
#X obj 113 234 outlet;
#X obj 159 234 outlet;
#X obj 355 234 outlet;
#X obj 401 234 outlet;
#X obj 447 234 outlet;
#X obj 493 234 outlet;
#X obj 206 234 outlet;
#X obj 21 17 r no15_j-synth-slide-s;
#X obj 67 38 r no15_j-synth-oscmode-s;
#X obj 113 58 r no15_j-synth-oscsyncmode-s;
#X obj 159 82 r no15_j-synth-modulator-s;
#X obj 206 106 r no15_j-synth-modamp-s;
#X obj 539 124 r no15_j-synth-lfo-s;
#X obj 493 100 r no15_j-synth-lfowave-s;
#X obj 401 48 r no15_j-synth-noisefilter-s;
#X obj 447 70 r no15_j-synth-noiseadsr-s;
#X obj 585 158 r no15_j-synth-ampfilter-s;
#X obj 631 180 r no15_j-synth-ampadsr-s;
#X obj 355 19 r no15_j-synth-noisemix-s;
#X obj 539 234 outlet;
#X obj 585 234 outlet;
#X obj 631 234 outlet;
#X connect 9 0 0 0;
#X connect 10 0 1 0;
#X connect 11 0 2 0;
#X connect 12 0 3 0;
#X connect 13 0 8 0;
#X connect 14 0 21 0;
#X connect 15 0 7 0;
#X connect 16 0 5 0;
#X connect 17 0 6 0;
#X connect 18 0 22 0;
#X connect 19 0 23 0;
#X connect 20 0 4 0;
#X restore 481 481 pd synth-ctl-unit;
#X obj 409 308 r no15_j-synth-in;
#X obj 11 353 s~ no15_j-synth-out;
#X obj 409 652 throw~ no15_j-synth;
#X obj 11 331 catch~ no15_j-synth;
#X obj 65 20 hradio 10 1 1 5 no15_j-synth-slide-s no15_j-synth-slide-r
slide 55 4 0 9 -262144 -1 -1 2;
#X obj 3 47 hradio 15 1 0 2 no15_j-synth-oscmode-s no15_j-synth-oscmode-r
OSC-Mode 0 -8 0 9 -262144 -1 -1 0;
#X obj 56 47 hradio 15 1 0 4 no15_j-synth-oscsyncmode-s no15_j-synth-oscsyncmode-r
OSC-Sync-Mode 0 -8 0 9 -262144 -1 -1 1;
#X floatatom 3 85 5 0 0 1 Mod_amp(brightness) no15_j-synth-modamp-r
no15_j-synth-modamp-s, f 5;
#X floatatom 3 66 9 0 0 1 Modulator(osc2) no15_j-synth-modulator-r no15_j-synth-modulator-s
, f 9;
#X floatatom 208 33 5 0 0 2 hip - -, f 5;
#X floatatom 242 33 5 0 0 2 lop - -, f 5;
#X obj 221 86 hradio 15 1 0 2 no15_j-synth-lfowave-s no15_j-synth-lfowave-r
wave 33 8 0 10 -262144 -1 -1 0;
#X floatatom 156 63 5 0 0 2 A(m/s) - -, f 5;
#X floatatom 193 63 5 0 0 2 D(m/s) - -, f 5;
#X floatatom 265 63 5 0 0 2 R(m/s) - -, f 5;
#X floatatom 229 63 5 0 1 2 S(vol) - -, f 5;
#X obj 2 2 cnv 15 296 16 empty empty synth-15 120 7 0 14 -1 -262144
0;
#X obj 196 192 pack 0 0;
#X obj 196 214 s no15_j-synth-noisefilter-s;
#X obj 196 287 s no15_j-synth-noiseadsr-s;
#X obj 196 265 pack 0 0 0 0;
#X floatatom 35 121 5 0 0 2 hip - -, f 5;
#X floatatom 71 121 5 0 0 2 lop - -, f 5;
#X floatatom 116 121 5 0 0 2 A(m/s) - -, f 5;
#X floatatom 155 121 5 0 0 2 D(m/s) - -, f 5;
#X floatatom 236 121 5 0 0 2 R(m/s) - -, f 5;
#X floatatom 195 121 5 0 1 2 S(vol) - -, f 5;
#X obj 11 190 pack 0 0;
#X obj 11 263 pack 0 0 0 0;
#X obj 11 212 s no15_j-synth-ampfilter-s;
#X obj 11 285 s no15_j-synth-ampadsr-s;
#X obj 415 111 s no15_j-synth-slide-r;
#X obj 547 111 s no15_j-synth-oscmode-r;
#X obj 691 111 s no15_j-synth-oscsyncmode-r;
#X obj 859 111 s no15_j-synth-modulator-r;
#X obj 1015 111 s no15_j-synth-modamp-r;
#X obj 906 265 s no15_j-synth-lfo-r;
#X obj 1027 265 s no15_j-synth-lfowave-r;
#X obj 755 265 s no15_j-synth-noisemix-r;
#X obj 340 67 b;
#X obj 312 15 b;
#X obj 313 47 b;
#X obj 340 103 b;
#X obj 1076 73 sel 0;
#X msg 1076 94 1;
#X obj 902 73 sel 0 1 2 3;
#X msg 958 94 1;
#X msg 986 94 2;
#X msg 902 94 0;
#X msg 930 94 1.1;
#X obj 408 265 unpack 0 0;
#X obj 475 265 unpack 0 0 0 0;
#X obj 588 265 unpack 0 0;
#X obj 655 265 unpack 0 0 0 0;
#X obj 408 137 t b;
#X obj 415 31 t b;
#X obj 427 539 ../../core/s_j-synth-core-001;
#N canvas 146 23 811 308 synth-ctl-unit 0;
#X obj 21 234 outlet;
#X obj 67 234 outlet;
#X obj 113 234 outlet;
#X obj 159 234 outlet;
#X obj 355 234 outlet;
#X obj 401 234 outlet;
#X obj 447 234 outlet;
#X obj 493 234 outlet;
#X obj 206 234 outlet;
#X obj 21 17 r no15_j-synth-slide-s;
#X obj 67 38 r no15_j-synth-oscmode-s;
#X obj 113 58 r no15_j-synth-oscsyncmode-s;
#X obj 159 82 r no15_j-synth-modulator-s;
#X obj 206 106 r no15_j-synth-modamp-s;
#X obj 539 124 r no15_j-synth-lfo-s;
#X obj 493 100 r no15_j-synth-lfowave-s;
#X obj 401 48 r no15_j-synth-noisefilter-s;
#X obj 447 70 r no15_j-synth-noiseadsr-s;
#X obj 585 158 r no15_j-synth-ampfilter-s;
#X obj 631 180 r no15_j-synth-ampadsr-s;
#X obj 355 19 r no15_j-synth-noisemix-s;
#X obj 539 234 outlet;
#X obj 585 234 outlet;
#X obj 631 234 outlet;
#X connect 9 0 0 0;
#X connect 10 0 1 0;
#X connect 11 0 2 0;
#X connect 12 0 3 0;
#X connect 13 0 8 0;
#X connect 14 0 21 0;
#X connect 15 0 7 0;
#X connect 16 0 5 0;
#X connect 17 0 6 0;
#X connect 18 0 22 0;
#X connect 19 0 23 0;
#X connect 20 0 4 0;
#X restore 499 520 pd synth-ctl-unit;
#X obj 446 578 ../../core/s_j-synth-core-001;
#N canvas 146 23 811 308 synth-ctl-unit 0;
#X obj 21 234 outlet;
#X obj 67 234 outlet;
#X obj 113 234 outlet;
#X obj 159 234 outlet;
#X obj 355 234 outlet;
#X obj 401 234 outlet;
#X obj 447 234 outlet;
#X obj 493 234 outlet;
#X obj 206 234 outlet;
#X obj 21 17 r no15_j-synth-slide-s;
#X obj 67 38 r no15_j-synth-oscmode-s;
#X obj 113 58 r no15_j-synth-oscsyncmode-s;
#X obj 159 82 r no15_j-synth-modulator-s;
#X obj 206 106 r no15_j-synth-modamp-s;
#X obj 539 124 r no15_j-synth-lfo-s;
#X obj 493 100 r no15_j-synth-lfowave-s;
#X obj 401 48 r no15_j-synth-noisefilter-s;
#X obj 447 70 r no15_j-synth-noiseadsr-s;
#X obj 585 158 r no15_j-synth-ampfilter-s;
#X obj 631 180 r no15_j-synth-ampadsr-s;
#X obj 355 19 r no15_j-synth-noisemix-s;
#X obj 539 234 outlet;
#X obj 585 234 outlet;
#X obj 631 234 outlet;
#X connect 9 0 0 0;
#X connect 10 0 1 0;
#X connect 11 0 2 0;
#X connect 12 0 3 0;
#X connect 13 0 8 0;
#X connect 14 0 21 0;
#X connect 15 0 7 0;
#X connect 16 0 5 0;
#X connect 17 0 6 0;
#X connect 18 0 22 0;
#X connect 19 0 23 0;
#X connect 20 0 4 0;
#X restore 518 559 pd synth-ctl-unit;
#X obj 465 617 ../../core/s_j-synth-core-001;
#N canvas 146 23 811 308 synth-ctl-unit 0;
#X obj 21 234 outlet;
#X obj 67 234 outlet;
#X obj 113 234 outlet;
#X obj 159 234 outlet;
#X obj 355 234 outlet;
#X obj 401 234 outlet;
#X obj 447 234 outlet;
#X obj 493 234 outlet;
#X obj 206 234 outlet;
#X obj 21 17 r no15_j-synth-slide-s;
#X obj 67 38 r no15_j-synth-oscmode-s;
#X obj 113 58 r no15_j-synth-oscsyncmode-s;
#X obj 159 82 r no15_j-synth-modulator-s;
#X obj 206 106 r no15_j-synth-modamp-s;
#X obj 539 124 r no15_j-synth-lfo-s;
#X obj 493 100 r no15_j-synth-lfowave-s;
#X obj 401 48 r no15_j-synth-noisefilter-s;
#X obj 447 70 r no15_j-synth-noiseadsr-s;
#X obj 585 158 r no15_j-synth-ampfilter-s;
#X obj 631 180 r no15_j-synth-ampadsr-s;
#X obj 355 19 r no15_j-synth-noisemix-s;
#X obj 539 234 outlet;
#X obj 585 234 outlet;
#X obj 631 234 outlet;
#X connect 9 0 0 0;
#X connect 10 0 1 0;
#X connect 11 0 2 0;
#X connect 12 0 3 0;
#X connect 13 0 8 0;
#X connect 14 0 21 0;
#X connect 15 0 7 0;
#X connect 16 0 5 0;
#X connect 17 0 6 0;
#X connect 18 0 22 0;
#X connect 19 0 23 0;
#X connect 20 0 4 0;
#X restore 537 598 pd synth-ctl-unit;
#X msg 906 214 0;
#X msg 1027 214 0;
#X msg 547 75 0;
#X msg 691 75 1;
#X msg 859 75 1.49;
#X msg 1015 75 4;
#X msg 475 214 200 50 0 0;
#X obj 680 239 ../../core/m_ADSR-randomizer;
#X floatatom 276 121 3 0 5 2 - - -, f 3;
#X obj 276 106 bng 13 250 50 0 empty empty empty 17 7 0 10 -262144
-1 -1;
#X obj 488 239 ../../core/m_ADSR-randomizer;
#X floatatom 276 33 3 0 5 2 - - -, f 3;
#X obj 276 18 bng 13 250 50 0 empty empty empty 17 7 0 10 -262144 -1
-1;
#X obj 134 47 bng 15 250 50 0 empty empty empty 17 7 0 10 -262144 -1
-1;
#X obj 1001 29 r no15_j-synth-oscmode-s;
#X obj 948 10 r no15_j-synth-oscsyncmode-s;
#N canvas 0 22 834 341 OSCi-Randomizer 0;
#X obj 138 219 * 11.314;
#X obj 38 219 * 11.314;
#X obj 38 196 + 3;
#X obj 38 174 random 100;
#X obj 138 196 + 100;
#X obj 138 174 random 1000;
#X obj 38 248 expr if($f1 < 15000 \, $f1 \, 640);
#X obj 38 144 sel 0 1 2 3 4;
#X obj 38 120 random 5;
#X obj 65 198 bng 15 250 50 0 empty empty empty 17 7 0 10 -262144 -1
-1;
#X obj 178 198 bng 15 250 50 0 empty empty empty 17 7 0 10 -262144
-1 -1;
#X obj 271 197 bng 15 250 50 0 empty empty empty 17 7 0 10 -262144
-1 -1;
#X obj 228 174 random 100;
#X obj 228 219 * 3.14;
#X obj 228 196 / 128;
#X obj 71 74 bng 15 250 50 0 empty empty empty 17 7 0 10 -262144 -1
-1;
#X obj 38 74 + 1;
#X obj 38 95 gate 4;
#X obj 708 219 * 11.314;
#X obj 608 219 * 11.314;
#X obj 608 196 + 3;
#X obj 608 174 random 100;
#X obj 708 196 + 100;
#X obj 708 174 random 1000;
#X obj 608 248 expr if($f1 < 15000 \, $f1 \, 640);
#X obj 608 144 sel 0 1 2 3 4;
#X obj 608 120 random 5;
#X obj 635 198 bng 15 250 50 0 empty empty empty 17 7 0 10 -262144
-1 -1;
#X obj 748 198 bng 15 250 50 0 empty empty empty 17 7 0 10 -262144
-1 -1;
#X obj 461 197 bng 15 250 50 0 empty empty empty 17 7 0 10 -262144
-1 -1;
#X obj 418 174 random 100;
#X obj 451 74 bng 15 250 50 0 empty empty empty 17 7 0 10 -262144 -1
-1;
#X obj 418 74 + 1;
#X obj 418 196 / 100;
#X obj 418 95 gate 2;
#X text 81 96 OSC2;
#X text 462 96 Vol;
#X obj 36 16 inlet;
#X obj 116 16 inlet;
#X obj 186 16 inlet;
#X obj 38 283 outlet;
#X obj 418 283 outlet;
#X obj 228 248 expr if($f1 > 0.3 \, $f1 \, 0.314);
#X obj 418 248 expr if($f1 > 0.3 \, $f1 \, 0.314);
#X connect 0 0 6 0;
#X connect 1 0 6 0;
#X connect 2 0 1 0;
#X connect 3 0 2 0;
#X connect 3 0 9 0;
#X connect 4 0 0 0;
#X connect 5 0 4 0;
#X connect 5 0 10 0;
#X connect 6 0 40 0;
#X connect 7 0 3 0;
#X connect 7 1 3 0;
#X connect 7 2 3 0;
#X connect 7 3 5 0;
#X connect 7 4 5 0;
#X connect 8 0 7 0;
#X connect 12 0 11 0;
#X connect 12 0 14 0;
#X connect 13 0 42 0;
#X connect 14 0 13 0;
#X connect 15 0 17 1;
#X connect 16 0 17 0;
#X connect 17 0 8 0;
#X connect 17 1 12 0;
#X connect 18 0 24 0;
#X connect 19 0 24 0;
#X connect 20 0 19 0;
#X connect 21 0 20 0;
#X connect 21 0 27 0;
#X connect 22 0 18 0;
#X connect 23 0 22 0;
#X connect 23 0 28 0;
#X connect 24 0 41 0;
#X connect 25 0 21 0;
#X connect 25 1 23 0;
#X connect 25 2 21 0;
#X connect 25 3 23 0;
#X connect 25 4 23 0;
#X connect 26 0 25 0;
#X connect 30 0 29 0;
#X connect 30 0 33 0;
#X connect 31 0 34 1;
#X connect 32 0 34 0;
#X connect 33 0 43 0;
#X connect 34 0 30 0;
#X connect 34 1 26 0;
#X connect 37 0 15 0;
#X connect 37 0 31 0;
#X connect 38 0 16 0;
#X connect 39 0 32 0;
#X connect 42 0 40 0;
#X connect 43 0 41 0;
#X restore 896 50 pd OSCi-Randomizer;
#X obj 876 530 s no15_j-synth-ampadsr-set;
#X obj 704 530 s no15_j-synth-ampfilter-set;
#X obj 884 472 s no15_j-synth-noiseadsr-set;
#X obj 702 472 s no15_j-synth-noisefilter-set;
#X obj 655 188 r no15_j-synth-ampadsr-set;
#X obj 588 169 r no15_j-synth-ampfilter-set;
#X obj 474 188 r no15_j-synth-noiseadsr-set;
#X obj 408 169 r no15_j-synth-noisefilter-set;
#X obj 408 9 loadbang;
#X msg 408 214 10 25000;
#X msg 755 214 0;
#X msg 588 214 10 25000;
#X msg 655 214 15 120 0.8 10;
#X msg 702 443 100 2000;
#X msg 884 443 200 50 0.7 1000;
#X msg 704 502 20 15000;
#X msg 876 502 300 150 0 0;
#X msg 415 75 2;
#X obj 283 2 bng 14 250 50 0 no15_j-synth-store_update empty store -32
7 0 10 -262144 -261234 -262144;
#X obj 409 457 route 0 1 2 3;
#X obj 409 389 f;
#X obj 441 390 + 1;
#X text 459 367 <- reset;
#X msg 424 370 0;
#X obj 409 436 pack 0 0 0;
#X obj 409 328 unpack 0 0;
#X obj 409 348 t b a;
#X obj 441 412 mod 4;
#X connect 4 0 10 0;
#X connect 7 0 4 1;
#X connect 7 1 4 2;
#X connect 7 2 4 3;
#X connect 7 3 4 4;
#X connect 7 4 4 5;
#X connect 7 5 4 6;
#X connect 7 6 4 7;
#X connect 7 7 4 8;
#X connect 7 8 4 9;
#X connect 7 9 4 10;
#X connect 7 10 4 11;
#X connect 7 11 4 12;
#X connect 8 0 112 0;
#X connect 11 0 9 0;
#X connect 13 0 51 0;
#X connect 14 0 53 0;
#X connect 17 0 25 0;
#X connect 18 0 25 1;
#X connect 18 0 48 0;
#X connect 20 0 28 0;
#X connect 21 0 28 1;
#X connect 21 0 49 0;
#X connect 22 0 28 3;
#X connect 22 0 49 0;
#X connect 23 0 28 2;
#X connect 23 0 49 0;
#X connect 25 0 26 0;
#X connect 28 0 27 0;
#X connect 29 0 35 0;
#X connect 30 0 35 1;
#X connect 30 0 47 0;
#X connect 31 0 36 0;
#X connect 32 0 36 1;
#X connect 32 0 50 0;
#X connect 33 0 36 3;
#X connect 33 0 50 0;
#X connect 34 0 36 2;
#X connect 34 0 50 0;
#X connect 35 0 37 0;
#X connect 36 0 38 0;
#X connect 47 0 29 0;
#X connect 48 0 17 0;
#X connect 49 0 20 0;
#X connect 50 0 31 0;
#X connect 51 0 52 0;
#X connect 52 0 43 0;
#X connect 53 0 56 0;
#X connect 53 1 57 0;
#X connect 53 2 54 0;
#X connect 53 3 55 0;
#X connect 54 0 42 0;
#X connect 55 0 42 0;
#X connect 56 0 42 0;
#X connect 57 0 42 0;
#X connect 58 0 17 0;
#X connect 58 1 18 0;
#X connect 59 0 20 0;
#X connect 59 1 21 0;
#X connect 59 2 23 0;
#X connect 59 3 22 0;
#X connect 60 0 29 0;
#X connect 60 1 30 0;
#X connect 61 0 31 0;
#X connect 61 1 32 0;
#X connect 61 2 34 0;
#X connect 61 3 33 0;
#X connect 62 0 96 0;
#X connect 62 0 76 0;
#X connect 62 0 98 0;
#X connect 62 0 99 0;
#X connect 62 0 97 0;
#X connect 62 0 70 0;
#X connect 62 0 71 0;
#X connect 63 0 104 0;
#X connect 63 0 72 0;
#X connect 63 0 73 0;
#X connect 63 0 74 0;
#X connect 63 0 75 0;
#X connect 64 0 10 0;
#X connect 65 0 64 1;
#X connect 65 1 64 2;
#X connect 65 2 64 3;
#X connect 65 3 64 4;
#X connect 65 4 64 5;
#X connect 65 5 64 6;
#X connect 65 6 64 7;
#X connect 65 7 64 8;
#X connect 65 8 64 9;
#X connect 65 9 64 10;
#X connect 65 10 64 11;
#X connect 65 11 64 12;
#X connect 66 0 10 0;
#X connect 67 0 66 1;
#X connect 67 1 66 2;
#X connect 67 2 66 3;
#X connect 67 3 66 4;
#X connect 67 4 66 5;
#X connect 67 5 66 6;
#X connect 67 6 66 7;
#X connect 67 7 66 8;
#X connect 67 8 66 9;
#X connect 67 9 66 10;
#X connect 67 10 66 11;
#X connect 67 11 66 12;
#X connect 68 0 10 0;
#X connect 69 0 68 1;
#X connect 69 1 68 2;
#X connect 69 2 68 3;
#X connect 69 3 68 4;
#X connect 69 4 68 5;
#X connect 69 5 68 6;
#X connect 69 6 68 7;
#X connect 69 7 68 8;
#X connect 69 8 68 9;
#X connect 69 9 68 10;
#X connect 69 10 68 11;
#X connect 69 11 68 12;
#X connect 70 0 44 0;
#X connect 71 0 45 0;
#X connect 72 0 40 0;
#X connect 73 0 41 0;
#X connect 74 0 42 0;
#X connect 75 0 43 0;
#X connect 76 0 59 0;
#X connect 77 0 61 0;
#X connect 78 0 77 0;
#X connect 79 0 78 0;
#X connect 80 0 59 0;
#X connect 81 0 80 0;
#X connect 82 0 81 0;
#X connect 83 0 86 0;
#X connect 84 0 86 2;
#X connect 85 0 86 1;
#X connect 86 0 42 0;
#X connect 86 1 43 0;
#X connect 91 0 61 0;
#X connect 92 0 60 0;
#X connect 93 0 59 0;
#X connect 94 0 58 0;
#X connect 95 0 63 0;
#X connect 95 0 62 0;
#X connect 96 0 58 0;
#X connect 97 0 46 0;
#X connect 98 0 60 0;
#X connect 99 0 61 0;
#X connect 100 0 90 0;
#X connect 101 0 89 0;
#X connect 102 0 88 0;
#X connect 103 0 87 0;
#X connect 104 0 39 0;
#X connect 106 0 4 0;
#X connect 106 1 64 0;
#X connect 106 2 66 0;
#X connect 106 3 68 0;
#X connect 107 0 108 0;
#X connect 107 0 111 0;
#X connect 108 0 114 0;
#X connect 110 0 107 1;
#X connect 111 0 106 0;
#X connect 112 0 113 0;
#X connect 112 1 111 2;
#X connect 113 0 107 0;
#X connect 113 1 111 1;
#X connect 114 0 107 1;
#X coords 0 -1 1 1 300 140 2 0 0;
