#N canvas 93 23 1067 706 10;
#X obj 2 20 cnv 15 151 83 empty empty OSC 0 6 0 14 -162280 -204800
0;
#X obj 2 104 cnv 15 75 160 empty empty noise 0 6 0 14 -191407 -204800
0;
#X obj 78 104 cnv 15 75 31 empty empty LFO 0 6 0 14 -233017 -4032 0
;
#X obj 78 136 cnv 15 75 128 empty empty Amp 0 8 0 14 -162280 -204800
0;
#X obj 384 268 route 0 1 2 3 4 5 6 7 8 9 10 11 12 13 14 15;
#X obj 384 320 ../../core/s_j-synth-core-001;
#X obj 6 119 hsl 45 12 0 1 0 0 no1_j-synth-noisemix-s no1_j-synth-noisemix-r
mix 49 6 0 10 -262144 -1 -1 0 1;
#X floatatom 79 117 5 0 0 1 - no1_j-synth-lfo-r no1_j-synth-lfo-s;
#N canvas 146 23 811 308 synth-ctl-unit 0;
#X obj 21 234 outlet;
#X obj 67 234 outlet;
#X obj 113 234 outlet;
#X obj 159 234 outlet;
#X obj 355 234 outlet;
#X obj 401 234 outlet;
#X obj 447 234 outlet;
#X obj 493 234 outlet;
#X obj 206 234 outlet;
#X obj 21 17 r no1_j-synth-slide-s;
#X obj 67 38 r no1_j-synth-oscmode-s;
#X obj 113 58 r no1_j-synth-oscsyncmode-s;
#X obj 159 82 r no1_j-synth-modulator-s;
#X obj 206 106 r no1_j-synth-modamp-s;
#X obj 539 124 r no1_j-synth-lfo-s;
#X obj 493 100 r no1_j-synth-lfowave-s;
#X obj 401 48 r no1_j-synth-noisefilter-s;
#X obj 447 70 r no1_j-synth-noiseadsr-s;
#X obj 585 158 r no1_j-synth-ampfilter-s;
#X obj 631 180 r no1_j-synth-ampadsr-s;
#X obj 355 19 r no1_j-synth-noisemix-s;
#X obj 539 234 outlet;
#X obj 585 234 outlet;
#X obj 631 234 outlet;
#X connect 9 0 0 0;
#X connect 10 0 1 0;
#X connect 11 0 2 0;
#X connect 12 0 3 0;
#X connect 13 0 8 0;
#X connect 14 0 21 0;
#X connect 15 0 7 0;
#X connect 16 0 5 0;
#X connect 17 0 6 0;
#X connect 18 0 22 0;
#X connect 19 0 23 0;
#X connect 20 0 4 0;
#X restore 456 301 pd synth-ctl-unit;
#X obj 384 248 r no1_j-synth-in;
#X obj 204 299 s~ no1_j-synth-out;
#X obj 384 632 throw~ no1_j-synth;
#X obj 159 248 catch~ no1_j-synth;
#X obj 273 248 r tempo_m/s-16;
#X obj 65 21 hradio 10 1 1 5 no1_j-synth-slide-s no1_j-synth-slide-r
slide 55 4 0 9 -262144 -1 -1 2;
#X obj 3 48 hradio 15 1 0 2 no1_j-synth-oscmode-s no1_j-synth-oscmode-r
OSC-Mode 0 -8 0 9 -262144 -1 -1 0;
#X obj 56 48 hradio 15 1 0 4 no1_j-synth-oscsyncmode-s no1_j-synth-oscsyncmode-r
OSC-Sync-Mode 0 -8 0 9 -262144 -1 -1 0;
#X floatatom 3 86 5 0 0 1 Mod_amp(brightness) no1_j-synth-modamp-r
no1_j-synth-modamp-s;
#X floatatom 3 67 9 0 0 1 Modulator(osc2) no1_j-synth-modulator-r no1_j-synth-modulator-s
;
#X floatatom 4 136 5 0 0 1 hip - -;
#X floatatom 4 154 5 0 0 1 lop - -;
#X obj 115 118 hradio 15 1 0 2 no1_j-synth-lfowave-s no1_j-synth-lfowave-r
wave 0 -8 0 10 -262144 -1 -1 0;
#X floatatom 4 172 5 0 0 1 A(m/s) - -;
#X floatatom 4 190 5 0 0 1 D(m/s) - -;
#X floatatom 4 226 5 0 0 1 R(m/s) - -;
#X floatatom 4 208 5 0 1 1 S(vol) - -;
#N canvas 511 122 526 417 delay 0;
#X floatatom 202 55 5 0 1000 2 time - -;
#X obj 120 364 *~ 0.5;
#X floatatom 235 56 5 0 100 2 feedback - -;
#X obj 104 196 +~;
#X obj 18 365 outlet~;
#X obj 18 11 inlet~;
#X obj 131 11 inlet;
#X obj 196 11 inlet;
#X obj 235 11 inlet;
#X floatatom 184 193 5 0 0 0 - - -;
#X obj 184 171 / 100;
#X obj 33 101 expr 1-$f1;
#X obj 18 179 *~;
#X obj 61 179 *~;
#X obj 119 149 line~;
#X obj 33 149 line~;
#X obj 33 71 / 100;
#X obj 33 127 pack 0 500;
#X obj 119 127 pack 0 500;
#X msg 362 41 500;
#X msg 395 41 50;
#X obj 104 221 delwrite~ no1_j-synth-delay 1000;
#X obj 104 288 delread~ no1_j-synth-delay 500;
#X obj 332 11 loadbang;
#X obj 134 56 hsl 64 15 0 100 0 0 empty empty empty -2 -8 0 10 -262144
-1 -1 0 1;
#X msg 332 41 0;
#X connect 0 0 22 0;
#X connect 1 0 3 1;
#X connect 2 0 10 0;
#X connect 3 0 21 0;
#X connect 5 0 12 0;
#X connect 5 0 13 0;
#X connect 6 0 24 0;
#X connect 7 0 0 0;
#X connect 8 0 2 0;
#X connect 9 0 1 1;
#X connect 10 0 9 0;
#X connect 11 0 17 0;
#X connect 12 0 4 0;
#X connect 13 0 3 0;
#X connect 14 0 13 1;
#X connect 15 0 12 1;
#X connect 16 0 11 0;
#X connect 16 0 18 0;
#X connect 17 0 15 0;
#X connect 18 0 14 0;
#X connect 19 0 0 0;
#X connect 20 0 2 0;
#X connect 22 0 1 0;
#X connect 22 0 4 0;
#X connect 23 0 19 0;
#X connect 23 0 20 0;
#X connect 23 0 25 0;
#X connect 24 0 16 0;
#X connect 25 0 24 0;
#X coords 0 -1 1 1 151 34 1 130 40;
#X restore 2 265 pd delay;
#X obj 2 2 cnv 15 151 16 empty empty synth-1 45 7 0 14 -1 -262144 0
;
#X obj 2 340 pack 0 0;
#X obj 2 362 s no1_j-synth-noisefilter-s;
#X obj 2 435 s no1_j-synth-noiseadsr-s;
#X obj 2 413 pack 0 0 0 0;
#X floatatom 79 155 5 0 0 1 hip - -;
#X floatatom 79 173 5 0 0 1 lop - -;
#X floatatom 79 191 5 0 0 1 A(m/s) - -;
#X floatatom 79 209 5 0 0 1 D(m/s) - -;
#X floatatom 79 245 5 0 0 1 R(m/s) - -;
#X floatatom 79 227 5 0 1 1 S(vol) - -;
#X obj 177 340 pack 0 0;
#X obj 177 413 pack 0 0 0 0;
#X obj 177 362 s no1_j-synth-ampfilter-s;
#X obj 177 435 s no1_j-synth-ampadsr-s;
#X obj 245 101 s no1_j-synth-slide-r;
#X obj 377 101 s no1_j-synth-oscmode-r;
#X obj 521 101 s no1_j-synth-oscsyncmode-r;
#X obj 689 101 s no1_j-synth-modulator-r;
#X obj 845 101 s no1_j-synth-modamp-r;
#X obj 718 215 s no1_j-synth-lfo-r;
#X obj 839 215 s no1_j-synth-lfowave-r;
#X obj 567 215 s no1_j-synth-noisemix-r;
#X obj 189 138 b;
#X obj 166 119 b;
#X obj 165 155 b;
#X obj 189 174 b;
#X obj 906 63 sel 0;
#X msg 906 84 1;
#X obj 732 63 sel 0 1 2 3;
#X msg 788 84 1;
#X msg 816 84 2;
#X msg 732 84 0;
#X msg 760 84 1.1;
#X obj 238 215 unpack 0 0;
#X obj 305 215 unpack 0 0 0 0;
#X obj 400 215 unpack 0 0;
#X obj 467 215 unpack 0 0 0 0;
#X msg 238 164 10 25000;
#X msg 400 164 10 25000;
#X msg 467 164 30 200 0.3 500;
#X msg 305 164 200 50 0.3 10;
#X obj 238 -21 r l_bang;
#X obj 238 127 t b;
#X obj 245 21 t b;
#X obj 399 359 ../../core/s_j-synth-core-001;
#N canvas 146 23 811 308 synth-ctl-unit 0;
#X obj 21 234 outlet;
#X obj 67 234 outlet;
#X obj 113 234 outlet;
#X obj 159 234 outlet;
#X obj 355 234 outlet;
#X obj 401 234 outlet;
#X obj 447 234 outlet;
#X obj 493 234 outlet;
#X obj 206 234 outlet;
#X obj 21 17 r no1_j-synth-slide-s;
#X obj 67 38 r no1_j-synth-oscmode-s;
#X obj 113 58 r no1_j-synth-oscsyncmode-s;
#X obj 159 82 r no1_j-synth-modulator-s;
#X obj 206 106 r no1_j-synth-modamp-s;
#X obj 539 124 r no1_j-synth-lfo-s;
#X obj 493 100 r no1_j-synth-lfowave-s;
#X obj 401 48 r no1_j-synth-noisefilter-s;
#X obj 447 70 r no1_j-synth-noiseadsr-s;
#X obj 585 158 r no1_j-synth-ampfilter-s;
#X obj 631 180 r no1_j-synth-ampadsr-s;
#X obj 355 19 r no1_j-synth-noisemix-s;
#X obj 539 234 outlet;
#X obj 585 234 outlet;
#X obj 631 234 outlet;
#X connect 9 0 0 0;
#X connect 10 0 1 0;
#X connect 11 0 2 0;
#X connect 12 0 3 0;
#X connect 13 0 8 0;
#X connect 14 0 21 0;
#X connect 15 0 7 0;
#X connect 16 0 5 0;
#X connect 17 0 6 0;
#X connect 18 0 22 0;
#X connect 19 0 23 0;
#X connect 20 0 4 0;
#X restore 471 340 pd synth-ctl-unit;
#X obj 415 398 ../../core/s_j-synth-core-001;
#N canvas 146 23 811 308 synth-ctl-unit 0;
#X obj 21 234 outlet;
#X obj 67 234 outlet;
#X obj 113 234 outlet;
#X obj 159 234 outlet;
#X obj 355 234 outlet;
#X obj 401 234 outlet;
#X obj 447 234 outlet;
#X obj 493 234 outlet;
#X obj 206 234 outlet;
#X obj 21 17 r no1_j-synth-slide-s;
#X obj 67 38 r no1_j-synth-oscmode-s;
#X obj 113 58 r no1_j-synth-oscsyncmode-s;
#X obj 159 82 r no1_j-synth-modulator-s;
#X obj 206 106 r no1_j-synth-modamp-s;
#X obj 539 124 r no1_j-synth-lfo-s;
#X obj 493 100 r no1_j-synth-lfowave-s;
#X obj 401 48 r no1_j-synth-noisefilter-s;
#X obj 447 70 r no1_j-synth-noiseadsr-s;
#X obj 585 158 r no1_j-synth-ampfilter-s;
#X obj 631 180 r no1_j-synth-ampadsr-s;
#X obj 355 19 r no1_j-synth-noisemix-s;
#X obj 539 234 outlet;
#X obj 585 234 outlet;
#X obj 631 234 outlet;
#X connect 9 0 0 0;
#X connect 10 0 1 0;
#X connect 11 0 2 0;
#X connect 12 0 3 0;
#X connect 13 0 8 0;
#X connect 14 0 21 0;
#X connect 15 0 7 0;
#X connect 16 0 5 0;
#X connect 17 0 6 0;
#X connect 18 0 22 0;
#X connect 19 0 23 0;
#X connect 20 0 4 0;
#X restore 487 379 pd synth-ctl-unit;
#X obj 431 437 ../../core/s_j-synth-core-001;
#N canvas 146 23 811 308 synth-ctl-unit 0;
#X obj 21 234 outlet;
#X obj 67 234 outlet;
#X obj 113 234 outlet;
#X obj 159 234 outlet;
#X obj 355 234 outlet;
#X obj 401 234 outlet;
#X obj 447 234 outlet;
#X obj 493 234 outlet;
#X obj 206 234 outlet;
#X obj 21 17 r no1_j-synth-slide-s;
#X obj 67 38 r no1_j-synth-oscmode-s;
#X obj 113 58 r no1_j-synth-oscsyncmode-s;
#X obj 159 82 r no1_j-synth-modulator-s;
#X obj 206 106 r no1_j-synth-modamp-s;
#X obj 539 124 r no1_j-synth-lfo-s;
#X obj 493 100 r no1_j-synth-lfowave-s;
#X obj 401 48 r no1_j-synth-noisefilter-s;
#X obj 447 70 r no1_j-synth-noiseadsr-s;
#X obj 585 158 r no1_j-synth-ampfilter-s;
#X obj 631 180 r no1_j-synth-ampadsr-s;
#X obj 355 19 r no1_j-synth-noisemix-s;
#X obj 539 234 outlet;
#X obj 585 234 outlet;
#X obj 631 234 outlet;
#X connect 9 0 0 0;
#X connect 10 0 1 0;
#X connect 11 0 2 0;
#X connect 12 0 3 0;
#X connect 13 0 8 0;
#X connect 14 0 21 0;
#X connect 15 0 7 0;
#X connect 16 0 5 0;
#X connect 17 0 6 0;
#X connect 18 0 22 0;
#X connect 19 0 23 0;
#X connect 20 0 4 0;
#X restore 503 418 pd synth-ctl-unit;
#X obj 447 476 ../../core/s_j-synth-core-001;
#N canvas 146 23 811 308 synth-ctl-unit 0;
#X obj 21 234 outlet;
#X obj 67 234 outlet;
#X obj 113 234 outlet;
#X obj 159 234 outlet;
#X obj 355 234 outlet;
#X obj 401 234 outlet;
#X obj 447 234 outlet;
#X obj 493 234 outlet;
#X obj 206 234 outlet;
#X obj 21 17 r no1_j-synth-slide-s;
#X obj 67 38 r no1_j-synth-oscmode-s;
#X obj 113 58 r no1_j-synth-oscsyncmode-s;
#X obj 159 82 r no1_j-synth-modulator-s;
#X obj 206 106 r no1_j-synth-modamp-s;
#X obj 539 124 r no1_j-synth-lfo-s;
#X obj 493 100 r no1_j-synth-lfowave-s;
#X obj 401 48 r no1_j-synth-noisefilter-s;
#X obj 447 70 r no1_j-synth-noiseadsr-s;
#X obj 585 158 r no1_j-synth-ampfilter-s;
#X obj 631 180 r no1_j-synth-ampadsr-s;
#X obj 355 19 r no1_j-synth-noisemix-s;
#X obj 539 234 outlet;
#X obj 585 234 outlet;
#X obj 631 234 outlet;
#X connect 9 0 0 0;
#X connect 10 0 1 0;
#X connect 11 0 2 0;
#X connect 12 0 3 0;
#X connect 13 0 8 0;
#X connect 14 0 21 0;
#X connect 15 0 7 0;
#X connect 16 0 5 0;
#X connect 17 0 6 0;
#X connect 18 0 22 0;
#X connect 19 0 23 0;
#X connect 20 0 4 0;
#X restore 519 457 pd synth-ctl-unit;
#X obj 463 515 ../../core/s_j-synth-core-001;
#N canvas 146 23 811 308 synth-ctl-unit 0;
#X obj 21 234 outlet;
#X obj 67 234 outlet;
#X obj 113 234 outlet;
#X obj 159 234 outlet;
#X obj 355 234 outlet;
#X obj 401 234 outlet;
#X obj 447 234 outlet;
#X obj 493 234 outlet;
#X obj 206 234 outlet;
#X obj 21 17 r no1_j-synth-slide-s;
#X obj 67 38 r no1_j-synth-oscmode-s;
#X obj 113 58 r no1_j-synth-oscsyncmode-s;
#X obj 159 82 r no1_j-synth-modulator-s;
#X obj 206 106 r no1_j-synth-modamp-s;
#X obj 539 124 r no1_j-synth-lfo-s;
#X obj 493 100 r no1_j-synth-lfowave-s;
#X obj 401 48 r no1_j-synth-noisefilter-s;
#X obj 447 70 r no1_j-synth-noiseadsr-s;
#X obj 585 158 r no1_j-synth-ampfilter-s;
#X obj 631 180 r no1_j-synth-ampadsr-s;
#X obj 355 19 r no1_j-synth-noisemix-s;
#X obj 539 234 outlet;
#X obj 585 234 outlet;
#X obj 631 234 outlet;
#X connect 9 0 0 0;
#X connect 10 0 1 0;
#X connect 11 0 2 0;
#X connect 12 0 3 0;
#X connect 13 0 8 0;
#X connect 14 0 21 0;
#X connect 15 0 7 0;
#X connect 16 0 5 0;
#X connect 17 0 6 0;
#X connect 18 0 22 0;
#X connect 19 0 23 0;
#X connect 20 0 4 0;
#X restore 535 496 pd synth-ctl-unit;
#X obj 479 554 ../../core/s_j-synth-core-001;
#N canvas 146 23 811 308 synth-ctl-unit 0;
#X obj 21 234 outlet;
#X obj 67 234 outlet;
#X obj 113 234 outlet;
#X obj 159 234 outlet;
#X obj 355 234 outlet;
#X obj 401 234 outlet;
#X obj 447 234 outlet;
#X obj 493 234 outlet;
#X obj 206 234 outlet;
#X obj 21 17 r no1_j-synth-slide-s;
#X obj 67 38 r no1_j-synth-oscmode-s;
#X obj 113 58 r no1_j-synth-oscsyncmode-s;
#X obj 159 82 r no1_j-synth-modulator-s;
#X obj 206 106 r no1_j-synth-modamp-s;
#X obj 539 124 r no1_j-synth-lfo-s;
#X obj 493 100 r no1_j-synth-lfowave-s;
#X obj 401 48 r no1_j-synth-noisefilter-s;
#X obj 447 70 r no1_j-synth-noiseadsr-s;
#X obj 585 158 r no1_j-synth-ampfilter-s;
#X obj 631 180 r no1_j-synth-ampadsr-s;
#X obj 355 19 r no1_j-synth-noisemix-s;
#X obj 539 234 outlet;
#X obj 585 234 outlet;
#X obj 631 234 outlet;
#X connect 9 0 0 0;
#X connect 10 0 1 0;
#X connect 11 0 2 0;
#X connect 12 0 3 0;
#X connect 13 0 8 0;
#X connect 14 0 21 0;
#X connect 15 0 7 0;
#X connect 16 0 5 0;
#X connect 17 0 6 0;
#X connect 18 0 22 0;
#X connect 19 0 23 0;
#X connect 20 0 4 0;
#X restore 551 535 pd synth-ctl-unit;
#X obj 495 593 ../../core/s_j-synth-core-001;
#N canvas 146 23 811 308 synth-ctl-unit 0;
#X obj 21 234 outlet;
#X obj 67 234 outlet;
#X obj 113 234 outlet;
#X obj 159 234 outlet;
#X obj 355 234 outlet;
#X obj 401 234 outlet;
#X obj 447 234 outlet;
#X obj 493 234 outlet;
#X obj 206 234 outlet;
#X obj 21 17 r no1_j-synth-slide-s;
#X obj 67 38 r no1_j-synth-oscmode-s;
#X obj 113 58 r no1_j-synth-oscsyncmode-s;
#X obj 159 82 r no1_j-synth-modulator-s;
#X obj 206 106 r no1_j-synth-modamp-s;
#X obj 539 124 r no1_j-synth-lfo-s;
#X obj 493 100 r no1_j-synth-lfowave-s;
#X obj 401 48 r no1_j-synth-noisefilter-s;
#X obj 447 70 r no1_j-synth-noiseadsr-s;
#X obj 585 158 r no1_j-synth-ampfilter-s;
#X obj 631 180 r no1_j-synth-ampadsr-s;
#X obj 355 19 r no1_j-synth-noisemix-s;
#X obj 539 234 outlet;
#X obj 585 234 outlet;
#X obj 631 234 outlet;
#X connect 9 0 0 0;
#X connect 10 0 1 0;
#X connect 11 0 2 0;
#X connect 12 0 3 0;
#X connect 13 0 8 0;
#X connect 14 0 21 0;
#X connect 15 0 7 0;
#X connect 16 0 5 0;
#X connect 17 0 6 0;
#X connect 18 0 22 0;
#X connect 19 0 23 0;
#X connect 20 0 4 0;
#X restore 567 574 pd synth-ctl-unit;
#X obj 614 320 ../../core/s_j-synth-core-001;
#N canvas 146 23 811 308 synth-ctl-unit 0;
#X obj 21 234 outlet;
#X obj 67 234 outlet;
#X obj 113 234 outlet;
#X obj 159 234 outlet;
#X obj 355 234 outlet;
#X obj 401 234 outlet;
#X obj 447 234 outlet;
#X obj 493 234 outlet;
#X obj 206 234 outlet;
#X obj 21 17 r no1_j-synth-slide-s;
#X obj 67 38 r no1_j-synth-oscmode-s;
#X obj 113 58 r no1_j-synth-oscsyncmode-s;
#X obj 159 82 r no1_j-synth-modulator-s;
#X obj 206 106 r no1_j-synth-modamp-s;
#X obj 539 124 r no1_j-synth-lfo-s;
#X obj 493 100 r no1_j-synth-lfowave-s;
#X obj 401 48 r no1_j-synth-noisefilter-s;
#X obj 447 70 r no1_j-synth-noiseadsr-s;
#X obj 585 158 r no1_j-synth-ampfilter-s;
#X obj 631 180 r no1_j-synth-ampadsr-s;
#X obj 355 19 r no1_j-synth-noisemix-s;
#X obj 539 234 outlet;
#X obj 585 234 outlet;
#X obj 631 234 outlet;
#X connect 9 0 0 0;
#X connect 10 0 1 0;
#X connect 11 0 2 0;
#X connect 12 0 3 0;
#X connect 13 0 8 0;
#X connect 14 0 21 0;
#X connect 15 0 7 0;
#X connect 16 0 5 0;
#X connect 17 0 6 0;
#X connect 18 0 22 0;
#X connect 19 0 23 0;
#X connect 20 0 4 0;
#X restore 686 301 pd synth-ctl-unit;
#X obj 629 359 ../../core/s_j-synth-core-001;
#N canvas 146 23 811 308 synth-ctl-unit 0;
#X obj 21 234 outlet;
#X obj 67 234 outlet;
#X obj 113 234 outlet;
#X obj 159 234 outlet;
#X obj 355 234 outlet;
#X obj 401 234 outlet;
#X obj 447 234 outlet;
#X obj 493 234 outlet;
#X obj 206 234 outlet;
#X obj 21 17 r no1_j-synth-slide-s;
#X obj 67 38 r no1_j-synth-oscmode-s;
#X obj 113 58 r no1_j-synth-oscsyncmode-s;
#X obj 159 82 r no1_j-synth-modulator-s;
#X obj 206 106 r no1_j-synth-modamp-s;
#X obj 539 124 r no1_j-synth-lfo-s;
#X obj 493 100 r no1_j-synth-lfowave-s;
#X obj 401 48 r no1_j-synth-noisefilter-s;
#X obj 447 70 r no1_j-synth-noiseadsr-s;
#X obj 585 158 r no1_j-synth-ampfilter-s;
#X obj 631 180 r no1_j-synth-ampadsr-s;
#X obj 355 19 r no1_j-synth-noisemix-s;
#X obj 539 234 outlet;
#X obj 585 234 outlet;
#X obj 631 234 outlet;
#X connect 9 0 0 0;
#X connect 10 0 1 0;
#X connect 11 0 2 0;
#X connect 12 0 3 0;
#X connect 13 0 8 0;
#X connect 14 0 21 0;
#X connect 15 0 7 0;
#X connect 16 0 5 0;
#X connect 17 0 6 0;
#X connect 18 0 22 0;
#X connect 19 0 23 0;
#X connect 20 0 4 0;
#X restore 701 340 pd synth-ctl-unit;
#X obj 645 398 ../../core/s_j-synth-core-001;
#N canvas 146 23 811 308 synth-ctl-unit 0;
#X obj 21 234 outlet;
#X obj 67 234 outlet;
#X obj 113 234 outlet;
#X obj 159 234 outlet;
#X obj 355 234 outlet;
#X obj 401 234 outlet;
#X obj 447 234 outlet;
#X obj 493 234 outlet;
#X obj 206 234 outlet;
#X obj 21 17 r no1_j-synth-slide-s;
#X obj 67 38 r no1_j-synth-oscmode-s;
#X obj 113 58 r no1_j-synth-oscsyncmode-s;
#X obj 159 82 r no1_j-synth-modulator-s;
#X obj 206 106 r no1_j-synth-modamp-s;
#X obj 539 124 r no1_j-synth-lfo-s;
#X obj 493 100 r no1_j-synth-lfowave-s;
#X obj 401 48 r no1_j-synth-noisefilter-s;
#X obj 447 70 r no1_j-synth-noiseadsr-s;
#X obj 585 158 r no1_j-synth-ampfilter-s;
#X obj 631 180 r no1_j-synth-ampadsr-s;
#X obj 355 19 r no1_j-synth-noisemix-s;
#X obj 539 234 outlet;
#X obj 585 234 outlet;
#X obj 631 234 outlet;
#X connect 9 0 0 0;
#X connect 10 0 1 0;
#X connect 11 0 2 0;
#X connect 12 0 3 0;
#X connect 13 0 8 0;
#X connect 14 0 21 0;
#X connect 15 0 7 0;
#X connect 16 0 5 0;
#X connect 17 0 6 0;
#X connect 18 0 22 0;
#X connect 19 0 23 0;
#X connect 20 0 4 0;
#X restore 717 379 pd synth-ctl-unit;
#X obj 661 437 ../../core/s_j-synth-core-001;
#N canvas 146 23 811 308 synth-ctl-unit 0;
#X obj 21 234 outlet;
#X obj 67 234 outlet;
#X obj 113 234 outlet;
#X obj 159 234 outlet;
#X obj 355 234 outlet;
#X obj 401 234 outlet;
#X obj 447 234 outlet;
#X obj 493 234 outlet;
#X obj 206 234 outlet;
#X obj 21 17 r no1_j-synth-slide-s;
#X obj 67 38 r no1_j-synth-oscmode-s;
#X obj 113 58 r no1_j-synth-oscsyncmode-s;
#X obj 159 82 r no1_j-synth-modulator-s;
#X obj 206 106 r no1_j-synth-modamp-s;
#X obj 539 124 r no1_j-synth-lfo-s;
#X obj 493 100 r no1_j-synth-lfowave-s;
#X obj 401 48 r no1_j-synth-noisefilter-s;
#X obj 447 70 r no1_j-synth-noiseadsr-s;
#X obj 585 158 r no1_j-synth-ampfilter-s;
#X obj 631 180 r no1_j-synth-ampadsr-s;
#X obj 355 19 r no1_j-synth-noisemix-s;
#X obj 539 234 outlet;
#X obj 585 234 outlet;
#X obj 631 234 outlet;
#X connect 9 0 0 0;
#X connect 10 0 1 0;
#X connect 11 0 2 0;
#X connect 12 0 3 0;
#X connect 13 0 8 0;
#X connect 14 0 21 0;
#X connect 15 0 7 0;
#X connect 16 0 5 0;
#X connect 17 0 6 0;
#X connect 18 0 22 0;
#X connect 19 0 23 0;
#X connect 20 0 4 0;
#X restore 733 418 pd synth-ctl-unit;
#X obj 677 476 ../../core/s_j-synth-core-001;
#N canvas 146 23 811 308 synth-ctl-unit 0;
#X obj 21 234 outlet;
#X obj 67 234 outlet;
#X obj 113 234 outlet;
#X obj 159 234 outlet;
#X obj 355 234 outlet;
#X obj 401 234 outlet;
#X obj 447 234 outlet;
#X obj 493 234 outlet;
#X obj 206 234 outlet;
#X obj 21 17 r no1_j-synth-slide-s;
#X obj 67 38 r no1_j-synth-oscmode-s;
#X obj 113 58 r no1_j-synth-oscsyncmode-s;
#X obj 159 82 r no1_j-synth-modulator-s;
#X obj 206 106 r no1_j-synth-modamp-s;
#X obj 539 124 r no1_j-synth-lfo-s;
#X obj 493 100 r no1_j-synth-lfowave-s;
#X obj 401 48 r no1_j-synth-noisefilter-s;
#X obj 447 70 r no1_j-synth-noiseadsr-s;
#X obj 585 158 r no1_j-synth-ampfilter-s;
#X obj 631 180 r no1_j-synth-ampadsr-s;
#X obj 355 19 r no1_j-synth-noisemix-s;
#X obj 539 234 outlet;
#X obj 585 234 outlet;
#X obj 631 234 outlet;
#X connect 9 0 0 0;
#X connect 10 0 1 0;
#X connect 11 0 2 0;
#X connect 12 0 3 0;
#X connect 13 0 8 0;
#X connect 14 0 21 0;
#X connect 15 0 7 0;
#X connect 16 0 5 0;
#X connect 17 0 6 0;
#X connect 18 0 22 0;
#X connect 19 0 23 0;
#X connect 20 0 4 0;
#X restore 749 457 pd synth-ctl-unit;
#X obj 693 515 ../../core/s_j-synth-core-001;
#N canvas 146 23 811 308 synth-ctl-unit 0;
#X obj 21 234 outlet;
#X obj 67 234 outlet;
#X obj 113 234 outlet;
#X obj 159 234 outlet;
#X obj 355 234 outlet;
#X obj 401 234 outlet;
#X obj 447 234 outlet;
#X obj 493 234 outlet;
#X obj 206 234 outlet;
#X obj 21 17 r no1_j-synth-slide-s;
#X obj 67 38 r no1_j-synth-oscmode-s;
#X obj 113 58 r no1_j-synth-oscsyncmode-s;
#X obj 159 82 r no1_j-synth-modulator-s;
#X obj 206 106 r no1_j-synth-modamp-s;
#X obj 539 124 r no1_j-synth-lfo-s;
#X obj 493 100 r no1_j-synth-lfowave-s;
#X obj 401 48 r no1_j-synth-noisefilter-s;
#X obj 447 70 r no1_j-synth-noiseadsr-s;
#X obj 585 158 r no1_j-synth-ampfilter-s;
#X obj 631 180 r no1_j-synth-ampadsr-s;
#X obj 355 19 r no1_j-synth-noisemix-s;
#X obj 539 234 outlet;
#X obj 585 234 outlet;
#X obj 631 234 outlet;
#X connect 9 0 0 0;
#X connect 10 0 1 0;
#X connect 11 0 2 0;
#X connect 12 0 3 0;
#X connect 13 0 8 0;
#X connect 14 0 21 0;
#X connect 15 0 7 0;
#X connect 16 0 5 0;
#X connect 17 0 6 0;
#X connect 18 0 22 0;
#X connect 19 0 23 0;
#X connect 20 0 4 0;
#X restore 765 496 pd synth-ctl-unit;
#X obj 709 554 ../../core/s_j-synth-core-001;
#N canvas 146 23 811 308 synth-ctl-unit 0;
#X obj 21 234 outlet;
#X obj 67 234 outlet;
#X obj 113 234 outlet;
#X obj 159 234 outlet;
#X obj 355 234 outlet;
#X obj 401 234 outlet;
#X obj 447 234 outlet;
#X obj 493 234 outlet;
#X obj 206 234 outlet;
#X obj 21 17 r no1_j-synth-slide-s;
#X obj 67 38 r no1_j-synth-oscmode-s;
#X obj 113 58 r no1_j-synth-oscsyncmode-s;
#X obj 159 82 r no1_j-synth-modulator-s;
#X obj 206 106 r no1_j-synth-modamp-s;
#X obj 539 124 r no1_j-synth-lfo-s;
#X obj 493 100 r no1_j-synth-lfowave-s;
#X obj 401 48 r no1_j-synth-noisefilter-s;
#X obj 447 70 r no1_j-synth-noiseadsr-s;
#X obj 585 158 r no1_j-synth-ampfilter-s;
#X obj 631 180 r no1_j-synth-ampadsr-s;
#X obj 355 19 r no1_j-synth-noisemix-s;
#X obj 539 234 outlet;
#X obj 585 234 outlet;
#X obj 631 234 outlet;
#X connect 9 0 0 0;
#X connect 10 0 1 0;
#X connect 11 0 2 0;
#X connect 12 0 3 0;
#X connect 13 0 8 0;
#X connect 14 0 21 0;
#X connect 15 0 7 0;
#X connect 16 0 5 0;
#X connect 17 0 6 0;
#X connect 18 0 22 0;
#X connect 19 0 23 0;
#X connect 20 0 4 0;
#X restore 781 535 pd synth-ctl-unit;
#X obj 725 593 ../../core/s_j-synth-core-001;
#N canvas 146 23 811 308 synth-ctl-unit 0;
#X obj 21 234 outlet;
#X obj 67 234 outlet;
#X obj 113 234 outlet;
#X obj 159 234 outlet;
#X obj 355 234 outlet;
#X obj 401 234 outlet;
#X obj 447 234 outlet;
#X obj 493 234 outlet;
#X obj 206 234 outlet;
#X obj 21 17 r no1_j-synth-slide-s;
#X obj 67 38 r no1_j-synth-oscmode-s;
#X obj 113 58 r no1_j-synth-oscsyncmode-s;
#X obj 159 82 r no1_j-synth-modulator-s;
#X obj 206 106 r no1_j-synth-modamp-s;
#X obj 539 124 r no1_j-synth-lfo-s;
#X obj 493 100 r no1_j-synth-lfowave-s;
#X obj 401 48 r no1_j-synth-noisefilter-s;
#X obj 447 70 r no1_j-synth-noiseadsr-s;
#X obj 585 158 r no1_j-synth-ampfilter-s;
#X obj 631 180 r no1_j-synth-ampadsr-s;
#X obj 355 19 r no1_j-synth-noisemix-s;
#X obj 539 234 outlet;
#X obj 585 234 outlet;
#X obj 631 234 outlet;
#X connect 9 0 0 0;
#X connect 10 0 1 0;
#X connect 11 0 2 0;
#X connect 12 0 3 0;
#X connect 13 0 8 0;
#X connect 14 0 21 0;
#X connect 15 0 7 0;
#X connect 16 0 5 0;
#X connect 17 0 6 0;
#X connect 18 0 22 0;
#X connect 19 0 23 0;
#X connect 20 0 4 0;
#X restore 797 574 pd synth-ctl-unit;
#X msg 567 164 0;
#X msg 718 164 0;
#X msg 839 164 0;
#X msg 245 65 2;
#X msg 377 65 0;
#X msg 521 65 0;
#X connect 4 0 5 0;
#X connect 4 1 72 0;
#X connect 4 2 74 0;
#X connect 4 3 76 0;
#X connect 4 4 78 0;
#X connect 4 5 80 0;
#X connect 4 6 82 0;
#X connect 4 7 84 0;
#X connect 4 8 86 0;
#X connect 4 9 88 0;
#X connect 4 10 90 0;
#X connect 4 11 92 0;
#X connect 4 12 94 0;
#X connect 4 13 96 0;
#X connect 4 14 98 0;
#X connect 4 15 100 0;
#X connect 5 0 11 0;
#X connect 8 0 5 1;
#X connect 8 1 5 2;
#X connect 8 2 5 3;
#X connect 8 3 5 4;
#X connect 8 4 5 5;
#X connect 8 5 5 6;
#X connect 8 6 5 7;
#X connect 8 7 5 8;
#X connect 8 8 5 9;
#X connect 8 9 5 10;
#X connect 8 10 5 11;
#X connect 8 11 5 12;
#X connect 9 0 4 0;
#X connect 12 0 26 0;
#X connect 13 0 26 2;
#X connect 15 0 54 0;
#X connect 16 0 56 0;
#X connect 19 0 28 0;
#X connect 20 0 28 1;
#X connect 20 0 51 0;
#X connect 22 0 31 0;
#X connect 23 0 31 1;
#X connect 23 0 52 0;
#X connect 24 0 31 3;
#X connect 24 0 52 0;
#X connect 25 0 31 2;
#X connect 25 0 52 0;
#X connect 26 0 10 0;
#X connect 28 0 29 0;
#X connect 31 0 30 0;
#X connect 32 0 38 0;
#X connect 33 0 38 1;
#X connect 33 0 50 0;
#X connect 34 0 39 0;
#X connect 35 0 39 1;
#X connect 35 0 53 0;
#X connect 36 0 39 3;
#X connect 36 0 53 0;
#X connect 37 0 39 2;
#X connect 37 0 53 0;
#X connect 38 0 40 0;
#X connect 39 0 41 0;
#X connect 50 0 32 0;
#X connect 51 0 19 0;
#X connect 52 0 22 0;
#X connect 53 0 34 0;
#X connect 54 0 55 0;
#X connect 55 0 46 0;
#X connect 56 0 59 0;
#X connect 56 1 60 0;
#X connect 56 2 57 0;
#X connect 56 3 58 0;
#X connect 57 0 45 0;
#X connect 58 0 45 0;
#X connect 59 0 45 0;
#X connect 60 0 45 0;
#X connect 61 0 19 0;
#X connect 61 1 20 0;
#X connect 62 0 22 0;
#X connect 62 1 23 0;
#X connect 62 2 25 0;
#X connect 62 3 24 0;
#X connect 63 0 32 0;
#X connect 63 1 33 0;
#X connect 64 0 34 0;
#X connect 64 1 35 0;
#X connect 64 2 37 0;
#X connect 64 3 36 0;
#X connect 65 0 61 0;
#X connect 66 0 63 0;
#X connect 67 0 64 0;
#X connect 68 0 62 0;
#X connect 69 0 71 0;
#X connect 69 0 70 0;
#X connect 70 0 65 0;
#X connect 70 0 68 0;
#X connect 70 0 66 0;
#X connect 70 0 67 0;
#X connect 70 0 102 0;
#X connect 70 0 103 0;
#X connect 70 0 104 0;
#X connect 71 0 105 0;
#X connect 71 0 106 0;
#X connect 71 0 107 0;
#X connect 72 0 11 0;
#X connect 73 0 72 1;
#X connect 73 1 72 2;
#X connect 73 2 72 3;
#X connect 73 3 72 4;
#X connect 73 4 72 5;
#X connect 73 5 72 6;
#X connect 73 6 72 7;
#X connect 73 7 72 8;
#X connect 73 8 72 9;
#X connect 73 9 72 10;
#X connect 73 10 72 11;
#X connect 73 11 72 12;
#X connect 74 0 11 0;
#X connect 75 0 74 1;
#X connect 75 1 74 2;
#X connect 75 2 74 3;
#X connect 75 3 74 4;
#X connect 75 4 74 5;
#X connect 75 5 74 6;
#X connect 75 6 74 7;
#X connect 75 7 74 8;
#X connect 75 8 74 9;
#X connect 75 9 74 10;
#X connect 75 10 74 11;
#X connect 75 11 74 12;
#X connect 76 0 11 0;
#X connect 77 0 76 1;
#X connect 77 1 76 2;
#X connect 77 2 76 3;
#X connect 77 3 76 4;
#X connect 77 4 76 5;
#X connect 77 5 76 6;
#X connect 77 6 76 7;
#X connect 77 7 76 8;
#X connect 77 8 76 9;
#X connect 77 9 76 10;
#X connect 77 10 76 11;
#X connect 77 11 76 12;
#X connect 78 0 11 0;
#X connect 79 0 78 1;
#X connect 79 1 78 2;
#X connect 79 2 78 3;
#X connect 79 3 78 4;
#X connect 79 4 78 5;
#X connect 79 5 78 6;
#X connect 79 6 78 7;
#X connect 79 7 78 8;
#X connect 79 8 78 9;
#X connect 79 9 78 10;
#X connect 79 10 78 11;
#X connect 79 11 78 12;
#X connect 80 0 11 0;
#X connect 81 0 80 1;
#X connect 81 1 80 2;
#X connect 81 2 80 3;
#X connect 81 3 80 4;
#X connect 81 4 80 5;
#X connect 81 5 80 6;
#X connect 81 6 80 7;
#X connect 81 7 80 8;
#X connect 81 8 80 9;
#X connect 81 9 80 10;
#X connect 81 10 80 11;
#X connect 81 11 80 12;
#X connect 82 0 11 0;
#X connect 83 0 82 1;
#X connect 83 1 82 2;
#X connect 83 2 82 3;
#X connect 83 3 82 4;
#X connect 83 4 82 5;
#X connect 83 5 82 6;
#X connect 83 6 82 7;
#X connect 83 7 82 8;
#X connect 83 8 82 9;
#X connect 83 9 82 10;
#X connect 83 10 82 11;
#X connect 83 11 82 12;
#X connect 84 0 11 0;
#X connect 85 0 84 1;
#X connect 85 1 84 2;
#X connect 85 2 84 3;
#X connect 85 3 84 4;
#X connect 85 4 84 5;
#X connect 85 5 84 6;
#X connect 85 6 84 7;
#X connect 85 7 84 8;
#X connect 85 8 84 9;
#X connect 85 9 84 10;
#X connect 85 10 84 11;
#X connect 85 11 84 12;
#X connect 86 0 11 0;
#X connect 87 0 86 1;
#X connect 87 1 86 2;
#X connect 87 2 86 3;
#X connect 87 3 86 4;
#X connect 87 4 86 5;
#X connect 87 5 86 6;
#X connect 87 6 86 7;
#X connect 87 7 86 8;
#X connect 87 8 86 9;
#X connect 87 9 86 10;
#X connect 87 10 86 11;
#X connect 87 11 86 12;
#X connect 88 0 11 0;
#X connect 89 0 88 1;
#X connect 89 1 88 2;
#X connect 89 2 88 3;
#X connect 89 3 88 4;
#X connect 89 4 88 5;
#X connect 89 5 88 6;
#X connect 89 6 88 7;
#X connect 89 7 88 8;
#X connect 89 8 88 9;
#X connect 89 9 88 10;
#X connect 89 10 88 11;
#X connect 89 11 88 12;
#X connect 90 0 11 0;
#X connect 91 0 90 1;
#X connect 91 1 90 2;
#X connect 91 2 90 3;
#X connect 91 3 90 4;
#X connect 91 4 90 5;
#X connect 91 5 90 6;
#X connect 91 6 90 7;
#X connect 91 7 90 8;
#X connect 91 8 90 9;
#X connect 91 9 90 10;
#X connect 91 10 90 11;
#X connect 91 11 90 12;
#X connect 92 0 11 0;
#X connect 93 0 92 1;
#X connect 93 1 92 2;
#X connect 93 2 92 3;
#X connect 93 3 92 4;
#X connect 93 4 92 5;
#X connect 93 5 92 6;
#X connect 93 6 92 7;
#X connect 93 7 92 8;
#X connect 93 8 92 9;
#X connect 93 9 92 10;
#X connect 93 10 92 11;
#X connect 93 11 92 12;
#X connect 94 0 11 0;
#X connect 95 0 94 1;
#X connect 95 1 94 2;
#X connect 95 2 94 3;
#X connect 95 3 94 4;
#X connect 95 4 94 5;
#X connect 95 5 94 6;
#X connect 95 6 94 7;
#X connect 95 7 94 8;
#X connect 95 8 94 9;
#X connect 95 9 94 10;
#X connect 95 10 94 11;
#X connect 95 11 94 12;
#X connect 96 0 11 0;
#X connect 97 0 96 1;
#X connect 97 1 96 2;
#X connect 97 2 96 3;
#X connect 97 3 96 4;
#X connect 97 4 96 5;
#X connect 97 5 96 6;
#X connect 97 6 96 7;
#X connect 97 7 96 8;
#X connect 97 8 96 9;
#X connect 97 9 96 10;
#X connect 97 10 96 11;
#X connect 97 11 96 12;
#X connect 98 0 11 0;
#X connect 99 0 98 1;
#X connect 99 1 98 2;
#X connect 99 2 98 3;
#X connect 99 3 98 4;
#X connect 99 4 98 5;
#X connect 99 5 98 6;
#X connect 99 6 98 7;
#X connect 99 7 98 8;
#X connect 99 8 98 9;
#X connect 99 9 98 10;
#X connect 99 10 98 11;
#X connect 99 11 98 12;
#X connect 100 0 11 0;
#X connect 101 0 100 1;
#X connect 101 1 100 2;
#X connect 101 2 100 3;
#X connect 101 3 100 4;
#X connect 101 4 100 5;
#X connect 101 5 100 6;
#X connect 101 6 100 7;
#X connect 101 7 100 8;
#X connect 101 8 100 9;
#X connect 101 9 100 10;
#X connect 101 10 100 11;
#X connect 101 11 100 12;
#X connect 102 0 49 0;
#X connect 103 0 47 0;
#X connect 104 0 48 0;
#X connect 105 0 42 0;
#X connect 106 0 43 0;
#X connect 107 0 44 0;
#X coords 0 -1 1 1 155 300 2 0 0;
